<svg width="324" height="388" viewBox="0 0 324 388" fill="none" xmlns="http://www.w3.org/2000/svg">
<g clip-path="url(#clip0_572_958)" filter="url(#filter0_i_572_958)">
<rect width="324" height="387.22" fill="#C5DCFF"/>
<g filter="url(#filter1_d_572_958)">
<rect width="324" height="67.1707" fill="#E4EAF4"/>
<rect x="-0.658537" y="-0.658537" width="325.317" height="68.4878" stroke="white" stroke-width="1.31707"/>
<path d="M20.3498 28.1859V25.9375H33.6655V28.1859H28.2443V44H25.796V28.1859H20.3498ZM37.3236 44.2998C34.7004 44.2998 33.1514 42.8258 33.1514 40.6024C33.1514 38.3539 34.8253 36.9549 37.6983 36.73L41.5456 36.4302V36.0805C41.5456 34.0319 40.3215 33.3074 38.6726 33.3074C36.699 33.3074 35.5748 34.1818 35.5748 35.6558H33.5262C33.5262 33.1075 35.6247 31.4337 38.7726 31.4337C41.7955 31.4337 43.844 33.0326 43.844 36.3303V44H41.8454L41.5956 42.0264C40.971 43.4254 39.2972 44.2998 37.3236 44.2998ZM37.9981 42.4761C40.2215 42.4761 41.5706 41.0271 41.5706 38.7286V38.0791L38.4478 38.3289C36.3742 38.5288 35.5248 39.3282 35.5248 40.5274C35.5248 41.8265 36.4741 42.4761 37.9981 42.4761ZM49.4946 44H47.1462V25.6127H49.4946V37.5295L54.9159 31.7835H57.8638L53.1921 36.6551L57.8388 44H55.1407L51.5682 38.3539L49.4946 40.5274V44ZM64.5906 44.2998C60.9931 44.2998 58.5198 41.7016 58.5198 37.9042C58.5198 34.0819 60.9431 31.4337 64.4907 31.4337C67.9633 31.4337 70.2367 33.832 70.2367 37.4545V38.3289L60.7932 38.3539C60.9681 40.9271 62.3172 42.3511 64.6406 42.3511C66.4643 42.3511 67.6635 41.6017 68.0632 40.2026H70.2617C69.6621 42.8258 67.6135 44.2998 64.5906 44.2998ZM64.4907 33.4073C62.4421 33.4073 61.143 34.6315 60.8432 36.78H67.8883C67.8883 34.7564 66.5643 33.4073 64.4907 33.4073ZM75.2081 44H72.8597V31.7835H74.9832L75.2331 33.6572C76.0075 32.2581 77.5564 31.4337 79.2803 31.4337C82.503 31.4337 83.977 33.4073 83.977 36.5302V44H81.6286V37.0548C81.6286 34.5815 80.4794 33.5822 78.6807 33.5822C76.4822 33.5822 75.2081 35.1561 75.2081 37.5295V44ZM92.7118 28.1859V25.9375H106.028V28.1859H100.606V44H98.158V28.1859H92.7118ZM111.384 44.2998C107.787 44.2998 105.314 41.7016 105.314 37.9042C105.314 34.0819 107.737 31.4337 111.284 31.4337C114.757 31.4337 117.03 33.832 117.03 37.4545V38.3289L107.587 38.3539C107.762 40.9271 109.111 42.3511 111.434 42.3511C113.258 42.3511 114.457 41.6017 114.857 40.2026H117.055C116.456 42.8258 114.407 44.2998 111.384 44.2998ZM111.284 33.4073C109.236 33.4073 107.937 34.6315 107.637 36.78H114.682C114.682 34.7564 113.358 33.4073 111.284 33.4073ZM118.654 40.4525H120.903C120.903 41.7016 121.852 42.4511 123.401 42.4511C125.05 42.4511 125.999 41.7765 125.999 40.6523C125.999 39.8279 125.599 39.3282 124.325 39.0035L122.177 38.5038C120.003 37.9792 118.979 36.9049 118.979 35.1062C118.979 32.8577 120.878 31.4337 123.576 31.4337C126.249 31.4337 127.998 32.9327 128.048 35.2561H125.799C125.749 34.0319 124.925 33.2574 123.501 33.2574C122.027 33.2574 121.202 33.907 121.202 35.0312C121.202 35.8556 121.802 36.4053 123.001 36.705L125.15 37.2297C127.223 37.7293 128.248 38.6787 128.248 40.5024C128.248 42.8258 126.249 44.2998 123.351 44.2998C120.478 44.2998 118.654 42.7758 118.654 40.4525ZM134.299 44H131.951V33.7571H129.553V31.7835H131.951V27.9611H134.299V31.7835H136.698V33.7571H134.299V44Z" fill="black"/>
</g>
<path d="M24.4136 168.149C22.8807 168.149 21.4574 167.793 20.1434 167.081C18.8843 166.37 17.7893 165.412 16.8586 164.208C16.0374 163.058 15.2982 161.607 14.6411 159.856C13.9841 158.049 13.4912 156.188 13.1626 154.272C12.5055 151.042 12.0672 146.799 11.8478 141.544C11.793 140.285 11.7655 138.122 11.7652 135.057L11.7648 129.884C11.8195 128.405 11.8467 126.873 11.8466 125.285C11.8464 122.055 12.0378 119.51 12.4208 117.648C12.2566 116.827 12.1744 115.979 12.1743 115.103C12.1741 111.818 13.4056 109.163 15.8689 107.137C18.3322 105.111 21.4526 104.098 25.2299 104.098C26.6532 104.098 27.9671 104.481 29.1716 105.247C30.376 106.014 30.9782 106.972 30.9783 108.121C30.9784 108.669 30.7594 109.107 30.3215 109.435C29.8836 109.764 29.3361 109.928 28.6792 109.928C28.1318 109.928 27.5296 109.846 26.8726 109.682C26.2704 109.518 25.8872 109.271 25.723 108.943L24.6555 108.943L24.6554 108.779C22.6299 108.779 20.9329 109.217 19.5644 110.093C18.579 110.805 17.8127 111.982 17.2654 113.624C17.0465 114.226 16.8823 114.993 16.7729 115.923C16.6634 116.854 16.6088 117.703 16.6088 118.469C16.5541 118.907 16.5268 119.783 16.5269 121.097L16.6913 123.971L16.7737 126.763C16.7737 127.584 16.6643 128.542 16.4454 129.637C16.1718 131.005 16.035 131.963 16.0351 132.511L16.0352 134.482C16.0354 136.617 16.1177 139.546 16.2822 143.268C16.3372 146.388 16.6933 149.509 17.3504 152.629C17.8433 155.531 18.7742 157.994 20.1429 160.019C21.4569 162.1 23.2362 163.14 25.4807 163.139C26.4113 163.139 27.5609 162.647 28.9294 161.661C30.4074 160.676 31.4475 160.183 32.0497 160.183C32.8161 160.183 33.61 160.593 34.4312 161.414C34.4313 163.44 33.665 165 32.1323 166.095C30.709 167.081 29.012 167.71 27.0412 167.984C25.9464 168.094 25.0705 168.149 24.4136 168.149ZM45.4282 168.64C43.4574 168.64 41.7603 168.284 40.3369 167.573C39.461 167.08 39.023 166.505 39.0229 165.848C39.0229 165.191 39.1871 164.671 39.5155 164.288C39.844 163.85 40.3093 163.631 40.9114 163.631C41.4589 163.631 42.2527 163.85 43.2929 164.288C44.4425 164.726 45.1542 164.944 45.4279 164.944C46.468 164.944 47.3987 164.506 48.2198 163.63C49.0956 162.7 49.7798 161.495 50.2724 160.017C51.2576 157.28 51.7501 154.816 51.7499 152.627C51.7497 150.273 51.3663 147.809 50.5997 145.236C49.8879 142.609 48.9023 140.063 47.643 137.6L46.3289 134.972C44.9601 132.235 43.8925 130.073 43.1259 128.485C42.4141 126.898 41.7845 125.173 41.2369 123.312C40.4155 120.684 40.0048 118.139 40.0046 115.675C40.0044 113.705 40.3327 111.843 40.9895 110.091C41.7011 108.34 42.7411 106.861 44.1096 105.657C45.4781 104.343 47.1751 103.686 49.2006 103.686C50.186 103.686 51.1441 103.987 52.0748 104.589C53.0055 105.136 53.6624 105.848 54.0457 106.724L52.6499 108.448C51.2265 108.448 50.159 108.175 49.4473 107.627C48.4619 107.737 47.586 108.23 46.8197 109.106C46.1081 109.927 45.5607 110.885 45.1776 111.98C44.8492 113.02 44.6851 114.06 44.6851 115.1C44.6853 117.18 44.9592 119.315 45.5068 121.505C46.1091 123.64 46.8757 125.666 47.8065 127.582L53.5554 139.077C54.4862 141.048 55.2254 143.265 55.7731 145.729C56.3207 148.192 56.5946 150.655 56.5948 153.119C56.5951 156.732 55.7194 160.126 53.9678 163.302C53.0373 164.944 51.833 166.23 50.355 167.161C48.877 168.147 47.2347 168.64 45.4282 168.64ZM77.2596 168.145C75.7268 168.145 74.3034 167.789 72.9895 167.077C71.7303 166.366 70.6354 165.408 69.7046 164.204C68.8834 163.054 68.1442 161.603 67.4872 159.852C66.8301 158.045 66.3373 156.184 66.0087 154.268C65.3515 151.038 64.9132 146.795 64.6939 141.54C64.639 140.281 64.6115 138.119 64.6113 135.053L64.6109 129.88C64.6655 128.401 64.6928 126.869 64.6927 125.281C64.6924 122.051 64.8838 119.506 65.2669 117.644C65.1026 116.823 65.0204 115.975 65.0203 115.099C65.0201 111.814 66.2516 109.159 68.715 107.133C71.1783 105.107 74.2986 104.094 78.0759 104.094C79.4993 104.094 80.8132 104.477 82.0176 105.244C83.222 106.01 83.8243 106.968 83.8244 108.117C83.8244 108.665 83.6055 109.103 83.1675 109.431C82.7296 109.76 82.1822 109.924 81.5252 109.924C80.9778 109.924 80.3756 109.842 79.7187 109.678C79.1165 109.514 78.7333 109.267 78.569 108.939L77.5015 108.939L77.5015 108.775C75.476 108.775 73.7789 109.213 72.4104 110.089C71.4251 110.801 70.6587 111.978 70.1114 113.62C69.8925 114.222 69.7283 114.989 69.6189 115.92C69.5095 116.85 69.4548 117.699 69.4549 118.465C69.4001 118.903 69.3728 119.779 69.3729 121.093L69.5374 123.967L69.6197 126.759C69.6198 127.58 69.5104 128.538 69.2915 129.633C69.0178 131.001 68.8811 131.96 68.8811 132.507L68.8812 134.478C68.8814 136.613 68.9637 139.542 69.1283 143.264C69.1832 146.385 69.5393 149.505 70.1965 152.625C70.6894 155.527 71.6202 157.99 72.989 160.015C74.303 162.096 76.0822 163.136 78.3267 163.135C79.2574 163.135 80.407 162.643 81.7755 161.657C83.2535 160.672 84.2936 160.179 84.8958 160.179C85.6622 160.179 86.456 160.589 87.2772 161.41C87.2774 163.436 86.5111 164.996 84.9783 166.091C83.5551 167.077 81.858 167.706 79.8873 167.98C78.7924 168.09 77.9165 168.145 77.2596 168.145ZM116.965 167.649C114.94 167.649 113.297 167.102 112.038 166.007C111.272 165.405 110.888 164.666 110.888 163.79C110.888 163.243 110.97 162.887 111.135 162.722C111.299 162.503 111.682 162.394 112.284 162.394C112.722 162.394 113.105 162.558 113.434 162.886C113.872 163.324 114.282 163.68 114.666 163.954C115.104 164.173 115.651 164.282 116.308 164.282C119.647 164.282 121.317 161.189 121.316 155.003C121.316 152.156 121.289 150.048 121.234 148.68C121.179 147.311 121.015 145.614 120.741 143.589C120.083 139.209 118.605 135.596 116.306 132.75C116.196 132.804 115.922 132.832 115.484 132.832C114.773 132.832 114.171 132.695 113.678 132.421C113.185 132.148 112.939 131.737 112.939 131.19C112.939 130.259 113.842 128.89 115.648 127.084C116.36 126.317 116.962 125.359 117.455 124.21C117.947 123.005 118.193 121.828 118.193 120.679C118.193 118.434 117.947 115.943 117.454 113.206C117.18 111.564 116.714 110.223 116.057 109.183C115.455 108.142 114.743 107.622 113.922 107.622C113.32 107.623 112.773 107.842 112.28 108.28C111.842 108.718 111.514 109.265 111.295 109.922C111.131 110.579 110.802 111.154 110.31 111.646C109.817 112.084 109.215 112.303 108.503 112.303C107.901 112.304 107.353 112.112 106.861 111.729C106.423 111.291 106.149 110.743 106.039 110.087C106.806 108.17 107.873 106.638 109.242 105.488C110.665 104.338 112.28 103.763 114.086 103.763C115.345 103.763 116.495 104.173 117.535 104.994C118.575 105.761 119.397 106.801 119.999 108.115C120.546 109.374 121.012 110.852 121.395 112.549C121.779 114.191 122.025 115.751 122.135 117.229C122.244 118.27 122.299 119.775 122.299 121.746C122.299 122.512 122.162 123.279 121.889 124.045C121.67 124.811 121.424 125.414 121.15 125.852C120.876 126.454 120.438 127.111 119.836 127.823L118.605 129.629C119.864 130.395 120.986 131.709 121.972 133.57C122.957 135.432 123.696 137.594 124.189 140.057C125.065 144.656 125.504 148.762 125.504 152.375C125.504 154.619 125.368 156.809 125.094 158.944C124.711 161.243 123.917 163.242 122.713 164.939C121.564 166.745 119.648 167.649 116.965 167.649ZM144.637 166.579C138.013 166.58 134.7 151.197 134.697 120.431L134.697 117.803C134.697 113.697 135.162 110.495 136.092 108.196C136.53 106.882 137.214 105.896 138.145 105.239C139.13 104.528 140.307 104.172 141.676 104.172C149.504 104.171 153.42 118.103 153.422 145.968C153.423 159.708 150.494 166.579 144.637 166.579ZM145.376 162.802C146.251 162.802 146.963 161.981 147.51 160.338C148.441 157.93 149.097 153.906 149.48 148.267C149.59 147.063 149.644 145.667 149.644 144.079C149.644 140.411 149.479 135.539 149.15 129.463C148.767 123.715 147.918 118.514 146.604 113.861C146.001 111.507 145.18 109.646 144.14 108.277C143.154 106.909 142.032 106.142 140.773 105.978C139.952 106.635 139.377 107.319 139.049 108.031C138.775 108.743 138.638 109.701 138.638 110.905C138.638 113.916 138.693 116.599 138.803 118.953L138.968 127.164C138.968 127.876 139.105 129.19 139.379 131.106C139.653 133.131 139.79 134.472 139.79 135.129C139.79 136.443 139.872 139.454 140.037 144.162C140.256 148.651 140.776 152.784 141.598 156.561C141.981 158.477 142.501 160.01 143.158 161.16C143.815 162.255 144.554 162.802 145.376 162.802ZM164.451 167.399C163.629 167.399 162.918 167.18 162.315 166.742C161.768 166.25 161.494 165.647 161.494 164.936L161.494 164.607C162.589 163.293 163.684 161.104 164.778 158.038C165.271 156.56 165.681 155.492 166.01 154.835C169.239 147.663 171.593 141.204 173.07 135.455C174.548 129.707 175.287 123.63 175.286 117.225C175.286 110.382 173.971 106.879 171.344 106.715C170.468 107.153 169.866 108.439 169.537 110.574C169.428 111.45 169.154 112.189 168.716 112.792C168.279 113.339 167.731 113.613 167.074 113.613C165.76 113.613 165.103 112.765 165.103 111.067C165.103 108.495 165.869 106.332 167.402 104.58C168.223 103.704 169.208 103.266 170.358 103.266L170.358 103.184C172.219 103.184 173.78 103.594 175.039 104.415C175.969 104.963 176.845 106.003 177.667 107.536C178.105 108.411 178.515 109.862 178.899 111.888C179.008 112.873 179.063 113.804 179.063 114.68C179.118 115.501 179.173 116.103 179.228 116.486L179.228 118.703C179.228 122.426 178.763 126.477 177.833 130.856C176.957 135.181 175.89 139.041 174.631 142.435C173.208 146.322 171.785 150.017 170.362 153.521C168.665 157.791 167.434 161.076 166.667 163.375C169.788 162.828 173.018 162.554 176.357 162.553C177.507 163.374 178.082 164.141 178.082 164.852C178.082 165.509 177.726 166.112 177.014 166.659C175.974 166.659 174.496 166.741 172.58 166.906L170.773 166.988C168.474 167.262 166.367 167.399 164.451 167.399Z" fill="black"/>
<path d="M22.9987 241.21C22.4259 240.79 22.1395 240.332 22.1394 239.835C22.1394 239.3 22.3494 238.861 22.7694 238.518C22.0435 233.057 21.6802 226.794 21.6797 219.73C21.6795 217.591 21.7747 213.429 21.9651 207.243C22.156 206.67 22.5379 206.174 23.1106 205.754C23.7216 205.333 24.2944 205.123 24.829 205.123C25.3636 205.123 25.6882 205.142 25.8027 205.181C31.2635 206.708 36.018 209.667 40.0661 214.058C44.1142 218.411 46.2339 223.642 46.4253 229.752C46.4258 236.473 43.6385 240.693 38.0634 242.412C36.4596 242.908 34.7603 243.156 32.9656 243.157C31.209 243.157 29.6624 243.023 28.3259 242.756C28.4786 243.061 28.555 243.462 28.5551 243.959C28.5551 244.493 28.2306 244.99 27.5814 245.448C26.9705 245.945 26.2259 246.193 25.3476 246.193C24.5075 246.193 23.9728 245.678 23.7436 244.646L22.9987 241.21ZM26.4339 219.271C26.4344 225.954 26.8167 232.293 27.5809 238.288C28.4974 238.555 30.044 238.689 32.2206 238.689C34.3972 238.689 36.4784 238.326 38.464 237.6C40.4878 236.874 41.557 235.805 41.6714 234.392C41.7859 233.323 41.8431 232.502 41.8431 231.929C41.8427 226.965 40.5059 222.573 37.8325 218.755C35.1974 214.937 31.493 212.035 26.7196 210.049C26.529 214.555 26.4338 217.629 26.4339 219.271ZM64.9606 216.29C66.6408 216.29 67.481 217.722 67.4812 220.586C67.4812 220.891 67.4813 221.216 67.4813 221.559L67.367 225.569C67.3289 226.829 67.3099 228.07 67.31 229.292L68.1702 242.237C68.1703 243.192 67.1965 243.669 65.249 243.67C65.1345 243.67 64.8481 243.67 64.3898 243.67C63.9698 243.67 63.6643 243.498 63.4733 243.154C63.3205 242.811 63.3014 242.391 63.4159 241.894C63.5687 241.398 63.5304 240.844 63.3013 240.233C61.5448 242.104 59.2155 243.04 56.3133 243.04C50.929 243.041 48.2366 238.878 48.2359 230.554C48.2356 225.933 49.0945 222.439 50.8127 220.071C52.5692 217.704 55.0703 216.52 58.3161 216.52C59.8436 216.519 61.3711 216.787 62.8986 217.321C63.395 216.634 64.0823 216.29 64.9606 216.29ZM59.0039 221.503C56.8272 221.503 55.2044 222.133 54.1352 223.393C53.0661 224.654 52.5317 226.964 52.5319 230.324C52.5323 235.976 54.06 238.802 57.1149 238.801C57.9168 238.801 58.7951 238.439 59.7497 237.713C60.7425 236.987 61.4298 236.166 61.8116 235.25C62.537 233.188 62.8996 230.935 62.8994 228.491C62.8992 226.047 62.5936 224.271 61.9825 223.164C61.4097 222.056 60.4168 221.503 59.0039 221.503ZM72.8424 216.289L75.7064 216.346C76.3555 216.346 76.7183 216.327 76.7947 216.289L76.7938 204.547C76.8319 203.897 77.1565 203.344 77.7674 202.885C78.3784 202.427 78.9512 202.198 79.4858 202.198C80.0204 202.198 80.4404 202.37 80.746 202.713C81.0897 203.057 81.2424 203.592 81.2043 204.317C81.1662 205.043 81.1474 209.014 81.1479 216.231L87.8496 216.002C88.9952 216.002 89.5681 216.67 89.5682 218.006C89.5683 218.999 89.2628 219.744 88.6519 220.24C88.0791 220.737 87.4491 221.004 86.7617 221.042C86.1125 221.081 85.4634 221.1 84.8142 221.1L81.3201 221.043C81.3202 222.609 81.4732 225.702 81.7791 230.322C82.1231 234.943 82.3906 237.94 82.5817 239.315C82.7727 240.652 82.8109 241.53 82.6964 241.95C82.5819 242.332 82.3719 242.599 82.0664 242.752C81.57 242.981 80.9017 243.096 80.0616 243.096C79.2215 243.096 78.7251 242.638 78.5723 241.721C77.8081 236.719 77.2921 229.845 77.0242 221.1C76.6805 221.139 75.363 221.158 73.0718 221.158C70.7807 221.158 69.635 220.49 69.6349 219.154C69.6348 217.244 70.7039 216.289 72.8424 216.289ZM107.081 216.287C108.762 216.287 109.602 217.719 109.602 220.583C109.602 220.888 109.602 221.213 109.602 221.556L109.488 225.566C109.45 226.826 109.431 228.067 109.431 229.289L110.291 242.234C110.291 243.189 109.317 243.666 107.37 243.666C107.255 243.666 106.969 243.666 106.511 243.667C106.091 243.667 105.785 243.495 105.594 243.151C105.441 242.807 105.422 242.387 105.537 241.891C105.689 241.394 105.651 240.841 105.422 240.23C103.666 242.101 101.336 243.037 98.4341 243.037C93.0498 243.037 90.3574 238.875 90.3567 230.551C90.3564 225.93 91.2153 222.436 92.9335 220.068C94.6899 217.701 97.1911 216.517 100.437 216.516C101.964 216.516 103.492 216.783 105.019 217.318C105.516 216.631 106.203 216.287 107.081 216.287ZM101.125 221.5C98.948 221.5 97.3251 222.13 96.256 223.39C95.1869 224.65 94.6524 226.961 94.6527 230.321C94.6531 235.973 96.1808 238.799 99.2357 238.798C100.038 238.798 100.916 238.435 101.871 237.71C102.863 236.984 103.551 236.163 103.932 235.247C104.658 233.184 105.02 230.931 105.02 228.487C105.02 226.044 104.714 224.268 104.103 223.161C103.53 222.053 102.538 221.5 101.125 221.5ZM139.39 205.287C140.345 205.287 141.147 205.707 141.796 206.547C142.445 207.387 143.286 209.124 144.317 211.759C146.723 217.983 149.072 227.74 151.365 241.028C151.403 241.181 151.422 241.41 151.422 241.716C151.422 241.983 151.231 242.288 150.849 242.632C150.505 242.938 149.99 243.09 149.303 243.091C148.653 243.091 148.1 242.938 147.641 242.632C147.183 242.289 146.878 241.754 146.725 241.029C146.572 240.265 146.286 238.795 145.865 236.618C144.948 231.769 144.337 229.248 144.032 229.057C143.574 228.79 142.046 228.504 139.449 228.199C136.891 227.893 135.192 227.741 134.351 227.741C133.511 227.741 133.015 227.817 132.862 227.97C132.175 228.581 131.24 233.221 130.057 241.889C129.904 242.615 129.178 242.977 127.88 242.978C126.582 242.978 125.932 242.424 125.932 241.317C125.932 238.567 126.944 233.316 128.967 225.564C130.99 217.812 132.67 212.676 134.006 210.156C135.686 206.91 137.481 205.287 139.39 205.287ZM139.162 211.645C138.589 211.645 137.596 213.344 136.184 216.743C134.771 220.103 134.065 222.185 134.065 222.986C134.065 223.177 134.103 223.311 134.179 223.387C134.485 223.693 135.688 223.96 137.788 224.189C139.888 224.418 141.282 224.532 141.969 224.532C142.657 224.532 143.039 224.494 143.115 224.418C143.191 224.303 143.23 223.998 143.229 223.501C143.229 222.967 142.714 220.866 141.682 217.201C140.651 213.497 139.811 211.645 139.162 211.645ZM156.88 241.257L156.248 218.001C156.248 217.276 156.496 216.684 156.992 216.226C157.489 215.767 157.985 215.538 158.481 215.538C159.703 215.538 160.41 216.054 160.601 217.085C160.754 218.116 160.83 219.185 160.83 220.292C162.892 217.581 165.47 216.225 168.563 216.225C173.298 216.224 175.666 221.628 175.667 232.434C175.667 233.427 175.667 234.936 175.667 236.96C175.667 238.945 175.553 240.396 175.324 241.313C175.056 242.459 174.235 243.031 172.861 243.031C171.944 243.032 171.486 242.421 171.486 241.199L171.543 237.991C171.543 233.561 171.39 230.545 171.084 228.941C170.817 227.299 170.549 226 170.282 225.046C169.632 222.984 168.582 221.953 167.131 221.953C165.222 221.953 163.885 222.641 163.122 224.015C162.282 225.505 161.785 227.261 161.633 229.285C161.366 232.837 161.232 236.598 161.233 240.569C161.233 241.333 160.946 241.944 160.374 242.402C159.801 242.861 159.114 243.09 158.312 243.09C157.357 243.09 156.88 242.479 156.88 241.257ZM196.581 216.28C198.261 216.28 199.101 217.712 199.102 220.576C199.102 220.881 199.102 221.206 199.102 221.55L198.987 225.559C198.949 226.819 198.93 228.06 198.93 229.282L199.791 242.228C199.791 243.182 198.817 243.66 196.869 243.66C196.755 243.66 196.469 243.66 196.01 243.66C195.59 243.66 195.285 243.488 195.094 243.144C194.941 242.801 194.922 242.381 195.036 241.884C195.189 241.388 195.151 240.834 194.922 240.223C193.165 242.094 190.836 243.03 187.934 243.03C182.549 243.031 179.857 238.869 179.856 230.544C179.856 225.923 180.715 222.429 182.433 220.062C184.19 217.694 186.691 216.51 189.937 216.51C191.464 216.51 192.992 216.777 194.519 217.311C195.015 216.624 195.703 216.28 196.581 216.28ZM190.624 221.493C188.448 221.493 186.825 222.123 185.756 223.384C184.687 224.644 184.152 226.954 184.152 230.315C184.153 235.966 185.68 238.792 188.735 238.792C189.537 238.792 190.416 238.429 191.37 237.703C192.363 236.977 193.05 236.156 193.432 235.24C194.157 233.178 194.52 230.925 194.52 228.481C194.52 226.037 194.214 224.261 193.603 223.154C193.03 222.046 192.037 221.493 190.624 221.493ZM202.858 205.969C202.973 204.518 203.202 203.583 203.545 203.162C203.927 202.704 204.519 202.475 205.321 202.475C206.963 202.475 207.784 203.143 207.784 204.48C207.784 205.511 207.689 208.203 207.498 212.556C207.346 216.909 207.27 220.804 207.27 224.241C207.27 227.678 207.404 230.446 207.672 232.547C208.13 236.213 208.78 238.045 209.62 238.045C210.46 238.045 211.09 237.453 211.51 236.27C211.701 235.811 212.006 235.41 212.426 235.067C212.846 234.685 213.381 234.494 214.03 234.494C215.366 234.494 216.035 235.62 216.035 237.873C216.035 239.095 215.367 240.317 214.03 241.539C212.732 242.723 211.434 243.315 210.136 243.315C208.837 243.315 207.787 243.105 206.985 242.685C206.221 242.227 205.591 241.559 205.095 240.681C204.636 239.802 204.255 238.962 203.949 238.16C203.682 237.32 203.491 236.308 203.376 235.125C203.147 233.215 202.975 230.16 202.86 225.96C202.783 221.721 202.745 217.692 202.744 213.874C202.744 210.017 202.782 207.382 202.858 205.969ZM236.518 216.563C237.014 216.563 237.492 216.735 237.95 217.079C238.447 217.422 238.695 217.804 238.695 218.224C238.695 219.332 237.072 225.327 233.827 236.211C230.582 247.094 228.177 254.731 226.612 259.123C226.268 260.154 225.734 260.67 225.008 260.67C224.283 260.67 223.71 260.403 223.29 259.868C222.87 259.372 222.659 258.627 222.659 257.634C222.659 256.641 223.289 254.255 224.549 250.474C225.847 246.732 226.63 244.345 226.897 243.314C225.942 241.71 222.715 233.691 217.215 219.257C217.139 219.066 217.1 218.818 217.1 218.512C217.1 218.207 217.329 217.806 217.788 217.309C218.246 216.813 218.876 216.565 219.678 216.565C220.48 216.565 221.129 216.966 221.625 217.767C222.16 219.142 223.039 221.548 224.261 224.984C225.483 228.383 226.419 230.846 227.068 232.373C227.756 233.901 228.405 235.485 229.016 237.127C229.55 235.333 230.467 231.858 231.765 226.702C233.063 221.509 233.807 218.549 233.998 217.824C234.151 216.984 234.991 216.564 236.518 216.563ZM243.441 223.551C243.441 221.298 244.243 219.503 245.846 218.167C247.45 216.83 249.302 216.162 251.402 216.161C253.541 216.161 255.584 216.543 257.531 217.306C259.479 218.07 260.453 219.082 260.453 220.342C260.453 220.991 260.205 221.507 259.708 221.889C259.212 222.271 258.773 222.462 258.391 222.462C258.047 222.462 257.761 222.462 257.532 222.462C257.341 222.423 256.577 222.061 255.24 221.374C253.942 220.686 252.739 220.343 251.632 220.343C250.524 220.343 249.57 220.629 248.768 221.202C248.004 221.737 247.622 222.539 247.622 223.608C247.622 224.677 248.062 225.517 248.94 226.128C249.857 226.739 251.441 227.274 253.694 227.732C255.947 228.152 257.666 228.762 258.85 229.564C260.072 230.366 260.683 231.855 260.683 234.032C260.683 237.201 259.843 239.455 258.163 240.791C256.521 242.09 254.516 242.739 252.149 242.739C249.781 242.739 247.757 242.415 246.077 241.766C244.435 241.117 243.614 240.143 243.614 238.845C243.614 237.355 244.358 236.611 245.848 236.611C246.23 236.611 247.07 236.878 248.368 237.412C249.666 237.947 250.946 238.214 252.206 238.214C253.504 238.214 254.478 237.813 255.127 237.011C255.814 236.171 256.158 235.216 256.158 234.147C256.158 233.078 255.719 232.314 254.84 231.856C253.962 231.359 252.625 230.959 250.831 230.653C249.036 230.348 247.718 230.023 246.878 229.68C244.587 228.763 243.441 226.721 243.441 223.551ZM268.286 206.823C268.973 206.823 269.622 207.148 270.233 207.797C270.844 208.446 271.15 209.134 271.15 209.859C271.15 210.546 270.806 211.253 270.119 211.979C269.47 212.704 268.783 213.067 268.057 213.067C267.331 213.067 266.663 212.762 266.052 212.151C265.479 211.54 265.193 210.757 265.193 209.802C265.193 207.969 266.185 206.976 268.171 206.823C268.209 206.823 268.247 206.823 268.286 206.823ZM270.694 236.838L270.751 240.847C270.751 241.573 270.465 242.184 269.892 242.681C269.319 243.139 268.708 243.368 268.059 243.368C267.105 243.368 266.608 242.891 266.57 241.936C266.073 229.755 265.824 223.015 265.824 221.716C265.824 220.418 265.881 218.833 265.995 216.962C266.072 216.275 266.511 215.931 267.313 215.931C269.336 215.931 270.482 216.752 270.75 218.394C270.864 219.234 270.922 219.902 270.922 220.399L270.693 224.007L270.694 236.838ZM278.29 223.548C278.29 221.295 279.091 219.501 280.695 218.164C282.299 216.827 284.151 216.159 286.251 216.159C288.39 216.159 290.433 216.54 292.38 217.304C294.328 218.067 295.302 219.079 295.302 220.339C295.302 220.989 295.054 221.504 294.557 221.886C294.061 222.268 293.622 222.459 293.24 222.459C292.896 222.459 292.61 222.459 292.381 222.459C292.19 222.421 291.426 222.058 290.089 221.371C288.791 220.684 287.588 220.34 286.481 220.34C285.373 220.34 284.419 220.627 283.617 221.2C282.853 221.734 282.471 222.536 282.471 223.605C282.471 224.675 282.911 225.515 283.789 226.126C284.705 226.737 286.29 227.271 288.543 227.729C290.796 228.149 292.515 228.76 293.699 229.562C294.921 230.363 295.532 231.853 295.532 234.029C295.532 237.199 294.692 239.452 293.012 240.789C291.37 242.087 289.365 242.736 286.998 242.737C284.63 242.737 282.606 242.412 280.926 241.763C279.284 241.114 278.463 240.14 278.463 238.842C278.463 237.353 279.207 236.608 280.697 236.608C281.078 236.608 281.919 236.875 283.217 237.41C284.515 237.944 285.795 238.211 287.055 238.211C288.353 238.211 289.327 237.81 289.976 237.008C290.663 236.168 291.007 235.213 291.007 234.144C291.007 233.075 290.567 232.311 289.689 231.853C288.811 231.357 287.474 230.956 285.679 230.651C283.885 230.345 282.567 230.021 281.727 229.677C279.436 228.761 278.29 226.718 278.29 223.548Z" fill="black"/>
<path d="M72.2941 344.056C70.3497 344.057 69.0342 343.027 68.3478 340.968C67.7185 338.967 67.4038 336.765 67.4036 334.363L67.6608 331.875C64.8586 333.648 61.5417 335.05 57.71 336.079C53.9355 337.109 49.9608 337.624 45.7859 337.624C42.7548 337.625 40.0668 336.939 37.7219 335.566C35.377 334.137 33.5467 332.221 32.2312 329.819C30.9728 327.36 30.3435 324.586 30.3432 321.498C30.3429 316.808 32.1727 312.376 35.8325 308.201C39.4924 303.968 43.9816 300.537 49.3001 297.905C54.6758 295.217 59.6513 293.701 64.2265 293.358C66.5141 293.129 68.4586 293.643 70.06 294.901C71.6614 296.102 72.4622 297.789 72.4624 299.963C71.2614 299.963 69.8316 299.648 68.173 299.019C67.9443 298.962 67.3438 298.79 66.3715 298.505C65.3992 298.219 64.3984 298.076 63.369 298.076C59.3085 298.076 54.9907 299.249 50.4156 301.594C45.8977 303.939 42.0948 307.056 39.0068 310.946C35.976 314.778 34.4608 318.81 34.4611 323.042C34.4612 325.043 35.0619 326.788 36.263 328.275C37.5213 329.704 39.0655 330.819 40.8956 331.62C42.783 332.363 44.6703 332.735 46.5576 332.735C51.0756 332.734 54.793 332.562 57.7097 332.219C60.6264 331.818 63.1427 330.817 65.2586 329.216C67.3745 327.557 68.4324 325.041 68.4321 321.667C68.432 320.065 68.0888 318.95 67.4024 318.321L52.1326 318.322C51.3319 318.322 50.5598 317.922 49.8163 317.121C49.1299 316.321 48.7867 315.52 48.7867 314.719C48.7866 313.29 49.2154 312.575 50.0733 312.575C50.7596 312.575 51.8462 312.861 53.3332 313.432C54.7058 314.061 55.8782 314.376 56.8505 314.376C58.1087 314.376 60.0531 314.204 62.6839 313.861C63.1414 313.803 63.9706 313.717 65.1716 313.603C66.3726 313.489 67.4592 313.431 68.4315 313.431C69.4037 313.431 70.3474 313.86 71.2625 314.718C72.2348 315.518 72.6924 316.433 72.6353 317.463L72.1221 337.279C72.5225 338.08 73.2088 338.766 74.1811 339.338C74.5242 339.51 74.8102 339.71 75.039 339.938C75.2678 340.224 75.4108 340.51 75.468 340.796C75.754 341.425 75.4681 342.112 74.6103 342.855C73.7525 343.656 72.9804 344.056 72.2941 344.056ZM121.184 295.412C122.843 295.412 124.559 297.042 126.332 300.302C128.105 303.561 129.592 307.307 130.794 311.539C131.995 315.714 132.596 318.831 132.596 320.89C132.596 324.035 131.91 326.866 130.537 329.383C129.222 331.842 127.335 333.787 124.876 335.216C122.417 336.589 119.615 337.276 116.469 337.276C112.123 337.276 108.348 336.104 105.145 333.76C102 331.415 99.483 328.727 97.5955 325.696C95.708 322.608 93.7632 318.92 91.7613 314.63L90.5601 312.057L90.7332 332.817C90.7333 334.075 90.5046 335.305 90.0472 336.506C89.6469 337.65 88.9321 338.222 87.9027 338.222C86.8732 338.222 86.1297 337.65 85.6721 336.506C85.2145 335.305 84.9857 334.133 84.9856 332.989C84.9853 329.329 85.2708 324.067 85.8422 317.204C86.4136 310.342 86.6992 305.223 86.6989 301.849C86.6989 301.048 86.6416 300.219 86.5272 299.361C86.4127 298.503 86.3269 297.903 86.2697 297.559C85.9836 296.015 85.8405 294.643 85.8405 293.442L85.8404 293.099C86.012 293.099 86.5267 292.984 87.3845 292.755C88.2996 292.469 88.8429 292.326 89.0144 292.326L89.8723 292.326C92.0463 302.106 95.2496 311.142 99.4823 319.434C103.772 327.669 109.635 331.786 117.069 331.786C120.558 331.785 123.189 330.756 124.961 328.697C126.791 326.581 127.706 323.75 127.706 320.204C127.706 317.173 127.219 314.399 126.247 311.883C125.274 309.309 123.816 306.164 121.871 302.447L119.555 297.9C119.383 297.614 119.297 297.328 119.297 297.042C119.297 296.585 119.469 296.213 119.812 295.927C120.155 295.584 120.612 295.412 121.184 295.412ZM90.7332 332.817L90.7332 332.645L90.7332 332.817ZM169.125 334.87C173.814 334.87 177.446 334.212 180.019 332.896C182.593 331.581 183.879 329.665 183.879 327.148C183.879 324.918 183.107 323.002 181.563 321.401C180.018 319.742 178.102 318.341 175.815 317.198C173.527 316.054 170.41 314.71 166.464 313.166C166.121 313.052 165.291 312.738 163.976 312.223C158.6 310.05 154.453 307.877 151.536 305.704C148.677 303.531 147.247 300.729 147.247 297.298C147.246 293.466 148.762 290.578 151.793 288.633C154.823 286.688 158.712 285.716 163.459 285.715C166.948 285.715 170.15 286.172 173.067 287.087C176.041 287.945 178.386 289.146 180.102 290.69C181.875 292.234 182.762 293.978 182.762 295.922C182.075 296.266 181.418 296.437 180.789 296.437C180.102 296.437 179.387 296.294 178.644 296.008C177.958 295.665 176.928 295.122 175.556 294.379C173.325 293.178 171.238 292.234 169.293 291.548C167.348 290.805 165.061 290.433 162.43 290.434C159.113 290.434 156.425 291.006 154.366 292.15C152.308 293.294 151.278 294.895 151.278 296.954C151.279 298.555 151.965 300.014 153.338 301.329C154.767 302.644 156.54 303.817 158.657 304.846C160.83 305.818 163.718 306.99 167.321 308.362C171.897 310.135 175.671 311.793 178.645 313.337C181.619 314.881 184.136 316.854 186.195 319.256C188.311 321.6 189.369 324.403 189.37 327.663C189.37 331.494 187.54 334.468 183.88 336.585C180.22 338.644 175.673 339.674 170.24 339.674C165.951 339.674 161.719 339.045 157.544 337.788C153.369 336.53 149.794 334.671 146.82 332.212C143.846 329.696 141.959 326.694 141.158 323.205C141.158 321.661 141.586 320.346 142.444 319.259C143.302 318.115 144.36 317.543 145.618 317.543C145.618 321.26 146.648 324.434 148.707 327.065C150.823 329.638 153.654 331.583 157.2 332.898C160.803 334.213 164.778 334.87 169.125 334.87Z" fill="black"/>
</g>
<defs>
<filter id="filter0_i_572_958" x="0" y="0" width="324" height="388.537" filterUnits="userSpaceOnUse" color-interpolation-filters="sRGB">
<feFlood flood-opacity="0" result="BackgroundImageFix"/>
<feBlend mode="normal" in="SourceGraphic" in2="BackgroundImageFix" result="shape"/>
<feColorMatrix in="SourceAlpha" type="matrix" values="0 0 0 0 0 0 0 0 0 0 0 0 0 0 0 0 0 0 127 0" result="hardAlpha"/>
<feOffset dy="1.31707"/>
<feGaussianBlur stdDeviation="10.5366"/>
<feComposite in2="hardAlpha" operator="arithmetic" k2="-1" k3="1"/>
<feColorMatrix type="matrix" values="0 0 0 0 0 0 0 0 0 0 0 0 0 0 0 0 0 0 0.01 0"/>
<feBlend mode="normal" in2="shape" result="effect1_innerShadow_572_958"/>
</filter>
<filter id="filter1_d_572_958" x="-42.0147" y="-36.7463" width="408.029" height="151.2" filterUnits="userSpaceOnUse" color-interpolation-filters="sRGB">
<feFlood flood-opacity="0" result="BackgroundImageFix"/>
<feColorMatrix in="SourceAlpha" type="matrix" values="0 0 0 0 0 0 0 0 0 0 0 0 0 0 0 0 0 0 127 0" result="hardAlpha"/>
<feOffset dy="5.26829"/>
<feGaussianBlur stdDeviation="20.3488"/>
<feComposite in2="hardAlpha" operator="out"/>
<feColorMatrix type="matrix" values="0 0 0 0 0 0 0 0 0 0 0 0 0 0 0 0 0 0 0.06 0"/>
<feBlend mode="normal" in2="BackgroundImageFix" result="effect1_dropShadow_572_958"/>
<feBlend mode="normal" in="SourceGraphic" in2="effect1_dropShadow_572_958" result="shape"/>
</filter>
<clipPath id="clip0_572_958">
<rect width="324" height="387.22" fill="white"/>
</clipPath>
</defs>
</svg>
