<svg width="324" height="388" viewBox="0 0 324 388" fill="none" xmlns="http://www.w3.org/2000/svg">
<g clip-path="url(#clip0_572_826)">
<rect width="324" height="387.22" fill="#C5DCFF"/>
<g filter="url(#filter0_d_572_826)">
<rect width="324" height="67.1707" fill="#E4EAF4"/>
<rect x="-0.658537" y="-0.658537" width="325.317" height="68.4878" stroke="white" stroke-width="1.31707"/>
<path d="M21.9736 37.5794V25.9375H24.4219V37.4295C24.4219 40.3275 26.0208 41.9264 28.8938 41.9264C31.7419 41.9264 33.3158 40.3026 33.3158 37.4295V25.9375H35.7891V37.5794C35.7891 41.7266 33.1409 44.2998 28.8938 44.2998C24.6218 44.2998 21.9736 41.7516 21.9736 37.5794ZM39.46 49.4712V31.7835H41.5835L41.7584 33.9819C42.5828 32.3081 44.2317 31.4337 46.1803 31.4337C49.6779 31.4337 51.8514 34.0569 51.8514 37.8043C51.8514 41.5267 49.8028 44.3248 46.1803 44.3248C44.2317 44.3248 42.6078 43.5003 41.8083 42.0014V49.4712H39.46ZM41.8333 37.9042C41.8333 40.4025 43.2823 42.2012 45.6807 42.2012C48.079 42.2012 49.503 40.4025 49.503 37.9042C49.503 35.381 48.079 33.5822 45.6807 33.5822C43.2823 33.5822 41.8333 35.356 41.8333 37.9042ZM53.6404 37.9042C53.6404 34.0819 56.0637 31.4337 59.6362 31.4337C62.7091 31.4337 64.8576 33.1825 65.2823 35.9056H62.934C62.5342 34.3567 61.2851 33.5322 59.7112 33.5322C57.4877 33.5322 55.9638 35.2311 55.9638 37.8792C55.9638 40.5024 57.3878 42.2012 59.6113 42.2012C61.2851 42.2012 62.5342 41.3269 62.9589 39.8779H65.3073C64.8326 42.526 62.5592 44.2998 59.6113 44.2998C56.0137 44.2998 53.6404 41.7516 53.6404 37.9042ZM66.9856 37.8792C66.9856 34.1068 69.6838 31.4587 73.3562 31.4587C77.0037 31.4587 79.7018 34.1068 79.7018 37.8792C79.7018 41.6516 77.0037 44.2998 73.3562 44.2998C69.6838 44.2998 66.9856 41.6516 66.9856 37.8792ZM69.359 37.8792C69.359 40.4275 70.9829 42.2012 73.3562 42.2012C75.7046 42.2012 77.3535 40.4275 77.3535 37.8792C77.3535 35.331 75.7046 33.5572 73.3562 33.5572C70.9829 33.5572 69.359 35.331 69.359 37.8792ZM84.6498 44H82.3014V31.7835H84.4L84.6248 33.3823C85.2494 32.2331 86.5485 31.4337 88.2723 31.4337C90.171 31.4337 91.52 32.383 92.1446 33.907C92.7192 32.383 94.1932 31.4337 96.0919 31.4337C98.8899 31.4337 100.589 33.1825 100.589 36.0055V44H98.2903V36.5801C98.2903 34.6565 97.2161 33.5572 95.5672 33.5572C93.7934 33.5572 92.6193 34.8064 92.6193 36.755V44H90.2959V36.5552C90.2959 34.6315 89.2466 33.5822 87.5977 33.5822C85.824 33.5822 84.6498 34.8064 84.6498 36.755V44ZM104.993 28.8855C104.144 28.8855 103.444 28.1859 103.444 27.3365C103.444 26.4621 104.144 25.7876 104.993 25.7876C105.843 25.7876 106.542 26.4621 106.542 27.3365C106.542 28.1859 105.843 28.8855 104.993 28.8855ZM103.844 44V31.7835H106.192V44H103.844ZM111.95 44H109.602V31.7835H111.725L111.975 33.6572C112.75 32.2581 114.299 31.4337 116.022 31.4337C119.245 31.4337 120.719 33.4073 120.719 36.5302V44H118.371V37.0548C118.371 34.5815 117.222 33.5822 115.423 33.5822C113.224 33.5822 111.95 35.1561 111.95 37.5295V44ZM123.197 37.5794C123.197 34.1318 125.421 31.4337 128.968 31.4337C130.942 31.4337 132.466 32.3331 133.24 33.857L133.415 31.7835H135.514V43.5003C135.514 47.3477 133.14 49.796 129.393 49.796C126.07 49.796 123.797 47.9223 123.347 44.8244H125.696C125.995 46.6232 127.344 47.6725 129.393 47.6725C131.691 47.6725 133.19 46.1735 133.19 43.8501V41.4018C132.391 42.8258 130.792 43.6752 128.868 43.6752C125.396 43.6752 123.197 41.0021 123.197 37.5794ZM125.546 37.5295C125.546 39.8279 126.97 41.6266 129.268 41.6266C131.641 41.6266 133.09 39.9278 133.09 37.5295C133.09 35.1811 131.691 33.4823 129.293 33.4823C126.945 33.4823 125.546 35.281 125.546 37.5295ZM144.385 28.1859V25.9375H157.701V28.1859H152.28V44H149.831V28.1859H144.385ZM163.058 44.2998C159.46 44.2998 156.987 41.7016 156.987 37.9042C156.987 34.0819 159.41 31.4337 162.958 31.4337C166.43 31.4337 168.704 33.832 168.704 37.4545V38.3289L159.26 38.3539C159.435 40.9271 160.784 42.3511 163.108 42.3511C164.931 42.3511 166.13 41.6017 166.53 40.2026H168.729C168.129 42.8258 166.081 44.2998 163.058 44.2998ZM162.958 33.4073C160.909 33.4073 159.61 34.6315 159.31 36.78H166.355C166.355 34.7564 165.031 33.4073 162.958 33.4073ZM170.327 40.4525H172.576C172.576 41.7016 173.525 42.4511 175.074 42.4511C176.723 42.4511 177.672 41.7765 177.672 40.6523C177.672 39.8279 177.273 39.3282 175.998 39.0035L173.85 38.5038C171.676 37.9792 170.652 36.9049 170.652 35.1062C170.652 32.8577 172.551 31.4337 175.249 31.4337C177.922 31.4337 179.671 32.9327 179.721 35.2561H177.472C177.422 34.0319 176.598 33.2574 175.174 33.2574C173.7 33.2574 172.876 33.907 172.876 35.0312C172.876 35.8556 173.475 36.4053 174.674 36.705L176.823 37.2297C178.896 37.7293 179.921 38.6787 179.921 40.5024C179.921 42.8258 177.922 44.2998 175.024 44.2998C172.151 44.2998 170.327 42.7758 170.327 40.4525Z" fill="black"/>
</g>
<path d="M16.941 167.492C14.4227 167.492 13.1636 166.808 13.1635 165.44L13.327 155.339L13.4904 145.239C13.4902 141.571 13.4076 136.015 13.2428 128.57C13.078 121.179 12.9955 115.623 12.9952 111.9L12.9952 111.407C12.9951 109.984 13.1318 108.67 13.4055 107.466C13.7338 105.988 14.6097 105.249 16.033 105.248C19.8651 105.248 22.9035 106.48 25.1482 108.943C27.3928 111.406 28.5153 114.663 28.5156 118.715C28.5158 121.178 27.8591 123.751 26.5454 126.434C25.2318 129.116 23.6717 131.114 21.8653 132.428C25.0406 134.563 27.3674 137.328 28.8457 140.722C30.3788 144.061 31.1455 147.756 31.1458 151.807C31.146 153.723 30.4892 156.104 29.1756 158.951C27.5883 162.345 25.4261 164.782 22.689 166.26C21.0467 167.081 19.2402 167.492 17.2694 167.492L16.941 167.492ZM17.7594 131.197C19.1827 130.868 20.387 129.691 21.3722 127.666C22.1933 126.133 22.9595 124.271 23.6711 122.082C23.8352 121.479 24.1089 120.713 24.492 119.782L24.4918 116.908C24.4917 115.266 23.8894 113.678 22.6849 112.146C21.4804 110.613 20.1118 109.847 18.579 109.847C17.8125 109.847 17.4294 110.695 17.4295 112.392C17.4298 116.006 17.4848 119.235 17.5945 122.082L17.7594 131.197ZM18.0903 163.222C20.7727 162.839 22.9076 161.607 24.495 159.526C26.0824 157.446 26.876 154.955 26.8758 152.054C26.8756 149.535 26.6565 147.236 26.2184 145.156C25.835 143.021 25.3148 141.406 24.6578 140.311C24.0556 139.271 23.4533 138.395 22.8511 137.684C22.2488 136.972 21.7287 136.507 21.2908 136.288L20.6338 136.042L17.6776 136.042C17.9518 142.337 18.0894 151.397 18.0903 163.222ZM43.091 166.751C38.3282 166.752 35.9468 165.931 35.9467 164.288C35.9466 162.974 36.7951 162.317 38.4921 162.317L39.3954 162.317L40.2166 162.399C40.6545 162.399 40.9556 162.262 41.1198 161.989C41.284 161.715 41.3661 161.222 41.3661 160.511C41.366 159.58 41.3111 158.129 41.2015 156.158C41.0372 154.845 40.8454 152.491 40.6262 149.096C40.1328 140.721 39.886 134.398 39.8857 130.128C39.8856 128.595 39.9128 127.199 39.9675 125.94L40.0493 121.752C40.0492 119.945 39.9669 118.44 39.8026 117.236C38.9267 117.455 38.2972 117.564 37.914 117.564C36.6001 117.564 35.9431 116.907 35.943 115.594C35.943 114.937 36.3535 114.362 37.1746 113.869C37.9958 113.376 39.0359 113.02 40.295 112.801C42.4847 112.363 44.4281 112.144 46.1251 112.144C46.7821 112.144 47.3295 112.39 47.7675 112.883C48.2602 113.321 48.5066 113.841 48.5067 114.443C48.5067 115.045 48.3152 115.565 47.932 116.003C47.6035 116.441 47.1656 116.66 46.6182 116.66C46.2897 116.66 46.016 116.633 45.797 116.578L45.1401 116.578C44.5926 116.578 44.1821 116.715 43.9084 116.989C43.6894 117.208 43.58 117.646 43.58 118.303C43.5804 123.613 43.9095 131.606 44.5672 142.281C44.6768 144.251 44.896 147.153 45.2248 150.985C45.4987 153.503 45.6357 156.076 45.6359 158.704L45.6362 161.824C45.9646 161.769 46.5121 161.742 47.2785 161.742C49.5777 161.742 50.7274 162.7 50.7276 164.616L50.7276 165.108L48.6748 166.504C48.6201 166.504 48.4285 166.532 48.1 166.587C47.8263 166.587 47.2789 166.587 46.4577 166.587C44.7059 166.696 43.5836 166.751 43.091 166.751ZM67.117 168.392C65.6937 168.392 64.3798 167.927 63.1754 166.996C61.9709 166.12 60.9854 164.916 60.2189 163.383C58.6311 160.044 57.6454 156.404 57.2619 152.462C56.7689 148.739 56.5223 145.154 56.5221 141.705C56.522 141.048 56.5494 140.5 56.6041 140.063L56.604 138.584C56.6039 138.311 56.5766 138.174 56.5218 138.174L56.5217 136.696L56.6034 130.948C56.658 129.196 56.8768 126.404 57.2597 122.572C57.5332 119.944 58.1626 117.398 59.1478 114.935C59.5309 113.84 60.0235 113.019 60.6257 112.471C61.2278 111.869 61.9121 111.568 62.6785 111.568C64.8683 111.568 66.8391 111.978 68.5909 112.799C70.3428 113.565 71.821 114.66 73.0254 116.083C74.1204 117.452 75.0512 119.149 75.8178 121.174C76.5843 123.145 77.1319 125.253 77.4605 127.497C77.7892 129.796 77.9536 132.233 77.9538 134.806L77.9538 135.462C77.954 137.16 77.9815 138.692 78.0363 140.061L78.1188 144.742C78.12 160.508 74.4527 168.391 67.117 168.392ZM66.7883 164.943C67.7737 164.943 68.6769 164.56 69.498 163.793C70.3191 162.972 70.9486 161.877 71.3865 160.508C72.4264 157.716 73.0557 154.705 73.2744 151.475C73.5479 148.683 73.6846 146.275 73.6845 144.249C73.6843 141.786 73.4924 138.556 73.1089 134.56C72.7802 130.344 72.6157 127.197 72.6155 125.116L72.6154 123.638C72.5058 121.558 71.794 119.751 70.48 118.219C69.2208 116.686 67.6605 115.92 65.7992 115.92C63.9379 115.92 62.7063 116.988 62.1043 119.123C61.5569 120.82 61.2834 123.009 61.2836 125.692C61.2837 126.732 61.3111 127.608 61.3659 128.32L61.3661 130.537L61.2021 134.314C61.0927 135.464 61.0381 136.723 61.0382 138.091C61.0384 141.048 61.1207 143.976 61.2852 146.878C61.5045 150.984 62.0522 154.98 62.9284 158.867C63.8046 162.918 65.0912 164.943 66.7883 164.943ZM99.7459 168.143C97.775 167.486 95.3389 167.158 92.4375 167.158C91.5616 167.706 90.631 167.979 89.6456 167.979C88.9887 167.979 88.4138 167.678 87.9211 167.076C87.4831 166.529 87.2641 165.927 87.264 165.27C87.2637 160.671 87.4548 154.54 87.8375 146.876C88.1653 138.719 88.3291 132.615 88.3288 128.564L88.3287 127.989C88 124.54 87.8356 121.967 87.8355 120.27C87.8351 115.07 88.7929 112.469 90.7089 112.469C91.2564 112.469 91.7217 112.688 92.105 113.126C92.5429 113.509 92.762 113.974 92.762 114.522C92.762 115.179 92.68 116.219 92.5159 117.642C92.3517 119.011 92.2697 120.051 92.2698 120.763C92.27 124.43 92.2977 127.742 92.3526 130.699C92.4076 133.6 92.4352 136.885 92.4355 140.553C92.1618 141.374 92.0251 142.523 92.0252 144.001L92.0252 144.987L91.8615 151.474C91.7521 153.39 91.6976 155.58 91.6978 158.043C91.698 161.821 92.6015 163.709 94.408 163.709C94.5175 163.709 94.6817 163.709 94.9007 163.709C95.1744 163.654 95.5302 163.627 95.9682 163.627C96.4609 163.572 97.0904 163.545 97.8569 163.545C100.813 163.544 102.291 164.365 102.291 166.008C102.291 166.555 102.045 167.02 101.552 167.404C101.06 167.787 100.458 168.033 99.7459 168.143ZM118.68 168.388C117.257 168.388 115.943 167.923 114.738 166.992C113.534 166.116 112.548 164.912 111.782 163.379C110.194 160.04 109.208 156.4 108.825 152.458C108.332 148.736 108.085 145.15 108.085 141.701C108.085 141.044 108.112 140.497 108.167 140.059L108.167 138.581C108.167 138.307 108.14 138.17 108.085 138.17L108.085 136.692L108.166 130.944C108.221 129.192 108.44 126.4 108.823 122.568C109.096 119.94 109.726 117.395 110.711 114.931C111.094 113.836 111.587 113.015 112.189 112.467C112.791 111.865 113.475 111.564 114.241 111.564C116.431 111.564 118.402 111.974 120.154 112.795C121.906 113.562 123.384 114.656 124.588 116.08C125.683 117.448 126.614 119.145 127.381 121.171C128.147 123.141 128.695 125.249 129.024 127.493C129.352 129.793 129.517 132.229 129.517 134.802L129.517 135.459C129.517 137.156 129.544 138.688 129.599 140.057L129.682 144.738C129.683 160.504 126.016 168.387 118.68 168.388ZM118.351 164.939C119.337 164.939 120.24 164.556 121.061 163.789C121.882 162.968 122.512 161.873 122.949 160.504C123.989 157.712 124.619 154.701 124.837 151.472C125.111 148.68 125.248 146.271 125.247 144.245C125.247 141.782 125.055 138.552 124.672 134.556C124.343 130.34 124.179 127.193 124.179 125.112L124.178 123.634C124.069 121.554 123.357 119.748 122.043 118.215C120.784 116.682 119.223 115.916 117.362 115.916C115.501 115.916 114.269 116.984 113.667 119.119C113.12 120.816 112.846 123.006 112.847 125.688C112.847 126.728 112.874 127.604 112.929 128.316L112.929 130.533L112.765 134.31C112.656 135.46 112.601 136.719 112.601 138.088C112.601 141.044 112.684 143.973 112.848 146.874C113.067 150.98 113.615 154.976 114.491 158.863C115.368 162.914 116.654 164.939 118.351 164.939ZM149.338 167.482C147.805 167.482 146.409 167.209 145.15 166.661C143.891 166.059 142.823 165.293 141.947 164.362C141.236 163.596 140.579 162.474 139.976 160.996C139.374 159.518 138.936 158.094 138.662 156.726C138.388 155.686 138.169 154.18 138.005 152.21C137.84 150.239 137.731 148.542 137.676 147.118L137.676 142.356L137.675 139.071C137.675 135.896 137.73 133.296 137.839 131.27C137.948 128.807 138.304 126.206 138.906 123.469C139.399 121.005 140.247 118.843 141.451 116.982C142.601 115.12 144.215 113.834 146.296 113.122C147.281 112.739 148.431 112.547 149.744 112.547C152.098 112.547 153.275 113.231 153.276 114.599C153.276 115.256 153.002 115.804 152.455 116.242C151.962 116.625 151.36 116.817 150.648 116.817C150.32 116.817 150.019 116.789 149.745 116.735C149.526 116.68 149.252 116.653 148.924 116.653C147.993 116.653 147.172 117.145 146.46 118.131C145.749 119.116 145.147 120.485 144.654 122.237C143.778 125.631 143.176 129.326 142.848 133.323C142.63 137.045 142.52 139.81 142.52 141.616C142.521 143.478 142.603 146.023 142.767 149.253C142.987 152.264 143.452 154.892 144.164 157.136C144.547 158.45 144.985 159.517 145.478 160.338C146.026 161.105 146.71 161.762 147.531 162.309C148.462 162.911 149.42 163.212 150.405 163.212C153.033 163.212 154.346 158.832 154.346 150.073L154.345 146.296C153.962 146.132 153.333 146.05 152.457 146.05L151.718 146.05L150.814 146.05C148.898 146.05 147.94 145.421 147.94 144.161C147.94 143.395 148.187 142.82 148.679 142.437C149.227 141.999 149.911 141.78 150.732 141.78L150.732 141.862L151.882 141.862C156.809 141.862 159.272 142.71 159.272 144.407C159.272 144.9 159.136 145.885 158.862 147.363C158.534 148.677 158.369 149.662 158.369 150.319C158.37 151.25 158.452 152.701 158.616 154.672L158.781 159.024C158.781 161.651 157.85 163.732 155.989 165.265C154.183 166.743 151.966 167.482 149.338 167.482ZM173.784 167.973C172.854 167.973 172.087 167.371 171.485 166.167C172.087 165.017 172.388 160.364 172.387 152.207C172.387 150.291 172.25 148.211 171.976 145.966L171.729 143.585C171.565 142.107 171.483 140.985 171.483 140.218L171.483 138.083C170.935 136.715 169.922 134.169 168.444 130.447C167.02 126.724 165.87 123.604 164.994 121.086C163.954 118.184 163.434 116.214 163.434 115.173L163.434 114.763L165.322 113.367C166.253 113.476 167.238 114.68 168.279 116.98C169.155 119.005 170.113 121.906 171.153 125.684C172.248 129.461 172.796 131.459 172.796 131.678C173.015 131.076 173.453 129.023 174.109 125.519C174.766 122.016 175.505 118.922 176.326 116.24C177.256 113.557 178.214 112.216 179.2 112.216C179.747 112.216 180.212 112.38 180.596 112.709C181.034 113.037 181.253 113.448 181.253 113.94C181.253 116.732 180.487 120.674 178.954 125.765C177.312 131.294 176.492 135.291 176.492 137.754L176.494 162.471C176.494 166.139 175.591 167.973 173.784 167.973Z" fill="black"/>
<path d="M38.8626 205.581C41.4211 205.58 44.2469 206.077 47.3401 207.069C48.0275 207.604 48.3712 208.196 48.3713 208.845C48.3713 209.456 48.0468 210.009 47.3976 210.506C46.7867 210.964 46.0802 211.193 45.2783 211.193C43.2162 210.659 41.2878 210.392 39.493 210.392C35.3689 210.392 32.2377 211.615 30.0994 214.059C27.9611 216.503 26.8922 220.131 26.8925 224.942C26.8929 229.754 28.1533 233.515 30.6739 236.226C31.9723 237.639 33.5189 238.345 35.3137 238.345C37.1084 238.345 39.9724 237.39 43.9054 235.48C45.2801 234.831 46.1965 234.506 46.6548 234.506C47.6476 234.506 48.1441 235.022 48.1442 236.053C48.1443 237.084 47.667 237.943 46.7124 238.63C43.4285 240.349 40.8701 241.514 39.0371 242.125C37.2042 242.698 35.6195 242.984 34.283 242.985C31.5336 242.985 29.185 241.973 27.2373 239.949C23.7621 236.207 22.0242 231.109 22.0237 224.656C22.0232 218.164 23.6649 213.372 26.9487 210.278C30.2707 207.147 34.242 205.581 38.8626 205.581ZM59.3044 224.481L59.7636 237.999C59.7637 239.68 59.6874 240.653 59.5347 240.921C59.4584 241.608 59.2293 242.143 58.8475 242.525C58.5038 242.906 57.8165 243.097 56.7854 243.097C56.289 243.097 55.888 242.792 55.5825 242.181C55.277 241.532 55.1051 240.806 55.0668 240.004C54.799 233.284 54.4358 226.983 53.9771 221.102C53.5566 215.183 53.3462 209.685 53.3458 204.606C53.3457 203.804 53.613 203.174 54.1475 202.715C54.6821 202.257 55.3122 202.028 56.0377 202.028C57.107 202.028 57.7371 202.944 57.9282 204.777C58.1574 206.61 58.2913 208.901 58.3296 211.651C58.4062 214.4 58.4827 216.405 58.5592 217.665C60.4685 216.672 62.3778 216.176 64.2871 216.175C68.7167 216.175 71.5236 218.122 72.7076 222.017C73.3952 224.232 73.7391 227.077 73.7393 230.552C73.7394 231.698 73.625 233.511 73.3961 235.994C73.2053 238.437 73.0909 240.022 73.0527 240.748C73.0146 241.473 72.6901 242.046 72.0791 242.466C71.5063 242.848 70.8763 243.039 70.1889 243.039C69.1197 243.039 68.585 242.466 68.585 241.321L68.9852 231.354C68.9851 230.514 68.9468 229.12 68.8703 227.173C68.7938 225.225 68.3927 223.679 67.6671 222.533C66.9796 221.388 65.7576 220.815 64.001 220.815C60.8697 220.815 59.3042 222.037 59.3044 224.481ZM85.4762 216.517C87.5 216.517 89.4285 217.109 91.2615 218.293C93.0946 219.476 94.0112 220.946 94.0113 222.703C94.0114 224.421 93.2669 226.102 91.7778 227.744C90.2886 229.348 88.303 230.322 85.8209 230.666C84.7517 230.818 83.1479 230.895 81.0094 230.895C81.4297 234.141 82.2509 236.279 83.4729 237.31C83.8548 237.73 84.3704 237.94 85.0195 237.94C87.3871 237.94 89.3727 237.195 90.9765 235.706C92.5802 234.178 93.7257 233.414 94.4131 233.414C94.7186 233.414 95.1768 233.701 95.7879 234.273C96.3989 234.846 96.7044 235.381 96.7044 235.877C96.7045 236.87 95.5018 238.302 93.0961 240.173C92.027 241.052 90.7287 241.797 89.2013 242.408C87.7121 242.981 86.3183 243.267 85.0199 243.267C81.6977 243.267 79.2536 241.129 77.6876 236.852C76.6946 234.218 76.1979 231.315 76.1977 228.146C76.1975 224.976 76.9419 222.246 78.431 219.955C79.9201 217.663 82.2685 216.518 85.4762 216.517ZM85.7629 220.47C84.3118 220.47 83.0708 221.291 82.0398 222.933C81.658 223.506 81.2954 224.804 80.9518 226.828C86.2979 226.828 88.9709 225.51 88.9707 222.875C88.9706 221.271 87.9013 220.47 85.7629 220.47ZM103.317 243.094C102.324 243.094 101.732 242.54 101.541 241.433C101.541 233.719 101.082 226.846 100.165 220.812C100.165 220.049 100.432 219.361 100.967 218.75C101.54 218.139 102.17 217.834 102.857 217.834C103.583 217.834 104.117 218.234 104.461 219.036C105.874 217.165 107.764 216.229 110.132 216.229C113.148 216.229 115.478 217.68 117.12 220.582C119.029 217.832 121.549 216.457 124.681 216.457C127.85 216.457 130.218 217.717 131.784 220.237C132.815 221.803 133.54 223.865 133.961 226.423C134.381 228.982 134.591 232.609 134.592 237.306C134.592 239.139 134.401 240.571 134.019 241.602C133.637 242.595 132.835 243.092 131.613 243.092C130.621 243.092 130.124 242.462 130.124 241.202L130.295 234.042C130.295 225.45 128.06 221.154 123.593 221.154C122.18 221.154 121.187 221.651 120.614 222.644C119.965 223.828 119.583 225.069 119.469 226.367C119.316 228.658 119.24 230.739 119.24 232.611L119.241 240.916C119.241 241.527 118.935 242.043 118.324 242.463C117.714 242.883 117.083 243.093 116.434 243.093C115.594 243.093 115.06 242.539 114.83 241.432L115.001 229.575C115.001 225.375 114.294 222.759 112.881 221.728C112.194 221.232 111.144 220.983 109.731 220.983C108.356 220.984 107.325 221.499 106.638 222.53C105.989 223.561 105.664 225.222 105.665 227.514L106.009 238.168C106.009 241.452 105.112 243.094 103.317 243.094ZM142.762 206.833C143.45 206.833 144.099 207.157 144.71 207.807C145.321 208.456 145.627 209.143 145.627 209.869C145.627 210.556 145.283 211.262 144.596 211.988C143.947 212.714 143.259 213.076 142.534 213.076C141.808 213.076 141.14 212.771 140.529 212.16C139.956 211.549 139.67 210.766 139.669 209.812C139.669 207.979 140.662 206.986 142.648 206.833C142.686 206.833 142.724 206.833 142.762 206.833ZM145.17 236.847L145.228 240.857C145.228 241.582 144.942 242.193 144.369 242.69C143.796 243.148 143.185 243.377 142.536 243.377C141.581 243.377 141.085 242.9 141.047 241.946C140.549 229.764 140.301 223.024 140.3 221.726C140.3 220.427 140.358 218.843 140.472 216.972C140.548 216.284 140.987 215.941 141.789 215.94C143.813 215.94 144.959 216.761 145.226 218.403C145.341 219.243 145.398 219.912 145.398 220.408L145.169 224.017L145.17 236.847ZM152.767 223.558C152.766 221.305 153.568 219.51 155.172 218.173C156.776 216.837 158.628 216.168 160.728 216.168C162.866 216.168 164.909 216.55 166.857 217.313C168.804 218.077 169.778 219.089 169.778 220.349C169.778 220.998 169.53 221.514 169.034 221.896C168.538 222.277 168.098 222.468 167.717 222.468C167.373 222.468 167.086 222.468 166.857 222.468C166.666 222.43 165.903 222.068 164.566 221.38C163.268 220.693 162.065 220.349 160.957 220.35C159.85 220.35 158.895 220.636 158.093 221.209C157.33 221.744 156.948 222.546 156.948 223.615C156.948 224.684 157.387 225.524 158.266 226.135C159.182 226.746 160.767 227.28 163.02 227.739C165.273 228.158 166.991 228.769 168.175 229.571C169.397 230.373 170.008 231.862 170.009 234.039C170.009 237.208 169.169 239.461 167.489 240.798C165.847 242.096 163.842 242.746 161.475 242.746C159.107 242.746 157.083 242.422 155.403 241.773C153.761 241.124 152.94 240.15 152.94 238.852C152.939 237.362 153.684 236.618 155.173 236.617C155.555 236.617 156.395 236.885 157.694 237.419C158.992 237.954 160.271 238.221 161.531 238.221C162.83 238.221 163.804 237.82 164.453 237.018C165.14 236.178 165.484 235.223 165.483 234.154C165.483 233.084 165.044 232.321 164.166 231.863C163.288 231.366 161.951 230.965 160.156 230.66C158.361 230.355 157.044 230.03 156.204 229.687C153.913 228.77 152.767 226.727 152.767 223.558ZM175.264 216.282L178.128 216.339C178.777 216.339 179.139 216.32 179.216 216.281L179.215 204.539C179.253 203.89 179.578 203.336 180.189 202.878C180.8 202.419 181.372 202.19 181.907 202.19C182.442 202.19 182.862 202.362 183.167 202.706C183.511 203.049 183.664 203.584 183.626 204.31C183.587 205.035 183.569 209.006 183.569 216.224L190.271 215.994C191.416 215.994 191.989 216.662 191.989 217.999C191.989 218.992 191.684 219.736 191.073 220.233C190.5 220.729 189.87 220.997 189.183 221.035C188.534 221.073 187.885 221.092 187.235 221.092L183.741 221.035C183.741 222.601 183.894 225.694 184.2 230.315C184.544 234.935 184.812 237.933 185.003 239.307C185.194 240.644 185.232 241.522 185.118 241.942C185.003 242.324 184.793 242.591 184.488 242.744C183.991 242.973 183.323 243.088 182.483 243.088C181.643 243.088 181.146 242.63 180.993 241.713C180.229 236.711 179.713 229.838 179.445 221.093C179.102 221.131 177.784 221.15 175.493 221.15C173.202 221.151 172.056 220.482 172.056 219.146C172.056 217.237 173.125 216.282 175.264 216.282ZM200.912 234.667L200.97 240.566C200.97 241.254 200.645 241.884 199.996 242.457C199.385 243.029 198.774 243.316 198.163 243.316C197.285 243.316 196.731 242.629 196.502 241.254C196.464 240.949 196.311 238.161 196.043 232.891C195.775 227.583 195.26 223.421 194.496 220.404C194.152 218.953 193.98 218.094 193.98 217.827C193.98 216.567 194.743 215.936 196.271 215.936C196.92 215.936 197.436 216.184 197.818 216.681C198.199 217.177 198.429 217.693 198.505 218.227C198.62 218.724 198.715 219.411 198.792 220.289C198.868 221.168 198.925 221.721 198.964 221.951C199.765 220.041 200.968 218.609 202.572 217.654C204.176 216.7 205.932 216.222 207.841 216.222C210.973 216.222 212.538 217.023 212.539 218.627C212.539 219.429 212.252 220.078 211.68 220.575C211.145 221.033 210.515 221.262 209.789 221.262C206.543 221.263 204.252 222.294 202.916 224.356C201.58 226.418 200.912 229.855 200.912 234.667ZM233.833 216.564C234.329 216.564 234.807 216.735 235.265 217.079C235.762 217.423 236.01 217.805 236.01 218.225C236.01 219.332 234.387 225.327 231.142 236.211C227.897 247.094 225.492 254.732 223.927 259.123C223.583 260.154 223.049 260.67 222.323 260.67C221.598 260.67 221.025 260.403 220.605 259.868C220.185 259.372 219.975 258.627 219.974 257.634C219.974 256.641 220.604 254.255 221.864 250.474C223.162 246.732 223.945 244.345 224.212 243.314C223.257 241.71 220.03 233.691 214.53 219.257C214.454 219.066 214.415 218.818 214.415 218.513C214.415 218.207 214.644 217.806 215.103 217.31C215.561 216.813 216.191 216.565 216.993 216.565C217.795 216.565 218.444 216.966 218.94 217.768C219.475 219.142 220.354 221.548 221.576 224.985C222.798 228.383 223.734 230.846 224.383 232.374C225.071 233.901 225.72 235.486 226.331 237.128C226.865 235.333 227.782 231.858 229.08 226.703C230.378 221.509 231.122 218.55 231.313 217.824C231.466 216.984 232.306 216.564 233.833 216.564Z" fill="black"/>
<path d="M41.6679 334.708C40.581 330.362 39.7514 325.987 39.1792 321.583C38.6069 317.122 38.0917 309.802 37.6334 299.622C37.6333 298.936 37.8621 298.335 38.3195 297.82C38.8342 297.306 39.4061 297.048 40.0352 297.048L40.8073 297.048C41.0934 298.935 41.2937 301.967 41.4084 306.141C41.4085 306.599 41.4658 308.143 41.5804 310.774C41.6949 313.347 41.9811 315.778 42.4388 318.066C49.0728 317.436 54.3628 316.149 58.3088 314.204C62.312 312.259 64.3135 309.485 64.3132 305.882C64.3129 301.364 62.3109 297.676 58.3074 294.816C54.3038 291.957 48.2701 290.528 40.2063 290.529C36.832 290.529 33.9726 291.158 31.6278 292.416C31.2275 292.588 30.9416 292.96 30.7701 293.532C30.5985 294.046 30.4556 294.79 30.3413 295.762C30.227 296.792 30.0841 297.564 29.9126 298.078C29.741 298.593 29.4265 298.851 28.969 298.851C28.4543 298.851 28.1111 298.479 27.9395 297.735C27.825 296.935 27.7677 295.133 27.7675 292.331C27.7674 290.73 28.8539 289.471 31.0271 288.556C33.2002 287.641 36.0025 287.183 39.434 287.183C49.4423 287.182 56.8772 288.754 61.7386 291.899C66.6 295.045 69.031 299.877 69.0315 306.397C69.0317 309.885 67.6308 312.802 64.8286 315.147C62.0265 317.492 58.6238 319.237 54.6205 320.381C50.6173 321.468 46.7855 322.011 43.1253 322.012C43.2398 322.698 43.3542 323.327 43.4686 323.899C43.5831 324.471 43.6689 324.957 43.7261 325.357C44.5271 329.246 44.9276 332.249 44.9278 334.365C44.9279 335.623 44.7564 336.624 44.4133 337.367C44.1274 338.111 43.4697 338.368 42.4403 338.139L41.6679 334.708ZM83.4076 337.965C83.1217 338.022 82.807 336.935 82.4637 334.705C82.1776 332.475 81.777 328.643 81.2619 323.21C80.4605 314.288 79.5449 306.11 78.5149 298.675C77.5421 291.241 76.312 284.807 74.8247 279.374C74.7102 278.916 74.8818 278.516 75.3393 278.173C75.7968 277.83 76.4259 277.658 77.2265 277.658C77.6269 277.658 77.9414 277.686 78.1702 277.744C79.6002 281.632 80.6013 285.064 81.1734 288.038C81.8028 291.012 82.3749 294.672 82.89 299.018L83.3192 302.364C86.7504 300.305 89.8958 299.275 92.7554 299.275C97.9597 299.274 101.649 301.647 103.822 306.394C106.053 311.084 107.169 317.775 107.169 326.468C107.17 329.785 106.97 332.587 106.57 334.875C106.169 337.105 105.683 338.22 105.111 338.22C104.368 338.221 103.539 337.677 102.624 336.591L102.623 333.76L102.708 324.409C102.708 322.636 102.651 320.434 102.536 317.804C102.364 313.343 101.449 309.969 99.7904 307.681C98.1889 305.394 95.4151 304.25 91.4689 304.25C88.8382 304.251 86.3791 305.223 84.0916 307.168C84.0918 309.341 84.1777 311.571 84.3495 313.859C84.5784 316.147 84.8359 318.377 85.122 320.55C85.5226 323.581 85.8087 326.269 85.9805 328.614C86.2094 330.902 86.324 333.446 86.3242 336.249C85.9811 336.935 85.5808 337.393 85.1233 337.621C84.723 337.85 84.1511 337.965 83.4076 337.965ZM138.194 378.709C134.305 378.709 130.817 377.88 127.728 376.222C124.697 374.564 122.266 372.648 120.436 370.475C118.606 368.302 117.576 366.529 117.347 365.156C117.118 363.898 117.404 362.926 118.205 362.239C119.063 361.553 120.121 361.267 121.379 361.381C123.152 365.613 125.268 368.873 127.728 371.16C130.187 373.448 133.704 374.649 138.28 374.763C141.482 374.82 144.027 372.761 145.914 368.586C147.858 364.468 149.231 359.406 150.031 353.401C150.831 347.453 151.231 341.591 151.23 335.815C151.23 332.841 151.144 330.411 150.973 328.523C146.626 333.842 141.079 336.502 134.331 336.503C128.497 336.503 124.008 333.73 120.862 328.182C117.773 322.635 115.771 316.373 114.855 309.396C114.741 308.709 114.684 307.737 114.684 306.479C114.683 302.876 115.856 301.074 118.2 301.074C118.429 301.074 118.744 302.504 119.144 305.364C119.774 309.882 120.546 313.942 121.461 317.545C122.377 321.148 123.893 324.436 126.009 327.41C128.182 330.326 131.042 331.785 134.588 331.784C137.39 331.784 140.249 330.869 143.166 329.039C146.14 327.151 148.284 325.063 149.6 322.776C149.599 318.429 149.027 314.54 147.883 311.109C146.796 307.62 146.224 305.762 146.167 305.533C146.052 304.275 145.995 303.474 145.995 303.131C145.995 301.987 146.166 301.158 146.51 300.643C146.91 300.128 147.482 299.871 148.225 299.871C149.026 299.871 149.941 301.501 150.971 304.761C152 308.02 152.916 312.281 153.717 317.542C154.518 322.804 155.062 328.294 155.348 334.013C155.463 336.987 155.52 339.189 155.52 340.619C155.521 351.599 154.149 360.693 151.404 367.899C148.717 375.105 144.314 378.708 138.194 378.709ZM162.782 328.008C163.583 327.378 164.355 327.064 165.098 327.064C165.785 327.064 166.442 327.264 167.071 327.664C167.758 328.064 168.444 328.579 169.13 329.208C169.817 329.78 170.36 330.209 170.76 330.495C172.076 331.524 173.877 332.325 176.165 332.896C178.453 333.468 180.883 333.754 183.457 333.754C186.374 333.754 188.976 333.21 191.263 332.123C193.608 330.979 194.78 329.464 194.78 327.576C194.78 325.861 194.151 324.517 192.893 323.545C191.634 322.515 190.119 321.772 188.346 321.314C186.573 320.857 184.228 320.428 181.311 320.028C177.365 319.571 174.219 318.999 171.875 318.313C169.587 317.627 167.757 316.512 166.384 314.968C165.011 313.367 164.325 311.136 164.325 308.277C164.325 305.189 165.783 302.901 168.699 301.414C171.616 299.869 174.961 299.097 178.736 299.097C182.167 299.096 185.084 299.84 187.486 301.326C189.946 302.756 191.204 304.815 191.261 307.503C191.376 309.047 191.147 310.276 190.575 311.192C190.004 312.049 189.317 312.478 188.517 312.479C188.059 312.479 187.659 312.307 187.316 311.964C187.03 311.621 186.887 311.163 186.887 310.591C186.886 309.676 187.201 308.675 187.83 307.589C187.544 306.216 186.6 305.187 184.999 304.501C183.455 303.815 181.596 303.472 179.423 303.472C176.22 303.472 173.675 304.073 171.788 305.274C169.901 306.418 168.957 307.79 168.957 309.392C168.957 311.107 169.644 312.423 171.016 313.338C172.389 314.253 174.048 314.91 175.992 315.31C177.994 315.653 180.825 315.996 184.485 316.339C187.516 316.739 189.975 317.225 191.863 317.797C193.807 318.369 195.437 319.484 196.753 321.142C198.068 322.743 198.726 325.06 198.726 328.091C198.727 331.236 197.268 333.724 194.352 335.554C191.435 337.328 187.947 338.214 183.886 338.215C178.682 338.215 174.021 337.329 169.903 335.556C165.842 333.784 163.469 331.267 162.782 328.008ZM211.748 338.212C210.433 338.213 209.375 336.297 208.574 332.465C207.773 328.576 207.258 325.231 207.029 322.428C206.8 319.626 206.485 315.194 206.084 309.132C206.027 308.159 205.998 306.901 205.998 305.357C205.998 303.413 206.141 302.069 206.427 301.325C206.77 300.582 207.313 300.21 208.057 300.21C208.686 300.21 209.172 300.353 209.515 300.639C209.915 300.867 210.259 301.268 210.545 301.839L210.459 305.271C210.459 308.931 210.631 312.391 210.975 315.651C211.375 318.911 211.976 323.286 212.777 328.776C213.235 331.178 213.55 333.151 213.721 334.695C213.836 335.496 213.693 336.296 213.292 337.097C212.892 337.841 212.377 338.212 211.748 338.212ZM209.6 291.031C208.342 291.031 207.398 290.545 206.769 289.572C206.197 288.6 205.911 287.399 205.911 285.969C205.911 285.34 205.94 284.883 205.997 284.597C205.939 283.682 206.454 283.224 207.541 283.224C208.341 283.224 209.142 283.424 209.943 283.824C210.801 284.168 211.058 284.425 210.715 284.596C211.287 286.083 211.573 287.256 211.573 288.114C211.573 288.857 211.402 289.458 211.058 289.915C210.715 290.316 210.229 290.687 209.6 291.031ZM242.519 338.21C235.827 338.211 230.623 336.696 226.905 333.665C223.245 330.577 221.414 325.83 221.414 319.425C221.414 316.165 222.214 313.076 223.815 310.16C225.474 307.186 227.675 304.812 230.42 303.039C233.222 301.209 236.225 300.293 239.428 300.293C242.687 300.293 245.461 301.008 247.749 302.437C250.037 303.81 251.181 305.811 251.181 308.442C251.181 310.272 250.838 311.587 250.152 312.388C249.523 313.132 248.808 313.503 248.007 313.503C248.007 310.758 247.263 308.528 245.776 306.812C244.289 305.097 242.173 304.239 239.428 304.239C236.683 304.239 234.309 304.983 232.308 306.47C230.306 307.9 228.762 309.816 227.676 312.218C226.647 314.563 226.132 317.022 226.132 319.596C226.133 325.029 227.963 328.718 231.623 330.662C235.341 332.606 240.231 333.578 246.293 333.577C248.352 333.577 251.04 333.463 254.357 333.234C254.471 333.234 254.728 333.348 255.129 333.577C255.529 333.806 255.844 333.948 256.072 334.006L256.072 334.52C256.073 336.179 254.614 337.208 251.698 337.609C248.781 338.01 245.721 338.21 242.519 338.21ZM259.961 328C260.762 327.371 261.534 327.057 262.277 327.057C262.964 327.056 263.621 327.257 264.25 327.657C264.937 328.057 265.623 328.572 266.309 329.201C266.996 329.773 267.539 330.202 267.939 330.488C269.255 331.517 271.056 332.317 273.344 332.889C275.632 333.461 278.062 333.747 280.636 333.746C283.553 333.746 286.155 333.203 288.442 332.116C290.787 330.972 291.959 329.456 291.959 327.569C291.959 325.853 291.33 324.509 290.072 323.537C288.813 322.508 287.298 321.765 285.525 321.307C283.752 320.85 281.407 320.421 278.49 320.021C274.544 319.564 271.399 318.992 269.054 318.306C266.766 317.62 264.936 316.505 263.563 314.961C262.191 313.359 261.504 311.129 261.504 308.27C261.504 305.181 262.962 302.894 265.878 301.406C268.795 299.862 272.141 299.09 275.915 299.089C279.347 299.089 282.263 299.832 284.665 301.319C287.125 302.749 288.383 304.807 288.44 307.495C288.555 309.04 288.326 310.269 287.754 311.184C287.183 312.042 286.496 312.471 285.696 312.471C285.238 312.471 284.838 312.3 284.495 311.957C284.209 311.613 284.066 311.156 284.066 310.584C284.066 309.669 284.38 308.668 285.009 307.581C284.723 306.209 283.779 305.18 282.178 304.493C280.634 303.807 278.775 303.464 276.602 303.464C273.399 303.465 270.854 304.065 268.967 305.266C267.08 306.41 266.136 307.783 266.136 309.384C266.136 311.1 266.823 312.415 268.196 313.33C269.568 314.245 271.227 314.903 273.171 315.303C275.173 315.646 278.004 315.989 281.664 316.332C284.695 316.732 287.154 317.218 289.042 317.79C290.986 318.361 292.616 319.477 293.932 321.135C295.247 322.736 295.905 325.052 295.905 328.083C295.906 331.229 294.447 333.717 291.531 335.547C288.614 337.32 285.126 338.207 281.065 338.207C275.861 338.208 271.2 337.322 267.082 335.549C263.021 333.776 260.648 331.26 259.961 328Z" fill="black"/>
</g>
<defs>
<filter id="filter0_d_572_826" x="-42.0147" y="-36.7464" width="408.029" height="151.2" filterUnits="userSpaceOnUse" color-interpolation-filters="sRGB">
<feFlood flood-opacity="0" result="BackgroundImageFix"/>
<feColorMatrix in="SourceAlpha" type="matrix" values="0 0 0 0 0 0 0 0 0 0 0 0 0 0 0 0 0 0 127 0" result="hardAlpha"/>
<feOffset dy="5.26829"/>
<feGaussianBlur stdDeviation="20.3488"/>
<feComposite in2="hardAlpha" operator="out"/>
<feColorMatrix type="matrix" values="0 0 0 0 0 0 0 0 0 0 0 0 0 0 0 0 0 0 0.06 0"/>
<feBlend mode="normal" in2="BackgroundImageFix" result="effect1_dropShadow_572_826"/>
<feBlend mode="normal" in="SourceGraphic" in2="effect1_dropShadow_572_826" result="shape"/>
</filter>
<clipPath id="clip0_572_826">
<rect width="324" height="387.22" fill="white"/>
</clipPath>
</defs>
</svg>
