<svg width="324" height="388" viewBox="0 0 324 388" fill="none" xmlns="http://www.w3.org/2000/svg">
<g clip-path="url(#clip0_572_964)" filter="url(#filter0_i_572_964)">
<rect width="324" height="387.22" fill="#C5DCFF"/>
<g filter="url(#filter1_d_572_964)">
<rect width="324" height="67.1707" fill="#E4EAF4"/>
<rect x="-0.658537" y="-0.658537" width="325.317" height="68.4878" stroke="white" stroke-width="1.31707"/>
<path d="M21.9736 37.5794V25.9375H24.4219V37.4295C24.4219 40.3275 26.0208 41.9264 28.8938 41.9264C31.7419 41.9264 33.3158 40.3026 33.3158 37.4295V25.9375H35.7891V37.5794C35.7891 41.7266 33.1409 44.2998 28.8938 44.2998C24.6218 44.2998 21.9736 41.7516 21.9736 37.5794ZM39.46 49.4712V31.7835H41.5835L41.7584 33.9819C42.5828 32.3081 44.2317 31.4337 46.1803 31.4337C49.6779 31.4337 51.8514 34.0569 51.8514 37.8043C51.8514 41.5267 49.8028 44.3248 46.1803 44.3248C44.2317 44.3248 42.6078 43.5003 41.8083 42.0014V49.4712H39.46ZM41.8333 37.9042C41.8333 40.4025 43.2823 42.2012 45.6807 42.2012C48.079 42.2012 49.503 40.4025 49.503 37.9042C49.503 35.381 48.079 33.5822 45.6807 33.5822C43.2823 33.5822 41.8333 35.356 41.8333 37.9042ZM53.6404 37.9042C53.6404 34.0819 56.0637 31.4337 59.6362 31.4337C62.7091 31.4337 64.8576 33.1825 65.2823 35.9056H62.934C62.5342 34.3567 61.2851 33.5322 59.7112 33.5322C57.4877 33.5322 55.9638 35.2311 55.9638 37.8792C55.9638 40.5024 57.3878 42.2012 59.6113 42.2012C61.2851 42.2012 62.5342 41.3269 62.9589 39.8779H65.3073C64.8326 42.526 62.5592 44.2998 59.6113 44.2998C56.0137 44.2998 53.6404 41.7516 53.6404 37.9042ZM66.9856 37.8792C66.9856 34.1068 69.6838 31.4587 73.3562 31.4587C77.0037 31.4587 79.7018 34.1068 79.7018 37.8792C79.7018 41.6516 77.0037 44.2998 73.3562 44.2998C69.6838 44.2998 66.9856 41.6516 66.9856 37.8792ZM69.359 37.8792C69.359 40.4275 70.9829 42.2012 73.3562 42.2012C75.7046 42.2012 77.3535 40.4275 77.3535 37.8792C77.3535 35.331 75.7046 33.5572 73.3562 33.5572C70.9829 33.5572 69.359 35.331 69.359 37.8792ZM84.6498 44H82.3014V31.7835H84.4L84.6248 33.3823C85.2494 32.2331 86.5485 31.4337 88.2723 31.4337C90.171 31.4337 91.52 32.383 92.1446 33.907C92.7192 32.383 94.1932 31.4337 96.0919 31.4337C98.8899 31.4337 100.589 33.1825 100.589 36.0055V44H98.2903V36.5801C98.2903 34.6565 97.2161 33.5572 95.5672 33.5572C93.7934 33.5572 92.6193 34.8064 92.6193 36.755V44H90.2959V36.5552C90.2959 34.6315 89.2466 33.5822 87.5977 33.5822C85.824 33.5822 84.6498 34.8064 84.6498 36.755V44ZM104.993 28.8855C104.144 28.8855 103.444 28.1859 103.444 27.3365C103.444 26.4621 104.144 25.7876 104.993 25.7876C105.843 25.7876 106.542 26.4621 106.542 27.3365C106.542 28.1859 105.843 28.8855 104.993 28.8855ZM103.844 44V31.7835H106.192V44H103.844ZM111.95 44H109.602V31.7835H111.725L111.975 33.6572C112.75 32.2581 114.299 31.4337 116.022 31.4337C119.245 31.4337 120.719 33.4073 120.719 36.5302V44H118.371V37.0548C118.371 34.5815 117.222 33.5822 115.423 33.5822C113.224 33.5822 111.95 35.1561 111.95 37.5295V44ZM123.197 37.5794C123.197 34.1318 125.421 31.4337 128.968 31.4337C130.942 31.4337 132.466 32.3331 133.24 33.857L133.415 31.7835H135.514V43.5003C135.514 47.3477 133.14 49.796 129.393 49.796C126.07 49.796 123.797 47.9223 123.347 44.8244H125.696C125.995 46.6232 127.344 47.6725 129.393 47.6725C131.691 47.6725 133.19 46.1735 133.19 43.8501V41.4018C132.391 42.8258 130.792 43.6752 128.868 43.6752C125.396 43.6752 123.197 41.0021 123.197 37.5794ZM125.546 37.5295C125.546 39.8279 126.97 41.6266 129.268 41.6266C131.641 41.6266 133.09 39.9278 133.09 37.5295C133.09 35.1811 131.691 33.4823 129.293 33.4823C126.945 33.4823 125.546 35.281 125.546 37.5295ZM144.385 28.1859V25.9375H157.701V28.1859H152.28V44H149.831V28.1859H144.385ZM163.058 44.2998C159.46 44.2998 156.987 41.7016 156.987 37.9042C156.987 34.0819 159.41 31.4337 162.958 31.4337C166.43 31.4337 168.704 33.832 168.704 37.4545V38.3289L159.26 38.3539C159.435 40.9271 160.784 42.3511 163.108 42.3511C164.931 42.3511 166.13 41.6017 166.53 40.2026H168.729C168.129 42.8258 166.081 44.2998 163.058 44.2998ZM162.958 33.4073C160.909 33.4073 159.61 34.6315 159.31 36.78H166.355C166.355 34.7564 165.031 33.4073 162.958 33.4073ZM170.327 40.4525H172.576C172.576 41.7016 173.525 42.4511 175.074 42.4511C176.723 42.4511 177.672 41.7765 177.672 40.6523C177.672 39.8279 177.273 39.3282 175.998 39.0035L173.85 38.5038C171.676 37.9792 170.652 36.9049 170.652 35.1062C170.652 32.8577 172.551 31.4337 175.249 31.4337C177.922 31.4337 179.671 32.9327 179.721 35.2561H177.472C177.422 34.0319 176.598 33.2574 175.174 33.2574C173.7 33.2574 172.876 33.907 172.876 35.0312C172.876 35.8556 173.475 36.4053 174.674 36.705L176.823 37.2297C178.896 37.7293 179.921 38.6787 179.921 40.5024C179.921 42.8258 177.922 44.2998 175.024 44.2998C172.151 44.2998 170.327 42.7758 170.327 40.4525ZM185.973 44H183.624V33.7571H181.226V31.7835H183.624V27.9611H185.973V31.7835H188.371V33.7571H185.973V44Z" fill="black"/>
</g>
<path d="M17.7621 167.328C16.722 167.328 15.8187 167.191 15.0523 166.918C14.1216 166.644 13.6562 165.878 13.6561 164.618L13.6525 116.909C13.6525 115.978 13.4881 114.582 13.1595 112.721C12.7762 111.024 12.5845 109.628 12.5844 108.533L12.5844 108.287C13.5149 106.754 14.1991 105.769 14.6371 105.331C15.4035 105.331 16.4162 105.221 17.6753 105.002C18.8249 104.783 19.8377 104.673 20.7136 104.673C21.5895 104.673 22.438 104.947 23.2592 105.494C24.0804 105.987 24.491 106.589 24.4911 107.301C24.4912 108.943 23.2322 109.764 20.714 109.764L19.5643 109.765C19.2359 109.71 18.8527 109.683 18.4147 109.683C17.922 109.683 17.6209 109.71 17.5114 109.765C17.5116 111.626 17.6212 113.871 17.8404 116.498L18.0048 118.797L18.1694 123.314C18.1695 124.354 18.0875 125.941 17.9234 128.077L17.7595 132.675L18.9091 132.429C20.004 132.1 20.9072 131.936 21.6189 131.936C22.2211 131.936 22.7685 132.182 23.2613 132.675C23.754 133.113 24.0004 133.633 24.0004 134.235C24.0005 134.892 23.7815 135.494 23.3436 136.041C22.9605 136.534 22.4678 136.78 21.8656 136.781L20.8802 136.698L19.8127 136.699C18.9915 136.699 18.4168 136.89 18.0883 137.273L18.0902 162.647L22.6887 162.401C25.8091 162.4 27.3693 163.112 27.3695 164.535L27.3695 164.864C27.0411 165.521 26.4389 166.068 25.5631 166.506C24.6872 166.889 23.8387 167.136 23.0175 167.245L20.3077 167.328L17.7621 167.328ZM58.4357 167.079C57.7788 167.079 57.2861 166.914 56.9576 166.586C56.6291 166.203 56.3827 165.573 56.2184 164.697L55.7256 163.137L55.7256 162.973L55.7256 162.727C55.7255 160.92 53.8363 154.761 50.0582 144.251C46.3348 133.74 43.4054 125.967 41.2701 120.931L41.2732 162.235L41.6017 162.81C41.6564 162.919 41.7659 163.111 41.9302 163.385C42.0944 163.658 42.1766 163.932 42.1766 164.206C42.1766 164.917 41.9303 165.52 41.4377 166.012C40.945 166.505 40.3429 166.751 39.6312 166.751C37.8794 166.752 37.0033 165.082 37.0031 161.743L36.9199 147.701C36.8649 143.486 36.8371 138.778 36.8368 133.577C36.8366 131.825 36.9185 129.279 37.0825 125.94C37.2465 122.491 37.3284 119.946 37.3283 118.303C37.3281 115.73 38.3133 113.705 40.284 112.226L40.2841 112.719C40.6125 112.61 40.8315 112.555 40.941 112.555C42.2001 112.555 43.7878 114.744 45.7042 119.124C47.2373 122.627 48.6061 126.322 49.8108 130.209C51.0702 134.096 52.7129 139.625 54.739 146.796L55.5604 149.752C56.8198 154.186 57.7781 157.362 58.4352 159.278C59.5291 147.507 60.0755 133.602 60.0743 117.563L60.0743 116.495C60.0195 116.167 59.9921 115.811 59.9921 115.428C59.9919 113.785 60.6488 112.964 61.9627 112.964C62.7291 112.964 63.3039 113.265 63.6872 113.867C64.1252 114.469 64.3442 115.236 64.3443 116.166L64.3447 122.325C64.2359 130.755 63.9081 139.898 63.3614 149.752C62.8147 159.606 62.1582 165.162 61.3919 166.421C59.8043 166.859 58.8189 167.078 58.4357 167.079ZM85.9869 167.487C84.4541 167.487 83.0581 167.214 81.7989 166.666C80.5398 166.064 79.4722 165.298 78.5963 164.367C77.8845 163.601 77.2275 162.479 76.6252 161.001C76.0229 159.523 75.5849 158.099 75.311 156.731C75.0373 155.691 74.8182 154.185 74.6538 152.214C74.4894 150.244 74.3798 148.547 74.3249 147.123L74.3246 142.36L74.3243 139.076C74.3241 135.901 74.3786 133.3 74.488 131.275C74.5973 128.811 74.9529 126.211 75.5549 123.474C76.0474 121.01 76.8958 118.848 78.1 116.986C79.2495 115.125 80.8643 113.838 82.9446 113.127C83.9299 112.743 85.0795 112.552 86.3934 112.551C88.7474 112.551 89.9244 113.236 89.9245 114.604C89.9246 115.261 89.6509 115.809 89.1035 116.246C88.6108 116.63 88.0086 116.821 87.297 116.821C86.9685 116.821 86.6674 116.794 86.3937 116.739C86.1747 116.685 85.901 116.657 85.5725 116.657C84.6419 116.657 83.8208 117.15 83.1092 118.136C82.3976 119.121 81.7955 120.49 81.3029 122.242C80.4273 125.636 79.8254 129.331 79.4972 133.327C79.2785 137.05 79.1692 139.814 79.1694 141.621C79.1695 143.482 79.2518 146.028 79.4163 149.258C79.6355 152.269 80.101 154.896 80.8128 157.141C81.1961 158.455 81.6342 159.522 82.1269 160.343C82.6744 161.11 83.3588 161.766 84.18 162.314C85.1107 162.916 86.0687 163.217 87.0541 163.217C89.6818 163.217 90.9953 158.837 90.9947 150.078L90.9944 146.301C90.6112 146.137 89.9816 146.054 89.1057 146.055L88.3667 146.055L87.4634 146.055C85.5474 146.055 84.5893 145.425 84.5892 144.166C84.5891 143.4 84.8354 142.825 85.3281 142.442C85.8755 142.004 86.5598 141.785 87.381 141.785L87.381 141.867L88.5306 141.867C93.4575 141.866 95.9211 142.715 95.9212 144.412C95.9212 144.904 95.7845 145.89 95.5108 147.368C95.1825 148.682 95.0183 149.667 95.0184 150.324C95.0184 151.255 95.1007 152.705 95.265 154.676L95.4296 159.028C95.4298 161.656 94.4993 163.736 92.6381 165.269C90.8317 166.748 88.6146 167.487 85.9869 167.487ZM116.345 168.142C114.375 167.485 111.938 167.157 109.037 167.157C108.161 167.704 107.231 167.978 106.245 167.978C105.588 167.978 105.013 167.677 104.521 167.075C104.083 166.528 103.864 165.925 103.864 165.269C103.863 160.67 104.054 154.539 104.437 146.875C104.765 138.718 104.929 132.614 104.928 128.563L104.928 127.988C104.6 124.539 104.435 121.966 104.435 120.269C104.435 115.068 105.392 112.468 107.309 112.468C107.856 112.468 108.321 112.687 108.705 113.125C109.143 113.508 109.362 113.973 109.362 114.521C109.362 115.177 109.28 116.218 109.115 117.641C108.951 119.01 108.869 120.05 108.869 120.761C108.87 124.429 108.897 127.741 108.952 130.697C109.007 133.599 109.035 136.883 109.035 140.551C108.761 141.372 108.625 142.522 108.625 144L108.625 144.986L108.461 151.473C108.352 153.389 108.297 155.579 108.297 158.042C108.298 161.819 109.201 163.708 111.008 163.708C111.117 163.708 111.281 163.708 111.5 163.708C111.774 163.653 112.13 163.626 112.568 163.626C113.06 163.571 113.69 163.543 114.456 163.543C117.413 163.543 118.891 164.364 118.891 166.006C118.891 166.554 118.645 167.019 118.152 167.402C117.659 167.786 117.057 168.032 116.345 168.142ZM129.778 166.745C125.015 166.745 122.634 165.924 122.633 164.282C122.633 162.968 123.482 162.311 125.179 162.311L126.082 162.311L126.903 162.393C127.341 162.393 127.642 162.256 127.807 161.982C127.971 161.708 128.053 161.216 128.053 160.504C128.053 159.573 127.998 158.123 127.888 156.152C127.724 154.838 127.532 152.484 127.313 149.09C126.82 140.714 126.573 134.391 126.572 130.121C126.572 128.588 126.6 127.192 126.654 125.933L126.736 121.745C126.736 119.939 126.654 118.433 126.489 117.229C125.613 117.448 124.984 117.558 124.601 117.558C123.287 117.558 122.63 116.901 122.63 115.587C122.63 114.93 123.04 114.355 123.861 113.863C124.683 113.37 125.723 113.014 126.982 112.795C129.171 112.357 131.115 112.138 132.812 112.137C133.469 112.137 134.016 112.384 134.454 112.876C134.947 113.314 135.193 113.834 135.193 114.436C135.193 115.039 135.002 115.559 134.619 115.997C134.29 116.435 133.852 116.654 133.305 116.654C132.976 116.654 132.703 116.626 132.484 116.572L131.827 116.572C131.279 116.572 130.869 116.709 130.595 116.982C130.376 117.201 130.267 117.639 130.267 118.296C130.267 123.606 130.596 131.599 131.254 142.274C131.364 144.245 131.583 147.146 131.912 150.978C132.185 153.496 132.322 156.069 132.323 158.697L132.323 161.818C132.651 161.763 133.199 161.735 133.965 161.735C136.264 161.735 137.414 162.693 137.414 164.609L137.414 165.102L135.362 166.498C135.307 166.498 135.115 166.525 134.787 166.58C134.513 166.58 133.966 166.58 133.144 166.58C131.393 166.69 130.27 166.745 129.778 166.745ZM145.674 167.975C144.689 167.811 143.84 167.455 143.129 166.908C142.472 166.361 142.088 165.649 141.979 164.773L142.882 163.377C143.21 163.377 143.731 163.486 144.442 163.705C145.263 163.869 145.893 163.952 146.331 163.952C147.316 163.951 148.192 163.513 148.959 162.637C149.78 161.761 150.382 160.612 150.765 159.188C151.476 156.561 151.832 154.207 151.832 152.126C151.831 148.513 150.682 144.709 148.382 140.713L147.479 139.152C146.438 137.346 145.562 135.731 144.851 134.308C144.139 132.885 143.537 131.352 143.044 129.709C142.387 127.574 142.058 125.44 142.058 123.304C142.058 120.896 142.605 118.377 143.7 115.75C144.247 114.491 145.013 113.478 145.999 112.711C147.039 111.89 148.188 111.479 149.447 111.479C150.433 111.479 151.336 111.808 152.157 112.464C153.033 113.067 153.471 113.806 153.471 114.681C153.471 115.174 153.28 115.557 152.897 115.831C152.513 116.105 152.048 116.242 151.501 116.242C150.898 116.242 150.324 116.078 149.776 115.749C148.572 115.804 147.614 116.872 146.902 118.952C146.3 120.868 145.999 122.456 145.999 123.715C146 125.302 146.246 126.917 146.739 128.56C147.232 130.147 147.861 131.598 148.628 132.912L150.435 136.196L153.309 141.615C154.076 143.148 154.678 144.927 155.116 146.953C155.609 148.978 155.855 151.031 155.856 153.112C155.856 156.451 155.09 159.626 153.557 162.637C152.791 164.17 151.696 165.402 150.273 166.333C148.904 167.263 147.371 167.729 145.674 167.729L145.674 167.975ZM178.937 166.823C177.076 166.823 176.145 162.307 176.144 153.274L176.226 148.594L176.308 144.816L176.307 144.57L176.307 143.749C176.362 143.311 176.389 142.791 176.389 142.189C176.389 142.079 176.307 141.942 176.143 141.778C175.979 141.614 175.897 141.477 175.897 141.367L175.897 141.285C175.623 141.395 175.13 141.45 174.419 141.45C173.707 141.45 172.831 141.34 171.791 141.121C171.462 141.067 170.586 140.93 169.163 140.711L169.164 150.154C169.164 151.578 169.246 153.822 169.411 156.888C169.575 159.899 169.657 162.143 169.658 163.621C169.658 164.442 169.439 165.154 169.001 165.756C168.563 166.359 167.988 166.66 167.276 166.66C166.236 166.66 165.497 165.647 165.059 163.622C164.621 161.541 164.402 158.832 164.402 155.492L164.565 148.841C164.62 146.98 164.647 145.009 164.647 142.928L164.647 141.533L164.647 140.383C164.647 139.507 164.619 138.932 164.564 138.658L164.564 138.248L164.81 133.485C164.81 131.405 164.728 128.312 164.563 124.206C164.399 120.1 164.317 117.007 164.316 114.927C164.316 114.27 164.535 113.695 164.973 113.203C165.411 112.71 165.958 112.463 166.615 112.463C168.367 112.463 169.243 114.105 169.243 117.39L169.08 127.572C168.971 130.638 168.916 134.06 168.917 137.837C169.738 138.111 171.216 138.247 173.351 138.247L176.389 138.247C176.499 137.919 176.553 137.59 176.553 137.262C176.553 134.634 176.389 130.747 176.06 125.601C175.676 120.784 175.484 116.87 175.484 113.859C175.484 113.256 175.703 112.764 176.141 112.381C176.634 111.943 177.208 111.724 177.865 111.723C178.248 111.723 178.796 111.86 179.508 112.134L180.247 112.462C180.247 120.236 180.522 130.61 181.07 143.584L181.811 164.359C181.811 165.126 181.51 165.728 180.908 166.166C180.36 166.604 179.703 166.823 178.937 166.823Z" fill="black"/>
<path d="M49.001 204.892C49.9175 204.892 50.5095 205.561 50.7769 206.897C50.9683 213.121 51.0642 219.919 51.0648 227.289C51.0653 234.62 51.0275 238.859 50.9512 240.005C50.8749 241.15 50.6267 241.952 50.2067 242.411C49.7867 242.869 49.023 243.098 47.9156 243.098C46.9227 243.098 46.4263 242.487 46.4262 241.265L46.4252 228.32C46.425 226.22 46.3867 224.062 46.3102 221.847C46.2336 219.633 46.1953 218.239 46.1953 217.666C44.8971 219.881 43.1789 221.714 41.0405 223.165C38.9022 224.578 36.5156 225.285 33.8807 225.285C31.2458 225.285 29.0309 224.197 27.236 222.021C27.1598 224.35 27.1218 227.119 27.1221 230.326C27.1223 233.496 27.1416 236.837 27.1801 240.35C27.1802 241.305 26.8556 242.011 26.2065 242.47C25.5955 242.89 24.8891 243.1 24.0872 243.1C23.0562 243.1 22.5406 242.47 22.5405 241.21C22.5784 237.773 22.5971 232.331 22.5965 224.885L22.5953 208.618C22.5953 207.968 22.8053 207.338 23.2253 206.727C23.6835 206.116 24.199 205.811 24.7717 205.811C25.3827 205.811 25.9365 205.982 26.4329 206.326C26.9293 206.632 27.1967 207.109 27.2349 207.758C27.388 211.997 28.0756 215.147 29.2977 217.209C30.5198 219.271 31.971 220.302 33.6512 220.302C35.3314 220.302 36.7634 220.034 37.9471 219.5C39.1691 218.927 40.1619 218.277 40.9255 217.552C41.7274 216.826 42.491 215.795 43.2165 214.459C44.2474 212.549 45.2401 210.201 46.1945 207.413C46.7672 205.733 47.7027 204.893 49.001 204.892ZM71.8409 216.289C73.5211 216.289 74.3613 217.721 74.3615 220.585C74.3615 220.891 74.3615 221.215 74.3616 221.559L74.2473 225.569C74.2092 226.829 74.1902 228.07 74.1903 229.292L75.0505 242.237C75.0506 243.192 74.0768 243.669 72.1293 243.669C72.0148 243.669 71.7284 243.669 71.2701 243.669C70.8501 243.669 70.5446 243.497 70.3536 243.154C70.2008 242.81 70.1817 242.39 70.2962 241.894C70.4489 241.397 70.4107 240.843 70.1815 240.232C68.4251 242.104 66.0958 243.039 63.1936 243.04C57.8093 243.04 55.1169 238.878 55.1162 230.553C55.1159 225.933 55.9748 222.439 57.693 220.071C59.4494 217.703 61.9506 216.519 65.1964 216.519C66.7239 216.519 68.2514 216.786 69.7789 217.321C70.2752 216.633 70.9626 216.289 71.8409 216.289ZM65.8842 221.502C63.7075 221.502 62.0846 222.133 61.0155 223.393C59.9464 224.653 59.4119 226.963 59.4122 230.324C59.4126 235.975 60.9403 238.801 63.9952 238.801C64.7971 238.801 65.6754 238.438 66.63 237.712C67.6228 236.987 68.3101 236.166 68.6919 235.249C69.4173 233.187 69.7799 230.934 69.7797 228.49C69.7795 226.046 69.4739 224.271 68.8628 223.163C68.2899 222.056 67.2971 221.502 65.8842 221.502ZM79.7227 216.289L82.5866 216.346C83.2358 216.346 83.5986 216.327 83.675 216.288L83.6741 204.546C83.7122 203.897 84.0368 203.343 84.6477 202.885C85.2587 202.427 85.8314 202.198 86.3661 202.197C86.9007 202.197 87.3207 202.369 87.6262 202.713C87.97 203.057 88.1227 203.591 88.0846 204.317C88.0465 205.042 88.0277 209.014 88.0282 216.231L94.7299 216.001C95.8755 216.001 96.4484 216.669 96.4485 218.006C96.4486 218.999 96.1431 219.743 95.5322 220.24C94.9594 220.736 94.3294 221.004 93.642 221.042C92.9928 221.08 92.3437 221.099 91.6945 221.099L88.2004 221.042C88.2005 222.608 88.3535 225.701 88.6594 230.322C89.0034 234.942 89.2709 237.94 89.4619 239.315C89.653 240.651 89.6912 241.529 89.5767 241.949C89.4622 242.331 89.2522 242.599 88.9467 242.751C88.4503 242.981 87.782 243.095 86.9419 243.095C86.1018 243.095 85.6054 242.637 85.4525 241.721C84.6884 236.718 84.1724 229.845 83.9044 221.1C83.5608 221.138 82.2433 221.157 79.9521 221.158C77.6609 221.158 76.5153 220.49 76.5152 219.153C76.5151 217.244 77.5842 216.289 79.7227 216.289ZM104.11 224.478L104.569 237.996C104.57 239.676 104.493 240.65 104.34 240.917C104.264 241.605 104.035 242.139 103.653 242.521C103.31 242.903 102.622 243.094 101.591 243.094C101.095 243.094 100.694 242.789 100.388 242.178C100.083 241.529 99.9108 240.803 99.8726 240.001C99.6048 233.28 99.2415 226.98 98.7829 221.099C98.3624 215.18 98.1519 209.681 98.1515 204.602C98.1515 203.8 98.4187 203.17 98.9533 202.712C99.4879 202.254 100.118 202.025 100.844 202.025C101.913 202.024 102.543 202.941 102.734 204.774C102.963 206.607 103.097 208.898 103.135 211.647C103.212 214.397 103.289 216.402 103.365 217.662C105.274 216.669 107.184 216.172 109.093 216.172C113.522 216.172 116.329 218.119 117.513 222.014C118.201 224.229 118.545 227.074 118.545 230.549C118.545 231.694 118.431 233.508 118.202 235.99C118.011 238.434 117.897 240.019 117.859 240.744C117.82 241.47 117.496 242.043 116.885 242.463C116.312 242.845 115.682 243.036 114.995 243.036C113.925 243.036 113.391 242.463 113.391 241.318L113.791 231.351C113.791 230.511 113.753 229.117 113.676 227.169C113.6 225.222 113.198 223.675 112.473 222.53C111.785 221.384 110.563 220.812 108.807 220.812C105.676 220.812 104.11 222.034 104.11 224.478ZM130.282 216.514C132.306 216.514 134.234 217.106 136.067 218.289C137.9 219.473 138.817 220.943 138.817 222.7C138.817 224.418 138.073 226.098 136.584 227.74C135.094 229.344 133.109 230.318 130.627 230.662C129.557 230.815 127.954 230.892 125.815 230.892C126.235 234.138 127.057 236.276 128.279 237.307C128.661 237.727 129.176 237.937 129.825 237.937C132.193 237.937 134.179 237.192 135.782 235.702C137.386 234.175 138.531 233.411 139.219 233.411C139.524 233.411 139.983 233.697 140.594 234.27C141.205 234.843 141.51 235.377 141.51 235.874C141.51 236.867 140.308 238.299 137.902 240.17C136.833 241.048 135.534 241.793 134.007 242.404C132.518 242.977 131.124 243.264 129.826 243.264C126.503 243.264 124.059 241.126 122.493 236.849C121.5 234.214 121.004 231.312 121.003 228.143C121.003 224.973 121.748 222.243 123.237 219.951C124.726 217.66 127.074 216.514 130.282 216.514ZM130.569 220.466C129.118 220.467 127.877 221.288 126.846 222.93C126.464 223.503 126.101 224.801 125.758 226.825C131.104 226.824 133.777 225.507 133.776 222.872C133.776 221.268 132.707 220.466 130.569 220.466ZM148.123 243.091C147.13 243.091 146.538 242.537 146.347 241.43C146.347 233.716 145.888 226.842 144.971 220.809C144.971 220.045 145.238 219.358 145.773 218.747C146.345 218.136 146.976 217.83 147.663 217.83C148.388 217.83 148.923 218.231 149.267 219.033C150.68 217.162 152.57 216.226 154.937 216.226C157.954 216.226 160.284 217.677 161.926 220.579C163.835 217.829 166.355 216.454 169.486 216.454C172.656 216.454 175.024 217.714 176.589 220.234C177.621 221.799 178.346 223.861 178.766 226.42C179.187 228.978 179.397 232.606 179.397 237.303C179.397 239.136 179.207 240.568 178.825 241.599C178.443 242.592 177.641 243.088 176.419 243.088C175.426 243.089 174.93 242.459 174.93 241.198L175.101 234.038C175.1 225.446 172.866 221.151 168.398 221.151C166.986 221.151 165.993 221.648 165.42 222.64C164.771 223.824 164.389 225.065 164.275 226.364C164.122 228.655 164.046 230.736 164.046 232.607L164.047 240.913C164.047 241.524 163.741 242.039 163.13 242.459C162.519 242.879 161.889 243.09 161.24 243.09C160.4 243.09 159.865 242.536 159.636 241.429L159.807 229.572C159.807 225.371 159.1 222.755 157.687 221.725C157 221.228 155.95 220.98 154.537 220.98C153.162 220.98 152.131 221.496 151.444 222.527C150.795 223.558 150.47 225.219 150.47 227.51L150.815 238.164C150.815 241.448 149.918 243.09 148.123 243.091ZM199.769 216.28C201.45 216.28 202.29 217.712 202.29 220.576C202.29 220.881 202.29 221.206 202.29 221.549L202.176 225.559C202.138 226.819 202.119 228.06 202.119 229.282L202.979 242.227C202.979 243.182 202.005 243.659 200.058 243.66C199.943 243.66 199.657 243.66 199.199 243.66C198.779 243.66 198.473 243.488 198.282 243.144C198.129 242.8 198.11 242.38 198.225 241.884C198.378 241.388 198.339 240.834 198.11 240.223C196.354 242.094 194.024 243.03 191.122 243.03C185.738 243.031 183.045 238.868 183.045 230.544C183.044 225.923 183.903 222.429 185.622 220.061C187.378 217.694 189.879 216.51 193.125 216.509C194.652 216.509 196.18 216.776 197.707 217.311C198.204 216.624 198.891 216.28 199.769 216.28ZM193.813 221.493C191.636 221.493 190.013 222.123 188.944 223.383C187.875 224.644 187.341 226.954 187.341 230.314C187.341 235.966 188.869 238.792 191.924 238.791C192.726 238.791 193.604 238.428 194.559 237.703C195.551 236.977 196.239 236.156 196.62 235.24C197.346 233.178 197.708 230.924 197.708 228.481C197.708 226.037 197.402 224.261 196.791 223.154C196.219 222.046 195.226 221.493 193.813 221.493ZM207.651 216.279L210.515 216.336C211.164 216.336 211.527 216.317 211.604 216.279L211.603 204.537C211.641 203.887 211.965 203.334 212.576 202.875C213.187 202.417 213.76 202.188 214.295 202.188C214.829 202.188 215.249 202.36 215.555 202.703C215.899 203.047 216.051 203.582 216.013 204.307C215.975 205.033 215.956 209.004 215.957 216.221L222.659 215.992C223.804 215.992 224.377 216.66 224.377 217.996C224.377 218.989 224.072 219.734 223.461 220.23C222.888 220.727 222.258 220.994 221.571 221.032C220.921 221.071 220.272 221.09 219.623 221.09L216.129 221.033C216.129 222.598 216.282 225.692 216.588 230.312C216.932 234.933 217.2 237.93 217.391 239.305C217.582 240.641 217.62 241.52 217.505 241.94C217.391 242.322 217.181 242.589 216.875 242.742C216.379 242.971 215.711 243.086 214.871 243.086C214.03 243.086 213.534 242.627 213.381 241.711C212.617 236.709 212.101 229.835 211.833 221.09C211.489 221.129 210.172 221.148 207.881 221.148C205.59 221.148 204.444 220.48 204.444 219.143C204.444 217.234 205.513 216.279 207.651 216.279ZM229.689 206.826C230.376 206.826 231.026 207.151 231.637 207.8C232.248 208.449 232.553 209.136 232.553 209.862C232.553 210.549 232.21 211.256 231.522 211.981C230.873 212.707 230.186 213.07 229.46 213.07C228.735 213.07 228.066 212.765 227.455 212.154C226.883 211.543 226.596 210.76 226.596 209.805C226.596 207.972 227.589 206.979 229.574 206.826C229.613 206.826 229.651 206.826 229.689 206.826ZM232.097 236.841L232.155 240.85C232.155 241.576 231.868 242.187 231.295 242.683C230.723 243.142 230.112 243.371 229.463 243.371C228.508 243.371 228.011 242.894 227.973 241.939C227.476 229.758 227.227 223.018 227.227 221.719C227.227 220.421 227.284 218.836 227.399 216.965C227.475 216.278 227.914 215.934 228.716 215.934C230.74 215.934 231.885 216.755 232.153 218.397C232.267 219.237 232.325 219.905 232.325 220.401L232.096 224.01L232.097 236.841ZM237.918 229.623C237.918 227.065 238.586 224.735 239.922 222.635C241.297 220.534 243.034 218.969 245.134 217.937C247.234 216.868 249.277 216.333 251.263 216.333C253.249 216.333 254.834 216.581 256.017 217.077C257.239 217.536 257.85 218.166 257.85 218.968C257.851 219.731 257.621 220.514 257.163 221.316C256.743 222.08 256.171 222.462 255.445 222.462C255.178 222.462 254.433 222.252 253.211 221.832C252.027 221.374 251.263 221.145 250.92 221.145C248.705 221.145 246.815 221.966 245.249 223.608C243.684 225.212 242.901 227.351 242.901 230.024C242.901 232.697 243.322 234.702 244.162 236.038C245.04 237.336 246.53 237.985 248.63 237.985C249.47 237.985 250.902 237.508 252.926 236.553C254.988 235.56 256.267 235.063 256.763 235.063C257.26 235.063 257.661 235.216 257.966 235.521C258.272 235.827 258.425 236.209 258.425 236.667C258.425 237.583 257.833 238.557 256.649 239.588C255.504 240.581 254.072 241.422 252.353 242.109C250.635 242.758 249.088 243.083 247.714 243.083C244.659 243.083 242.253 241.881 240.496 239.475C238.778 237.069 237.918 233.785 237.918 229.623ZM261.9 223.55C261.9 221.297 262.702 219.502 264.306 218.165C265.909 216.829 267.761 216.16 269.862 216.16C272 216.16 274.043 216.542 275.991 217.305C277.938 218.069 278.912 219.081 278.912 220.341C278.912 220.99 278.664 221.505 278.168 221.887C277.671 222.269 277.232 222.46 276.85 222.46C276.506 222.46 276.22 222.46 275.991 222.46C275.8 222.422 275.036 222.059 273.7 221.372C272.401 220.685 271.198 220.341 270.091 220.341C268.984 220.341 268.029 220.628 267.227 221.201C266.463 221.735 266.082 222.537 266.082 223.607C266.082 224.676 266.521 225.516 267.399 226.127C268.316 226.738 269.901 227.272 272.154 227.73C274.407 228.15 276.125 228.761 277.309 229.563C278.531 230.365 279.142 231.854 279.142 234.031C279.142 237.2 278.303 239.453 276.622 240.79C274.981 242.088 272.976 242.738 270.608 242.738C268.241 242.738 266.217 242.413 264.536 241.764C262.894 241.115 262.073 240.142 262.073 238.843C262.073 237.354 262.818 236.609 264.307 236.609C264.689 236.609 265.529 236.876 266.827 237.411C268.126 237.946 269.405 238.213 270.665 238.213C271.963 238.213 272.937 237.811 273.586 237.01C274.274 236.169 274.617 235.215 274.617 234.145C274.617 233.076 274.178 232.313 273.3 231.854C272.421 231.358 271.085 230.957 269.29 230.652C267.495 230.346 266.178 230.022 265.337 229.678C263.046 228.762 261.9 226.719 261.9 223.55Z" fill="black"/>
<path d="M30.996 332.964C27.0499 332.964 23.6756 331.878 20.8731 329.705C18.0706 327.532 15.9257 324.558 14.4385 320.783C13.0084 317.009 12.2932 312.72 12.2929 307.916C12.2925 302.54 13.5503 297.45 16.0663 292.645C18.5823 287.784 21.8705 283.895 25.9308 280.978C30.0483 278.004 34.3088 276.516 38.7125 276.516C42.4299 276.516 45.2895 277.345 47.2913 279.003C49.2931 280.662 50.294 282.606 50.2942 284.836C50.2943 286.152 49.8941 287.353 49.0935 288.44C48.3501 289.526 47.2635 290.356 45.8338 290.928C45.6622 290.584 45.5764 290.041 45.5763 289.298C45.5763 288.611 45.662 287.925 45.8335 287.239C45.9478 286.324 46.005 285.666 46.005 285.266C46.0049 284.694 45.9191 284.208 45.7475 283.807C44.9467 281.806 42.7734 280.805 39.2276 280.805C38.2553 280.805 37.1115 280.891 35.7961 281.063C32.7651 281.464 29.7627 282.979 26.789 285.61C23.8153 288.184 21.3849 291.415 19.4979 295.305C17.6109 299.194 16.6676 303.168 16.6679 307.229C16.6682 310.775 17.2403 314.149 18.3844 317.352C19.5856 320.497 21.3015 323.042 23.5321 324.986C25.7627 326.93 28.4221 327.902 31.5104 327.902C35.5137 327.902 38.8307 327.416 41.4614 326.443C44.1493 325.471 46.7799 323.984 49.3534 321.982C49.6393 321.753 49.9538 321.639 50.297 321.638C50.9261 321.638 51.355 322.01 51.5838 322.754C51.8699 324.126 50.955 325.613 48.839 327.215C46.7231 328.816 43.9781 330.189 40.6039 331.333C37.2298 332.42 34.0271 332.963 30.996 332.964ZM76.2761 332.102C72.9018 332.103 69.8421 331.359 67.0968 329.873C64.4088 328.329 62.2926 326.213 60.7482 323.525C59.2611 320.78 58.5174 317.663 58.5171 314.175C58.5167 308.455 60.6038 304.195 64.7785 301.392C69.0104 298.589 74.186 297.188 80.3054 297.187C83.1077 297.187 85.7099 297.873 88.112 299.246C90.5713 300.618 92.5445 302.591 94.0317 305.164C95.5188 307.738 96.2625 310.712 96.2628 314.086C96.2631 317.746 95.3197 320.949 93.4326 323.694C91.5455 326.382 89.0579 328.47 85.9697 329.957C82.9387 331.387 79.7075 332.102 76.2761 332.102ZM75.3321 327.213C80.6508 327.212 84.6826 326.011 87.4276 323.609C90.1725 321.207 91.5448 317.689 91.5445 313.057C91.5443 309.911 90.4574 307.195 88.284 304.907C86.1678 302.62 83.1938 301.476 79.3621 301.477C76.7885 301.477 74.1864 301.963 71.5557 302.936C68.925 303.908 66.7519 305.367 65.0363 307.311C63.3207 309.256 62.463 311.601 62.4632 314.346C62.4634 316.633 63.0355 318.778 64.1794 320.78C65.3234 322.724 66.8677 324.297 68.8122 325.497C70.814 326.641 72.9873 327.213 75.3321 327.213ZM158.762 332.096C157.904 332.096 157.389 331.868 157.217 331.41C157.046 330.895 156.96 330.123 156.96 329.094C157.017 328.693 157.046 328.236 157.046 327.721C157.046 327.149 157.074 326.72 157.131 326.434C157.474 323.689 157.646 321.087 157.645 318.628C157.645 313.195 156.73 308.963 154.899 305.932C153.069 302.844 150.181 301.3 146.235 301.3C144.061 301.3 141.888 301.844 139.715 302.93C137.599 304.017 135.855 305.361 134.482 306.963C133.167 308.564 132.51 310.023 132.51 311.338C132.796 312.997 133.311 315.027 134.054 317.429C134.112 317.715 134.34 318.601 134.741 320.088C135.198 321.575 135.427 322.919 135.427 324.12L135.513 325.75C135.513 326.665 135.056 327.122 134.141 327.122C132.997 327.123 132.053 326.379 131.31 324.892C130.623 323.405 129.851 321.089 128.993 317.944C128.135 314.856 127.305 312.311 126.505 310.309C125.704 308.307 124.617 306.592 123.244 305.162C121.872 303.733 120.127 303.018 118.011 303.018C115.095 303.018 112.807 304.019 111.149 306.021C109.547 308.023 108.747 310.482 108.747 313.399C108.747 315.343 108.919 317.917 109.263 321.119C109.549 323.521 109.692 325.58 109.692 327.296C109.692 328.325 109.578 329.097 109.349 329.612C109.12 330.127 108.577 330.384 107.719 330.384C106.575 330.384 105.775 330.013 105.317 329.269C104.859 328.469 104.631 327.268 104.63 325.666C104.63 322.521 104.458 318.718 104.115 314.257C104.058 313.685 103.943 312.227 103.771 309.882C103.6 307.48 103.571 305.078 103.685 302.676L103.771 299.845C104.114 299.502 104.514 299.33 104.972 299.33C105.601 299.33 106.115 299.73 106.516 300.531C106.973 301.274 107.202 302.418 107.202 303.962C108.06 302.475 109.318 301.131 110.977 299.93C112.635 298.729 114.379 298.128 116.209 298.128C119.355 298.128 121.957 298.786 124.016 300.101C126.132 301.359 128.048 303.417 129.764 306.277C131.365 303.36 133.767 300.872 136.97 298.813C140.229 296.754 143.575 295.724 147.006 295.724C150.552 295.724 153.498 297.067 155.843 299.755C158.245 302.443 159.989 305.674 161.076 309.449C162.22 313.223 162.792 316.712 162.793 319.914C162.793 322.774 162.536 325.519 162.021 328.15C161.564 330.781 160.477 332.096 158.762 332.096ZM219.1 328.746C223.79 328.746 227.421 328.088 229.995 326.772C232.568 325.457 233.855 323.541 233.855 321.024C233.855 318.794 233.082 316.878 231.538 315.277C229.994 313.618 228.078 312.217 225.79 311.074C223.503 309.93 220.386 308.586 216.439 307.042C216.096 306.928 215.267 306.614 213.951 306.099C208.575 303.926 204.429 301.753 201.512 299.58C198.652 297.407 197.222 294.605 197.222 291.174C197.222 287.342 198.737 284.454 201.768 282.509C204.799 280.564 208.688 279.592 213.435 279.591C216.923 279.591 220.126 280.048 223.043 280.963C226.017 281.821 228.362 283.022 230.078 284.566C231.851 286.11 232.737 287.854 232.737 289.798C232.051 290.141 231.393 290.313 230.764 290.313C230.078 290.313 229.363 290.17 228.62 289.884C227.933 289.541 226.904 288.998 225.531 288.255C223.301 287.054 221.213 286.11 219.269 285.424C217.324 284.681 215.036 284.309 212.406 284.31C209.089 284.31 206.401 284.882 204.342 286.026C202.283 287.17 201.254 288.771 201.254 290.83C201.254 292.431 201.941 293.89 203.313 295.205C204.743 296.52 206.516 297.693 208.632 298.722C210.805 299.694 213.694 300.866 217.297 302.238C221.872 304.011 225.647 305.669 228.621 307.213C231.595 308.757 234.111 310.73 236.17 313.132C238.287 315.476 239.345 318.279 239.345 321.539C239.345 325.37 237.516 328.344 233.856 330.461C230.196 332.52 225.649 333.55 220.216 333.55C215.927 333.55 211.694 332.921 207.519 331.664C203.344 330.406 199.77 328.547 196.796 326.088C193.822 323.572 191.934 320.57 191.133 317.081C191.133 315.537 191.562 314.222 192.42 313.135C193.278 311.991 194.336 311.419 195.594 311.419C195.594 315.136 196.624 318.31 198.683 320.941C200.799 323.514 203.63 325.459 207.176 326.774C210.779 328.089 214.754 328.746 219.1 328.746ZM267.278 332.088C260.587 332.089 255.382 330.573 251.665 327.543C248.004 324.455 246.174 319.708 246.173 313.303C246.173 310.043 246.973 306.954 248.575 304.038C250.233 301.064 252.434 298.69 255.179 296.917C257.982 295.087 260.984 294.171 264.187 294.171C267.447 294.171 270.22 294.885 272.508 296.315C274.796 297.687 275.94 299.689 275.94 302.32C275.94 304.15 275.597 305.465 274.911 306.266C274.282 307.01 273.567 307.381 272.766 307.381C272.766 304.636 272.022 302.406 270.535 300.69C269.048 298.975 266.932 298.117 264.187 298.117C261.442 298.117 259.069 298.861 257.067 300.348C255.065 301.778 253.521 303.694 252.435 306.096C251.406 308.441 250.891 310.9 250.891 313.474C250.892 318.907 252.722 322.596 256.383 324.54C260.1 326.484 264.99 327.456 271.052 327.455C273.111 327.455 275.799 327.341 279.116 327.112C279.23 327.112 279.488 327.226 279.888 327.455C280.288 327.683 280.603 327.826 280.832 327.884L280.832 328.398C280.832 330.057 279.374 331.086 276.457 331.487C273.54 331.887 270.481 332.088 267.278 332.088ZM290.04 332.086C288.725 332.086 287.666 330.171 286.865 326.339C286.064 322.45 285.549 319.104 285.321 316.302C285.092 313.5 284.777 309.068 284.376 303.005C284.319 302.033 284.29 300.775 284.29 299.231C284.29 297.286 284.433 295.942 284.718 295.199C285.062 294.455 285.605 294.084 286.348 294.084C286.977 294.084 287.464 294.226 287.807 294.512C288.207 294.741 288.55 295.141 288.836 295.713L288.751 299.145C288.751 302.805 288.923 306.265 289.266 309.525C289.667 312.785 290.268 317.16 291.069 322.65C291.526 325.052 291.841 327.025 292.013 328.569C292.127 329.37 291.984 330.17 291.584 330.971C291.184 331.715 290.669 332.086 290.04 332.086ZM287.892 284.904C286.634 284.904 285.69 284.418 285.061 283.446C284.489 282.474 284.203 281.273 284.203 279.843C284.203 279.214 284.231 278.757 284.288 278.471C284.231 277.556 284.746 277.098 285.832 277.098C286.633 277.098 287.434 277.298 288.234 277.698C289.092 278.041 289.35 278.299 289.006 278.47C289.578 279.957 289.865 281.13 289.865 281.988C289.865 282.731 289.693 283.332 289.35 283.789C289.007 284.189 288.521 284.561 287.892 284.904Z" fill="black"/>
</g>
<defs>
<filter id="filter0_i_572_964" x="0" y="0" width="324" height="388.537" filterUnits="userSpaceOnUse" color-interpolation-filters="sRGB">
<feFlood flood-opacity="0" result="BackgroundImageFix"/>
<feBlend mode="normal" in="SourceGraphic" in2="BackgroundImageFix" result="shape"/>
<feColorMatrix in="SourceAlpha" type="matrix" values="0 0 0 0 0 0 0 0 0 0 0 0 0 0 0 0 0 0 127 0" result="hardAlpha"/>
<feOffset dy="1.31707"/>
<feGaussianBlur stdDeviation="10.5366"/>
<feComposite in2="hardAlpha" operator="arithmetic" k2="-1" k3="1"/>
<feColorMatrix type="matrix" values="0 0 0 0 0 0 0 0 0 0 0 0 0 0 0 0 0 0 0.01 0"/>
<feBlend mode="normal" in2="shape" result="effect1_innerShadow_572_964"/>
</filter>
<filter id="filter1_d_572_964" x="-42.0145" y="-36.7463" width="408.029" height="151.2" filterUnits="userSpaceOnUse" color-interpolation-filters="sRGB">
<feFlood flood-opacity="0" result="BackgroundImageFix"/>
<feColorMatrix in="SourceAlpha" type="matrix" values="0 0 0 0 0 0 0 0 0 0 0 0 0 0 0 0 0 0 127 0" result="hardAlpha"/>
<feOffset dy="5.26829"/>
<feGaussianBlur stdDeviation="20.3488"/>
<feComposite in2="hardAlpha" operator="out"/>
<feColorMatrix type="matrix" values="0 0 0 0 0 0 0 0 0 0 0 0 0 0 0 0 0 0 0.06 0"/>
<feBlend mode="normal" in2="BackgroundImageFix" result="effect1_dropShadow_572_964"/>
<feBlend mode="normal" in="SourceGraphic" in2="effect1_dropShadow_572_964" result="shape"/>
</filter>
<clipPath id="clip0_572_964">
<rect width="324" height="387.22" fill="white"/>
</clipPath>
</defs>
</svg>
