<svg width="512" height="577" viewBox="0 0 512 577" fill="none" xmlns="http://www.w3.org/2000/svg">
<g clip-path="url(#clip0_570_723)" filter="url(#filter0_di_570_723)">
<rect width="324" height="387.22" transform="translate(39)" fill="#C5DCFF"/>
<g filter="url(#filter1_d_570_723)">
<rect x="39" width="324" height="67.1707" fill="#E4EAF4"/>
<rect x="38.3415" y="-0.658537" width="325.317" height="68.4878" stroke="white" stroke-width="1.31707"/>
<path d="M59.3498 28.1859V25.9375H72.6655V28.1859H67.2443V44H64.796V28.1859H59.3498ZM76.3236 44.2998C73.7004 44.2998 72.1514 42.8258 72.1514 40.6024C72.1514 38.3539 73.8253 36.9549 76.6983 36.73L80.5456 36.4302V36.0805C80.5456 34.0319 79.3215 33.3074 77.6726 33.3074C75.699 33.3074 74.5748 34.1818 74.5748 35.6558H72.5262C72.5262 33.1075 74.6247 31.4337 77.7726 31.4337C80.7955 31.4337 82.844 33.0326 82.844 36.3303V44H80.8454L80.5956 42.0264C79.971 43.4254 78.2972 44.2998 76.3236 44.2998ZM76.9981 42.4761C79.2215 42.4761 80.5706 41.0271 80.5706 38.7286V38.0791L77.4478 38.3289C75.3742 38.5288 74.5248 39.3282 74.5248 40.5274C74.5248 41.8265 75.4741 42.4761 76.9981 42.4761ZM88.4946 44H86.1462V25.6127H88.4946V37.5295L93.9159 31.7835H96.8638L92.1921 36.6551L96.8388 44H94.1407L90.5682 38.3539L88.4946 40.5274V44ZM103.591 44.2998C99.9931 44.2998 97.5198 41.7016 97.5198 37.9042C97.5198 34.0819 99.9431 31.4337 103.491 31.4337C106.963 31.4337 109.237 33.832 109.237 37.4545V38.3289L99.7932 38.3539C99.9681 40.9271 101.317 42.3511 103.641 42.3511C105.464 42.3511 106.663 41.6017 107.063 40.2026H109.262C108.662 42.8258 106.614 44.2998 103.591 44.2998ZM103.491 33.4073C101.442 33.4073 100.143 34.6315 99.8432 36.78H106.888C106.888 34.7564 105.564 33.4073 103.491 33.4073ZM114.208 44H111.86V31.7835H113.983L114.233 33.6572C115.008 32.2581 116.556 31.4337 118.28 31.4337C121.503 31.4337 122.977 33.4073 122.977 36.5302V44H120.629V37.0548C120.629 34.5815 119.479 33.5822 117.681 33.5822C115.482 33.5822 114.208 35.1561 114.208 37.5295V44ZM131.712 28.1859V25.9375H145.028V28.1859H139.606V44H137.158V28.1859H131.712ZM150.384 44.2998C146.787 44.2998 144.314 41.7016 144.314 37.9042C144.314 34.0819 146.737 31.4337 150.284 31.4337C153.757 31.4337 156.03 33.832 156.03 37.4545V38.3289L146.587 38.3539C146.762 40.9271 148.111 42.3511 150.434 42.3511C152.258 42.3511 153.457 41.6017 153.857 40.2026H156.055C155.456 42.8258 153.407 44.2998 150.384 44.2998ZM150.284 33.4073C148.236 33.4073 146.937 34.6315 146.637 36.78H153.682C153.682 34.7564 152.358 33.4073 150.284 33.4073ZM157.654 40.4525H159.903C159.903 41.7016 160.852 42.4511 162.401 42.4511C164.05 42.4511 164.999 41.7765 164.999 40.6523C164.999 39.8279 164.599 39.3282 163.325 39.0035L161.177 38.5038C159.003 37.9792 157.979 36.9049 157.979 35.1062C157.979 32.8577 159.878 31.4337 162.576 31.4337C165.249 31.4337 166.998 32.9327 167.048 35.2561H164.799C164.749 34.0319 163.925 33.2574 162.501 33.2574C161.027 33.2574 160.202 33.907 160.202 35.0312C160.202 35.8556 160.802 36.4053 162.001 36.705L164.15 37.2297C166.223 37.7293 167.248 38.6787 167.248 40.5024C167.248 42.8258 165.249 44.2998 162.351 44.2998C159.478 44.2998 157.654 42.7758 157.654 40.4525ZM173.299 44H170.951V33.7571H168.553V31.7835H170.951V27.9611H173.299V31.7835H175.698V33.7571H173.299V44Z" fill="black"/>
</g>
<path d="M63.4136 168.149C61.8807 168.149 60.4574 167.793 59.1434 167.081C57.8843 166.37 56.7893 165.412 55.8586 164.208C55.0374 163.058 54.2982 161.607 53.6411 159.856C52.9841 158.049 52.4912 156.188 52.1626 154.272C51.5055 151.042 51.0672 146.799 50.8478 141.544C50.793 140.285 50.7655 138.122 50.7652 135.057L50.7648 129.884C50.8195 128.405 50.8467 126.873 50.8466 125.285C50.8464 122.055 51.0378 119.51 51.4208 117.648C51.2566 116.827 51.1744 115.979 51.1743 115.103C51.1741 111.818 52.4056 109.163 54.8689 107.137C57.3322 105.111 60.4526 104.098 64.2299 104.098C65.6532 104.098 66.9671 104.481 68.1716 105.247C69.376 106.014 69.9782 106.972 69.9783 108.121C69.9784 108.669 69.7594 109.107 69.3215 109.435C68.8836 109.764 68.3361 109.928 67.6792 109.928C67.1318 109.928 66.5296 109.846 65.8726 109.682C65.2704 109.518 64.8872 109.271 64.723 108.943L63.6555 108.943L63.6554 108.779C61.6299 108.779 59.9329 109.217 58.5644 110.093C57.579 110.805 56.8127 111.982 56.2654 113.624C56.0465 114.226 55.8823 114.993 55.7729 115.923C55.6634 116.854 55.6088 117.703 55.6088 118.469C55.5541 118.907 55.5268 119.783 55.5269 121.097L55.6913 123.971L55.7737 126.763C55.7737 127.584 55.6643 128.542 55.4454 129.637C55.1718 131.005 55.035 131.963 55.0351 132.511L55.0352 134.482C55.0354 136.617 55.1177 139.546 55.2822 143.268C55.3372 146.388 55.6933 149.509 56.3504 152.629C56.8433 155.531 57.7742 157.994 59.1429 160.019C60.4569 162.1 62.2362 163.14 64.4807 163.139C65.4113 163.139 66.5609 162.647 67.9294 161.661C69.4074 160.676 70.4475 160.183 71.0497 160.183C71.8161 160.183 72.61 160.593 73.4312 161.414C73.4313 163.44 72.665 165 71.1323 166.095C69.709 167.081 68.012 167.71 66.0412 167.984C64.9464 168.094 64.0705 168.149 63.4136 168.149ZM84.4282 168.64C82.4574 168.64 80.7603 168.284 79.3369 167.573C78.461 167.08 78.023 166.505 78.0229 165.848C78.0229 165.191 78.1871 164.671 78.5155 164.288C78.844 163.85 79.3093 163.631 79.9114 163.631C80.4589 163.631 81.2527 163.85 82.2929 164.288C83.4425 164.726 84.1542 164.944 84.4279 164.944C85.468 164.944 86.3987 164.506 87.2198 163.63C88.0956 162.7 88.7798 161.495 89.2724 160.017C90.2576 157.28 90.7501 154.816 90.7499 152.627C90.7497 150.273 90.3663 147.809 89.5997 145.236C88.8879 142.609 87.9023 140.063 86.643 137.6L85.3289 134.972C83.9601 132.235 82.8925 130.073 82.1259 128.485C81.4141 126.898 80.7845 125.173 80.2369 123.312C79.4155 120.684 79.0048 118.139 79.0046 115.675C79.0044 113.705 79.3327 111.843 79.9895 110.091C80.7011 108.34 81.7411 106.861 83.1096 105.657C84.4781 104.343 86.1751 103.686 88.2006 103.686C89.186 103.686 90.1441 103.987 91.0748 104.589C92.0055 105.136 92.6624 105.848 93.0457 106.724L91.6499 108.448C90.2265 108.448 89.159 108.175 88.4473 107.627C87.4619 107.737 86.586 108.23 85.8197 109.106C85.1081 109.927 84.5607 110.885 84.1776 111.98C83.8492 113.02 83.6851 114.06 83.6851 115.1C83.6853 117.18 83.9592 119.315 84.5068 121.505C85.1091 123.64 85.8757 125.666 86.8065 127.582L92.5554 139.077C93.4862 141.048 94.2254 143.265 94.7731 145.729C95.3207 148.192 95.5946 150.655 95.5948 153.119C95.5951 156.732 94.7194 160.126 92.9678 163.302C92.0373 164.944 90.833 166.23 89.355 167.161C87.877 168.147 86.2347 168.64 84.4282 168.64ZM116.26 168.145C114.727 168.145 113.303 167.789 111.989 167.077C110.73 166.366 109.635 165.408 108.705 164.204C107.883 163.054 107.144 161.603 106.487 159.852C105.83 158.045 105.337 156.184 105.009 154.268C104.352 151.038 103.913 146.795 103.694 141.54C103.639 140.281 103.611 138.119 103.611 135.053L103.611 129.88C103.666 128.401 103.693 126.869 103.693 125.281C103.692 122.051 103.884 119.506 104.267 117.644C104.103 116.823 104.02 115.975 104.02 115.099C104.02 111.814 105.252 109.159 107.715 107.133C110.178 105.107 113.299 104.094 117.076 104.094C118.499 104.094 119.813 104.477 121.018 105.244C122.222 106.01 122.824 106.968 122.824 108.117C122.824 108.665 122.605 109.103 122.168 109.431C121.73 109.76 121.182 109.924 120.525 109.924C119.978 109.924 119.376 109.842 118.719 109.678C118.116 109.514 117.733 109.267 117.569 108.939L116.501 108.939L116.501 108.775C114.476 108.775 112.779 109.213 111.41 110.089C110.425 110.801 109.659 111.978 109.111 113.62C108.892 114.222 108.728 114.989 108.619 115.92C108.509 116.85 108.455 117.699 108.455 118.465C108.4 118.903 108.373 119.779 108.373 121.093L108.537 123.967L108.62 126.759C108.62 127.58 108.51 128.538 108.291 129.633C108.018 131.001 107.881 131.96 107.881 132.507L107.881 134.478C107.881 136.613 107.964 139.542 108.128 143.264C108.183 146.385 108.539 149.505 109.196 152.625C109.689 155.527 110.62 157.99 111.989 160.015C113.303 162.096 115.082 163.136 117.327 163.135C118.257 163.135 119.407 162.643 120.775 161.657C122.253 160.672 123.294 160.179 123.896 160.179C124.662 160.179 125.456 160.589 126.277 161.41C126.277 163.436 125.511 164.996 123.978 166.091C122.555 167.077 120.858 167.706 118.887 167.98C117.792 168.09 116.917 168.145 116.26 168.145ZM155.965 167.649C153.94 167.649 152.297 167.102 151.038 166.007C150.272 165.405 149.888 164.666 149.888 163.79C149.888 163.243 149.97 162.887 150.135 162.722C150.299 162.503 150.682 162.394 151.284 162.394C151.722 162.394 152.105 162.558 152.434 162.886C152.872 163.324 153.282 163.68 153.666 163.954C154.104 164.173 154.651 164.282 155.308 164.282C158.647 164.282 160.317 161.189 160.316 155.003C160.316 152.156 160.289 150.048 160.234 148.68C160.179 147.311 160.015 145.614 159.741 143.589C159.083 139.209 157.605 135.596 155.306 132.75C155.196 132.804 154.922 132.832 154.484 132.832C153.773 132.832 153.171 132.695 152.678 132.421C152.185 132.148 151.939 131.737 151.939 131.19C151.939 130.259 152.842 128.89 154.648 127.084C155.36 126.317 155.962 125.359 156.455 124.21C156.947 123.005 157.193 121.828 157.193 120.679C157.193 118.434 156.947 115.943 156.454 113.206C156.18 111.564 155.714 110.223 155.057 109.183C154.455 108.142 153.743 107.622 152.922 107.622C152.32 107.623 151.773 107.842 151.28 108.28C150.842 108.718 150.514 109.265 150.295 109.922C150.131 110.579 149.802 111.154 149.31 111.646C148.817 112.084 148.215 112.303 147.503 112.303C146.901 112.304 146.353 112.112 145.861 111.729C145.423 111.291 145.149 110.743 145.039 110.087C145.806 108.17 146.873 106.638 148.242 105.488C149.665 104.338 151.28 103.763 153.086 103.763C154.345 103.763 155.495 104.173 156.535 104.994C157.575 105.761 158.397 106.801 158.999 108.115C159.546 109.374 160.012 110.852 160.395 112.549C160.779 114.191 161.025 115.751 161.135 117.229C161.244 118.27 161.299 119.775 161.299 121.746C161.299 122.512 161.162 123.279 160.889 124.045C160.67 124.811 160.424 125.414 160.15 125.852C159.876 126.454 159.438 127.111 158.836 127.823L157.605 129.629C158.864 130.395 159.986 131.709 160.972 133.57C161.957 135.432 162.696 137.594 163.189 140.057C164.065 144.656 164.504 148.762 164.504 152.375C164.504 154.619 164.368 156.809 164.094 158.944C163.711 161.243 162.917 163.242 161.713 164.939C160.564 166.745 158.648 167.649 155.965 167.649ZM183.637 166.579C177.013 166.58 173.7 151.197 173.697 120.431L173.697 117.803C173.697 113.697 174.162 110.495 175.092 108.196C175.53 106.882 176.214 105.896 177.145 105.239C178.13 104.528 179.307 104.172 180.676 104.172C188.504 104.171 192.42 118.103 192.422 145.968C192.423 159.708 189.494 166.579 183.637 166.579ZM184.376 162.802C185.251 162.802 185.963 161.981 186.51 160.338C187.441 157.93 188.097 153.906 188.48 148.267C188.59 147.063 188.644 145.667 188.644 144.079C188.644 140.411 188.479 135.539 188.15 129.463C187.767 123.715 186.918 118.514 185.604 113.861C185.001 111.507 184.18 109.646 183.14 108.277C182.154 106.909 181.032 106.142 179.773 105.978C178.952 106.635 178.377 107.319 178.049 108.031C177.775 108.743 177.638 109.701 177.638 110.905C177.638 113.916 177.693 116.599 177.803 118.953L177.968 127.164C177.968 127.876 178.105 129.19 178.379 131.106C178.653 133.131 178.79 134.472 178.79 135.129C178.79 136.443 178.872 139.454 179.037 144.162C179.256 148.651 179.776 152.784 180.598 156.561C180.981 158.477 181.501 160.01 182.158 161.16C182.815 162.255 183.554 162.802 184.376 162.802ZM203.451 167.399C202.629 167.399 201.918 167.18 201.315 166.742C200.768 166.25 200.494 165.647 200.494 164.936L200.494 164.607C201.589 163.293 202.684 161.104 203.778 158.038C204.271 156.56 204.681 155.492 205.01 154.835C208.239 147.663 210.593 141.204 212.07 135.455C213.548 129.707 214.287 123.63 214.286 117.225C214.286 110.382 212.971 106.879 210.344 106.715C209.468 107.153 208.866 108.439 208.537 110.574C208.428 111.45 208.154 112.189 207.716 112.792C207.279 113.339 206.731 113.613 206.074 113.613C204.76 113.613 204.103 112.765 204.103 111.067C204.103 108.495 204.869 106.332 206.402 104.58C207.223 103.704 208.208 103.266 209.358 103.266L209.358 103.184C211.219 103.184 212.78 103.594 214.039 104.415C214.969 104.963 215.845 106.003 216.667 107.536C217.105 108.411 217.515 109.862 217.899 111.888C218.008 112.873 218.063 113.804 218.063 114.68C218.118 115.501 218.173 116.103 218.228 116.486L218.228 118.703C218.228 122.426 217.763 126.477 216.833 130.856C215.957 135.181 214.89 139.041 213.631 142.435C212.208 146.322 210.785 150.017 209.362 153.521C207.665 157.791 206.434 161.076 205.667 163.375C208.788 162.828 212.018 162.554 215.357 162.553C216.507 163.374 217.082 164.141 217.082 164.852C217.082 165.509 216.726 166.112 216.014 166.659C214.974 166.659 213.496 166.741 211.58 166.906L209.773 166.988C207.474 167.262 205.367 167.399 203.451 167.399Z" fill="black"/>
<path d="M61.9987 241.21C61.4259 240.79 61.1395 240.332 61.1394 239.835C61.1394 239.3 61.3494 238.861 61.7694 238.518C61.0435 233.057 60.6802 226.794 60.6797 219.73C60.6795 217.591 60.7747 213.429 60.9651 207.243C61.156 206.67 61.5379 206.174 62.1106 205.754C62.7216 205.333 63.2944 205.123 63.829 205.123C64.3636 205.123 64.6882 205.142 64.8027 205.181C70.2635 206.708 75.018 209.667 79.0661 214.058C83.1142 218.411 85.2339 223.642 85.4253 229.752C85.4258 236.473 82.6385 240.693 77.0634 242.412C75.4596 242.908 73.7603 243.156 71.9656 243.157C70.209 243.157 68.6624 243.023 67.3259 242.756C67.4786 243.061 67.555 243.462 67.5551 243.959C67.5551 244.493 67.2306 244.99 66.5814 245.448C65.9705 245.945 65.2259 246.193 64.3476 246.193C63.5075 246.193 62.9728 245.678 62.7436 244.646L61.9987 241.21ZM65.4339 219.271C65.4344 225.954 65.8167 232.293 66.5809 238.288C67.4974 238.555 69.044 238.689 71.2206 238.689C73.3972 238.689 75.4784 238.326 77.464 237.6C79.4878 236.874 80.557 235.805 80.6714 234.392C80.7859 233.323 80.8431 232.502 80.8431 231.929C80.8427 226.965 79.5059 222.573 76.8325 218.755C74.1974 214.937 70.493 212.035 65.7196 210.049C65.529 214.555 65.4338 217.629 65.4339 219.271ZM103.961 216.29C105.641 216.29 106.481 217.722 106.481 220.586C106.481 220.891 106.481 221.216 106.481 221.559L106.367 225.569C106.329 226.829 106.31 228.07 106.31 229.292L107.17 242.237C107.17 243.192 106.197 243.669 104.249 243.67C104.134 243.67 103.848 243.67 103.39 243.67C102.97 243.67 102.664 243.498 102.473 243.154C102.321 242.811 102.301 242.391 102.416 241.894C102.569 241.398 102.53 240.844 102.301 240.233C100.545 242.104 98.2155 243.04 95.3133 243.04C89.929 243.041 87.2366 238.878 87.2359 230.554C87.2356 225.933 88.0945 222.439 89.8127 220.071C91.5692 217.704 94.0703 216.52 97.3161 216.52C98.8436 216.519 100.371 216.787 101.899 217.321C102.395 216.634 103.082 216.29 103.961 216.29ZM98.0039 221.503C95.8272 221.503 94.2044 222.133 93.1352 223.393C92.0661 224.654 91.5317 226.964 91.5319 230.324C91.5323 235.976 93.06 238.802 96.1149 238.801C96.9168 238.801 97.7951 238.439 98.7497 237.713C99.7425 236.987 100.43 236.166 100.812 235.25C101.537 233.188 101.9 230.935 101.899 228.491C101.899 226.047 101.594 224.271 100.983 223.164C100.41 222.056 99.4168 221.503 98.0039 221.503ZM111.842 216.289L114.706 216.346C115.356 216.346 115.718 216.327 115.795 216.289L115.794 204.547C115.832 203.897 116.156 203.344 116.767 202.885C117.378 202.427 117.951 202.198 118.486 202.198C119.02 202.198 119.44 202.37 119.746 202.713C120.09 203.057 120.242 203.592 120.204 204.317C120.166 205.043 120.147 209.014 120.148 216.231L126.85 216.002C127.995 216.002 128.568 216.67 128.568 218.006C128.568 218.999 128.263 219.744 127.652 220.24C127.079 220.737 126.449 221.004 125.762 221.042C125.113 221.081 124.463 221.1 123.814 221.1L120.32 221.043C120.32 222.609 120.473 225.702 120.779 230.322C121.123 234.943 121.391 237.94 121.582 239.315C121.773 240.652 121.811 241.53 121.696 241.95C121.582 242.332 121.372 242.599 121.066 242.752C120.57 242.981 119.902 243.096 119.062 243.096C118.222 243.096 117.725 242.638 117.572 241.721C116.808 236.719 116.292 229.845 116.024 221.1C115.68 221.139 114.363 221.158 112.072 221.158C109.781 221.158 108.635 220.49 108.635 219.154C108.635 217.244 109.704 216.289 111.842 216.289ZM146.081 216.287C147.762 216.287 148.602 217.719 148.602 220.583C148.602 220.888 148.602 221.213 148.602 221.556L148.488 225.566C148.45 226.826 148.431 228.067 148.431 229.289L149.291 242.234C149.291 243.189 148.317 243.666 146.37 243.666C146.255 243.666 145.969 243.666 145.511 243.667C145.091 243.667 144.785 243.495 144.594 243.151C144.441 242.807 144.422 242.387 144.537 241.891C144.689 241.394 144.651 240.841 144.422 240.23C142.666 242.101 140.336 243.037 137.434 243.037C132.05 243.037 129.357 238.875 129.357 230.551C129.356 225.93 130.215 222.436 131.934 220.068C133.69 217.701 136.191 216.517 139.437 216.516C140.964 216.516 142.492 216.783 144.019 217.318C144.516 216.631 145.203 216.287 146.081 216.287ZM140.125 221.5C137.948 221.5 136.325 222.13 135.256 223.39C134.187 224.65 133.652 226.961 133.653 230.321C133.653 235.973 135.181 238.799 138.236 238.798C139.038 238.798 139.916 238.435 140.871 237.71C141.863 236.984 142.551 236.163 142.932 235.247C143.658 233.184 144.02 230.931 144.02 228.487C144.02 226.044 143.714 224.268 143.103 223.161C142.53 222.053 141.538 221.5 140.125 221.5ZM178.39 205.287C179.345 205.287 180.147 205.707 180.796 206.547C181.445 207.387 182.286 209.124 183.317 211.759C185.723 217.983 188.072 227.74 190.365 241.028C190.403 241.181 190.422 241.41 190.422 241.716C190.422 241.983 190.231 242.288 189.849 242.632C189.505 242.938 188.99 243.09 188.303 243.091C187.653 243.091 187.1 242.938 186.641 242.632C186.183 242.289 185.878 241.754 185.725 241.029C185.572 240.265 185.286 238.795 184.865 236.618C183.948 231.769 183.337 229.248 183.032 229.057C182.574 228.79 181.046 228.504 178.449 228.199C175.891 227.893 174.192 227.741 173.351 227.741C172.511 227.741 172.015 227.817 171.862 227.97C171.175 228.581 170.24 233.221 169.057 241.889C168.904 242.615 168.178 242.977 166.88 242.978C165.582 242.978 164.932 242.424 164.932 241.317C164.932 238.567 165.944 233.316 167.967 225.564C169.99 217.812 171.67 212.676 173.006 210.156C174.686 206.91 176.481 205.287 178.39 205.287ZM178.162 211.645C177.589 211.645 176.596 213.344 175.184 216.743C173.771 220.103 173.065 222.185 173.065 222.986C173.065 223.177 173.103 223.311 173.179 223.387C173.485 223.693 174.688 223.96 176.788 224.189C178.888 224.418 180.282 224.532 180.969 224.532C181.657 224.532 182.039 224.494 182.115 224.418C182.191 224.303 182.23 223.998 182.229 223.501C182.229 222.967 181.714 220.866 180.682 217.201C179.651 213.497 178.811 211.645 178.162 211.645ZM195.88 241.257L195.248 218.001C195.248 217.276 195.496 216.684 195.992 216.226C196.489 215.767 196.985 215.538 197.481 215.538C198.703 215.538 199.41 216.054 199.601 217.085C199.754 218.116 199.83 219.185 199.83 220.292C201.892 217.581 204.47 216.225 207.563 216.225C212.298 216.224 214.666 221.628 214.667 232.434C214.667 233.427 214.667 234.936 214.667 236.96C214.667 238.945 214.553 240.396 214.324 241.313C214.056 242.459 213.235 243.031 211.861 243.031C210.944 243.032 210.486 242.421 210.486 241.199L210.543 237.991C210.543 233.561 210.39 230.545 210.084 228.941C209.817 227.299 209.549 226 209.282 225.046C208.632 222.984 207.582 221.953 206.131 221.953C204.222 221.953 202.885 222.641 202.122 224.015C201.282 225.505 200.785 227.261 200.633 229.285C200.366 232.837 200.232 236.598 200.233 240.569C200.233 241.333 199.946 241.944 199.374 242.402C198.801 242.861 198.114 243.09 197.312 243.09C196.357 243.09 195.88 242.479 195.88 241.257ZM235.581 216.28C237.261 216.28 238.101 217.712 238.102 220.576C238.102 220.881 238.102 221.206 238.102 221.55L237.987 225.559C237.949 226.819 237.93 228.06 237.93 229.282L238.791 242.228C238.791 243.182 237.817 243.66 235.869 243.66C235.755 243.66 235.469 243.66 235.01 243.66C234.59 243.66 234.285 243.488 234.094 243.144C233.941 242.801 233.922 242.381 234.036 241.884C234.189 241.388 234.151 240.834 233.922 240.223C232.165 242.094 229.836 243.03 226.934 243.03C221.549 243.031 218.857 238.869 218.856 230.544C218.856 225.923 219.715 222.429 221.433 220.062C223.19 217.694 225.691 216.51 228.937 216.51C230.464 216.51 231.992 216.777 233.519 217.311C234.015 216.624 234.703 216.28 235.581 216.28ZM229.624 221.493C227.448 221.493 225.825 222.123 224.756 223.384C223.687 224.644 223.152 226.954 223.152 230.315C223.153 235.966 224.68 238.792 227.735 238.792C228.537 238.792 229.416 238.429 230.37 237.703C231.363 236.977 232.05 236.156 232.432 235.24C233.157 233.178 233.52 230.925 233.52 228.481C233.52 226.037 233.214 224.261 232.603 223.154C232.03 222.046 231.037 221.493 229.624 221.493ZM241.858 205.969C241.973 204.518 242.202 203.583 242.545 203.162C242.927 202.704 243.519 202.475 244.321 202.475C245.963 202.475 246.784 203.143 246.784 204.48C246.784 205.511 246.689 208.203 246.498 212.556C246.346 216.909 246.27 220.804 246.27 224.241C246.27 227.678 246.404 230.446 246.672 232.547C247.13 236.213 247.78 238.045 248.62 238.045C249.46 238.045 250.09 237.453 250.51 236.27C250.701 235.811 251.006 235.41 251.426 235.067C251.846 234.685 252.381 234.494 253.03 234.494C254.366 234.494 255.035 235.62 255.035 237.873C255.035 239.095 254.367 240.317 253.03 241.539C251.732 242.723 250.434 243.315 249.136 243.315C247.837 243.315 246.787 243.105 245.985 242.685C245.221 242.227 244.591 241.559 244.095 240.681C243.636 239.802 243.255 238.962 242.949 238.16C242.682 237.32 242.491 236.308 242.376 235.125C242.147 233.215 241.975 230.16 241.86 225.96C241.783 221.721 241.745 217.692 241.744 213.874C241.744 210.017 241.782 207.382 241.858 205.969ZM275.518 216.563C276.014 216.563 276.492 216.735 276.95 217.079C277.447 217.422 277.695 217.804 277.695 218.224C277.695 219.332 276.072 225.327 272.827 236.211C269.582 247.094 267.177 254.731 265.612 259.123C265.268 260.154 264.734 260.67 264.008 260.67C263.283 260.67 262.71 260.403 262.29 259.868C261.87 259.372 261.659 258.627 261.659 257.634C261.659 256.641 262.289 254.255 263.549 250.474C264.847 246.732 265.63 244.345 265.897 243.314C264.942 241.71 261.715 233.691 256.215 219.257C256.139 219.066 256.1 218.818 256.1 218.512C256.1 218.207 256.329 217.806 256.788 217.309C257.246 216.813 257.876 216.565 258.678 216.565C259.48 216.565 260.129 216.966 260.625 217.767C261.16 219.142 262.039 221.548 263.261 224.984C264.483 228.383 265.419 230.846 266.068 232.373C266.756 233.901 267.405 235.485 268.016 237.127C268.55 235.333 269.467 231.858 270.765 226.702C272.063 221.509 272.807 218.549 272.998 217.824C273.151 216.984 273.991 216.564 275.518 216.563ZM282.441 223.551C282.441 221.298 283.243 219.503 284.846 218.167C286.45 216.83 288.302 216.162 290.402 216.161C292.541 216.161 294.584 216.543 296.531 217.306C298.479 218.07 299.453 219.082 299.453 220.342C299.453 220.991 299.205 221.507 298.708 221.889C298.212 222.271 297.773 222.462 297.391 222.462C297.047 222.462 296.761 222.462 296.532 222.462C296.341 222.423 295.577 222.061 294.24 221.374C292.942 220.686 291.739 220.343 290.632 220.343C289.524 220.343 288.57 220.629 287.768 221.202C287.004 221.737 286.622 222.539 286.622 223.608C286.622 224.677 287.062 225.517 287.94 226.128C288.857 226.739 290.441 227.274 292.694 227.732C294.947 228.152 296.666 228.762 297.85 229.564C299.072 230.366 299.683 231.855 299.683 234.032C299.683 237.201 298.843 239.455 297.163 240.791C295.521 242.09 293.516 242.739 291.149 242.739C288.781 242.739 286.757 242.415 285.077 241.766C283.435 241.117 282.614 240.143 282.614 238.845C282.614 237.355 283.358 236.611 284.848 236.611C285.23 236.611 286.07 236.878 287.368 237.412C288.666 237.947 289.946 238.214 291.206 238.214C292.504 238.214 293.478 237.813 294.127 237.011C294.814 236.171 295.158 235.216 295.158 234.147C295.158 233.078 294.719 232.314 293.84 231.856C292.962 231.359 291.625 230.959 289.831 230.653C288.036 230.348 286.718 230.023 285.878 229.68C283.587 228.763 282.441 226.721 282.441 223.551ZM307.286 206.823C307.973 206.823 308.622 207.148 309.233 207.797C309.844 208.446 310.15 209.134 310.15 209.859C310.15 210.546 309.806 211.253 309.119 211.979C308.47 212.704 307.783 213.067 307.057 213.067C306.331 213.067 305.663 212.762 305.052 212.151C304.479 211.54 304.193 210.757 304.193 209.802C304.193 207.969 305.185 206.976 307.171 206.823C307.209 206.823 307.247 206.823 307.286 206.823ZM309.694 236.838L309.751 240.847C309.751 241.573 309.465 242.184 308.892 242.681C308.319 243.139 307.708 243.368 307.059 243.368C306.105 243.368 305.608 242.891 305.57 241.936C305.073 229.755 304.824 223.015 304.824 221.716C304.824 220.418 304.881 218.833 304.995 216.962C305.072 216.275 305.511 215.931 306.313 215.931C308.336 215.931 309.482 216.752 309.75 218.394C309.864 219.234 309.922 219.902 309.922 220.399L309.693 224.007L309.694 236.838ZM317.29 223.548C317.29 221.295 318.091 219.501 319.695 218.164C321.299 216.827 323.151 216.159 325.251 216.159C327.39 216.159 329.433 216.54 331.38 217.304C333.328 218.067 334.302 219.079 334.302 220.339C334.302 220.989 334.054 221.504 333.557 221.886C333.061 222.268 332.622 222.459 332.24 222.459C331.896 222.459 331.61 222.459 331.381 222.459C331.19 222.421 330.426 222.058 329.089 221.371C327.791 220.684 326.588 220.34 325.481 220.34C324.373 220.34 323.419 220.627 322.617 221.2C321.853 221.734 321.471 222.536 321.471 223.605C321.471 224.675 321.911 225.515 322.789 226.126C323.705 226.737 325.29 227.271 327.543 227.729C329.796 228.149 331.515 228.76 332.699 229.562C333.921 230.363 334.532 231.853 334.532 234.029C334.532 237.199 333.692 239.452 332.012 240.789C330.37 242.087 328.365 242.736 325.998 242.737C323.63 242.737 321.606 242.412 319.926 241.763C318.284 241.114 317.463 240.14 317.463 238.842C317.463 237.353 318.207 236.608 319.697 236.608C320.078 236.608 320.919 236.875 322.217 237.41C323.515 237.944 324.795 238.211 326.055 238.211C327.353 238.211 328.327 237.81 328.976 237.008C329.663 236.168 330.007 235.213 330.007 234.144C330.007 233.075 329.567 232.311 328.689 231.853C327.811 231.357 326.474 230.956 324.679 230.651C322.885 230.345 321.567 230.021 320.727 229.677C318.436 228.761 317.29 226.718 317.29 223.548Z" fill="black"/>
<path d="M111.294 344.056C109.35 344.057 108.034 343.027 107.348 340.968C106.719 338.967 106.404 336.765 106.404 334.363L106.661 331.875C103.859 333.648 100.542 335.05 96.71 336.079C92.9355 337.109 88.9608 337.624 84.7859 337.624C81.7548 337.625 79.0668 336.939 76.7219 335.566C74.377 334.137 72.5467 332.221 71.2312 329.819C69.9728 327.36 69.3435 324.586 69.3432 321.498C69.3429 316.808 71.1727 312.376 74.8325 308.201C78.4924 303.968 82.9816 300.537 88.3001 297.905C93.6758 295.217 98.6513 293.701 103.226 293.358C105.514 293.129 107.459 293.643 109.06 294.901C110.661 296.102 111.462 297.789 111.462 299.963C110.261 299.963 108.832 299.648 107.173 299.019C106.944 298.962 106.344 298.79 105.372 298.505C104.399 298.219 103.398 298.076 102.369 298.076C98.3085 298.076 93.9907 299.249 89.4156 301.594C84.8977 303.939 81.0948 307.056 78.0068 310.946C74.976 314.778 73.4608 318.81 73.4611 323.042C73.4612 325.043 74.0619 326.788 75.263 328.275C76.5213 329.704 78.0655 330.819 79.8956 331.62C81.783 332.363 83.6703 332.735 85.5576 332.735C90.0756 332.734 93.793 332.562 96.7097 332.219C99.6264 331.818 102.143 330.817 104.259 329.216C106.375 327.557 107.432 325.041 107.432 321.667C107.432 320.065 107.089 318.95 106.402 318.321L91.1326 318.322C90.3319 318.322 89.5598 317.922 88.8163 317.121C88.1299 316.321 87.7867 315.52 87.7867 314.719C87.7866 313.29 88.2154 312.575 89.0733 312.575C89.7596 312.575 90.8462 312.861 92.3332 313.432C93.7058 314.061 94.8782 314.376 95.8505 314.376C97.1087 314.376 99.0531 314.204 101.684 313.861C102.141 313.803 102.971 313.717 104.172 313.603C105.373 313.489 106.459 313.431 107.431 313.431C108.404 313.431 109.347 313.86 110.263 314.718C111.235 315.518 111.692 316.433 111.635 317.463L111.122 337.279C111.522 338.08 112.209 338.766 113.181 339.338C113.524 339.51 113.81 339.71 114.039 339.938C114.268 340.224 114.411 340.51 114.468 340.796C114.754 341.425 114.468 342.112 113.61 342.855C112.752 343.656 111.98 344.056 111.294 344.056ZM160.184 295.412C161.843 295.412 163.559 297.042 165.332 300.302C167.105 303.561 168.592 307.307 169.794 311.539C170.995 315.714 171.596 318.831 171.596 320.89C171.596 324.035 170.91 326.866 169.537 329.383C168.222 331.842 166.335 333.787 163.876 335.216C161.417 336.589 158.615 337.276 155.469 337.276C151.123 337.276 147.348 336.104 144.145 333.76C141 331.415 138.483 328.727 136.596 325.696C134.708 322.608 132.763 318.92 130.761 314.63L129.56 312.057L129.733 332.817C129.733 334.075 129.505 335.305 129.047 336.506C128.647 337.65 127.932 338.222 126.903 338.222C125.873 338.222 125.13 337.65 124.672 336.506C124.215 335.305 123.986 334.133 123.986 332.989C123.985 329.329 124.271 324.067 124.842 317.204C125.414 310.342 125.699 305.223 125.699 301.849C125.699 301.048 125.642 300.219 125.527 299.361C125.413 298.503 125.327 297.903 125.27 297.559C124.984 296.015 124.841 294.643 124.84 293.442L124.84 293.099C125.012 293.099 125.527 292.984 126.385 292.755C127.3 292.469 127.843 292.326 128.014 292.326L128.872 292.326C131.046 302.106 134.25 311.142 138.482 319.434C142.772 327.669 148.635 331.786 156.069 331.786C159.558 331.785 162.189 330.756 163.961 328.697C165.791 326.581 166.706 323.75 166.706 320.204C166.706 317.173 166.219 314.399 165.247 311.883C164.274 309.309 162.816 306.164 160.871 302.447L158.555 297.9C158.383 297.614 158.297 297.328 158.297 297.042C158.297 296.585 158.469 296.213 158.812 295.927C159.155 295.584 159.612 295.412 160.184 295.412ZM129.733 332.817L129.733 332.645L129.733 332.817ZM208.125 334.87C212.814 334.87 216.446 334.212 219.019 332.896C221.593 331.581 222.879 329.665 222.879 327.148C222.879 324.918 222.107 323.002 220.563 321.401C219.018 319.742 217.102 318.341 214.815 317.198C212.527 316.054 209.41 314.71 205.464 313.166C205.121 313.052 204.291 312.738 202.976 312.223C197.6 310.05 193.453 307.877 190.536 305.704C187.677 303.531 186.247 300.729 186.247 297.298C186.246 293.466 187.762 290.578 190.793 288.633C193.823 286.688 197.712 285.716 202.459 285.715C205.948 285.715 209.15 286.172 212.067 287.087C215.041 287.945 217.386 289.146 219.102 290.69C220.875 292.234 221.762 293.978 221.762 295.922C221.075 296.266 220.418 296.437 219.789 296.437C219.102 296.437 218.387 296.294 217.644 296.008C216.958 295.665 215.928 295.122 214.556 294.379C212.325 293.178 210.238 292.234 208.293 291.548C206.348 290.805 204.061 290.433 201.43 290.434C198.113 290.434 195.425 291.006 193.366 292.15C191.308 293.294 190.278 294.895 190.278 296.954C190.279 298.555 190.965 300.014 192.338 301.329C193.767 302.644 195.54 303.817 197.657 304.846C199.83 305.818 202.718 306.99 206.321 308.362C210.897 310.135 214.671 311.793 217.645 313.337C220.619 314.881 223.136 316.854 225.195 319.256C227.311 321.6 228.369 324.403 228.37 327.663C228.37 331.494 226.54 334.468 222.88 336.585C219.22 338.644 214.673 339.674 209.24 339.674C204.951 339.674 200.719 339.045 196.544 337.788C192.369 336.53 188.794 334.671 185.82 332.212C182.846 329.696 180.959 326.694 180.158 323.205C180.158 321.661 180.586 320.346 181.444 319.259C182.302 318.115 183.36 317.543 184.618 317.543C184.618 321.26 185.648 324.434 187.707 327.065C189.823 329.638 192.654 331.583 196.2 332.898C199.803 334.213 203.778 334.87 208.125 334.87Z" fill="black"/>
<g filter="url(#filter2_f_570_723)">
<path d="M628 46.4805C628 -307.258 341.238 322.019 -12.5 322.019C-366.238 322.019 -653 -307.258 -653 46.4805C-653 400.219 -366.238 686.98 -12.5 686.98C341.238 686.98 628 400.219 628 46.4805Z" fill="url(#paint0_linear_570_723)"/>
</g>
</g>
<defs>
<filter id="filter0_di_570_723" x="0.804878" y="0" width="511.024" height="576.878" filterUnits="userSpaceOnUse" color-interpolation-filters="sRGB">
<feFlood flood-opacity="0" result="BackgroundImageFix"/>
<feColorMatrix in="SourceAlpha" type="matrix" values="0 0 0 0 0 0 0 0 0 0 0 0 0 0 0 0 0 0 127 0" result="hardAlpha"/>
<feOffset dx="55.3171" dy="96.1463"/>
<feGaussianBlur stdDeviation="46.7561"/>
<feComposite in2="hardAlpha" operator="out"/>
<feColorMatrix type="matrix" values="0 0 0 0 0 0 0 0 0 0 0 0 0 0 0 0 0 0 0.1 0"/>
<feBlend mode="normal" in2="BackgroundImageFix" result="effect1_dropShadow_570_723"/>
<feBlend mode="normal" in="SourceGraphic" in2="effect1_dropShadow_570_723" result="shape"/>
<feColorMatrix in="SourceAlpha" type="matrix" values="0 0 0 0 0 0 0 0 0 0 0 0 0 0 0 0 0 0 127 0" result="hardAlpha"/>
<feOffset dy="1.31707"/>
<feGaussianBlur stdDeviation="10.5366"/>
<feComposite in2="hardAlpha" operator="arithmetic" k2="-1" k3="1"/>
<feColorMatrix type="matrix" values="0 0 0 0 0 0 0 0 0 0 0 0 0 0 0 0 0 0 0.01 0"/>
<feBlend mode="normal" in2="shape" result="effect2_innerShadow_570_723"/>
</filter>
<filter id="filter1_d_570_723" x="-3.01445" y="-36.7464" width="408.029" height="151.2" filterUnits="userSpaceOnUse" color-interpolation-filters="sRGB">
<feFlood flood-opacity="0" result="BackgroundImageFix"/>
<feColorMatrix in="SourceAlpha" type="matrix" values="0 0 0 0 0 0 0 0 0 0 0 0 0 0 0 0 0 0 127 0" result="hardAlpha"/>
<feOffset dy="5.26829"/>
<feGaussianBlur stdDeviation="20.3488"/>
<feComposite in2="hardAlpha" operator="out"/>
<feColorMatrix type="matrix" values="0 0 0 0 0 0 0 0 0 0 0 0 0 0 0 0 0 0 0.06 0"/>
<feBlend mode="normal" in2="BackgroundImageFix" result="effect1_dropShadow_570_723"/>
<feBlend mode="normal" in="SourceGraphic" in2="effect1_dropShadow_570_723" result="shape"/>
</filter>
<filter id="filter2_f_570_723" x="-762.487" y="-170.909" width="1499.97" height="967.376" filterUnits="userSpaceOnUse" color-interpolation-filters="sRGB">
<feFlood flood-opacity="0" result="BackgroundImageFix"/>
<feBlend mode="normal" in="SourceGraphic" in2="BackgroundImageFix" result="shape"/>
<feGaussianBlur stdDeviation="54.7436" result="effect1_foregroundBlur_570_723"/>
</filter>
<linearGradient id="paint0_linear_570_723" x1="-259.193" y1="1182.75" x2="-254.455" y2="205.087" gradientUnits="userSpaceOnUse">
<stop stop-color="#E1E6F3"/>
<stop offset="1" stop-color="white"/>
</linearGradient>
<clipPath id="clip0_570_723">
<rect width="324" height="387.22" fill="white" transform="translate(39)"/>
</clipPath>
</defs>
</svg>
