<svg width="512" height="577" viewBox="0 0 512 577" fill="none" xmlns="http://www.w3.org/2000/svg">
<g clip-path="url(#clip0_570_712)" filter="url(#filter0_di_570_712)">
<rect width="324" height="387.22" transform="translate(39)" fill="#C5DCFF"/>
<g filter="url(#filter1_d_570_712)">
<rect x="39" width="324" height="67.1707" fill="#E4EAF4"/>
<rect x="38.3415" y="-0.658537" width="325.317" height="68.4878" stroke="white" stroke-width="1.31707"/>
<path d="M60.9736 37.5794V25.9375H63.4219V37.4295C63.4219 40.3275 65.0208 41.9264 67.8938 41.9264C70.7419 41.9264 72.3158 40.3026 72.3158 37.4295V25.9375H74.7891V37.5794C74.7891 41.7266 72.1409 44.2998 67.8938 44.2998C63.6218 44.2998 60.9736 41.7516 60.9736 37.5794ZM78.46 49.4712V31.7835H80.5835L80.7584 33.9819C81.5828 32.3081 83.2317 31.4337 85.1803 31.4337C88.6779 31.4337 90.8514 34.0569 90.8514 37.8043C90.8514 41.5267 88.8028 44.3248 85.1803 44.3248C83.2317 44.3248 81.6078 43.5003 80.8083 42.0014V49.4712H78.46ZM80.8333 37.9042C80.8333 40.4025 82.2823 42.2012 84.6807 42.2012C87.079 42.2012 88.503 40.4025 88.503 37.9042C88.503 35.381 87.079 33.5822 84.6807 33.5822C82.2823 33.5822 80.8333 35.356 80.8333 37.9042ZM92.6404 37.9042C92.6404 34.0819 95.0637 31.4337 98.6362 31.4337C101.709 31.4337 103.858 33.1825 104.282 35.9056H101.934C101.534 34.3567 100.285 33.5322 98.7112 33.5322C96.4877 33.5322 94.9638 35.2311 94.9638 37.8792C94.9638 40.5024 96.3878 42.2012 98.6113 42.2012C100.285 42.2012 101.534 41.3269 101.959 39.8779H104.307C103.833 42.526 101.559 44.2998 98.6113 44.2998C95.0137 44.2998 92.6404 41.7516 92.6404 37.9042ZM105.986 37.8792C105.986 34.1068 108.684 31.4587 112.356 31.4587C116.004 31.4587 118.702 34.1068 118.702 37.8792C118.702 41.6516 116.004 44.2998 112.356 44.2998C108.684 44.2998 105.986 41.6516 105.986 37.8792ZM108.359 37.8792C108.359 40.4275 109.983 42.2012 112.356 42.2012C114.705 42.2012 116.353 40.4275 116.353 37.8792C116.353 35.331 114.705 33.5572 112.356 33.5572C109.983 33.5572 108.359 35.331 108.359 37.8792ZM123.65 44H121.301V31.7835H123.4L123.625 33.3823C124.249 32.2331 125.548 31.4337 127.272 31.4337C129.171 31.4337 130.52 32.383 131.145 33.907C131.719 32.383 133.193 31.4337 135.092 31.4337C137.89 31.4337 139.589 33.1825 139.589 36.0055V44H137.29V36.5801C137.29 34.6565 136.216 33.5572 134.567 33.5572C132.793 33.5572 131.619 34.8064 131.619 36.755V44H129.296V36.5552C129.296 34.6315 128.247 33.5822 126.598 33.5822C124.824 33.5822 123.65 34.8064 123.65 36.755V44ZM143.993 28.8855C143.144 28.8855 142.444 28.1859 142.444 27.3365C142.444 26.4621 143.144 25.7876 143.993 25.7876C144.843 25.7876 145.542 26.4621 145.542 27.3365C145.542 28.1859 144.843 28.8855 143.993 28.8855ZM142.844 44V31.7835H145.192V44H142.844ZM150.95 44H148.602V31.7835H150.725L150.975 33.6572C151.75 32.2581 153.299 31.4337 155.022 31.4337C158.245 31.4337 159.719 33.4073 159.719 36.5302V44H157.371V37.0548C157.371 34.5815 156.222 33.5822 154.423 33.5822C152.224 33.5822 150.95 35.1561 150.95 37.5295V44ZM162.197 37.5794C162.197 34.1318 164.421 31.4337 167.968 31.4337C169.942 31.4337 171.466 32.3331 172.24 33.857L172.415 31.7835H174.514V43.5003C174.514 47.3477 172.14 49.796 168.393 49.796C165.07 49.796 162.797 47.9223 162.347 44.8244H164.696C164.995 46.6232 166.344 47.6725 168.393 47.6725C170.691 47.6725 172.19 46.1735 172.19 43.8501V41.4018C171.391 42.8258 169.792 43.6752 167.868 43.6752C164.396 43.6752 162.197 41.0021 162.197 37.5794ZM164.546 37.5295C164.546 39.8279 165.97 41.6266 168.268 41.6266C170.641 41.6266 172.09 39.9278 172.09 37.5295C172.09 35.1811 170.691 33.4823 168.293 33.4823C165.945 33.4823 164.546 35.281 164.546 37.5295ZM183.385 28.1859V25.9375H196.701V28.1859H191.28V44H188.831V28.1859H183.385ZM202.058 44.2998C198.46 44.2998 195.987 41.7016 195.987 37.9042C195.987 34.0819 198.41 31.4337 201.958 31.4337C205.43 31.4337 207.704 33.832 207.704 37.4545V38.3289L198.26 38.3539C198.435 40.9271 199.784 42.3511 202.108 42.3511C203.931 42.3511 205.13 41.6017 205.53 40.2026H207.729C207.129 42.8258 205.081 44.2998 202.058 44.2998ZM201.958 33.4073C199.909 33.4073 198.61 34.6315 198.31 36.78H205.355C205.355 34.7564 204.031 33.4073 201.958 33.4073ZM209.327 40.4525H211.576C211.576 41.7016 212.525 42.4511 214.074 42.4511C215.723 42.4511 216.672 41.7765 216.672 40.6523C216.672 39.8279 216.273 39.3282 214.998 39.0035L212.85 38.5038C210.676 37.9792 209.652 36.9049 209.652 35.1062C209.652 32.8577 211.551 31.4337 214.249 31.4337C216.922 31.4337 218.671 32.9327 218.721 35.2561H216.472C216.422 34.0319 215.598 33.2574 214.174 33.2574C212.7 33.2574 211.876 33.907 211.876 35.0312C211.876 35.8556 212.475 36.4053 213.674 36.705L215.823 37.2297C217.896 37.7293 218.921 38.6787 218.921 40.5024C218.921 42.8258 216.922 44.2998 214.024 44.2998C211.151 44.2998 209.327 42.7758 209.327 40.4525Z" fill="black"/>
</g>
<path d="M55.941 167.492C53.4227 167.492 52.1636 166.808 52.1635 165.44L52.327 155.339L52.4904 145.239C52.4902 141.571 52.4076 136.015 52.2428 128.57C52.078 121.179 51.9955 115.623 51.9952 111.9L51.9952 111.407C51.9951 109.984 52.1318 108.67 52.4055 107.466C52.7338 105.988 53.6097 105.249 55.033 105.248C58.8651 105.248 61.9035 106.48 64.1482 108.943C66.3928 111.406 67.5153 114.663 67.5156 118.715C67.5158 121.178 66.8591 123.751 65.5454 126.434C64.2318 129.116 62.6717 131.114 60.8653 132.428C64.0406 134.563 66.3674 137.328 67.8457 140.722C69.3788 144.061 70.1455 147.756 70.1458 151.807C70.146 153.723 69.4892 156.104 68.1756 158.951C66.5883 162.345 64.4261 164.782 61.689 166.26C60.0467 167.081 58.2402 167.492 56.2694 167.492L55.941 167.492ZM56.7594 131.197C58.1827 130.868 59.387 129.691 60.3722 127.666C61.1933 126.133 61.9595 124.271 62.6711 122.082C62.8352 121.479 63.1089 120.713 63.492 119.782L63.4918 116.908C63.4917 115.266 62.8894 113.678 61.6849 112.146C60.4804 110.613 59.1118 109.847 57.579 109.847C56.8125 109.847 56.4294 110.695 56.4295 112.392C56.4298 116.006 56.4848 119.235 56.5945 122.082L56.7594 131.197ZM57.0903 163.222C59.7727 162.839 61.9076 161.607 63.495 159.526C65.0824 157.446 65.876 154.955 65.8758 152.054C65.8756 149.535 65.6565 147.236 65.2184 145.156C64.835 143.021 64.3148 141.406 63.6578 140.311C63.0556 139.271 62.4533 138.395 61.8511 137.684C61.2488 136.972 60.7287 136.507 60.2908 136.288L59.6338 136.042L56.6776 136.042C56.9518 142.337 57.0894 151.397 57.0903 163.222ZM82.091 166.751C77.3282 166.752 74.9468 165.931 74.9467 164.288C74.9466 162.974 75.7951 162.317 77.4921 162.317L78.3954 162.317L79.2166 162.399C79.6545 162.399 79.9556 162.262 80.1198 161.989C80.284 161.715 80.3661 161.222 80.3661 160.511C80.366 159.58 80.3111 158.129 80.2015 156.158C80.0372 154.845 79.8454 152.491 79.6262 149.096C79.1328 140.721 78.886 134.398 78.8857 130.128C78.8856 128.595 78.9128 127.199 78.9675 125.94L79.0493 121.752C79.0492 119.945 78.9669 118.44 78.8026 117.236C77.9267 117.455 77.2972 117.564 76.914 117.564C75.6001 117.564 74.9431 116.907 74.943 115.594C74.943 114.937 75.3535 114.362 76.1746 113.869C76.9958 113.376 78.0359 113.02 79.295 112.801C81.4847 112.363 83.4281 112.144 85.1251 112.144C85.7821 112.144 86.3295 112.39 86.7675 112.883C87.2602 113.321 87.5066 113.841 87.5067 114.443C87.5067 115.045 87.3152 115.565 86.932 116.003C86.6035 116.441 86.1656 116.66 85.6182 116.66C85.2897 116.66 85.016 116.633 84.797 116.578L84.1401 116.578C83.5926 116.578 83.1821 116.715 82.9084 116.989C82.6894 117.208 82.58 117.646 82.58 118.303C82.5804 123.613 82.9095 131.606 83.5672 142.281C83.6768 144.251 83.896 147.153 84.2248 150.985C84.4987 153.503 84.6357 156.076 84.6359 158.704L84.6362 161.824C84.9646 161.769 85.5121 161.742 86.2785 161.742C88.5777 161.742 89.7274 162.7 89.7276 164.616L89.7276 165.108L87.6748 166.504C87.6201 166.504 87.4285 166.532 87.1 166.587C86.8263 166.587 86.2789 166.587 85.4577 166.587C83.7059 166.696 82.5836 166.751 82.091 166.751ZM106.117 168.392C104.694 168.392 103.38 167.927 102.175 166.996C100.971 166.12 99.9854 164.916 99.2189 163.383C97.6311 160.044 96.6454 156.404 96.2619 152.462C95.7689 148.739 95.5223 145.154 95.5221 141.705C95.522 141.048 95.5494 140.5 95.6041 140.063L95.604 138.584C95.6039 138.311 95.5766 138.174 95.5218 138.174L95.5217 136.696L95.6034 130.948C95.658 129.196 95.8768 126.404 96.2597 122.572C96.5332 119.944 97.1626 117.398 98.1478 114.935C98.5309 113.84 99.0235 113.019 99.6257 112.471C100.228 111.869 100.912 111.568 101.678 111.568C103.868 111.568 105.839 111.978 107.591 112.799C109.343 113.565 110.821 114.66 112.025 116.083C113.12 117.452 114.051 119.149 114.818 121.174C115.584 123.145 116.132 125.253 116.461 127.497C116.789 129.796 116.954 132.233 116.954 134.806L116.954 135.462C116.954 137.16 116.981 138.692 117.036 140.061L117.119 144.742C117.12 160.508 113.453 168.391 106.117 168.392ZM105.788 164.943C106.774 164.943 107.677 164.56 108.498 163.793C109.319 162.972 109.949 161.877 110.386 160.508C111.426 157.716 112.056 154.705 112.274 151.475C112.548 148.683 112.685 146.275 112.684 144.249C112.684 141.786 112.492 138.556 112.109 134.56C111.78 130.344 111.616 127.197 111.616 125.116L111.615 123.638C111.506 121.558 110.794 119.751 109.48 118.219C108.221 116.686 106.661 115.92 104.799 115.92C102.938 115.92 101.706 116.988 101.104 119.123C100.557 120.82 100.283 123.009 100.284 125.692C100.284 126.732 100.311 127.608 100.366 128.32L100.366 130.537L100.202 134.314C100.093 135.464 100.038 136.723 100.038 138.091C100.038 141.048 100.121 143.976 100.285 146.878C100.504 150.984 101.052 154.98 101.928 158.867C102.805 162.918 104.091 164.943 105.788 164.943ZM138.746 168.143C136.775 167.486 134.339 167.158 131.437 167.158C130.562 167.706 129.631 167.979 128.646 167.979C127.989 167.979 127.414 167.678 126.921 167.076C126.483 166.529 126.264 165.927 126.264 165.27C126.264 160.671 126.455 154.54 126.837 146.876C127.165 138.719 127.329 132.615 127.329 128.564L127.329 127.989C127 124.54 126.836 121.967 126.835 120.27C126.835 115.07 127.793 112.469 129.709 112.469C130.256 112.469 130.722 112.688 131.105 113.126C131.543 113.509 131.762 113.974 131.762 114.522C131.762 115.179 131.68 116.219 131.516 117.642C131.352 119.011 131.27 120.051 131.27 120.763C131.27 124.43 131.298 127.742 131.353 130.699C131.408 133.6 131.435 136.885 131.435 140.553C131.162 141.374 131.025 142.523 131.025 144.001L131.025 144.987L130.861 151.474C130.752 153.39 130.698 155.58 130.698 158.043C130.698 161.821 131.601 163.709 133.408 163.709C133.517 163.709 133.682 163.709 133.901 163.709C134.174 163.654 134.53 163.627 134.968 163.627C135.461 163.572 136.09 163.545 136.857 163.545C139.813 163.544 141.291 164.365 141.291 166.008C141.291 166.555 141.045 167.02 140.552 167.404C140.06 167.787 139.458 168.033 138.746 168.143ZM157.68 168.388C156.257 168.388 154.943 167.923 153.738 166.992C152.534 166.116 151.548 164.912 150.782 163.379C149.194 160.04 148.208 156.4 147.825 152.458C147.332 148.736 147.085 145.15 147.085 141.701C147.085 141.044 147.112 140.497 147.167 140.059L147.167 138.581C147.167 138.307 147.14 138.17 147.085 138.17L147.085 136.692L147.166 130.944C147.221 129.192 147.44 126.4 147.823 122.568C148.096 119.94 148.726 117.395 149.711 114.931C150.094 113.836 150.587 113.015 151.189 112.467C151.791 111.865 152.475 111.564 153.241 111.564C155.431 111.564 157.402 111.974 159.154 112.795C160.906 113.562 162.384 114.656 163.588 116.08C164.683 117.448 165.614 119.145 166.381 121.171C167.147 123.141 167.695 125.249 168.024 127.493C168.352 129.793 168.517 132.229 168.517 134.802L168.517 135.459C168.517 137.156 168.544 138.688 168.599 140.057L168.682 144.738C168.683 160.504 165.016 168.387 157.68 168.388ZM157.351 164.939C158.337 164.939 159.24 164.556 160.061 163.789C160.882 162.968 161.512 161.873 161.949 160.504C162.989 157.712 163.619 154.701 163.837 151.472C164.111 148.68 164.248 146.271 164.247 144.245C164.247 141.782 164.055 138.552 163.672 134.556C163.343 130.34 163.179 127.193 163.179 125.112L163.178 123.634C163.069 121.554 162.357 119.748 161.043 118.215C159.784 116.682 158.223 115.916 156.362 115.916C154.501 115.916 153.269 116.984 152.667 119.119C152.12 120.816 151.846 123.006 151.847 125.688C151.847 126.728 151.874 127.604 151.929 128.316L151.929 130.533L151.765 134.31C151.656 135.46 151.601 136.719 151.601 138.088C151.601 141.044 151.684 143.973 151.848 146.874C152.067 150.98 152.615 154.976 153.491 158.863C154.368 162.914 155.654 164.939 157.351 164.939ZM188.338 167.482C186.805 167.482 185.409 167.209 184.15 166.661C182.891 166.059 181.823 165.293 180.947 164.362C180.236 163.596 179.579 162.474 178.976 160.996C178.374 159.518 177.936 158.094 177.662 156.726C177.388 155.686 177.169 154.18 177.005 152.21C176.84 150.239 176.731 148.542 176.676 147.118L176.676 142.356L176.675 139.071C176.675 135.896 176.73 133.296 176.839 131.27C176.948 128.807 177.304 126.206 177.906 123.469C178.399 121.005 179.247 118.843 180.451 116.982C181.601 115.12 183.215 113.834 185.296 113.122C186.281 112.739 187.431 112.547 188.744 112.547C191.098 112.547 192.275 113.231 192.276 114.599C192.276 115.256 192.002 115.804 191.455 116.242C190.962 116.625 190.36 116.817 189.648 116.817C189.32 116.817 189.019 116.789 188.745 116.735C188.526 116.68 188.252 116.653 187.924 116.653C186.993 116.653 186.172 117.145 185.46 118.131C184.749 119.116 184.147 120.485 183.654 122.237C182.778 125.631 182.176 129.326 181.848 133.323C181.63 137.045 181.52 139.81 181.52 141.616C181.521 143.478 181.603 146.023 181.767 149.253C181.987 152.264 182.452 154.892 183.164 157.136C183.547 158.45 183.985 159.517 184.478 160.338C185.026 161.105 185.71 161.762 186.531 162.309C187.462 162.911 188.42 163.212 189.405 163.212C192.033 163.212 193.346 158.832 193.346 150.073L193.345 146.296C192.962 146.132 192.333 146.05 191.457 146.05L190.718 146.05L189.814 146.05C187.898 146.05 186.94 145.421 186.94 144.161C186.94 143.395 187.187 142.82 187.679 142.437C188.227 141.999 188.911 141.78 189.732 141.78L189.732 141.862L190.882 141.862C195.809 141.862 198.272 142.71 198.272 144.407C198.272 144.9 198.136 145.885 197.862 147.363C197.534 148.677 197.369 149.662 197.369 150.319C197.37 151.25 197.452 152.701 197.616 154.672L197.781 159.024C197.781 161.651 196.85 163.732 194.989 165.265C193.183 166.743 190.966 167.482 188.338 167.482ZM212.784 167.973C211.854 167.973 211.087 167.371 210.485 166.167C211.087 165.017 211.388 160.364 211.387 152.207C211.387 150.291 211.25 148.211 210.976 145.966L210.729 143.585C210.565 142.107 210.483 140.985 210.483 140.218L210.483 138.083C209.935 136.715 208.922 134.169 207.444 130.447C206.02 126.724 204.87 123.604 203.994 121.086C202.954 118.184 202.434 116.214 202.434 115.173L202.434 114.763L204.322 113.367C205.253 113.476 206.238 114.68 207.279 116.98C208.155 119.005 209.113 121.906 210.153 125.684C211.248 129.461 211.796 131.459 211.796 131.678C212.015 131.076 212.453 129.023 213.109 125.519C213.766 122.016 214.505 118.922 215.326 116.24C216.256 113.557 217.214 112.216 218.2 112.216C218.747 112.216 219.212 112.38 219.596 112.709C220.034 113.037 220.253 113.448 220.253 113.94C220.253 116.732 219.487 120.674 217.954 125.765C216.312 131.294 215.492 135.291 215.492 137.754L215.494 162.471C215.494 166.139 214.591 167.973 212.784 167.973Z" fill="black"/>
<path d="M77.8626 205.581C80.4211 205.58 83.2469 206.077 86.3401 207.069C87.0275 207.604 87.3712 208.196 87.3713 208.845C87.3713 209.456 87.0468 210.009 86.3976 210.506C85.7867 210.964 85.0802 211.193 84.2783 211.193C82.2162 210.659 80.2878 210.392 78.493 210.392C74.3689 210.392 71.2377 211.615 69.0994 214.059C66.9611 216.503 65.8922 220.131 65.8925 224.942C65.8929 229.754 67.1533 233.515 69.6739 236.226C70.9723 237.639 72.5189 238.345 74.3137 238.345C76.1084 238.345 78.9724 237.39 82.9054 235.48C84.2801 234.831 85.1965 234.506 85.6548 234.506C86.6476 234.506 87.1441 235.022 87.1442 236.053C87.1443 237.084 86.667 237.943 85.7124 238.63C82.4285 240.349 79.8701 241.514 78.0371 242.125C76.2042 242.698 74.6195 242.984 73.283 242.985C70.5336 242.985 68.185 241.973 66.2373 239.949C62.7621 236.207 61.0242 231.109 61.0237 224.656C61.0232 218.164 62.6649 213.372 65.9487 210.278C69.2707 207.147 73.242 205.581 77.8626 205.581ZM98.3044 224.481L98.7636 237.999C98.7637 239.68 98.6874 240.653 98.5347 240.921C98.4584 241.608 98.2293 242.143 97.8475 242.525C97.5038 242.906 96.8165 243.097 95.7854 243.097C95.289 243.097 94.888 242.792 94.5825 242.181C94.277 241.532 94.1051 240.806 94.0668 240.004C93.799 233.284 93.4358 226.983 92.9771 221.102C92.5566 215.183 92.3462 209.685 92.3458 204.606C92.3457 203.804 92.613 203.174 93.1475 202.715C93.6821 202.257 94.3122 202.028 95.0377 202.028C96.107 202.028 96.7371 202.944 96.9282 204.777C97.1574 206.61 97.2913 208.901 97.3296 211.651C97.4062 214.4 97.4827 216.405 97.5592 217.665C99.4685 216.672 101.378 216.176 103.287 216.175C107.717 216.175 110.524 218.122 111.708 222.017C112.395 224.232 112.739 227.077 112.739 230.552C112.739 231.698 112.625 233.511 112.396 235.994C112.205 238.437 112.091 240.022 112.053 240.748C112.015 241.473 111.69 242.046 111.079 242.466C110.506 242.848 109.876 243.039 109.189 243.039C108.12 243.039 107.585 242.466 107.585 241.321L107.985 231.354C107.985 230.514 107.947 229.12 107.87 227.173C107.794 225.225 107.393 223.679 106.667 222.533C105.98 221.388 104.758 220.815 103.001 220.815C99.8697 220.815 98.3042 222.037 98.3044 224.481ZM124.476 216.517C126.5 216.517 128.429 217.109 130.262 218.293C132.095 219.476 133.011 220.946 133.011 222.703C133.011 224.421 132.267 226.102 130.778 227.744C129.289 229.348 127.303 230.322 124.821 230.666C123.752 230.818 122.148 230.895 120.009 230.895C120.43 234.141 121.251 236.279 122.473 237.31C122.855 237.73 123.37 237.94 124.02 237.94C126.387 237.94 128.373 237.195 129.976 235.706C131.58 234.178 132.726 233.414 133.413 233.414C133.719 233.414 134.177 233.701 134.788 234.273C135.399 234.846 135.704 235.381 135.704 235.877C135.705 236.87 134.502 238.302 132.096 240.173C131.027 241.052 129.729 241.797 128.201 242.408C126.712 242.981 125.318 243.267 124.02 243.267C120.698 243.267 118.254 241.129 116.688 236.852C115.695 234.218 115.198 231.315 115.198 228.146C115.197 224.976 115.942 222.246 117.431 219.955C118.92 217.663 121.268 216.518 124.476 216.517ZM124.763 220.47C123.312 220.47 122.071 221.291 121.04 222.933C120.658 223.506 120.295 224.804 119.952 226.828C125.298 226.828 127.971 225.51 127.971 222.875C127.971 221.271 126.901 220.47 124.763 220.47ZM142.317 243.094C141.324 243.094 140.732 242.54 140.541 241.433C140.541 233.719 140.082 226.846 139.165 220.812C139.165 220.049 139.432 219.361 139.967 218.75C140.54 218.139 141.17 217.834 141.857 217.834C142.583 217.834 143.117 218.234 143.461 219.036C144.874 217.165 146.764 216.229 149.132 216.229C152.148 216.229 154.478 217.68 156.12 220.582C158.029 217.832 160.549 216.457 163.681 216.457C166.85 216.457 169.218 217.717 170.784 220.237C171.815 221.803 172.54 223.865 172.961 226.423C173.381 228.982 173.591 232.609 173.592 237.306C173.592 239.139 173.401 240.571 173.019 241.602C172.637 242.595 171.835 243.092 170.613 243.092C169.621 243.092 169.124 242.462 169.124 241.202L169.295 234.042C169.295 225.45 167.06 221.154 162.593 221.154C161.18 221.154 160.187 221.651 159.614 222.644C158.965 223.828 158.583 225.069 158.469 226.367C158.316 228.658 158.24 230.739 158.24 232.611L158.241 240.916C158.241 241.527 157.935 242.043 157.324 242.463C156.714 242.883 156.083 243.093 155.434 243.093C154.594 243.093 154.06 242.539 153.83 241.432L154.001 229.575C154.001 225.375 153.294 222.759 151.881 221.728C151.194 221.232 150.144 220.983 148.731 220.983C147.356 220.984 146.325 221.499 145.638 222.53C144.989 223.561 144.664 225.222 144.665 227.514L145.009 238.168C145.009 241.452 144.112 243.094 142.317 243.094ZM181.762 206.833C182.45 206.833 183.099 207.157 183.71 207.807C184.321 208.456 184.627 209.143 184.627 209.869C184.627 210.556 184.283 211.262 183.596 211.988C182.947 212.714 182.259 213.076 181.534 213.076C180.808 213.076 180.14 212.771 179.529 212.16C178.956 211.549 178.67 210.766 178.669 209.812C178.669 207.979 179.662 206.986 181.648 206.833C181.686 206.833 181.724 206.833 181.762 206.833ZM184.17 236.847L184.228 240.857C184.228 241.582 183.942 242.193 183.369 242.69C182.796 243.148 182.185 243.377 181.536 243.377C180.581 243.377 180.085 242.9 180.047 241.946C179.549 229.764 179.301 223.024 179.3 221.726C179.3 220.427 179.358 218.843 179.472 216.972C179.548 216.284 179.987 215.941 180.789 215.94C182.813 215.94 183.959 216.761 184.226 218.403C184.341 219.243 184.398 219.912 184.398 220.408L184.169 224.017L184.17 236.847ZM191.767 223.558C191.766 221.305 192.568 219.51 194.172 218.173C195.776 216.837 197.628 216.168 199.728 216.168C201.866 216.168 203.909 216.55 205.857 217.313C207.804 218.077 208.778 219.089 208.778 220.349C208.778 220.998 208.53 221.514 208.034 221.896C207.538 222.277 207.098 222.468 206.717 222.468C206.373 222.468 206.086 222.468 205.857 222.468C205.666 222.43 204.903 222.068 203.566 221.38C202.268 220.693 201.065 220.349 199.957 220.35C198.85 220.35 197.895 220.636 197.093 221.209C196.33 221.744 195.948 222.546 195.948 223.615C195.948 224.684 196.387 225.524 197.266 226.135C198.182 226.746 199.767 227.28 202.02 227.739C204.273 228.158 205.991 228.769 207.175 229.571C208.397 230.373 209.008 231.862 209.009 234.039C209.009 237.208 208.169 239.461 206.489 240.798C204.847 242.096 202.842 242.746 200.475 242.746C198.107 242.746 196.083 242.422 194.403 241.773C192.761 241.124 191.94 240.15 191.94 238.852C191.939 237.362 192.684 236.618 194.173 236.617C194.555 236.617 195.395 236.885 196.694 237.419C197.992 237.954 199.271 238.221 200.531 238.221C201.83 238.221 202.804 237.82 203.453 237.018C204.14 236.178 204.484 235.223 204.483 234.154C204.483 233.084 204.044 232.321 203.166 231.863C202.288 231.366 200.951 230.965 199.156 230.66C197.361 230.355 196.044 230.03 195.204 229.687C192.913 228.77 191.767 226.727 191.767 223.558ZM214.264 216.282L217.128 216.339C217.777 216.339 218.139 216.32 218.216 216.281L218.215 204.539C218.253 203.89 218.578 203.336 219.189 202.878C219.8 202.419 220.372 202.19 220.907 202.19C221.442 202.19 221.862 202.362 222.167 202.706C222.511 203.049 222.664 203.584 222.626 204.31C222.587 205.035 222.569 209.006 222.569 216.224L229.271 215.994C230.416 215.994 230.989 216.662 230.989 217.999C230.989 218.992 230.684 219.736 230.073 220.233C229.5 220.729 228.87 220.997 228.183 221.035C227.534 221.073 226.885 221.092 226.235 221.092L222.741 221.035C222.741 222.601 222.894 225.694 223.2 230.315C223.544 234.935 223.812 237.933 224.003 239.307C224.194 240.644 224.232 241.522 224.118 241.942C224.003 242.324 223.793 242.591 223.488 242.744C222.991 242.973 222.323 243.088 221.483 243.088C220.643 243.088 220.146 242.63 219.993 241.713C219.229 236.711 218.713 229.838 218.445 221.093C218.102 221.131 216.784 221.15 214.493 221.15C212.202 221.151 211.056 220.482 211.056 219.146C211.056 217.237 212.125 216.282 214.264 216.282ZM239.912 234.667L239.97 240.566C239.97 241.254 239.645 241.884 238.996 242.457C238.385 243.029 237.774 243.316 237.163 243.316C236.285 243.316 235.731 242.629 235.502 241.254C235.464 240.949 235.311 238.161 235.043 232.891C234.775 227.583 234.26 223.421 233.496 220.404C233.152 218.953 232.98 218.094 232.98 217.827C232.98 216.567 233.743 215.936 235.271 215.936C235.92 215.936 236.436 216.184 236.818 216.681C237.199 217.177 237.429 217.693 237.505 218.227C237.62 218.724 237.715 219.411 237.792 220.289C237.868 221.168 237.925 221.721 237.964 221.951C238.765 220.041 239.968 218.609 241.572 217.654C243.176 216.7 244.932 216.222 246.841 216.222C249.973 216.222 251.538 217.023 251.539 218.627C251.539 219.429 251.252 220.078 250.68 220.575C250.145 221.033 249.515 221.262 248.789 221.262C245.543 221.263 243.252 222.294 241.916 224.356C240.58 226.418 239.912 229.855 239.912 234.667ZM272.833 216.564C273.329 216.564 273.807 216.735 274.265 217.079C274.762 217.423 275.01 217.805 275.01 218.225C275.01 219.332 273.387 225.327 270.142 236.211C266.897 247.094 264.492 254.732 262.927 259.123C262.583 260.154 262.049 260.67 261.323 260.67C260.598 260.67 260.025 260.403 259.605 259.868C259.185 259.372 258.975 258.627 258.974 257.634C258.974 256.641 259.604 254.255 260.864 250.474C262.162 246.732 262.945 244.345 263.212 243.314C262.257 241.71 259.03 233.691 253.53 219.257C253.454 219.066 253.415 218.818 253.415 218.513C253.415 218.207 253.644 217.806 254.103 217.31C254.561 216.813 255.191 216.565 255.993 216.565C256.795 216.565 257.444 216.966 257.94 217.768C258.475 219.142 259.354 221.548 260.576 224.985C261.798 228.383 262.734 230.846 263.383 232.374C264.071 233.901 264.72 235.486 265.331 237.128C265.865 235.333 266.782 231.858 268.08 226.703C269.378 221.509 270.122 218.55 270.313 217.824C270.466 216.984 271.306 216.564 272.833 216.564Z" fill="black"/>
<path d="M80.6679 334.708C79.581 330.362 78.7514 325.987 78.1792 321.583C77.6069 317.122 77.0917 309.802 76.6334 299.622C76.6333 298.936 76.8621 298.335 77.3195 297.82C77.8342 297.306 78.4061 297.048 79.0352 297.048L79.8073 297.048C80.0934 298.935 80.2937 301.967 80.4084 306.141C80.4085 306.599 80.4658 308.143 80.5804 310.774C80.6949 313.347 80.9811 315.778 81.4388 318.066C88.0728 317.436 93.3628 316.149 97.3088 314.204C101.312 312.259 103.313 309.485 103.313 305.882C103.313 301.364 101.311 297.676 97.3074 294.816C93.3038 291.957 87.2701 290.528 79.2063 290.529C75.832 290.529 72.9726 291.158 70.6278 292.416C70.2275 292.588 69.9416 292.96 69.7701 293.532C69.5985 294.046 69.4556 294.79 69.3413 295.762C69.227 296.792 69.0841 297.564 68.9126 298.078C68.741 298.593 68.4265 298.851 67.969 298.851C67.4543 298.851 67.1111 298.479 66.9395 297.735C66.825 296.935 66.7677 295.133 66.7675 292.331C66.7674 290.73 67.8539 289.471 70.0271 288.556C72.2002 287.641 75.0025 287.183 78.434 287.183C88.4423 287.182 95.8772 288.754 100.739 291.899C105.6 295.045 108.031 299.877 108.031 306.397C108.032 309.885 106.631 312.802 103.829 315.147C101.026 317.492 97.6238 319.237 93.6205 320.381C89.6173 321.468 85.7855 322.011 82.1253 322.012C82.2398 322.698 82.3542 323.327 82.4686 323.899C82.5831 324.471 82.6689 324.957 82.7261 325.357C83.5271 329.246 83.9276 332.249 83.9278 334.365C83.9279 335.623 83.7564 336.624 83.4133 337.367C83.1274 338.111 82.4697 338.368 81.4403 338.139L80.6679 334.708ZM122.408 337.965C122.122 338.022 121.807 336.935 121.464 334.705C121.178 332.475 120.777 328.643 120.262 323.21C119.461 314.288 118.545 306.11 117.515 298.675C116.542 291.241 115.312 284.807 113.825 279.374C113.71 278.916 113.882 278.516 114.339 278.173C114.797 277.83 115.426 277.658 116.227 277.658C116.627 277.658 116.941 277.686 117.17 277.744C118.6 281.632 119.601 285.064 120.173 288.038C120.803 291.012 121.375 294.672 121.89 299.018L122.319 302.364C125.75 300.305 128.896 299.275 131.755 299.275C136.96 299.274 140.649 301.647 142.822 306.394C145.053 311.084 146.169 317.775 146.169 326.468C146.17 329.785 145.97 332.587 145.57 334.875C145.169 337.105 144.683 338.22 144.111 338.22C143.368 338.221 142.539 337.677 141.624 336.591L141.623 333.76L141.708 324.409C141.708 322.636 141.651 320.434 141.536 317.804C141.364 313.343 140.449 309.969 138.79 307.681C137.189 305.394 134.415 304.25 130.469 304.25C127.838 304.251 125.379 305.223 123.092 307.168C123.092 309.341 123.178 311.571 123.349 313.859C123.578 316.147 123.836 318.377 124.122 320.55C124.523 323.581 124.809 326.269 124.98 328.614C125.209 330.902 125.324 333.446 125.324 336.249C124.981 336.935 124.581 337.393 124.123 337.621C123.723 337.85 123.151 337.965 122.408 337.965ZM177.194 378.709C173.305 378.709 169.817 377.88 166.728 376.222C163.697 374.564 161.266 372.648 159.436 370.475C157.606 368.302 156.576 366.529 156.347 365.156C156.118 363.898 156.404 362.926 157.205 362.239C158.063 361.553 159.121 361.267 160.379 361.381C162.152 365.613 164.268 368.873 166.728 371.16C169.187 373.448 172.704 374.649 177.28 374.763C180.482 374.82 183.027 372.761 184.914 368.586C186.858 364.468 188.231 359.406 189.031 353.401C189.831 347.453 190.231 341.591 190.23 335.815C190.23 332.841 190.144 330.411 189.973 328.523C185.626 333.842 180.079 336.502 173.331 336.503C167.497 336.503 163.008 333.73 159.862 328.182C156.773 322.635 154.771 316.373 153.855 309.396C153.741 308.709 153.684 307.737 153.684 306.479C153.683 302.876 154.856 301.074 157.2 301.074C157.429 301.074 157.744 302.504 158.144 305.364C158.774 309.882 159.546 313.942 160.461 317.545C161.377 321.148 162.893 324.436 165.009 327.41C167.182 330.326 170.042 331.785 173.588 331.784C176.39 331.784 179.249 330.869 182.166 329.039C185.14 327.151 187.284 325.063 188.6 322.776C188.599 318.429 188.027 314.54 186.883 311.109C185.796 307.62 185.224 305.762 185.167 305.533C185.052 304.275 184.995 303.474 184.995 303.131C184.995 301.987 185.166 301.158 185.51 300.643C185.91 300.128 186.482 299.871 187.225 299.871C188.026 299.871 188.941 301.501 189.971 304.761C191 308.02 191.916 312.281 192.717 317.542C193.518 322.804 194.062 328.294 194.348 334.013C194.463 336.987 194.52 339.189 194.52 340.619C194.521 351.599 193.149 360.693 190.404 367.899C187.717 375.105 183.314 378.708 177.194 378.709ZM201.782 328.008C202.583 327.378 203.355 327.064 204.098 327.064C204.785 327.064 205.442 327.264 206.071 327.664C206.758 328.064 207.444 328.579 208.13 329.208C208.817 329.78 209.36 330.209 209.76 330.495C211.076 331.524 212.877 332.325 215.165 332.896C217.453 333.468 219.883 333.754 222.457 333.754C225.374 333.754 227.976 333.21 230.263 332.123C232.608 330.979 233.78 329.464 233.78 327.576C233.78 325.861 233.151 324.517 231.893 323.545C230.634 322.515 229.119 321.772 227.346 321.314C225.573 320.857 223.228 320.428 220.311 320.028C216.365 319.571 213.219 318.999 210.875 318.313C208.587 317.627 206.757 316.512 205.384 314.968C204.011 313.367 203.325 311.136 203.325 308.277C203.325 305.189 204.783 302.901 207.699 301.414C210.616 299.869 213.961 299.097 217.736 299.097C221.167 299.096 224.084 299.84 226.486 301.326C228.946 302.756 230.204 304.815 230.261 307.503C230.376 309.047 230.147 310.276 229.575 311.192C229.004 312.049 228.317 312.478 227.517 312.479C227.059 312.479 226.659 312.307 226.316 311.964C226.03 311.621 225.887 311.163 225.887 310.591C225.886 309.676 226.201 308.675 226.83 307.589C226.544 306.216 225.6 305.187 223.999 304.501C222.455 303.815 220.596 303.472 218.423 303.472C215.22 303.472 212.675 304.073 210.788 305.274C208.901 306.418 207.957 307.79 207.957 309.392C207.957 311.107 208.644 312.423 210.016 313.338C211.389 314.253 213.048 314.91 214.992 315.31C216.994 315.653 219.825 315.996 223.485 316.339C226.516 316.739 228.975 317.225 230.863 317.797C232.807 318.369 234.437 319.484 235.753 321.142C237.068 322.743 237.726 325.06 237.726 328.091C237.727 331.236 236.268 333.724 233.352 335.554C230.435 337.328 226.947 338.214 222.886 338.215C217.682 338.215 213.021 337.329 208.903 335.556C204.842 333.784 202.469 331.267 201.782 328.008ZM250.748 338.212C249.433 338.213 248.375 336.297 247.574 332.465C246.773 328.576 246.258 325.231 246.029 322.428C245.8 319.626 245.485 315.194 245.084 309.132C245.027 308.159 244.998 306.901 244.998 305.357C244.998 303.413 245.141 302.069 245.427 301.325C245.77 300.582 246.313 300.21 247.057 300.21C247.686 300.21 248.172 300.353 248.515 300.639C248.915 300.867 249.259 301.268 249.545 301.839L249.459 305.271C249.459 308.931 249.631 312.391 249.975 315.651C250.375 318.911 250.976 323.286 251.777 328.776C252.235 331.178 252.55 333.151 252.721 334.695C252.836 335.496 252.693 336.296 252.292 337.097C251.892 337.841 251.377 338.212 250.748 338.212ZM248.6 291.031C247.342 291.031 246.398 290.545 245.769 289.572C245.197 288.6 244.911 287.399 244.911 285.969C244.911 285.34 244.94 284.883 244.997 284.597C244.939 283.682 245.454 283.224 246.541 283.224C247.341 283.224 248.142 283.424 248.943 283.824C249.801 284.168 250.058 284.425 249.715 284.596C250.287 286.083 250.573 287.256 250.573 288.114C250.573 288.857 250.402 289.458 250.058 289.915C249.715 290.316 249.229 290.687 248.6 291.031ZM281.519 338.21C274.827 338.211 269.623 336.696 265.905 333.665C262.245 330.577 260.414 325.83 260.414 319.425C260.414 316.165 261.214 313.076 262.815 310.16C264.474 307.186 266.675 304.812 269.42 303.039C272.222 301.209 275.225 300.293 278.428 300.293C281.687 300.293 284.461 301.008 286.749 302.437C289.037 303.81 290.181 305.811 290.181 308.442C290.181 310.272 289.838 311.587 289.152 312.388C288.523 313.132 287.808 313.503 287.007 313.503C287.007 310.758 286.263 308.528 284.776 306.812C283.289 305.097 281.173 304.239 278.428 304.239C275.683 304.239 273.309 304.983 271.308 306.47C269.306 307.9 267.762 309.816 266.676 312.218C265.647 314.563 265.132 317.022 265.132 319.596C265.133 325.029 266.963 328.718 270.623 330.662C274.341 332.606 279.231 333.578 285.293 333.577C287.352 333.577 290.04 333.463 293.357 333.234C293.471 333.234 293.728 333.348 294.129 333.577C294.529 333.806 294.844 333.948 295.072 334.006L295.072 334.52C295.073 336.179 293.614 337.208 290.698 337.609C287.781 338.01 284.721 338.21 281.519 338.21ZM298.961 328C299.762 327.371 300.534 327.057 301.277 327.057C301.964 327.056 302.621 327.257 303.25 327.657C303.937 328.057 304.623 328.572 305.309 329.201C305.996 329.773 306.539 330.202 306.939 330.488C308.255 331.517 310.056 332.317 312.344 332.889C314.632 333.461 317.062 333.747 319.636 333.746C322.553 333.746 325.155 333.203 327.442 332.116C329.787 330.972 330.959 329.456 330.959 327.569C330.959 325.853 330.33 324.509 329.072 323.537C327.813 322.508 326.298 321.765 324.525 321.307C322.752 320.85 320.407 320.421 317.49 320.021C313.544 319.564 310.399 318.992 308.054 318.306C305.766 317.62 303.936 316.505 302.563 314.961C301.191 313.359 300.504 311.129 300.504 308.27C300.504 305.181 301.962 302.894 304.878 301.406C307.795 299.862 311.141 299.09 314.915 299.089C318.347 299.089 321.263 299.832 323.665 301.319C326.125 302.749 327.383 304.807 327.44 307.495C327.555 309.04 327.326 310.269 326.754 311.184C326.183 312.042 325.496 312.471 324.696 312.471C324.238 312.471 323.838 312.3 323.495 311.957C323.209 311.613 323.066 311.156 323.066 310.584C323.066 309.669 323.38 308.668 324.009 307.581C323.723 306.209 322.779 305.18 321.178 304.493C319.634 303.807 317.775 303.464 315.602 303.464C312.399 303.465 309.854 304.065 307.967 305.266C306.08 306.41 305.136 307.783 305.136 309.384C305.136 311.1 305.823 312.415 307.196 313.33C308.568 314.245 310.227 314.903 312.171 315.303C314.173 315.646 317.004 315.989 320.664 316.332C323.695 316.732 326.154 317.218 328.042 317.79C329.986 318.361 331.616 319.477 332.932 321.135C334.247 322.736 334.905 325.052 334.905 328.083C334.906 331.229 333.447 333.717 330.531 335.547C327.614 337.32 324.126 338.207 320.065 338.207C314.861 338.208 310.2 337.322 306.082 335.549C302.021 333.776 299.648 331.26 298.961 328Z" fill="black"/>
<g filter="url(#filter2_f_570_712)">
<path d="M1075 136.48C1075 -217.258 788.238 412.019 434.5 412.019C80.7616 412.019 -206 -217.258 -206 136.48C-206 490.219 80.7616 776.98 434.5 776.98C788.238 776.98 1075 490.219 1075 136.48Z" fill="url(#paint0_linear_570_712)"/>
</g>
</g>
<defs>
<filter id="filter0_di_570_712" x="0.804878" y="0" width="511.024" height="576.878" filterUnits="userSpaceOnUse" color-interpolation-filters="sRGB">
<feFlood flood-opacity="0" result="BackgroundImageFix"/>
<feColorMatrix in="SourceAlpha" type="matrix" values="0 0 0 0 0 0 0 0 0 0 0 0 0 0 0 0 0 0 127 0" result="hardAlpha"/>
<feOffset dx="55.3171" dy="96.1463"/>
<feGaussianBlur stdDeviation="46.7561"/>
<feComposite in2="hardAlpha" operator="out"/>
<feColorMatrix type="matrix" values="0 0 0 0 0 0 0 0 0 0 0 0 0 0 0 0 0 0 0.1 0"/>
<feBlend mode="normal" in2="BackgroundImageFix" result="effect1_dropShadow_570_712"/>
<feBlend mode="normal" in="SourceGraphic" in2="effect1_dropShadow_570_712" result="shape"/>
<feColorMatrix in="SourceAlpha" type="matrix" values="0 0 0 0 0 0 0 0 0 0 0 0 0 0 0 0 0 0 127 0" result="hardAlpha"/>
<feOffset dy="1.31707"/>
<feGaussianBlur stdDeviation="10.5366"/>
<feComposite in2="hardAlpha" operator="arithmetic" k2="-1" k3="1"/>
<feColorMatrix type="matrix" values="0 0 0 0 0 0 0 0 0 0 0 0 0 0 0 0 0 0 0.01 0"/>
<feBlend mode="normal" in2="shape" result="effect2_innerShadow_570_712"/>
</filter>
<filter id="filter1_d_570_712" x="-3.01445" y="-36.7464" width="408.029" height="151.2" filterUnits="userSpaceOnUse" color-interpolation-filters="sRGB">
<feFlood flood-opacity="0" result="BackgroundImageFix"/>
<feColorMatrix in="SourceAlpha" type="matrix" values="0 0 0 0 0 0 0 0 0 0 0 0 0 0 0 0 0 0 127 0" result="hardAlpha"/>
<feOffset dy="5.26829"/>
<feGaussianBlur stdDeviation="20.3488"/>
<feComposite in2="hardAlpha" operator="out"/>
<feColorMatrix type="matrix" values="0 0 0 0 0 0 0 0 0 0 0 0 0 0 0 0 0 0 0.06 0"/>
<feBlend mode="normal" in2="BackgroundImageFix" result="effect1_dropShadow_570_712"/>
<feBlend mode="normal" in="SourceGraphic" in2="effect1_dropShadow_570_712" result="shape"/>
</filter>
<filter id="filter2_f_570_712" x="-315.487" y="-80.9086" width="1499.97" height="967.376" filterUnits="userSpaceOnUse" color-interpolation-filters="sRGB">
<feFlood flood-opacity="0" result="BackgroundImageFix"/>
<feBlend mode="normal" in="SourceGraphic" in2="BackgroundImageFix" result="shape"/>
<feGaussianBlur stdDeviation="54.7436" result="effect1_foregroundBlur_570_712"/>
</filter>
<linearGradient id="paint0_linear_570_712" x1="187.807" y1="1272.75" x2="192.545" y2="295.087" gradientUnits="userSpaceOnUse">
<stop stop-color="#E1E6F3"/>
<stop offset="1" stop-color="white"/>
</linearGradient>
<clipPath id="clip0_570_712">
<rect width="324" height="387.22" fill="white" transform="translate(39)"/>
</clipPath>
</defs>
</svg>
