<svg width="516" height="356" viewBox="0 0 516 356" fill="none" xmlns="http://www.w3.org/2000/svg">
<g filter="url(#filter0_d_167_14505)">
<g clip-path="url(#clip0_167_14505)">
<path d="M8 39.0625C8 17.4889 25.4889 0 47.0625 0H468.938C490.511 0 508 17.4889 508 39.0625V253.906C508 297.053 473.022 332.031 429.875 332.031H86.125C42.9778 332.031 8 297.053 8 253.906V39.0625Z" fill="black"/>
<g filter="url(#filter1_f_167_14505)">
<line x1="-199.938" y1="-198.312" x2="102.796" y2="104.423" stroke="white" stroke-opacity="0.8" stroke-width="19.5312"/>
</g>
</g>
</g>
<rect x="44.1502" y="32.3761" width="39.4963" height="31.4737" rx="9.7198" fill="#F0F0F0"/>
<rect x="44.2119" y="24.9899" width="39.4963" height="34.405" rx="7.097" fill="white"/>
<g filter="url(#filter2_d_167_14505)">
<g clip-path="url(#clip1_167_14505)">
<rect x="48.1442" y="19.4357" width="31.9365" height="36.2564" rx="15.9682" fill="black"/>
<g filter="url(#filter3_f_167_14505)">
<line x1="40.4877" y1="12.9581" x2="64.4015" y2="36.8719" stroke="white" stroke-width="1.54283"/>
</g>
</g>
</g>
<defs>
<filter id="filter0_d_167_14505" x="0.1875" y="0" width="515.625" height="347.656" filterUnits="userSpaceOnUse" color-interpolation-filters="sRGB">
<feFlood flood-opacity="0" result="BackgroundImageFix"/>
<feColorMatrix in="SourceAlpha" type="matrix" values="0 0 0 0 0 0 0 0 0 0 0 0 0 0 0 0 0 0 127 0" result="hardAlpha"/>
<feOffset dy="7.8125"/>
<feGaussianBlur stdDeviation="3.90625"/>
<feComposite in2="hardAlpha" operator="out"/>
<feColorMatrix type="matrix" values="0 0 0 0 0 0 0 0 0 0 0 0 0 0 0 0 0 0 0.02 0"/>
<feBlend mode="normal" in2="BackgroundImageFix" result="effect1_dropShadow_167_14505"/>
<feBlend mode="normal" in="SourceGraphic" in2="effect1_dropShadow_167_14505" result="shape"/>
</filter>
<filter id="filter1_f_167_14505" x="-249.617" y="-247.99" width="402.092" height="402.092" filterUnits="userSpaceOnUse" color-interpolation-filters="sRGB">
<feFlood flood-opacity="0" result="BackgroundImageFix"/>
<feBlend mode="normal" in="SourceGraphic" in2="BackgroundImageFix" result="shape"/>
<feGaussianBlur stdDeviation="21.3867" result="effect1_foregroundBlur_167_14505"/>
</filter>
<filter id="filter2_d_167_14505" x="47.527" y="19.4357" width="33.1708" height="37.4907" filterUnits="userSpaceOnUse" color-interpolation-filters="sRGB">
<feFlood flood-opacity="0" result="BackgroundImageFix"/>
<feColorMatrix in="SourceAlpha" type="matrix" values="0 0 0 0 0 0 0 0 0 0 0 0 0 0 0 0 0 0 127 0" result="hardAlpha"/>
<feOffset dy="0.61713"/>
<feGaussianBlur stdDeviation="0.308565"/>
<feComposite in2="hardAlpha" operator="out"/>
<feColorMatrix type="matrix" values="0 0 0 0 0 0 0 0 0 0 0 0 0 0 0 0 0 0 0.02 0"/>
<feBlend mode="normal" in2="BackgroundImageFix" result="effect1_dropShadow_167_14505"/>
<feBlend mode="normal" in="SourceGraphic" in2="effect1_dropShadow_167_14505" result="shape"/>
</filter>
<filter id="filter3_f_167_14505" x="36.5634" y="9.03381" width="31.7623" height="31.7623" filterUnits="userSpaceOnUse" color-interpolation-filters="sRGB">
<feFlood flood-opacity="0" result="BackgroundImageFix"/>
<feBlend mode="normal" in="SourceGraphic" in2="BackgroundImageFix" result="shape"/>
<feGaussianBlur stdDeviation="1.68939" result="effect1_foregroundBlur_167_14505"/>
</filter>
<clipPath id="clip0_167_14505">
<path d="M8 39.0625C8 17.4889 25.4889 0 47.0625 0H468.938C490.511 0 508 17.4889 508 39.0625V253.906C508 297.053 473.022 332.031 429.875 332.031H86.125C42.9778 332.031 8 297.053 8 253.906V39.0625Z" fill="white"/>
</clipPath>
<clipPath id="clip1_167_14505">
<rect x="48.1442" y="19.4357" width="31.9365" height="36.2564" rx="15.9682" fill="white"/>
</clipPath>
</defs>
</svg>
