<svg width="1261" height="358" viewBox="0 0 1261 358" fill="none" xmlns="http://www.w3.org/2000/svg">
<path d="M150.247 412.647C100.286 412.647 62.8667 398.78 37.9882 371.047C13.3137 343.314 0.976472 303.855 0.976472 252.671L0.976472 165.8C0.976472 114.82 13.3137 75.5647 37.9882 48.0353C62.8667 20.3019 100.286 6.43526 150.247 6.43526C165.541 6.43526 179.51 7.76075 192.153 10.4117C204.796 13.0627 216.114 16.5294 226.106 20.8117C236.098 25.0941 244.663 29.5804 251.8 34.2706L256.694 90.5529C244.663 82.3961 230.694 75.2588 214.788 69.1412C198.882 63.0235 180.122 59.9647 158.506 59.9647C127.102 59.9647 103.345 69.2431 87.2353 87.8C71.3294 106.357 63.3765 132.663 63.3765 166.718L63.3765 250.529C63.3765 284.38 71.4314 310.686 87.5412 329.447C103.855 348.208 128.122 357.588 160.341 357.588C181.549 357.588 200.31 354.631 216.624 348.718C233.141 342.6 247.518 335.157 259.753 326.388L254.859 384.2C247.722 388.89 238.953 393.478 228.553 397.965C218.357 402.247 206.631 405.714 193.376 408.365C180.326 411.22 165.949 412.647 150.247 412.647ZM381.365 405L321.412 405L321.412 0.0117256L381.365 0.0117256L381.365 405ZM693.724 405L634.076 405L636.524 334.035L634.382 324.859L634.382 230.647L634.688 215.659C634.688 192.616 628.775 175.69 616.947 164.882C605.324 154.074 586.563 148.671 560.665 148.671C539.661 148.671 520.186 151.627 502.241 157.541C484.296 163.455 468.084 170.286 453.606 178.035L459.112 127.871C467.269 123.18 476.853 118.592 487.865 114.106C498.876 109.62 511.316 105.949 525.182 103.094C539.049 100.239 554.241 98.8117 570.759 98.8117C593.394 98.8117 612.563 101.565 628.265 107.071C643.967 112.373 656.61 120.122 666.194 130.318C675.778 140.514 682.712 152.749 686.994 167.024C691.48 181.298 693.724 197.204 693.724 214.741L693.724 405ZM532.829 411.729C503.261 411.729 480.625 404.49 464.924 390.012C449.222 375.329 441.371 354.529 441.371 327.612L441.371 318.435C441.371 289.886 450.139 268.78 467.676 255.118C485.418 241.251 513.253 231.667 551.182 226.365L641.112 213.518L644.476 256.953L558.218 269.188C537.622 272.043 522.939 277.039 514.171 284.176C505.402 291.11 501.018 301.408 501.018 315.071V319.353C501.018 333.016 505.198 343.518 513.559 350.859C522.124 358.2 535.073 361.871 552.406 361.871C568.312 361.871 581.975 359.22 593.394 353.918C604.814 348.616 614.092 341.58 621.229 332.812C628.367 323.839 633.261 313.949 635.912 303.141L644.171 343.212L633.159 343.212C629.896 355.447 624.492 366.765 616.947 377.165C609.402 387.565 598.798 395.925 585.135 402.247C571.676 408.569 554.241 411.729 532.829 411.729ZM822.18 224.224L809.333 177.424L824.015 177.424C830.337 153.769 840.941 135.212 855.827 121.753C870.713 108.09 891.003 101.259 916.697 101.259C922.815 101.259 928.219 101.769 932.909 102.788C937.803 103.604 942.188 104.624 946.062 105.847L949.733 164.271C944.839 162.639 939.333 161.416 933.215 160.6C927.097 159.58 920.47 159.071 913.333 159.071C891.513 159.071 872.65 164.678 856.744 175.894C840.839 187.11 829.317 203.22 822.18 224.224ZM824.627 405L764.674 405L764.674 105.847L823.097 105.847L820.344 193.024L824.627 197.306L824.627 405ZM1260.17 405L1189.21 405L1079.4 270.106L1049.73 270.106L1049.73 223.612L1079.7 223.612L1184.93 105.847L1254.97 105.847L1124.06 251.141L1124.06 237.988L1260.17 405ZM1054.93 405L995.28 405L995.28 0.0117256L1054.93 0.0117256L1054.93 405Z" fill="#2E302F"/>
</svg>
