<svg width="165" height="158" viewBox="0 0 165 158" fill="none" xmlns="http://www.w3.org/2000/svg">
<path d="M-3 8L87.0107 91.2884" stroke="#F14E07" stroke-width="5"/>
<rect x="37.9274" y="74.5985" width="102.27" height="37.5391" transform="rotate(12.819 37.9274 74.5985)" stroke="black"/>
<path fill-rule="evenodd" clip-rule="evenodd" d="M43.7133 75.4022C40.3098 74.6278 36.923 76.759 36.1485 80.1625L30.4021 105.417C29.6276 108.82 31.7589 112.207 35.1623 112.982L123.533 133.09C126.937 133.864 130.324 131.733 131.098 128.33L136.845 103.075C137.619 99.6718 135.488 96.285 132.084 95.5105L43.7133 75.4022ZM85.7268 92.1411C87.3424 92.5087 88.95 91.497 89.3177 89.8815C89.6853 88.2659 88.6736 86.6582 87.058 86.2906C85.4425 85.923 83.8348 86.9347 83.4672 88.5502C83.0996 90.1658 84.1112 91.7735 85.7268 92.1411Z" fill="#F14E07"/>
<path d="M63.746 109.651C62.195 109.354 60.9106 108.763 59.8929 107.878C58.8924 106.98 58.1896 105.862 57.7845 104.522C57.3966 103.171 57.362 101.662 57.6806 99.9949C57.9964 98.3423 58.5909 96.9609 59.4642 95.8507C60.352 94.7432 61.448 93.961 62.7524 93.5041C64.0568 93.0472 65.4772 92.9655 67.0138 93.2592C68.2749 93.5002 69.3613 93.9482 70.2728 94.6032C71.1844 95.2582 71.886 96.0684 72.3776 97.0339C72.872 97.9848 73.0968 99.0494 73.0519 100.228L70.1165 99.6669C70.0184 98.6865 69.6409 97.8706 68.9841 97.2192C68.3445 96.5561 67.4884 96.122 66.4157 95.917C65.459 95.7342 64.5753 95.7982 63.7646 96.1091C62.9684 96.4227 62.2957 96.9553 61.7464 97.7067C61.1971 98.4582 60.8131 99.4065 60.5942 100.552C60.3837 101.653 60.3938 102.662 60.6245 103.578C60.858 104.479 61.2855 105.229 61.9072 105.829C62.5461 106.416 63.3439 106.802 64.3006 106.985C65.3878 107.192 66.3654 107.109 67.2334 106.734C68.1159 106.361 68.7721 105.758 69.202 104.924L72.0939 105.476C71.6805 106.539 71.0527 107.426 70.2108 108.137C69.3833 108.85 68.4106 109.34 67.2928 109.607C66.1894 109.877 65.0072 109.892 63.746 109.651ZM75.7529 111.675L73.1219 111.172L76.2135 94.9948L78.8445 95.4975L75.7529 111.675ZM81.6779 113.1C80.5472 112.884 79.7067 112.408 79.1562 111.672C78.623 110.924 78.452 110.05 78.6431 109.049C78.8315 108.064 79.3217 107.346 80.1139 106.896C80.9232 106.435 81.9754 106.275 83.2705 106.418L86.5384 106.772L86.5841 106.533C86.6783 106.04 86.6589 105.63 86.5258 105.304C86.41 104.967 86.1979 104.701 85.8895 104.507C85.5837 104.298 85.2062 104.151 84.7568 104.065C83.9741 103.915 83.342 103.96 82.8607 104.198C82.3821 104.422 82.0889 104.817 81.9808 105.382L79.7195 104.95C79.8691 104.168 80.1936 103.531 80.693 103.04C81.2097 102.538 81.8609 102.197 82.6466 102.016C83.4469 101.839 84.3253 101.841 85.2821 102.024C86.2533 102.21 87.0535 102.543 87.6829 103.024C88.3149 103.49 88.7543 104.1 89.001 104.853C89.2505 105.592 89.2796 106.462 89.0885 107.462L87.8419 113.985L85.5153 113.541L85.623 111.916C85.2858 112.422 84.7505 112.786 84.0172 113.006C83.2984 113.23 82.5187 113.261 81.6779 113.1ZM82.9082 111.262C83.7345 111.42 84.4311 111.312 84.9981 110.94C85.5796 110.57 85.9493 109.972 86.1072 109.146L86.2152 108.581L83.9424 108.327C83.1023 108.241 82.482 108.303 82.0814 108.512C81.6837 108.706 81.4432 109.021 81.3601 109.456C81.2687 109.934 81.3589 110.327 81.6307 110.635C81.9025 110.942 82.3284 111.151 82.9082 111.262ZM99.2495 104.986L98.78 107.443L97.8015 107.256C96.8303 107.071 96.0194 107.186 95.3688 107.603C94.721 108.005 94.2974 108.728 94.0979 109.772L93.1007 114.99L90.4479 114.483L92.4965 103.764L94.997 104.241L94.7906 106.501L94.5297 106.451C94.8104 105.768 95.2618 105.254 95.8841 104.907C96.5063 104.56 97.245 104.468 98.1003 104.632C98.2887 104.668 98.4758 104.711 98.6615 104.761C98.8471 104.812 99.0432 104.887 99.2495 104.986ZM101.659 116.626L99.0275 116.123L102.119 99.9454L104.75 100.448L102.851 110.385L107.886 106.682L111.213 107.318L106.311 110.798L109.073 118.043L106.029 117.461L104.088 112.402L102.211 113.734L101.659 116.626Z" fill="black"/>
<path d="M84.4941 90.8789L114.468 107.1C132.388 116.798 146.888 131.776 156 150V150" stroke="#F14E07" stroke-width="5"/>
<circle cx="86.4413" cy="89.3093" r="3.5" transform="rotate(-2 86.4413 89.3093)" fill="white"/>
<circle cx="86.359" cy="89.5863" r="1.75" transform="rotate(-2 86.359 89.5863)" fill="black"/>
</svg>
