<svg width="107" height="78" viewBox="0 0 107 78" fill="none" xmlns="http://www.w3.org/2000/svg">
<path d="M20.9873 -13.9062L36.999 14.8024L53.0107 43.5111" stroke="#F14E07" stroke-width="5"/>
<path fill-rule="evenodd" clip-rule="evenodd" d="M8.13085 38.5763C4.64253 38.6981 1.91345 41.6247 2.03526 45.113L2.93916 70.9972C3.06097 74.4856 5.98756 77.2146 9.47587 77.0928L100.051 73.9299C103.539 73.8081 106.268 70.8815 106.146 67.3932L105.242 41.509C105.121 38.0206 102.194 35.2916 98.7056 35.4134L8.13085 38.5763ZM53.0279 44.0127C54.6838 43.9549 55.9792 42.5657 55.9214 40.9099C55.8636 39.254 54.4744 37.9586 52.8185 38.0164C51.1627 38.0742 49.8672 39.4634 49.9251 41.1193C49.9829 42.7751 51.3721 44.0706 53.0279 44.0127Z" fill="black"/>
<path d="M36.2567 66.5629C34.6814 66.6731 33.2886 66.4302 32.0781 65.8343C30.8814 65.2227 29.9159 64.3212 29.1817 63.1298C28.4611 61.9227 28.0417 60.4726 27.9233 58.7795C27.8059 57.1012 28.0274 55.6137 28.5876 54.317C29.1626 53.0193 30.0222 51.9828 31.1663 51.2074C32.3104 50.4321 33.6627 49.9899 35.2233 49.8808C36.5041 49.7912 37.6689 49.9465 38.7177 50.3465C39.7665 50.7466 40.652 51.3504 41.3742 52.158C42.0953 52.9508 42.5849 53.9226 42.8429 55.0733L39.8617 55.2818C39.5161 54.3591 38.9425 53.6669 38.1409 53.2052C37.353 52.7277 36.4143 52.527 35.3249 52.6032C34.3532 52.6711 33.5153 52.959 32.8111 53.4669C32.1216 53.9737 31.6075 54.6606 31.2687 55.5276C30.9298 56.3945 30.8011 57.4096 30.8824 58.5726C30.9607 59.6915 31.2284 60.664 31.6856 61.4901C32.1418 62.3014 32.747 62.9175 33.5014 63.3381C34.2694 63.743 35.1392 63.9115 36.1109 63.8436C37.2151 63.7664 38.1387 63.4355 38.882 62.8509C39.6399 62.2653 40.12 61.5142 40.3222 60.5977L43.2592 60.3923C43.1314 61.5256 42.7513 62.5434 42.1191 63.4456C41.5016 64.3469 40.6867 65.0696 39.6743 65.6138C38.6767 66.157 37.5375 66.4733 36.2567 66.5629ZM48.3819 65.4487L45.7098 65.6356L44.5609 49.2056L47.233 49.0188L48.3819 65.4487ZM54.4743 65.3112C53.326 65.3915 52.3916 65.1462 51.6711 64.5752C50.9644 63.9885 50.5755 63.1872 50.5044 62.1713C50.4344 61.1702 50.7248 60.351 51.3756 59.7138C52.04 59.0607 53.0164 58.6374 54.3048 58.4438L57.5546 57.9502L57.5376 57.7073C57.5026 57.2067 57.3791 56.8159 57.1671 56.5349C56.9688 56.2381 56.6958 56.0353 56.3479 55.9264C55.999 55.8029 55.5963 55.7571 55.1399 55.789C54.3449 55.8446 53.7453 56.0492 53.341 56.403C52.9357 56.742 52.7531 57.1986 52.7932 57.7728L50.4966 57.9334C50.441 57.1384 50.5919 56.4399 50.9492 55.8379C51.3203 55.2202 51.8625 54.7237 52.576 54.3483C53.3042 53.9719 54.1541 53.7498 55.1257 53.6818C56.1121 53.6128 56.971 53.7303 57.7024 54.0342C58.4327 54.3234 59.0135 54.8006 59.4446 55.4658C59.8748 56.1162 60.1254 56.9494 60.1964 57.9652L60.6597 64.5902L58.2967 64.7554L57.9853 63.1572C57.7888 63.7332 57.3644 64.2215 56.7118 64.6221C56.074 65.0218 55.3282 65.2515 54.4743 65.3112ZM55.1935 63.2193C56.0327 63.1606 56.6787 62.8787 57.1316 62.3737C57.5992 61.8676 57.8037 61.1949 57.745 60.3558L57.7048 59.7816L55.4426 60.1173C54.6086 60.2496 54.0247 60.468 53.6909 60.7724C53.3561 61.0621 53.2042 61.4278 53.235 61.8694C53.269 62.3553 53.4567 62.712 53.7981 62.9396C54.1395 63.1673 54.6046 63.2605 55.1935 63.2193ZM69.3863 52.9731L69.5607 55.4685L68.567 55.538C67.5806 55.607 66.8262 55.926 66.3038 56.4951C65.7804 57.0495 65.5558 57.8567 65.6299 58.9167L66.0005 64.2167L63.3064 64.4051L62.5451 53.5181L65.0846 53.3405L65.463 55.5775L65.198 55.5961C65.2948 54.8644 65.5996 54.2513 66.1124 53.7568C66.6252 53.2623 67.3159 52.9847 68.1845 52.924C68.3759 52.9106 68.5678 52.9046 68.7602 52.9059C68.9526 52.9073 69.1613 52.9297 69.3863 52.9731ZM74.692 63.6089L72.0199 63.7958L70.871 47.3658L73.5431 47.179L74.2488 57.271L78.1692 52.4033L81.5479 52.1671L77.6989 56.7857L82.2224 63.0824L79.1308 63.2986L75.9608 58.9044L74.4866 60.6719L74.692 63.6089Z" fill="#F14E07"/>
<path d="M50.495 43.1002L85.8586 14.8971C92.4019 9.67871 97.8957 3.26629 102.049 -4V-4" stroke="#F14E07" stroke-width="5"/>
<circle cx="52.4413" cy="41.532" r="3.5" transform="rotate(-2 52.4413 41.532)" fill="white"/>
<circle cx="52.3588" cy="41.809" r="1.75" transform="rotate(-2 52.3588 41.809)" fill="black"/>
</svg>
