<svg width="66" height="59" viewBox="0 0 66 59" fill="none" xmlns="http://www.w3.org/2000/svg">
<path d="M13.0175 1.77893L32.8804 37.3928" stroke="#F24E06" stroke-width="3.10132"/>
<path fill-rule="evenodd" clip-rule="evenodd" d="M5.04341 34.3333C2.87974 34.4088 1.18698 36.2241 1.26254 38.3878L1.82319 54.4428C1.89875 56.6065 3.71401 58.2992 5.87768 58.2237L62.0579 56.2618C64.2215 56.1862 65.9143 54.371 65.8387 52.2073L65.2781 36.1523C65.2025 33.9886 63.3873 32.2959 61.2236 32.3714L5.04341 34.3333ZM32.8914 37.7067C33.9184 37.6709 34.7219 36.8092 34.6861 35.7821C34.6502 34.7551 33.7885 33.9515 32.7615 33.9874C31.7344 34.0233 30.9309 34.8849 30.9668 35.912C31.0026 36.9391 31.8643 37.7426 32.8914 37.7067Z" fill="black"/>
<path d="M22.9122 51.3942C21.9351 51.4626 21.0712 51.3119 20.3204 50.9423C19.5781 50.5629 18.9793 50.0038 18.5238 49.2648C18.0769 48.5161 17.8167 47.6166 17.7433 46.5665C17.6705 45.5255 17.8078 44.6029 18.1554 43.7986C18.512 42.9936 19.0451 42.3507 19.7548 41.8698C20.4644 41.3889 21.3032 41.1146 22.2712 41.0469C23.0657 40.9914 23.7881 41.0877 24.4387 41.3358C25.0892 41.584 25.6384 41.9585 26.0864 42.4594C26.5337 42.9512 26.8374 43.5539 26.9974 44.2677L25.1482 44.397C24.9339 43.8247 24.5781 43.3953 24.0809 43.1089C23.5922 42.8128 23.01 42.6883 22.3342 42.7355C21.7315 42.7777 21.2118 42.9563 20.775 43.2713C20.3474 43.5856 20.0285 44.0117 19.8183 44.5494C19.6081 45.0872 19.5283 45.7168 19.5787 46.4382C19.6273 47.1322 19.7933 47.7354 20.0769 48.2478C20.3599 48.751 20.7353 49.1331 21.2032 49.394C21.6795 49.6452 22.2191 49.7497 22.8218 49.7075C23.5066 49.6597 24.0796 49.4544 24.5405 49.0918C25.0107 48.7286 25.3084 48.2627 25.4338 47.6942L27.2556 47.5668C27.1763 48.2698 26.9406 48.9011 26.5484 49.4607C26.1654 50.0197 25.6599 50.468 25.032 50.8056C24.4132 51.1425 23.7066 51.3387 22.9122 51.3942ZM30.433 50.7032L28.7756 50.8191L28.063 40.6282L29.7204 40.5123L30.433 50.7032ZM34.2119 50.6179C33.4996 50.6677 32.9201 50.5155 32.4732 50.1613C32.0348 49.7974 31.7936 49.3004 31.7495 48.6703C31.7061 48.0494 31.8862 47.5413 32.2899 47.146C32.702 46.7409 33.3076 46.4784 34.1067 46.3582L36.1225 46.0521L36.1119 45.9014C36.0902 45.591 36.0136 45.3486 35.8822 45.1742C35.7592 44.9901 35.5898 44.8643 35.374 44.7968C35.1576 44.7202 34.9078 44.6918 34.6248 44.7116C34.1317 44.7461 33.7597 44.873 33.509 45.0924C33.2575 45.3027 33.1443 45.5859 33.1692 45.942L31.7447 46.0417C31.7102 45.5486 31.8038 45.1153 32.0254 44.7419C32.2556 44.3588 32.5919 44.0508 33.0344 43.818C33.4861 43.5845 34.0133 43.4467 34.616 43.4046C35.2278 43.3618 35.7605 43.4347 36.2142 43.6232C36.6672 43.8025 37.0274 44.0985 37.2948 44.5111C37.5616 44.9146 37.717 45.4313 37.7611 46.0614L38.0484 50.1706L36.5828 50.2731L36.3896 49.2818C36.2678 49.6391 36.0045 49.9419 35.5998 50.1905C35.2042 50.4384 34.7415 50.5808 34.2119 50.6179ZM34.658 49.3203C35.1785 49.2839 35.5792 49.1091 35.8601 48.7958C36.1502 48.4819 36.277 48.0647 36.2406 47.5442L36.2157 47.188L34.8125 47.3963C34.2952 47.4783 33.933 47.6138 33.726 47.8026C33.5183 47.9823 33.4241 48.2091 33.4432 48.4831C33.4643 48.7844 33.5807 49.0057 33.7925 49.1469C34.0042 49.2881 34.2927 49.3459 34.658 49.3203ZM43.4612 42.965L43.5695 44.5128L42.9531 44.5559C42.3413 44.5987 41.8733 44.7966 41.5493 45.1496C41.2247 45.4935 41.0853 45.9941 41.1313 46.6516L41.3612 49.939L39.6901 50.0558L39.2179 43.303L40.7931 43.1929L41.0278 44.5804L40.8634 44.5919C40.9234 44.1381 41.1125 43.7578 41.4306 43.4511C41.7486 43.1444 42.1771 42.9722 42.7158 42.9345C42.8345 42.9262 42.9536 42.9225 43.0729 42.9233C43.1923 42.9242 43.3217 42.938 43.4612 42.965ZM46.7522 49.562L45.0948 49.6779L44.3822 39.487L46.0396 39.3711L46.4773 45.6309L48.9089 42.6116L51.0047 42.465L48.6173 45.3298L51.423 49.2354L49.5054 49.3695L47.5392 46.644L46.6248 47.7403L46.7522 49.562Z" fill="#F24E06"/>
<path d="M31.3199 37.1391L59.3978 14.7465L50.6502 21.7233" stroke="#F24E06" stroke-width="3.10132"/>
<circle cx="32.5272" cy="36.1655" r="2.17092" transform="rotate(-2 32.5272 36.1655)" fill="white"/>
<circle cx="32.476" cy="36.3389" r="1.08546" transform="rotate(-2 32.476 36.3389)" fill="black"/>
</svg>
