<svg width="94" height="83" viewBox="0 0 94 83" fill="none" xmlns="http://www.w3.org/2000/svg">
<path d="M18.376 2.51123L46.4153 52.7853" stroke="#F24E06" stroke-width="4.37795"/>
<path d="M32.0872 71.8036C30.708 71.9 29.4884 71.6874 28.4286 71.1656C27.3807 70.6301 26.5354 69.8407 25.8925 68.7976C25.2616 67.7406 24.8943 66.471 24.7906 64.9885C24.6879 63.519 24.8818 62.2166 25.3723 61.0812C25.8758 59.9449 26.6284 59.0374 27.6302 58.3585C28.6319 57.6796 29.816 57.2924 31.1824 57.1969C32.3039 57.1185 33.3238 57.2544 34.2421 57.6047C35.1604 57.955 35.9357 58.4837 36.5681 59.1908C37.1995 59.885 37.6282 60.7359 37.8541 61.7434L35.2438 61.9259C34.9411 61.1181 34.4389 60.512 33.7371 60.1077C33.0472 59.6896 32.2253 59.5139 31.2714 59.5806C30.4206 59.6401 29.6869 59.8922 29.0703 60.3369C28.4666 60.7806 28.0165 61.3821 27.7198 62.1412C27.4231 62.9003 27.3104 63.789 27.3816 64.8074C27.4501 65.787 27.6845 66.6385 28.0849 67.3619C28.4843 68.0723 29.0142 68.6117 29.6747 68.98C30.3472 69.3345 31.1088 69.4821 31.9596 69.4226C32.9264 69.355 33.7352 69.0652 34.3859 68.5534C35.0496 68.0407 35.4699 67.383 35.647 66.5805L38.2186 66.4006C38.1067 67.393 37.7739 68.2841 37.2203 69.0741C36.6796 69.8633 35.9661 70.4961 35.0797 70.9726C34.2062 71.4482 33.2087 71.7252 32.0872 71.8036ZM42.7039 70.828L40.3643 70.9916L39.3583 56.6057L41.698 56.4421L42.7039 70.828ZM48.0384 70.7076C47.033 70.7779 46.2148 70.5631 45.584 70.0632C44.9652 69.5494 44.6246 68.8478 44.5624 67.9584C44.5012 67.0818 44.7554 66.3645 45.3252 65.8066C45.907 65.2348 46.7619 64.8641 47.89 64.6945L50.7355 64.2624L50.7206 64.0497C50.69 63.6114 50.5818 63.2692 50.3962 63.0232C50.2226 62.7633 49.9835 62.5857 49.6789 62.4904C49.3734 62.3822 49.0208 62.3421 48.6212 62.3701C47.9251 62.4187 47.4001 62.5979 47.0461 62.9077C46.6912 63.2045 46.5313 63.6043 46.5665 64.107L44.5556 64.2476C44.5069 63.5516 44.639 62.94 44.9519 62.4129C45.2768 61.872 45.7516 61.4373 46.3763 61.1086C47.0138 60.7791 47.758 60.5845 48.6088 60.525C49.4725 60.4646 50.2245 60.5675 50.8649 60.8336C51.5044 61.0868 52.0129 61.5046 52.3904 62.0871C52.767 62.6566 52.9864 63.3861 53.0486 64.2755L53.4542 70.0763L51.3853 70.221L51.1126 68.8216C50.9406 69.3259 50.5689 69.7534 49.9976 70.1043C49.4391 70.4542 48.7861 70.6553 48.0384 70.7076ZM48.6681 68.876C49.4029 68.8246 49.9686 68.5778 50.3651 68.1355C50.7745 67.6924 50.9536 67.1034 50.9022 66.3687L50.867 65.8659L48.8863 66.1599C48.156 66.2757 47.6447 66.4669 47.3525 66.7335C47.0593 66.9871 46.9263 67.3073 46.9533 67.694C46.9831 68.1194 47.1474 68.4318 47.4463 68.6311C47.7452 68.8304 48.1525 68.912 48.6681 68.876ZM61.0952 59.9045L61.2479 62.0895L60.3778 62.1503C59.5142 62.2107 58.8536 62.49 58.3962 62.9884C57.9379 63.4738 57.7412 64.1806 57.8061 65.1087L58.1307 69.7493L55.7717 69.9142L55.1051 60.3817L57.3287 60.2262L57.66 62.1849L57.428 62.2011C57.5127 61.5605 57.7796 61.0237 58.2286 60.5907C58.6776 60.1577 59.2824 59.9147 60.0429 59.8615C60.2105 59.8498 60.3785 59.8445 60.547 59.8457C60.7155 59.8468 60.8982 59.8665 61.0952 59.9045ZM65.7408 69.2171L63.4012 69.3807L62.3952 54.9948L64.7349 54.8312L65.3528 63.6677L68.7854 59.4056L71.7438 59.1987L68.3736 63.2428L72.3344 68.7561L69.6273 68.9454L66.8518 65.0979L65.561 66.6455L65.7408 69.2171Z" fill="#F24E06"/>
<path d="M44.2125 52.4278L75.1765 27.7335C80.9057 23.1643 85.7161 17.5497 89.3524 11.1874V11.1874" stroke="#F24E06" stroke-width="4.37795"/>
<circle cx="45.9167" cy="51.0529" r="3.06456" transform="rotate(-2 45.9167 51.0529)" fill="white"/>
<circle cx="45.8446" cy="51.2977" r="1.53228" transform="rotate(-2 45.8446 51.2977)" fill="black"/>
</svg>
