<svg width="104" height="92" viewBox="0 0 104 92" fill="none" xmlns="http://www.w3.org/2000/svg">
<path fill-rule="evenodd" clip-rule="evenodd" d="M6.35379 52.2852C2.84469 52.2852 0 55.1298 0 58.6389V84.6774C0 88.1865 2.84468 91.0312 6.35378 91.0312H97.4684C100.977 91.0312 103.822 88.1865 103.822 84.6774V58.6389C103.822 55.1298 100.977 52.2852 97.4684 52.2852H6.35379ZM51.2729 59.3251C52.9386 59.3251 54.2889 57.9747 54.2889 56.309C54.2889 54.6433 52.9386 53.293 51.2729 53.293C49.6072 53.293 48.2568 54.6433 48.2568 56.309C48.2568 57.9747 49.6072 59.3251 51.2729 59.3251Z" fill="black"/>
<path d="M33.9804 81.2497C32.3938 81.3051 31.0028 81.0122 29.8076 80.3711C28.6267 79.7145 27.6883 78.7749 26.9923 77.5521C26.3107 76.314 25.9401 74.8423 25.8806 73.1371C25.8216 71.4467 26.0963 69.9599 26.7047 68.6768C27.3279 67.3931 28.2279 66.3818 29.4046 65.643C30.5814 64.9041 31.9556 64.5072 33.5274 64.4524C34.8174 64.4073 35.9823 64.6042 37.022 65.0429C38.0617 65.4817 38.9302 66.1194 39.6275 66.9562C40.3243 67.7781 40.7821 68.7716 41.0009 69.9368L37.9983 70.0417C37.6834 69.1025 37.1314 68.3869 36.3422 67.8948C35.5673 67.3874 34.6312 67.1529 33.534 67.1912C32.5553 67.2254 31.7033 67.4853 30.978 67.9708C30.2674 68.4559 29.7268 69.128 29.3559 69.9872C28.9851 70.8463 28.8201 71.8616 28.861 73.033C28.9004 74.16 29.1352 75.1465 29.5656 75.9925C29.9955 76.8237 30.582 77.4639 31.3252 77.913C32.0826 78.3468 32.9507 78.5466 33.9293 78.5124C35.0414 78.4736 35.9811 78.1735 36.7483 77.6123C37.5304 77.0505 38.0391 76.3127 38.2744 75.3989L41.2326 75.2956C41.0644 76.4298 40.6468 77.439 39.9799 78.3234C39.3279 79.2072 38.4837 79.9048 37.4475 80.416C36.4261 80.9268 35.2704 81.2047 33.9804 81.2497ZM46.2021 80.5557L43.5108 80.6497L42.9329 64.1016L45.6242 64.0077L46.2021 80.5557ZM52.3282 80.6313C51.1716 80.6717 50.2414 80.3924 49.5376 79.7934C48.848 79.1791 48.4854 78.3604 48.4497 77.3373C48.4145 76.329 48.735 75.5161 49.4112 74.8986C50.1017 74.2658 51.0976 73.8747 52.3988 73.7254L55.6813 73.3435L55.6727 73.0989C55.6551 72.5947 55.5448 72.1977 55.3417 71.9079C55.1528 71.6027 54.8856 71.3894 54.5399 71.2678C54.1937 71.1314 53.7907 71.0713 53.3311 71.0873C52.5303 71.1153 51.9207 71.2999 51.5021 71.6411C51.0829 71.9675 50.8834 72.4199 50.9036 72.9982L48.5905 73.079C48.5625 72.2782 48.7386 71.5817 49.1188 70.9895C49.5132 70.3819 50.0755 69.902 50.8055 69.5499C51.5503 69.1973 52.4121 69.0039 53.3907 68.9697C54.3842 68.935 55.243 69.0832 55.9672 69.4142C56.6908 69.7304 57.2576 70.2302 57.6675 70.9136C58.0768 71.5823 58.2994 72.4281 58.3351 73.4513L58.5681 80.1239L56.1882 80.207L55.9313 78.5903C55.7137 79.1621 55.2701 79.6378 54.6005 80.0175C53.9456 80.3966 53.1882 80.6012 52.3282 80.6313ZM53.1242 78.5547C53.9694 78.5252 54.6283 78.2647 55.1011 77.7731C55.5887 77.281 55.8177 76.6123 55.7882 75.7671L55.768 75.1888L53.4833 75.4468C52.6407 75.5504 52.0464 75.7493 51.7003 76.0435C51.3538 76.3228 51.1883 76.6849 51.2038 77.1298C51.2209 77.6191 51.3969 77.9841 51.732 78.2248C52.067 78.4654 52.531 78.5754 53.1242 78.5547ZM67.7436 68.758L67.8314 71.2713L66.8305 71.3063C65.837 71.341 65.0679 71.6351 64.523 72.1885C63.9777 72.7272 63.7237 73.5303 63.7609 74.5979L63.9474 79.936L61.2338 80.0308L60.8509 69.0655L63.4087 68.9762L63.7104 71.2371L63.4435 71.2464C63.5664 70.5146 63.8941 69.9094 64.4267 69.4305C64.9593 68.9517 65.663 68.697 66.5379 68.6665C66.7306 68.6597 66.9237 68.6604 67.1169 68.6685C67.3102 68.6766 67.5191 68.7064 67.7436 68.758ZM72.7013 79.6303L70.01 79.7243L69.4322 63.1763L72.1235 63.0823L72.4784 73.2469L76.5881 68.4937L79.9911 68.3748L75.9619 72.8803L80.2858 79.3655L77.172 79.4742L74.1412 74.9481L72.598 76.6721L72.7013 79.6303Z" fill="#F24E06"/>
<circle cx="50.7707" cy="56.8039" r="3.51871" fill="#F0F0F0"/>
<circle cx="50.6773" cy="57.0797" r="1.75936" fill="#F24E06"/>
</svg>
