<svg width="140" height="124" viewBox="0 0 140 124" fill="none" xmlns="http://www.w3.org/2000/svg">
<rect width="168.995" height="151.635" transform="matrix(-1 0 0 1 169.498 -27.8174)" fill="black"/>
<path d="M77.3058 60.5493L47.9161 77.8069C30.3461 88.124 16.3773 103.599 7.90681 122.13V122.13" stroke="#F14E07" stroke-width="5"/>
<path d="M161.854 -25.3325L74.8051 61.0465" stroke="#F14E07" stroke-width="5"/>
<rect x="-0.355486" y="0.611253" width="102.27" height="37.5391" transform="matrix(-0.966738 0.255767 0.255767 0.966738 122.776 42.1537)" stroke="black"/>
<path fill-rule="evenodd" clip-rule="evenodd" d="M117.522 43.6589C120.896 42.7662 124.355 44.7779 125.248 48.1523L131.872 73.1908C132.765 76.5651 130.753 80.0243 127.379 80.917L39.7635 104.097C36.3892 104.99 32.93 102.978 32.0373 99.6038L25.4129 74.5653C24.5202 71.191 26.5319 67.7318 29.9063 66.8391L117.522 43.6589ZM76.118 61.8538C74.5162 62.2776 72.8742 61.3226 72.4505 59.7209C72.0267 58.1192 72.9816 56.4772 74.5834 56.0534C76.1851 55.6296 77.8271 56.5846 78.2509 58.1863C78.6747 59.788 77.7197 61.4301 76.118 61.8538Z" fill="#F14E07"/>
<path d="M63.2709 88.6593C61.7726 89.1579 60.3631 89.2692 59.0425 88.9932C57.7312 88.6986 56.5718 88.0656 55.5642 87.0944C54.566 86.1045 53.7989 84.8044 53.263 83.1941C52.7318 81.5977 52.5761 80.1019 52.7962 78.7066C53.0302 77.3066 53.6048 76.0888 54.5201 75.0532C55.4353 74.0176 56.6351 73.2528 58.1194 72.7588C59.3377 72.3534 60.5045 72.214 61.6198 72.3405C62.7351 72.4671 63.743 72.8316 64.6434 73.4341C65.5392 74.0225 66.2552 74.8419 66.7913 75.8923L63.9557 76.8359C63.3914 76.0283 62.6636 75.5005 61.7724 75.2528C60.8905 74.9863 59.9314 75.0255 58.8952 75.3704C57.971 75.6779 57.231 76.1653 56.6753 76.8324C56.1336 77.4948 55.8066 78.288 55.6941 79.212C55.5816 80.136 55.7095 81.1511 56.0776 82.2574C56.4318 83.3216 56.9331 84.1969 57.5814 84.8833C58.2251 85.5556 58.9646 86.0017 59.7999 86.2214C60.6445 86.4225 61.5289 86.3693 62.4531 86.0617C63.5034 85.7122 64.3157 85.1619 64.8901 84.4108C65.4785 83.6551 65.7566 82.8081 65.7244 81.8701L68.518 80.9404C68.6761 82.0699 68.5612 83.1502 68.1734 84.1814C67.7995 85.2079 67.19 86.1107 66.345 86.8897C65.5139 87.664 64.4892 88.2538 63.2709 88.6593ZM74.7376 84.5633L72.196 85.4091L66.9954 69.7817L69.5369 68.9359L74.7376 84.5633ZM80.6042 82.9142C79.512 83.2777 78.5459 83.2726 77.7061 82.8988C76.8756 82.5064 76.2995 81.8271 75.978 80.8608C75.6611 79.9086 75.7385 79.043 76.2103 78.2638C76.6913 77.466 77.5317 76.813 78.7314 76.3049L81.7562 75.0183L81.6793 74.7873C81.5208 74.3112 81.304 73.9634 81.0287 73.7439C80.7628 73.5058 80.4479 73.3773 80.0839 73.3584C79.7152 73.3256 79.3138 73.3814 78.8797 73.5258C78.1236 73.7775 77.5937 74.1249 77.2901 74.5681C76.9819 74.9973 76.9187 75.485 77.1004 76.0311L74.9159 76.7581C74.6643 76.0019 74.6366 75.2879 74.833 74.6159C75.0386 73.9253 75.4403 73.3095 76.0379 72.7684C76.6496 72.2227 77.4175 71.796 78.3417 71.4885C79.2799 71.1762 80.141 71.0763 80.925 71.1887C81.7043 71.2871 82.3855 71.6048 82.9686 72.1418C83.5471 72.6647 83.9971 73.4093 84.3186 74.3755L86.4157 80.6769L84.1682 81.4249L83.4688 79.9545C83.4219 80.5611 83.1323 81.1397 82.6 81.6901C82.0817 82.2359 81.4164 82.6439 80.6042 82.9142ZM80.7803 80.7092C81.5785 80.4436 82.1341 80.0098 82.4471 79.4079C82.774 78.8014 82.8047 78.099 82.5391 77.3008L82.3573 76.7547L80.2498 77.6427C79.4749 77.9784 78.9637 78.3352 78.7162 78.7131C78.464 79.077 78.4078 79.469 78.5476 79.889C78.7014 80.3511 78.9719 80.65 79.3592 80.7855C79.7465 80.921 80.2202 80.8956 80.7803 80.7092ZM91.9774 67.2539L92.7673 69.6274L91.8221 69.942C90.8839 70.2542 90.2326 70.7509 89.8683 71.4321C89.4992 72.0993 89.4825 72.937 89.818 73.9452L91.4957 78.9864L88.9331 79.8392L85.487 69.4839L87.9025 68.68L88.8255 70.7526L88.5735 70.8365C88.4852 70.1037 88.6278 69.4341 89.0015 68.8276C89.3751 68.221 89.975 67.7803 90.8012 67.5054C90.9833 67.4448 91.1676 67.3912 91.3543 67.3446C91.541 67.298 91.7487 67.2678 91.9774 67.2539ZM99.7626 76.2352L97.2211 77.081L92.0204 61.4536L94.562 60.6078L97.7564 70.2069L100.342 64.5168L103.556 63.4473L100.977 68.8784L106.925 73.8516L103.985 74.8302L99.821 71.3629L98.8329 73.4416L99.7626 76.2352Z" fill="black"/>
<circle cx="3.5" cy="3.5" r="3.5" transform="matrix(-1 0 0 1 78.8051 55.5488)" fill="white"/>
<circle cx="1.75" cy="1.75" r="1.75" transform="matrix(-1 0 0 1 77.1472 57.5728)" fill="black"/>
</svg>
