<svg width="317" height="287" viewBox="0 0 317 287" fill="none" xmlns="http://www.w3.org/2000/svg">
<g clip-path="url(#clip0_242_6063)" filter="url(#filter0_di_242_6063)">
<rect width="207.44" height="247.916" transform="translate(25 0.214111)" fill="black"/>
<g filter="url(#filter1_d_242_6063)">
<rect x="25" y="0.214111" width="207.44" height="43.0059" fill="#FF8329"/>
<rect x="24.5784" y="-0.207515" width="208.283" height="43.8491" stroke="white" stroke-width="0.843253"/>
</g>
<path d="M43.0359 131.199C42.2286 131.199 41.5274 131.093 40.9325 130.88C40.2101 130.668 39.8489 130.073 39.8488 129.096L39.8461 92.0634C39.846 91.341 39.7184 90.2574 39.4634 88.8127C39.1658 87.4955 39.017 86.4119 39.017 85.5621L39.0169 85.3708C39.7392 84.181 40.2703 83.4161 40.6102 83.0761C41.2051 83.0761 41.9912 82.991 42.9686 82.821C43.8609 82.6509 44.647 82.5659 45.3269 82.5659C46.0068 82.5658 46.6654 82.7782 47.3028 83.2031C47.9403 83.5855 48.259 84.0529 48.259 84.6053C48.2591 85.8801 47.2818 86.5175 45.3272 86.5177L44.4348 86.5177C44.1799 86.4753 43.8824 86.454 43.5425 86.4541C43.1601 86.4541 42.9263 86.4753 42.8414 86.5178C42.8415 87.9626 42.9266 89.7048 43.0967 91.7444L43.2243 93.5291L43.3521 97.0347C43.3521 97.8421 43.2885 99.0744 43.1611 100.732L43.0339 104.301L43.9262 104.11C44.7761 103.855 45.4772 103.727 46.0296 103.727C46.497 103.727 46.922 103.918 47.3044 104.301C47.6869 104.641 47.8781 105.044 47.8782 105.512C47.8782 106.022 47.7083 106.489 47.3684 106.914C47.0709 107.296 46.6885 107.488 46.2211 107.488L45.4562 107.424L44.6276 107.424C43.9902 107.424 43.5441 107.573 43.2891 107.87L43.2906 127.566L46.86 127.374C49.2821 127.374 50.4931 127.926 50.4932 129.031L50.4932 129.286C50.2383 129.796 49.7709 130.221 49.0911 130.561C48.4112 130.858 47.7526 131.05 47.1152 131.135L45.0118 131.199L43.0359 131.199ZM59.246 131.198C58.1412 131.198 57.5886 128.414 57.5882 122.848L57.7149 112.777C57.7572 109.803 57.7782 106.467 57.7779 102.77C57.7778 101.41 57.6502 99.307 57.395 96.46C57.1823 93.3581 57.0759 91.4672 57.0759 90.7873C57.0758 90.2349 57.3095 89.7462 57.7769 89.3212C58.2443 88.8963 58.7542 88.6838 59.3066 88.6837C60.7938 88.6836 62.2173 89.0235 63.5771 89.7032C64.9794 90.3405 66.2118 91.254 67.2742 92.4437C69.5265 95.0356 71.014 97.8825 71.7366 100.984C72.1191 102.557 72.3104 104.108 72.3106 105.637C72.3106 106.19 72.2894 106.7 72.2469 107.167L72.1833 108.888L72.1836 112.394C72.1838 115.113 72.099 117.259 71.9291 118.831C71.6743 120.956 71.1858 122.847 70.4636 124.504C69.6138 126.289 68.3817 127.882 66.7671 129.285C66.0022 129.922 65.025 130.56 63.8352 131.197L59.246 131.198ZM62.0503 127.947C62.9001 127.947 63.6862 127.734 64.4086 127.309C65.1309 126.842 65.747 126.225 66.2569 125.461C66.6817 124.781 67.0641 123.931 67.404 122.911C67.7863 121.849 68.0624 120.829 68.2323 119.851C68.6146 117.939 68.8482 115.984 68.933 113.987C68.9755 113.477 68.9967 112.734 68.9966 111.756C68.9956 98.9237 66.5093 92.2313 61.5376 91.6793C61.2403 93.5915 61.0918 95.8011 61.092 98.3082C61.0922 100.985 61.2625 105.659 61.6029 112.331C61.9008 118.237 62.0499 122.933 62.0502 126.417L62.0503 127.947ZM86.0612 131.769C85.0414 131.769 84.1278 131.536 83.3204 131.068C82.513 130.643 81.8543 130.006 81.3443 129.156C80.3244 127.372 79.6656 125.353 79.368 123.101C79.0704 121.147 78.9215 118.809 78.9213 116.09C78.7934 111.501 78.7293 105.892 78.7288 99.2629L78.6647 94.355C78.6222 94.1001 78.6009 93.6752 78.6008 93.0803C78.5157 91.4656 78.4732 90.4882 78.4731 90.1483C78.8555 89.2559 79.3016 88.8097 79.8116 88.8097C80.3215 88.8096 80.7677 89.192 81.1502 89.9569C81.5751 90.7217 81.7877 91.5503 81.7877 92.4426L81.789 109.78C81.7892 111.479 81.9381 113.731 82.2357 116.536C82.5334 120.02 82.6823 122.272 82.6824 123.292C82.6826 126.437 84.0213 128.009 86.6983 128.009C89.7578 128.008 91.2866 116.578 91.2849 93.7167L91.2847 90.1473L91.2846 89.5737C91.2421 89.4462 91.2208 89.2762 91.2208 89.0638C91.2208 88.5539 91.327 88.1927 91.5394 87.9802C91.7944 87.7252 92.2618 87.5977 92.9417 87.5976C93.4941 87.5976 93.919 87.7675 94.2165 88.1075C94.5564 88.4049 94.7689 88.7661 94.854 89.191C94.8965 89.4459 94.9177 89.9346 94.9178 90.657C94.9179 91.3368 94.8542 92.4204 94.7268 93.9077C94.557 95.14 94.472 96.2023 94.4721 97.0946C94.4722 98.072 94.4298 98.9431 94.3448 99.7079L94.2176 102.385L94.2176 102.895C94.2601 103.065 94.2814 103.256 94.2814 103.469C94.2828 122.335 91.5427 131.769 86.0612 131.769ZM110.813 131.704C109.878 131.704 108.879 131.555 107.817 131.258C106.797 131.003 106.011 130.705 105.459 130.365C102.611 128.539 101.188 123.546 101.187 115.387L101.187 113.666L101.187 111.69L101.187 110.161C101.186 108.461 101.208 106.952 101.25 105.635C101.292 104.275 101.377 102.809 101.505 101.237C101.632 99.5799 101.823 98.2414 102.078 97.2215C102.333 96.1592 102.758 94.9694 103.352 93.6521C103.862 92.4197 104.478 91.4636 105.201 90.7837C105.965 90.1037 106.943 89.53 108.133 89.0625C109.195 88.595 110.512 88.3612 112.084 88.3611C112.722 88.361 113.21 88.5097 113.55 88.8071C113.89 89.1046 114.06 89.487 114.06 89.9544C114.06 90.3793 113.912 90.7618 113.614 91.1017C113.359 91.4417 113.041 91.6329 112.658 91.6755L109.662 91.6757C108.813 91.6757 108.069 92.207 107.432 93.2693C106.794 94.3317 106.348 95.7127 106.094 97.4124C105.541 100.557 105.265 103.107 105.265 105.061L105.266 105.38L105.138 111.499C105.054 113.326 105.011 115.387 105.011 117.681C105.012 119.296 105.075 120.613 105.203 121.633C105.416 123.163 105.777 124.438 106.287 125.458C106.797 126.605 107.668 127.433 108.9 127.943C109.538 128.198 110.239 128.325 111.004 128.325C111.471 128.325 111.939 128.155 112.406 127.815C112.958 127.815 113.405 127.943 113.744 128.198C114.127 128.41 114.318 128.75 114.318 129.218C114.318 130.875 113.15 131.703 110.813 131.704ZM132.63 131.383C131.653 131.383 130.931 131.235 130.463 130.937C129.996 130.64 129.762 130.087 129.762 129.28C129.762 128.005 129.549 125.838 129.124 122.779L128.869 121.44L122.559 120.485C122.304 121.462 121.943 123.438 121.476 126.412C121.221 128.495 120.817 129.876 120.265 130.556C119.968 130.938 119.543 131.129 118.99 131.129C118.48 131.129 118.013 130.981 117.588 130.683C117.163 130.343 116.95 129.94 116.95 129.472L117.078 129.154L117.142 128.899C119.945 117.978 122.069 107.206 123.513 96.5825C123.513 96.4126 123.534 96.1364 123.577 95.7539C123.619 95.329 123.662 94.7341 123.704 93.9692C123.831 92.397 123.959 91.1435 124.086 90.2086C124.256 89.2738 124.511 88.5726 124.851 88.1052L127.018 88.105C127.613 88.105 128.123 88.2536 128.548 88.5511C128.973 88.806 129.185 89.1884 129.185 89.6983C129.186 92.9277 129.632 97.7294 130.525 104.103C131.375 110.647 131.801 115.236 131.801 117.871C131.801 118.126 131.907 118.784 132.12 119.847C132.332 120.824 132.438 121.461 132.438 121.759C132.438 122.056 132.651 123.331 133.076 125.583C133.459 127.623 133.65 128.94 133.65 129.535L133.65 129.598C133.65 130.533 133.31 131.128 132.63 131.383ZM128.423 119.146C128.295 118.508 128.231 117.722 128.231 116.787C128.231 112.963 127.891 108.076 127.21 102.128L126.572 95.4987C124.746 105.485 123.493 113.027 122.814 118.126C123.451 118.551 125.321 118.891 128.423 119.146ZM142.69 129.789L142.626 127.303C142.584 126.581 142.562 125.773 142.562 124.881L142.626 122.714C142.498 122.247 142.179 117.594 141.669 108.755C141.158 99.9169 140.86 94.2441 140.775 91.7371C138.31 91.6523 136.738 91.3974 136.058 90.9726C135.591 90.6327 135.357 90.2503 135.357 89.8253C135.357 89.4854 135.569 89.1879 135.994 88.9329C136.462 88.6355 136.929 88.4867 137.397 88.4867C138.586 88.4866 140.031 88.5714 141.731 88.7413C143.346 88.9536 144.79 89.0598 146.065 89.0597L146.575 89.0596L147.085 89.0596C148.402 89.0595 149.061 89.5693 149.061 90.5892C149.061 91.0991 148.849 91.524 148.424 91.864C147.999 92.1615 147.51 92.3102 146.958 92.3103C146.575 92.3103 146.023 92.2466 145.3 92.1192L144.026 91.8643L143.962 92.183L143.898 92.5017C143.899 96.2836 144.26 102.317 144.983 110.603C145.664 118.38 146.004 124.413 146.004 128.705C146.004 129.215 145.771 129.661 145.303 130.044C144.878 130.426 144.39 130.618 143.837 130.618L142.69 129.789ZM158.616 130.744C154.919 130.744 153.071 130.107 153.07 128.832C153.07 127.812 153.729 127.302 155.046 127.302L155.747 127.302L156.385 127.366C156.725 127.366 156.958 127.26 157.086 127.047C157.213 126.835 157.277 126.452 157.277 125.9C157.277 125.177 157.234 124.051 157.149 122.522C157.022 121.502 156.873 119.675 156.703 117.04C156.32 110.539 156.128 105.631 156.128 102.317C156.128 101.127 156.149 100.043 156.191 99.0659L156.255 95.8152C156.255 94.413 156.191 93.2444 156.063 92.3096C155.384 92.4796 154.895 92.5646 154.597 92.5647C153.578 92.5647 153.068 92.0549 153.068 91.035C153.068 90.5251 153.386 90.0789 154.024 89.6964C154.661 89.314 155.468 89.0377 156.446 88.8677C158.145 88.5276 159.654 88.3575 160.971 88.3574C161.481 88.3574 161.906 88.5486 162.246 88.931C162.628 89.2709 162.82 89.6745 162.82 90.142C162.82 90.6094 162.671 91.0131 162.373 91.353C162.119 91.693 161.779 91.863 161.354 91.863C161.099 91.863 160.886 91.8418 160.716 91.7993L160.206 91.7994C159.781 91.7994 159.463 91.9057 159.25 92.1181C159.08 92.2881 158.995 92.6281 158.995 93.138C158.996 97.2598 159.251 103.464 159.762 111.75C159.847 113.279 160.017 115.531 160.272 118.506C160.485 120.461 160.591 122.458 160.591 124.497L160.591 126.919C160.846 126.877 161.271 126.856 161.866 126.856C163.651 126.855 164.543 127.599 164.543 129.086L164.543 129.469L162.95 130.552C162.908 130.552 162.759 130.574 162.504 130.616C162.291 130.616 161.867 130.616 161.229 130.616C159.869 130.701 158.998 130.744 158.616 130.744ZM177.265 132.017C176.16 132.017 175.14 131.656 174.205 130.934C173.271 130.254 172.506 129.319 171.911 128.13C170.678 125.538 169.913 122.712 169.615 119.653C169.233 116.763 169.041 113.98 169.041 111.303C169.041 110.793 169.062 110.368 169.105 110.028L169.105 108.881C169.105 108.668 169.083 108.562 169.041 108.562L169.041 107.415L169.104 102.953C169.147 101.593 169.316 99.4261 169.614 96.4516C169.826 94.4119 170.315 92.436 171.079 90.5238C171.377 89.6739 171.759 89.0365 172.226 88.6115C172.694 88.1441 173.225 87.9103 173.82 87.9103C175.52 87.9101 177.049 88.2287 178.409 88.866C179.769 89.4608 180.916 90.3106 181.851 91.4153C182.701 92.4776 183.424 93.7948 184.019 95.367C184.614 96.8966 185.039 98.5326 185.294 100.275C185.549 102.059 185.676 103.95 185.677 105.947L185.677 106.457C185.677 107.775 185.698 108.964 185.741 110.027L185.805 113.66C185.806 125.898 182.959 132.017 177.265 132.017ZM177.01 129.34C177.775 129.34 178.476 129.043 179.113 128.448C179.751 127.81 180.239 126.96 180.579 125.898C181.386 123.731 181.875 121.394 182.044 118.887C182.257 116.72 182.363 114.85 182.363 113.278C182.363 111.366 182.214 108.858 181.916 105.757C181.661 102.485 181.533 100.041 181.533 98.4266L181.533 97.2793C181.448 95.6646 180.895 94.2624 179.875 93.0727C178.898 91.8829 177.687 91.2881 176.242 91.2883C174.797 91.2884 173.841 92.117 173.374 93.7743C172.949 95.0916 172.737 96.7913 172.737 98.8734C172.737 99.6808 172.758 100.361 172.801 100.913L172.801 102.634L172.674 105.566C172.589 106.458 172.547 107.436 172.547 108.498C172.547 110.793 172.611 113.066 172.738 115.318C172.909 118.505 173.334 121.607 174.014 124.624C174.694 127.768 175.693 129.34 177.01 129.34ZM210.177 130.995C209.667 130.995 209.284 130.868 209.029 130.613C208.774 130.315 208.583 129.827 208.456 129.147L208.073 127.936L208.073 127.808L208.073 127.617C208.073 126.215 206.607 121.434 203.674 113.276C200.784 105.118 198.51 99.084 196.852 95.1748L196.855 127.235L197.11 127.682C197.152 127.767 197.237 127.915 197.365 128.128C197.492 128.34 197.556 128.553 197.556 128.765C197.556 129.317 197.365 129.785 196.983 130.167C196.6 130.55 196.133 130.741 195.58 130.741C194.221 130.741 193.541 129.445 193.54 126.853L193.476 115.954C193.433 112.682 193.412 109.028 193.411 104.991C193.411 103.631 193.475 101.655 193.602 99.0631C193.729 96.386 193.793 94.4101 193.793 93.1354C193.793 91.1382 194.557 89.5659 196.087 88.4185L196.087 88.8009C196.342 88.7159 196.512 88.6734 196.597 88.6734C197.574 88.6734 198.807 90.373 200.294 93.7723C201.484 96.4917 202.547 99.3599 203.482 102.377C204.459 105.394 205.735 109.685 207.307 115.252L207.945 117.546C208.922 120.988 209.666 123.453 210.176 124.94C211.025 115.804 211.449 105.011 211.448 92.5604L211.448 91.7318C211.406 91.4768 211.385 91.2006 211.385 90.9032C211.385 89.6284 211.894 88.991 212.914 88.9909C213.509 88.9909 213.955 89.2245 214.253 89.6919C214.593 90.1593 214.763 90.7542 214.763 91.4766L214.763 96.257C214.679 102.801 214.424 109.897 214 117.546C213.576 125.195 213.066 129.508 212.471 130.485C211.239 130.825 210.474 130.995 210.177 130.995Z" fill="white"/>
<path d="M50.9994 187.984C50.9994 188.518 50.7623 189.007 50.2881 189.452C49.8139 189.867 49.2952 190.074 48.732 190.074C48.1985 190.074 47.828 189.719 47.6204 189.007C47.5312 185.095 47.4865 181.197 47.4862 177.314L47.3519 166.11C47.3518 163.857 48.3446 162.316 50.3305 161.486C51.931 160.745 53.828 160.374 56.0214 160.374C57.1477 160.374 58.3482 160.655 59.6228 161.218C60.927 161.752 62.0831 162.552 63.0909 163.619C64.1284 164.656 64.6472 165.797 64.6473 167.042C64.6474 168.258 64.0843 169.577 62.9581 171C61.8319 172.393 60.4388 173.638 58.7791 174.735C57.1193 175.802 55.5039 176.602 53.933 177.136C56.6897 179.062 59.0908 181.137 61.1361 183.36C63.1815 185.553 64.2042 187.257 64.2043 188.473C64.2043 188.858 64.0117 189.228 63.6264 189.584C63.2411 189.91 62.7669 190.073 62.2037 190.073C61.6702 190.073 61.2107 189.836 60.8254 189.362C60.1731 187.791 58.9281 186.146 57.0903 184.427C55.2821 182.678 53.1626 181.019 50.732 179.448L50.9994 187.984ZM50.8205 174.646C52.8065 174.557 55.0294 173.727 57.4895 172.156C59.9792 170.585 61.224 169.177 61.2239 167.932C61.2238 166.657 60.6013 165.679 59.3563 164.998C58.1114 164.316 56.6293 163.975 54.9101 163.975C53.2206 163.975 51.872 164.183 50.8642 164.598C50.8347 166.11 50.8201 169.459 50.8205 174.646ZM73.9888 169.309C75.5598 169.309 77.0566 169.768 78.4795 170.687C79.9023 171.606 80.6137 172.747 80.6138 174.11C80.6139 175.444 80.0361 176.749 78.8802 178.023C77.7243 179.268 76.183 180.024 74.2564 180.291C73.4265 180.41 72.1816 180.469 70.5217 180.469C70.8479 182.989 71.4853 184.648 72.4339 185.449C72.7303 185.775 73.1305 185.938 73.6344 185.938C75.4721 185.937 77.0134 185.359 78.2582 184.203C79.503 183.018 80.3922 182.425 80.9257 182.425C81.1628 182.425 81.5185 182.647 81.9928 183.091C82.4671 183.536 82.7043 183.951 82.7043 184.336C82.7043 185.107 81.7707 186.219 79.9035 187.671C79.0736 188.353 78.0659 188.931 76.8803 189.405C75.7243 189.85 74.6425 190.072 73.6347 190.072C71.0559 190.073 69.1588 188.413 67.9433 185.093C67.1725 183.048 66.787 180.795 66.7868 178.335C66.7866 175.875 67.3645 173.756 68.5203 171.977C69.6762 170.199 71.499 169.309 73.9888 169.309ZM74.2113 172.377C73.085 172.377 72.1217 173.014 71.3215 174.289C71.0252 174.734 70.7436 175.741 70.477 177.312C74.6267 177.312 76.7014 176.289 76.7013 174.244C76.7012 172.999 75.8712 172.377 74.2113 172.377ZM88.2352 161.794C88.7687 161.794 89.2726 162.046 89.7469 162.55C90.2212 163.054 90.4584 163.587 90.4584 164.15C90.4585 164.684 90.1917 165.232 89.6582 165.796C89.1544 166.359 88.6209 166.64 88.0577 166.64C87.4945 166.64 86.9758 166.403 86.5015 165.929C86.0569 165.455 85.8345 164.847 85.8345 164.106C85.8344 162.684 86.605 161.913 88.1463 161.794C88.1759 161.794 88.2056 161.794 88.2352 161.794ZM90.1043 185.092L90.149 188.204C90.149 188.767 89.9268 189.241 89.4822 189.627C89.0376 189.982 88.5634 190.16 88.0595 190.16C87.3185 190.16 86.9331 189.79 86.9034 189.049C86.5174 179.594 86.3243 174.362 86.3242 173.354C86.3242 172.346 86.3685 171.116 86.4573 169.664C86.5166 169.13 86.8574 168.864 87.4799 168.864C89.0508 168.863 89.9401 169.501 90.1477 170.775C90.2367 171.427 90.2812 171.946 90.2812 172.331L90.1036 175.132L90.1043 185.092ZM96.9352 188.515L96.4448 170.463C96.4448 169.9 96.6374 169.441 97.0227 169.085C97.408 168.729 97.7933 168.552 98.1786 168.552C99.1271 168.551 99.6755 168.952 99.8238 169.752C99.9424 170.552 100.002 171.382 100.002 172.242C101.602 170.137 103.603 169.085 106.004 169.084C109.679 169.084 111.517 173.278 111.518 181.666C111.518 182.437 111.518 183.608 111.518 185.179C111.518 186.72 111.429 187.847 111.252 188.558C111.044 189.447 110.407 189.892 109.34 189.892C108.629 189.892 108.273 189.418 108.273 188.469L108.317 185.979C108.317 182.541 108.198 180.2 107.961 178.955C107.753 177.68 107.546 176.672 107.338 175.931C106.834 174.331 106.019 173.531 104.893 173.531C103.411 173.531 102.373 174.064 101.78 175.131C101.128 176.287 100.743 177.651 100.625 179.222C100.418 181.979 100.314 184.898 100.314 187.981C100.314 188.574 100.092 189.048 99.6474 189.404C99.2028 189.759 98.6693 189.937 98.0469 189.937C97.3058 189.937 96.9353 189.463 96.9352 188.515ZM129.708 168.905C130.123 168.905 130.434 169.053 130.642 169.349C130.849 169.616 130.953 169.913 130.953 170.239L130.909 170.683C129.664 173.855 128.745 176.434 128.153 178.42C127.767 179.813 127.471 180.85 127.264 181.532C127.086 182.214 126.775 183.414 126.33 185.133C125.886 186.853 125.589 187.964 125.441 188.468C125.026 189.476 124.3 189.98 123.263 189.98C122.759 189.98 122.403 189.654 122.196 189.002C121.247 186.038 119.854 182.688 118.016 178.954C116.178 175.219 115.125 173.085 114.858 172.552C114.621 171.989 114.503 171.485 114.503 171.04C114.503 170.595 114.695 170.166 115.08 169.751C115.495 169.336 115.955 169.128 116.459 169.128C116.963 169.128 117.392 169.395 117.748 169.928C118.074 170.58 118.993 172.403 120.505 175.397C122.047 178.39 123.129 180.747 123.751 182.466C123.781 182.288 123.885 181.918 124.062 181.354C125.574 176.108 126.804 172.358 127.752 170.105C128.256 169.305 128.908 168.905 129.708 168.905ZM139.551 169.304C141.122 169.304 142.619 169.763 144.042 170.682C145.465 171.601 146.176 172.742 146.176 174.106C146.176 175.439 145.599 176.744 144.443 178.018C143.287 179.263 141.746 180.019 139.819 180.286C138.989 180.405 137.744 180.464 136.084 180.464C136.41 182.984 137.048 184.643 137.996 185.444C138.293 185.77 138.693 185.933 139.197 185.933C141.035 185.933 142.576 185.354 143.821 184.198C145.066 183.013 145.955 182.42 146.488 182.42C146.725 182.42 147.081 182.642 147.555 183.087C148.03 183.531 148.267 183.946 148.267 184.331C148.267 185.102 147.333 186.214 145.466 187.666C144.636 188.348 143.628 188.926 142.443 189.4C141.287 189.845 140.205 190.067 139.197 190.068C136.618 190.068 134.721 188.408 133.506 185.088C132.735 183.043 132.35 180.791 132.349 178.33C132.349 175.87 132.927 173.751 134.083 171.972C135.239 170.194 137.062 169.304 139.551 169.304ZM139.774 172.372C138.648 172.372 137.684 173.009 136.884 174.284C136.588 174.729 136.306 175.736 136.04 177.307C140.189 177.307 142.264 176.284 142.264 174.239C142.264 172.994 141.434 172.372 139.774 172.372ZM152.555 188.51L152.064 170.459C152.064 169.896 152.257 169.437 152.642 169.081C153.028 168.725 153.413 168.547 153.798 168.547C154.747 168.547 155.295 168.947 155.443 169.748C155.562 170.548 155.621 171.378 155.621 172.237C157.222 170.133 159.223 169.08 161.623 169.08C165.299 169.08 167.137 173.274 167.138 181.662C167.138 182.433 167.138 183.604 167.138 185.175C167.138 186.716 167.049 187.842 166.871 188.554C166.664 189.443 166.027 189.888 164.96 189.888C164.248 189.888 163.892 189.414 163.892 188.465L163.937 185.975C163.936 182.537 163.818 180.195 163.58 178.95C163.373 177.676 163.165 176.668 162.958 175.927C162.454 174.327 161.639 173.526 160.512 173.526C159.03 173.527 157.993 174.06 157.4 175.127C156.748 176.283 156.363 177.647 156.244 179.218C156.037 181.974 155.934 184.894 155.934 187.977C155.934 188.569 155.712 189.044 155.267 189.399C154.822 189.755 154.289 189.933 153.666 189.933C152.925 189.933 152.555 189.459 152.555 188.51ZM172.078 169.124L174.301 169.168C174.805 169.168 175.087 169.153 175.146 169.124L175.145 160.009C175.175 159.505 175.427 159.076 175.901 158.72C176.375 158.364 176.82 158.186 177.235 158.186C177.65 158.186 177.976 158.319 178.213 158.586C178.48 158.853 178.599 159.268 178.569 159.831C178.539 160.394 178.525 163.477 178.525 169.079L183.727 168.901C184.616 168.901 185.061 169.419 185.061 170.457C185.061 171.227 184.824 171.805 184.35 172.191C183.905 172.576 183.416 172.784 182.883 172.813C182.379 172.843 181.875 172.858 181.371 172.858L178.659 172.814C178.659 174.029 178.778 176.43 179.015 180.016C179.282 183.603 179.49 185.93 179.638 186.997C179.786 188.034 179.816 188.716 179.727 189.042C179.638 189.338 179.475 189.546 179.238 189.664C178.853 189.842 178.334 189.931 177.682 189.931C177.03 189.931 176.645 189.576 176.526 188.864C175.933 184.981 175.532 179.646 175.324 172.858C175.057 172.888 174.035 172.903 172.256 172.903C170.478 172.903 169.589 172.385 169.589 171.347C169.589 169.865 170.418 169.124 172.078 169.124ZM192.653 169.3C194.224 169.3 195.72 169.759 197.143 170.678C198.566 171.597 199.278 172.738 199.278 174.102C199.278 175.435 198.7 176.74 197.544 178.014C196.388 179.259 194.847 180.015 192.92 180.282C192.09 180.401 190.845 180.46 189.186 180.46C189.512 182.98 190.149 184.639 191.098 185.44C191.394 185.766 191.794 185.929 192.298 185.929C194.136 185.929 195.677 185.35 196.922 184.194C198.167 183.009 199.056 182.416 199.59 182.416C199.827 182.416 200.182 182.638 200.657 183.083C201.131 183.527 201.368 183.942 201.368 184.327C201.368 185.098 200.435 186.21 198.567 187.662C197.737 188.344 196.73 188.922 195.544 189.396C194.388 189.841 193.306 190.063 192.299 190.064C189.72 190.064 187.823 188.404 186.607 185.084C185.836 183.039 185.451 180.787 185.451 178.326C185.45 175.866 186.028 173.747 187.184 171.968C188.34 170.19 190.163 169.3 192.653 169.3ZM192.875 172.368C191.749 172.368 190.786 173.005 189.985 174.28C189.689 174.725 189.407 175.733 189.141 177.303C193.291 177.303 195.365 176.28 195.365 174.235C195.365 172.99 194.535 172.368 192.875 172.368ZM214.591 169.076L214.546 160.495C214.546 158.895 215.05 158.094 216.058 158.094C217.095 158.094 217.673 158.539 217.792 159.428C217.851 159.813 217.925 162.14 218.015 166.408C218.104 170.677 218.238 174.678 218.416 178.413C218.623 182.148 218.727 185.63 218.728 188.861C218.728 189.75 218.061 190.195 216.727 190.195C215.838 190.195 215.393 189.573 215.393 188.328C214.119 189.336 212.607 189.84 210.858 189.84C208.635 189.84 206.827 189.01 205.434 187.35C204.07 185.691 203.388 183.646 203.388 181.215C203.388 178.784 203.877 176.517 204.855 174.412C205.862 172.278 207.418 170.752 209.523 169.833C210.827 169.269 212.087 168.988 213.302 168.987C213.747 168.987 214.176 169.017 214.591 169.076ZM214.814 175.167C214.607 174.515 214.355 174.026 214.058 173.7C213.762 173.345 213.436 173.137 213.08 173.078C212.754 172.989 212.354 172.945 211.88 172.945C211.405 172.945 210.827 173.123 210.146 173.478C209.464 173.834 208.886 174.412 208.412 175.212C207.463 176.813 206.989 178.503 206.989 180.281C206.989 182.03 207.33 183.467 208.012 184.594C208.724 185.69 209.717 186.239 210.991 186.238C212.295 186.238 213.318 185.601 214.059 184.326C214.8 183.052 215.17 181.422 215.17 179.436C215.17 177.213 215.051 175.79 214.814 175.167Z" fill="white"/>
<path d="M181.588 238.803C180.598 238.803 179.751 238.53 179.047 237.985C178.344 237.439 177.805 236.693 177.432 235.745C177.073 234.798 176.894 233.721 176.894 232.515C176.893 231.166 177.209 229.888 177.841 228.682C178.472 227.462 179.298 226.486 180.317 225.754C181.35 225.007 182.42 224.634 183.525 224.634C184.458 224.634 185.176 224.842 185.679 225.258C186.181 225.674 186.432 226.162 186.432 226.722C186.432 227.052 186.332 227.354 186.131 227.626C185.944 227.899 185.672 228.107 185.313 228.251C185.27 228.165 185.248 228.029 185.248 227.842C185.248 227.67 185.27 227.497 185.313 227.325C185.341 227.095 185.356 226.93 185.356 226.83C185.356 226.686 185.334 226.564 185.291 226.464C185.09 225.961 184.545 225.71 183.655 225.71C183.41 225.71 183.123 225.732 182.793 225.775C182.032 225.875 181.279 226.256 180.532 226.916C179.786 227.562 179.176 228.374 178.702 229.35C178.228 230.326 177.992 231.324 177.992 232.343C177.992 233.233 178.135 234.08 178.423 234.884C178.724 235.673 179.155 236.312 179.715 236.8C180.275 237.288 180.942 237.532 181.717 237.532C182.722 237.532 183.555 237.41 184.215 237.166C184.89 236.922 185.55 236.548 186.196 236.046C186.268 235.989 186.347 235.96 186.433 235.96C186.591 235.96 186.699 236.053 186.756 236.24C186.828 236.584 186.598 236.958 186.067 237.36C185.536 237.762 184.847 238.106 184 238.393C183.153 238.666 182.349 238.803 181.588 238.803ZM189.681 238.414C189.365 236.85 189.121 234.998 188.949 232.859C188.79 230.706 188.711 228.624 188.711 226.614C188.711 225.609 188.733 224.719 188.776 223.944C188.776 223.757 188.919 223.664 189.206 223.664C189.436 223.664 189.579 223.722 189.637 223.836C189.709 223.951 189.745 224.131 189.745 224.375C189.745 226.7 189.788 228.689 189.874 230.339C189.961 231.976 190.076 233.742 190.219 235.637C190.305 236.857 190.363 237.682 190.392 238.113C190.406 238.343 190.284 238.457 190.026 238.457C189.939 238.457 189.825 238.443 189.681 238.414ZM197.648 238.565C196.155 238.565 194.856 238.306 193.75 237.79C192.659 237.259 192.114 236.333 192.113 235.012C192.113 234.538 192.257 234.079 192.544 233.634C192.831 233.189 193.255 232.83 193.814 232.557C194.374 232.27 195.056 232.126 195.86 232.126C196.477 232.126 197.001 232.155 197.432 232.212C197.863 232.27 198.358 232.427 198.918 232.686C199.478 232.944 200.059 233.353 200.662 233.913C200.432 232.923 200.088 232.054 199.628 231.308C199.169 230.561 198.652 229.987 198.078 229.585C197.518 229.169 196.965 228.961 196.42 228.961C196.161 228.961 195.917 229.011 195.687 229.112C195.472 229.198 195.207 229.327 194.891 229.499C194.532 229.729 194.266 229.844 194.094 229.844C194.022 229.844 193.958 229.822 193.9 229.779C193.857 229.722 193.836 229.657 193.836 229.585C193.836 229.011 194.087 228.566 194.589 228.25C195.106 227.934 195.73 227.791 196.463 227.82C197.467 227.877 198.386 228.307 199.219 229.111C200.052 229.901 200.705 230.884 201.179 232.061C201.667 233.238 201.911 234.394 201.911 235.528C201.911 235.715 201.897 235.98 201.868 236.325L201.179 236.282C200.633 235.176 199.93 234.394 199.069 233.935C198.222 233.461 197.367 233.224 196.506 233.224C195.401 233.224 194.611 233.39 194.137 233.72C193.664 234.05 193.427 234.531 193.427 235.163C193.427 235.823 193.757 236.354 194.418 236.756C195.078 237.158 195.925 237.359 196.959 237.359C197.533 237.359 197.992 237.33 198.337 237.272C198.681 237.201 199.04 237.107 199.413 236.992C199.715 236.892 199.98 236.82 200.21 236.777C200.44 236.734 200.734 236.712 201.093 236.712C201.495 236.712 201.746 236.741 201.847 236.798C201.961 236.856 202.019 236.985 202.019 237.186C202.019 237.33 201.725 237.509 201.136 237.724C200.547 237.94 199.887 238.134 199.155 238.306C198.423 238.478 197.92 238.565 197.648 238.565ZM205.637 238.564C205.049 237.416 204.582 236.066 204.237 234.516C203.907 232.965 203.742 231.623 203.742 230.489C203.742 230.044 203.842 229.757 204.043 229.628C204.158 229.556 204.244 229.52 204.302 229.52C204.402 229.52 204.474 229.599 204.517 229.757C204.574 229.915 204.632 230.202 204.689 230.618L204.797 231.393C204.955 230.618 205.256 230.008 205.701 229.563C206.161 229.104 206.721 228.874 207.381 228.874C208.113 228.874 208.659 229.017 209.017 229.304C209.376 229.577 209.556 230.036 209.556 230.682C208.838 230.338 208.185 230.166 207.596 230.166C207.036 230.166 206.556 230.317 206.154 230.618C205.752 230.92 205.472 231.365 205.314 231.953C205.185 232.355 205.12 232.736 205.12 233.095C205.12 233.482 205.17 233.848 205.271 234.193C205.386 234.523 205.558 234.932 205.788 235.42C206.003 235.922 206.168 236.353 206.283 236.712C206.412 237.071 206.484 237.458 206.499 237.875C206.499 238.119 206.413 238.298 206.24 238.413C206.068 238.514 205.867 238.564 205.637 238.564ZM212.024 238.585C211.665 238.585 211.485 238.377 211.485 237.961C211.485 237.874 211.514 237.695 211.571 237.422C211.643 237.149 211.679 236.848 211.679 236.518L211.679 235.463L211.679 233.912C211.607 232.893 211.427 231.651 211.14 230.187C210.824 228.579 210.58 227.086 210.408 225.708C210.451 225.464 210.565 225.342 210.752 225.342C210.996 225.342 211.29 225.988 211.635 227.28C211.98 228.558 212.332 230.675 212.691 233.632C212.978 232.914 213.372 232.19 213.875 231.457C214.377 230.711 214.908 230.093 215.468 229.605C216.028 229.117 216.516 228.873 216.932 228.873C217.105 228.873 217.212 228.923 217.255 229.024C217.313 229.124 217.334 229.268 217.32 229.454C216.473 230.201 215.619 231.07 214.758 232.06C213.897 233.051 213.466 233.819 213.466 234.364C213.466 234.695 213.739 235.075 214.284 235.506C214.83 235.922 215.505 236.295 216.308 236.625C217.112 236.941 217.866 237.12 218.57 237.163C218.842 237.206 218.979 237.371 218.979 237.659C218.979 238.147 218.519 238.391 217.601 238.391C216.868 238.391 216.065 238.097 215.189 237.508C214.327 236.92 213.581 236.302 212.949 235.656C212.906 235.9 212.877 236.116 212.863 236.302C212.849 236.475 212.834 236.625 212.82 236.755C212.763 237.386 212.684 237.853 212.583 238.154C212.497 238.441 212.311 238.585 212.024 238.585Z" fill="white"/>
</g>
<defs>
<filter id="filter0_di_242_6063" x="0.54567" y="0.214111" width="327.182" height="369.345" filterUnits="userSpaceOnUse" color-interpolation-filters="sRGB">
<feFlood flood-opacity="0" result="BackgroundImageFix"/>
<feColorMatrix in="SourceAlpha" type="matrix" values="0 0 0 0 0 0 0 0 0 0 0 0 0 0 0 0 0 0 127 0" result="hardAlpha"/>
<feOffset dx="35.4166" dy="61.5574"/>
<feGaussianBlur stdDeviation="29.9355"/>
<feComposite in2="hardAlpha" operator="out"/>
<feColorMatrix type="matrix" values="0 0 0 0 0 0 0 0 0 0 0 0 0 0 0 0 0 0 0.1 0"/>
<feBlend mode="normal" in2="BackgroundImageFix" result="effect1_dropShadow_242_6063"/>
<feBlend mode="normal" in="SourceGraphic" in2="effect1_dropShadow_242_6063" result="shape"/>
<feColorMatrix in="SourceAlpha" type="matrix" values="0 0 0 0 0 0 0 0 0 0 0 0 0 0 0 0 0 0 127 0" result="hardAlpha"/>
<feOffset dy="0.843253"/>
<feGaussianBlur stdDeviation="6.74602"/>
<feComposite in2="hardAlpha" operator="arithmetic" k2="-1" k3="1"/>
<feColorMatrix type="matrix" values="0 0 0 0 0 0 0 0 0 0 0 0 0 0 0 0 0 0 0.01 0"/>
<feBlend mode="normal" in2="shape" result="effect2_innerShadow_242_6063"/>
</filter>
<filter id="filter1_d_242_6063" x="-1.89977" y="-23.3126" width="261.24" height="96.8054" filterUnits="userSpaceOnUse" color-interpolation-filters="sRGB">
<feFlood flood-opacity="0" result="BackgroundImageFix"/>
<feColorMatrix in="SourceAlpha" type="matrix" values="0 0 0 0 0 0 0 0 0 0 0 0 0 0 0 0 0 0 127 0" result="hardAlpha"/>
<feOffset dy="3.37301"/>
<feGaussianBlur stdDeviation="13.0283"/>
<feComposite in2="hardAlpha" operator="out"/>
<feColorMatrix type="matrix" values="0 0 0 0 0 0 0 0 0 0 0 0 0 0 0 0 0 0 0.06 0"/>
<feBlend mode="normal" in2="BackgroundImageFix" result="effect1_dropShadow_242_6063"/>
<feBlend mode="normal" in="SourceGraphic" in2="effect1_dropShadow_242_6063" result="shape"/>
</filter>
<clipPath id="clip0_242_6063">
<rect width="207.44" height="247.916" fill="white" transform="translate(25 0.214111)"/>
</clipPath>
</defs>
</svg>
