<svg width="461" height="68" viewBox="0 0 461 68" fill="none" xmlns="http://www.w3.org/2000/svg">
<path d="M16.6071 41.31C12.2571 41.31 9.76715 44.46 9.76715 49.2C9.76715 54.09 12.5871 56.76 16.6371 56.76C20.4471 56.76 22.7571 54.66 22.7571 51.15V51.06H16.1271V47.67H26.3271V60H23.0871L22.8471 57.48C21.6471 59.16 19.1571 60.33 16.1871 60.33C10.0371 60.33 5.74715 55.86 5.74715 49.11C5.74715 42.45 10.0971 37.71 16.6971 37.71C21.7071 37.71 25.5771 40.62 26.2071 45.09H22.1571C21.4671 42.51 19.2471 41.31 16.6071 41.31ZM36.5639 60.39C32.1539 60.39 29.0639 57.18 29.0639 52.59C29.0639 47.94 32.0939 44.73 36.4439 44.73C40.8839 44.73 43.7039 47.7 43.7039 52.32V53.43L32.5439 53.46C32.8139 56.07 34.1939 57.39 36.6239 57.39C38.6339 57.39 39.9539 56.61 40.3739 55.2H43.7639C43.1339 58.44 40.4339 60.39 36.5639 60.39ZM36.4739 47.73C34.3139 47.73 32.9939 48.9 32.6339 51.12H40.0739C40.0739 49.08 38.6639 47.73 36.4739 47.73ZM50.2932 60H46.6332V45.18H50.0232L50.3232 47.1C51.2532 45.6 53.0532 44.73 55.0632 44.73C58.7832 44.73 60.7032 47.04 60.7032 50.88V60H57.0432V51.75C57.0432 49.26 55.8132 48.06 53.9232 48.06C51.6732 48.06 50.2932 49.62 50.2932 52.02V60ZM70.9292 60.39C66.5192 60.39 63.4292 57.18 63.4292 52.59C63.4292 47.94 66.4592 44.73 70.8092 44.73C75.2492 44.73 78.0692 47.7 78.0692 52.32V53.43L66.9092 53.46C67.1792 56.07 68.5592 57.39 70.9892 57.39C72.9992 57.39 74.3192 56.61 74.7392 55.2H78.1292C77.4992 58.44 74.7992 60.39 70.9292 60.39ZM70.8392 47.73C68.6792 47.73 67.3592 48.9 66.9992 51.12H74.4392C74.4392 49.08 73.0292 47.73 70.8392 47.73ZM90.2984 45.12V48.51H88.9484C86.3084 48.51 84.6584 49.92 84.6584 52.8V60H80.9984V45.21H84.4484L84.6584 47.37C85.2884 45.9 86.6984 44.91 88.6784 44.91C89.1884 44.91 89.6984 44.97 90.2984 45.12ZM96.5998 60.39C93.4498 60.39 91.5298 58.56 91.5298 55.77C91.5298 53.04 93.5098 51.33 97.0198 51.06L101.46 50.73V50.4C101.46 48.39 100.26 47.58 98.3998 47.58C96.2398 47.58 95.0398 48.48 95.0398 50.04H91.9198C91.9198 46.83 94.5598 44.73 98.5798 44.73C102.57 44.73 105.03 46.89 105.03 51V60H101.82L101.55 57.81C100.92 59.34 98.9098 60.39 96.5998 60.39ZM97.7998 57.63C100.05 57.63 101.49 56.28 101.49 54V53.22L98.3998 53.46C96.1198 53.67 95.2498 54.42 95.2498 55.62C95.2498 56.97 96.1498 57.63 97.7998 57.63ZM113.46 60H109.8V48.24H106.95V45.18H109.8V40.56H113.46V45.18H116.34V48.24H113.46V60ZM125.099 60.39C120.689 60.39 117.599 57.18 117.599 52.59C117.599 47.94 120.629 44.73 124.979 44.73C129.419 44.73 132.239 47.7 132.239 52.32V53.43L121.079 53.46C121.349 56.07 122.729 57.39 125.159 57.39C127.169 57.39 128.489 56.61 128.909 55.2H132.299C131.669 58.44 128.969 60.39 125.099 60.39ZM125.009 47.73C122.849 47.73 121.529 48.9 121.169 51.12H128.609C128.609 49.08 127.199 47.73 125.009 47.73ZM143.794 60V38.07H152.524C156.844 38.07 159.484 40.32 159.484 43.98C159.484 46.41 158.404 48.15 156.334 49.02C158.644 49.77 159.814 51.51 159.814 54.06C159.814 57.81 157.204 60 152.674 60H143.794ZM152.194 41.46H147.634V47.43H152.284C154.384 47.43 155.554 46.32 155.554 44.37C155.554 42.48 154.354 41.46 152.194 41.46ZM152.524 50.67H147.634V56.61H152.524C154.684 56.61 155.884 55.56 155.884 53.58C155.884 51.72 154.654 50.67 152.524 50.67ZM161.925 52.56C161.925 47.94 165.255 44.76 169.845 44.76C174.435 44.76 177.765 47.94 177.765 52.56C177.765 57.18 174.435 60.36 169.845 60.36C165.255 60.36 161.925 57.18 161.925 52.56ZM165.585 52.56C165.585 55.26 167.325 57.09 169.845 57.09C172.365 57.09 174.105 55.26 174.105 52.56C174.105 49.86 172.365 48.03 169.845 48.03C167.325 48.03 165.585 49.86 165.585 52.56ZM189.966 45.12V48.51H188.616C185.976 48.51 184.326 49.92 184.326 52.8V60H180.666V45.21H184.116L184.326 47.37C184.956 45.9 186.366 44.91 188.346 44.91C188.856 44.91 189.366 44.97 189.966 45.12ZM194.274 42.21C193.014 42.21 192.024 41.22 192.024 39.99C192.024 38.76 193.014 37.8 194.274 37.8C195.474 37.8 196.464 38.76 196.464 39.99C196.464 41.22 195.474 42.21 194.274 42.21ZM192.444 60V45.18H196.104V60H192.444ZM203.545 60H199.885V45.18H203.275L203.575 47.1C204.505 45.6 206.305 44.73 208.315 44.73C212.035 44.73 213.955 47.04 213.955 50.88V60H210.295V51.75C210.295 49.26 209.065 48.06 207.175 48.06C204.925 48.06 203.545 49.62 203.545 52.02V60ZM216.711 52.26C216.711 47.94 219.531 44.7 223.761 44.7C225.981 44.7 227.721 45.63 228.591 47.22L228.801 45.18H232.191V59.25C232.191 64.2 229.221 67.29 224.421 67.29C220.161 67.29 217.251 64.86 216.801 60.9H220.461C220.701 62.82 222.171 63.96 224.421 63.96C226.941 63.96 228.561 62.37 228.561 59.91V57.45C227.631 58.83 225.801 59.7 223.671 59.7C219.471 59.7 216.711 56.55 216.711 52.26ZM220.401 52.17C220.401 54.66 221.991 56.52 224.391 56.52C226.911 56.52 228.471 54.75 228.471 52.17C228.471 49.65 226.941 47.91 224.391 47.91C221.961 47.91 220.401 49.74 220.401 52.17ZM243.345 44.19C243.345 40.35 246.525 37.68 251.145 37.68C255.585 37.68 258.405 40.14 258.525 44.1H254.685C254.595 42.21 253.245 41.1 251.085 41.1C248.715 41.1 247.185 42.24 247.185 44.07C247.185 45.63 248.025 46.5 249.855 46.92L253.305 47.67C257.055 48.48 258.885 50.4 258.885 53.67C258.885 57.75 255.705 60.39 250.875 60.39C246.195 60.39 243.135 57.9 243.045 53.97H246.885C246.915 55.83 248.415 56.94 250.875 56.94C253.425 56.94 255.045 55.83 255.045 54C255.045 52.53 254.295 51.66 252.495 51.27L249.015 50.49C245.295 49.68 243.345 47.55 243.345 44.19ZM266.859 60H263.199V48.24H260.349V45.18H263.199V40.56H266.859V45.18H269.739V48.24H266.859V60ZM282.064 45.18H285.724V60H282.334L282.064 58.02C281.164 59.43 279.244 60.39 277.264 60.39C273.844 60.39 271.834 58.08 271.834 54.45V45.18H275.494V53.16C275.494 55.98 276.604 57.12 278.644 57.12C280.954 57.12 282.064 55.77 282.064 52.95V45.18ZM295.301 60.39C291.011 60.39 288.341 57.24 288.341 52.65C288.341 48.03 291.041 44.73 295.511 44.73C297.581 44.73 299.411 45.6 300.341 47.07V37.68H303.971V60H300.611L300.371 57.69C299.471 59.4 297.551 60.39 295.301 60.39ZM296.111 57.03C298.661 57.03 300.311 55.2 300.311 52.53C300.311 49.86 298.661 48 296.111 48C293.561 48 292.001 49.89 292.001 52.53C292.001 55.17 293.561 57.03 296.111 57.03ZM306.496 66.87V63.81H308.686C310.126 63.81 311.026 63.48 311.656 61.74L312.076 60.63L306.106 45.18H309.976L313.786 55.98L317.806 45.18H321.586L314.326 63.3C313.216 66.06 311.656 67.2 309.226 67.2C308.206 67.2 307.306 67.08 306.496 66.87ZM336.01 60H332.29V38.07H336.01L343.09 55.53L350.17 38.07H353.95V60H350.23V53.25C350.23 48.84 350.23 47.55 350.44 45.99L344.86 60H341.32L335.77 46.02C335.98 47.34 336.01 49.41 336.01 52.14V60ZM362.674 60.39C359.524 60.39 357.604 58.56 357.604 55.77C357.604 53.04 359.584 51.33 363.094 51.06L367.534 50.73V50.4C367.534 48.39 366.334 47.58 364.474 47.58C362.314 47.58 361.114 48.48 361.114 50.04H357.994C357.994 46.83 360.634 44.73 364.654 44.73C368.644 44.73 371.104 46.89 371.104 51V60H367.894L367.624 57.81C366.994 59.34 364.984 60.39 362.674 60.39ZM363.874 57.63C366.124 57.63 367.564 56.28 367.564 54V53.22L364.474 53.46C362.194 53.67 361.324 54.42 361.324 55.62C361.324 56.97 362.224 57.63 363.874 57.63ZM379.534 60H375.874V48.24H373.024V45.18H375.874V40.56H379.534V45.18H382.414V48.24H379.534V60ZM391.173 60.39C386.763 60.39 383.673 57.18 383.673 52.59C383.673 47.94 386.703 44.73 391.053 44.73C395.493 44.73 398.313 47.7 398.313 52.32V53.43L387.153 53.46C387.423 56.07 388.803 57.39 391.233 57.39C393.243 57.39 394.563 56.61 394.983 55.2H398.373C397.743 58.44 395.043 60.39 391.173 60.39ZM391.083 47.73C388.923 47.73 387.603 48.9 387.243 51.12H394.683C394.683 49.08 393.273 47.73 391.083 47.73ZM410.543 45.12V48.51H409.193C406.553 48.51 404.903 49.92 404.903 52.8V60H401.243V45.21H404.693L404.903 47.37C405.533 45.9 406.943 44.91 408.923 44.91C409.433 44.91 409.943 44.97 410.543 45.12ZM414.85 42.21C413.59 42.21 412.6 41.22 412.6 39.99C412.6 38.76 413.59 37.8 414.85 37.8C416.05 37.8 417.04 38.76 417.04 39.99C417.04 41.22 416.05 42.21 414.85 42.21ZM413.02 60V45.18H416.68V60H413.02ZM424.871 60.39C421.721 60.39 419.801 58.56 419.801 55.77C419.801 53.04 421.781 51.33 425.291 51.06L429.731 50.73V50.4C429.731 48.39 428.531 47.58 426.671 47.58C424.511 47.58 423.311 48.48 423.311 50.04H420.191C420.191 46.83 422.831 44.73 426.851 44.73C430.841 44.73 433.301 46.89 433.301 51V60H430.091L429.821 57.81C429.191 59.34 427.181 60.39 424.871 60.39ZM426.071 57.63C428.321 57.63 429.761 56.28 429.761 54V53.22L426.671 53.46C424.391 53.67 423.521 54.42 423.521 55.62C423.521 56.97 424.421 57.63 426.071 57.63ZM440.587 60H436.957V37.68H440.587V60ZM443.286 55.5H446.766C446.796 56.79 447.756 57.6 449.436 57.6C451.146 57.6 452.076 56.91 452.076 55.83C452.076 55.08 451.686 54.54 450.366 54.24L447.696 53.61C445.026 53.01 443.736 51.75 443.736 49.38C443.736 46.47 446.196 44.73 449.616 44.73C452.946 44.73 455.196 46.65 455.226 49.53H451.746C451.716 48.27 450.876 47.46 449.466 47.46C448.026 47.46 447.186 48.12 447.186 49.23C447.186 50.07 447.846 50.61 449.106 50.91L451.776 51.54C454.266 52.11 455.526 53.25 455.526 55.53C455.526 58.53 452.976 60.39 449.316 60.39C445.626 60.39 443.286 58.41 443.286 55.5Z" fill="white"/>
<path d="M143 55L189.188 53L233 55" stroke="#FE8228" stroke-width="3" stroke-linecap="round"/>
<path d="M207.955 33.9858C209.301 33.7511 210.31 33.3807 210.983 32.8744C211.655 32.3681 211.929 31.7539 211.803 31.0318C211.691 30.3917 211.374 29.8805 210.85 29.4982C210.324 29.0996 209.704 28.7933 208.991 28.5796C208.277 28.3658 207.315 28.1361 206.105 27.8904C206.001 27.8748 205.748 27.826 205.344 27.7441C203.693 27.3895 202.394 26.9733 201.448 26.4956C200.519 26.015 199.968 25.2824 199.797 24.2976C199.605 23.198 199.895 22.2933 200.668 21.5836C201.44 20.8739 202.508 20.4003 203.87 20.1628C204.871 19.9882 205.813 19.9592 206.696 20.0759C207.592 20.1732 208.325 20.4005 208.895 20.7578C209.481 21.1122 209.823 21.5684 209.92 22.1265C209.74 22.2593 209.56 22.3414 209.38 22.3729C209.183 22.4073 208.97 22.402 208.743 22.3571C208.529 22.293 208.206 22.1886 207.775 22.0439C207.075 21.8109 206.428 21.6445 205.836 21.5449C205.241 21.4289 204.566 21.4366 203.811 21.5683C202.859 21.7343 202.116 22.0329 201.582 22.4642C201.049 22.8955 200.834 23.4065 200.937 23.9974C201.017 24.4569 201.287 24.8411 201.746 25.1499C202.223 25.4558 202.79 25.7036 203.449 25.8931C204.121 26.0633 205.009 26.2553 206.111 26.4689C207.513 26.7487 208.679 27.0358 209.61 27.3301C210.541 27.6244 211.361 28.0647 212.072 28.651C212.797 29.218 213.241 29.9692 213.404 30.9047C213.596 32.0044 213.219 32.9494 212.275 33.7398C211.328 34.5138 210.074 35.0368 208.515 35.3086C207.284 35.5233 206.038 35.5545 204.777 35.4024C203.516 35.2502 202.397 34.8957 201.421 34.3388C200.441 33.7655 199.75 32.9983 199.345 32.0372C199.268 31.5941 199.325 31.1951 199.517 30.8403C199.706 30.4692 199.981 30.2521 200.342 30.1891C200.528 31.2559 200.982 32.1153 201.705 32.7672C202.441 33.3999 203.351 33.8163 204.434 34.0163C205.534 34.2135 206.707 34.2033 207.955 33.9858ZM219.851 32.8753C219.693 32.9368 219.589 32.9718 219.54 32.9804C219.031 33.0691 218.612 32.7531 218.284 32.0325C217.971 31.309 217.696 30.2662 217.459 28.9039C217.362 28.3459 217.226 27.4732 217.053 26.2858C216.96 25.5579 216.882 25.0135 216.819 24.6524C214.8 25.0044 213.751 24.9507 213.671 24.4911C213.645 24.3434 213.641 24.2256 213.66 24.1379C213.695 24.0472 213.786 23.989 213.934 23.9633L216.587 23.323C216.431 22.5217 216.236 21.6508 216.005 20.7103C215.79 19.8683 215.612 19.0877 215.47 18.3684C215.438 18.1878 215.49 18.0519 215.627 17.9605C215.76 17.8527 215.909 17.7844 216.073 17.7558C216.27 17.7215 216.453 17.7995 216.621 17.99C216.787 18.164 216.888 18.3578 216.925 18.5711L217.883 23.0462L219.944 22.7884C220.25 22.7012 220.523 22.7129 220.762 22.8234C221.017 22.931 221.183 23.1557 221.26 23.4975C220.941 23.7053 220.579 23.8614 220.175 23.9658C219.77 24.0702 219.084 24.2068 218.115 24.3756C218.381 25.902 218.893 28.4002 219.65 31.8702C219.713 32.2313 219.758 32.4857 219.783 32.6334C219.823 32.7619 219.845 32.8425 219.851 32.8753ZM235.461 30.0265C235.165 30.078 234.906 29.9964 234.682 29.7817C234.473 29.5477 234.256 29.1796 234.033 28.6773C233.807 28.1586 233.439 27.2589 232.928 25.9781C232.841 27.1264 232.469 28.096 231.812 28.887C231.152 29.6616 230.264 30.1462 229.148 30.3408C228.131 30.5183 227.208 30.3157 226.379 29.733C225.564 29.1311 224.882 28.2775 224.334 27.1723C223.784 26.0508 223.389 24.8088 223.152 23.4466C223.043 22.823 223.008 22.2795 223.045 21.8164C223.096 21.3339 223.192 20.9621 223.333 20.7008C223.489 20.4367 223.66 20.2971 223.843 20.2821C224.04 20.2477 224.161 20.3618 224.207 20.6244C224.244 20.8378 224.246 21.1843 224.211 21.6638C224.185 22.1927 224.229 22.7853 224.343 23.4418C224.515 24.4265 224.822 25.3623 225.264 26.2492C225.723 27.1332 226.284 27.8301 226.948 28.3401C227.625 28.8308 228.35 29.0088 229.121 28.8743C229.761 28.7627 230.311 28.4724 230.77 28.0033C231.23 27.5343 231.557 26.9867 231.752 26.3608C231.964 25.732 232.021 25.1386 231.924 24.5806L231.241 20.6662C231.362 20.2901 231.578 20.0748 231.889 20.0205C232.169 19.9718 232.399 20.1769 232.58 20.6357C232.762 21.0944 232.928 21.7588 233.08 22.6286C233.209 23.3672 233.299 23.9348 233.352 24.3316C233.544 24.856 233.788 25.3801 234.082 25.9037C234.393 26.4246 234.766 27.0106 235.201 27.662C235.73 28.466 236.012 28.9665 236.046 29.1635C236.132 29.6558 235.937 29.9435 235.461 30.0265ZM240.53 29.3709C240.311 29.4766 240.186 29.5323 240.153 29.538C240.022 29.5609 239.871 29.5196 239.7 29.4141C239.018 28.7043 238.38 27.3697 237.784 25.4104C237.206 23.4481 236.79 21.7449 236.538 20.3006C236.498 20.0708 236.642 19.9273 236.971 19.8701C237.463 19.7842 237.756 20.0121 237.851 20.5537C237.877 20.7014 237.89 20.8259 237.891 20.9273C237.978 20.5569 238.196 20.1553 238.543 19.7227C238.89 19.2901 239.313 18.9035 239.812 18.5628C240.311 18.2222 240.839 18.0033 241.397 17.9059C243.153 17.5997 244.569 18.1561 245.645 19.575C246.719 20.9775 247.456 22.8277 247.856 25.1254C247.994 25.9132 248.022 26.5593 247.941 27.0639C247.857 27.5521 247.675 27.8205 247.396 27.8691C247.101 27.9207 246.937 27.8562 246.906 27.6756C246.869 26.7857 246.778 25.9223 246.632 25.0852C246.262 22.9681 245.614 21.4323 244.687 20.4778C243.756 19.507 242.684 19.1275 241.469 19.3392C240.879 19.4423 240.33 19.6902 239.823 20.0829C239.333 20.4727 238.962 20.9603 238.709 21.5456C238.472 22.1281 238.412 22.7557 238.53 23.4286C238.661 24.1836 238.817 24.8329 238.996 25.3766C239.176 25.9203 239.424 26.5704 239.742 27.3267C240.074 28.0637 240.336 28.7451 240.53 29.3709ZM252.671 27.2538C252.452 27.3595 252.327 27.4152 252.294 27.4209C252.163 27.4438 252.012 27.4025 251.841 27.297C251.159 26.5872 250.521 25.2526 249.925 23.2933C249.346 21.331 248.931 19.6278 248.679 18.1835C248.639 17.9537 248.783 17.8102 249.111 17.753C249.604 17.6671 249.897 17.895 249.992 18.4366C250.017 18.5843 250.031 18.7088 250.031 18.8102C250.119 18.4398 250.337 18.0382 250.684 17.6056C251.031 17.173 251.454 16.7864 251.953 16.4457C252.452 16.1051 252.98 15.8862 253.538 15.7888C255.294 15.4826 256.71 16.039 257.786 17.4579C258.86 18.8604 259.596 20.7105 259.997 23.0083C260.135 23.7961 260.163 24.4422 260.082 24.9468C259.998 25.435 259.816 25.7034 259.537 25.752C259.242 25.8036 259.078 25.7391 259.047 25.5585C259.01 24.6686 258.918 23.8052 258.773 22.9681C258.403 20.851 257.755 19.3152 256.828 18.3607C255.897 17.3899 254.825 17.0104 253.61 17.2221C253.02 17.3252 252.471 17.5731 251.964 17.9658C251.474 18.3556 251.103 18.8432 250.85 19.4285C250.613 20.011 250.553 20.6386 250.671 21.3115C250.802 22.0665 250.958 22.7158 251.137 23.2595C251.317 23.8032 251.565 24.4533 251.883 25.2096C252.215 25.9466 252.477 26.628 252.671 27.2538ZM264.109 25.183C263.732 25.2488 263.333 24.752 262.911 23.6924C262.487 22.6164 262.171 21.6821 261.966 20.8893C261.76 20.0966 261.448 18.8404 261.029 17.1207C260.964 16.8445 260.893 16.4849 260.816 16.0418C260.719 15.4838 260.692 15.0909 260.737 14.8632C260.798 14.6327 260.936 14.4988 261.149 14.4616C261.33 14.4302 261.476 14.4469 261.589 14.5117C261.715 14.5574 261.834 14.6551 261.945 14.8049L262.092 15.7939C262.275 16.8443 262.497 17.8287 262.759 18.747C263.037 19.6625 263.428 20.888 263.933 22.4235C264.184 23.0899 264.373 23.6404 264.5 24.0749C264.573 24.299 264.572 24.5359 264.497 24.7857C264.419 25.0191 264.29 25.1515 264.109 25.183ZM261.133 11.7502C260.772 11.8132 260.477 11.7209 260.248 11.4733C260.035 11.223 259.893 10.8926 259.821 10.4823C259.79 10.3018 259.775 10.169 259.777 10.0841C259.715 9.82437 259.84 9.66732 260.151 9.61294C260.381 9.57287 260.621 9.59025 260.871 9.66507C261.134 9.72061 261.221 9.78159 261.131 9.848C261.37 10.2461 261.51 10.5682 261.553 10.8144C261.59 11.0278 261.571 11.2087 261.496 11.3572C261.417 11.4892 261.296 11.6202 261.133 11.7502ZM269.235 24.3653C269.017 24.471 268.891 24.5267 268.859 24.5325C268.727 24.5553 268.576 24.514 268.406 24.4085C267.724 23.6987 267.085 22.3642 266.49 20.4048C265.911 18.4426 265.496 16.7393 265.244 15.295C265.204 15.0652 265.348 14.9217 265.676 14.8645C266.168 14.7786 266.462 15.0065 266.556 15.5481C266.582 15.6958 266.595 15.8204 266.596 15.9217C266.684 15.5513 266.901 15.1498 267.248 14.7171C267.596 14.2845 268.019 13.8979 268.518 13.5573C269.016 13.2166 269.545 12.9977 270.103 12.9004C271.859 12.5941 273.275 13.1505 274.351 14.5694C275.424 15.9719 276.161 17.8221 276.562 20.1198C276.699 20.9076 276.727 21.5538 276.646 22.0583C276.562 22.5465 276.381 22.8149 276.102 22.8636C275.806 22.9151 275.643 22.8506 275.611 22.67C275.574 21.7801 275.483 20.9167 275.337 20.0797C274.968 17.9625 274.32 16.4267 273.392 15.4722C272.462 14.5014 271.389 14.1219 270.175 14.3337C269.584 14.4367 269.035 14.6846 268.529 15.0773C268.039 15.4672 267.667 15.9547 267.414 16.54C267.177 17.1225 267.118 17.7501 267.235 18.423C267.367 19.178 267.522 19.8273 267.702 20.3711C267.881 20.9148 268.13 21.5648 268.448 22.3211C268.779 23.0581 269.042 23.7395 269.235 24.3653ZM285.251 33.8501C283.873 34.0905 282.647 33.8984 281.574 33.2738C280.52 32.6626 279.743 31.4537 279.242 29.647C279.177 29.3709 279.181 29.1504 279.253 28.9855C279.342 28.8178 279.477 28.7181 279.658 28.6867C279.855 28.6523 280.04 28.6961 280.213 28.8181C280.39 28.9564 280.493 29.1584 280.522 29.4238C280.711 30.507 281.229 31.2961 282.076 31.7909C282.943 32.2994 283.959 32.452 285.124 32.2488C285.797 32.1315 286.345 31.7822 286.768 31.2012C287.207 30.6172 287.489 29.8578 287.614 28.9229C287.741 28.0044 287.706 26.9789 287.508 25.8464C287.162 23.8605 286.85 21.9278 286.573 20.0482L286.379 18.7884C285.856 19.5729 285.36 20.1669 284.889 20.5703C284.434 20.9708 283.846 21.2341 283.124 21.36C281.86 21.5804 280.866 21.407 280.141 20.84C279.43 20.2537 278.952 19.2549 278.706 17.8434C278.565 17.0392 278.633 16.165 278.908 15.2207C279.196 14.2572 279.667 13.4142 280.319 12.6917C280.987 11.9663 281.805 11.5192 282.774 11.3504C283.102 11.2931 283.411 11.273 283.702 11.29C284.792 11.3366 285.668 12.1901 286.33 13.8504C286.991 15.5107 287.561 17.7113 288.039 20.4522C288.171 21.2071 288.329 22.2112 288.513 23.4642L288.897 25.8073C289.06 26.7428 289.09 27.7861 288.986 28.9372C288.885 30.1048 288.537 31.1633 287.941 32.1127C287.346 33.0621 286.449 33.6412 285.251 33.8501ZM282.471 19.7996C283.686 19.5878 284.555 19.1403 285.078 18.4571C285.599 17.7575 285.761 16.8415 285.563 15.7091C285.537 15.5613 285.477 15.3098 285.381 14.9545C285.167 14.2138 284.867 13.6573 284.481 13.285C284.108 12.8934 283.602 12.7534 282.962 12.865C282.289 12.9823 281.715 13.3276 281.24 13.9009C280.765 14.4741 280.433 15.1408 280.244 15.9009C280.052 16.6446 280.01 17.3201 280.115 17.9273C280.221 18.5346 280.493 19.0283 280.932 19.4085C281.367 19.7722 281.88 19.9026 282.471 19.7996Z" fill="#FE8228"/>
</svg>
