<svg width="516" height="348" viewBox="0 0 516 348" fill="none" xmlns="http://www.w3.org/2000/svg">
<g filter="url(#filter0_d_167_14506)">
<g clip-path="url(#clip0_167_14506)">
<path d="M8 39.0625C8 17.4889 25.4889 0 47.0625 0H468.938C490.511 0 508 17.4889 508 39.0625V253.906C508 297.053 473.022 332.031 429.875 332.031H86.125C42.9778 332.031 8 297.053 8 253.906V39.0625Z" fill="black"/>
<g filter="url(#filter1_f_167_14506)">
<line x1="-199.938" y1="-198.312" x2="102.796" y2="104.423" stroke="white" stroke-opacity="0.8" stroke-width="19.5312"/>
</g>
</g>
</g>
<defs>
<filter id="filter0_d_167_14506" x="0.1875" y="0" width="515.625" height="347.656" filterUnits="userSpaceOnUse" color-interpolation-filters="sRGB">
<feFlood flood-opacity="0" result="BackgroundImageFix"/>
<feColorMatrix in="SourceAlpha" type="matrix" values="0 0 0 0 0 0 0 0 0 0 0 0 0 0 0 0 0 0 127 0" result="hardAlpha"/>
<feOffset dy="7.8125"/>
<feGaussianBlur stdDeviation="3.90625"/>
<feComposite in2="hardAlpha" operator="out"/>
<feColorMatrix type="matrix" values="0 0 0 0 0 0 0 0 0 0 0 0 0 0 0 0 0 0 0.02 0"/>
<feBlend mode="normal" in2="BackgroundImageFix" result="effect1_dropShadow_167_14506"/>
<feBlend mode="normal" in="SourceGraphic" in2="effect1_dropShadow_167_14506" result="shape"/>
</filter>
<filter id="filter1_f_167_14506" x="-249.617" y="-247.99" width="402.092" height="402.092" filterUnits="userSpaceOnUse" color-interpolation-filters="sRGB">
<feFlood flood-opacity="0" result="BackgroundImageFix"/>
<feBlend mode="normal" in="SourceGraphic" in2="BackgroundImageFix" result="shape"/>
<feGaussianBlur stdDeviation="21.3867" result="effect1_foregroundBlur_167_14506"/>
</filter>
<clipPath id="clip0_167_14506">
<path d="M8 39.0625C8 17.4889 25.4889 0 47.0625 0H468.938C490.511 0 508 17.4889 508 39.0625V253.906C508 297.053 473.022 332.031 429.875 332.031H86.125C42.9778 332.031 8 297.053 8 253.906V39.0625Z" fill="white"/>
</clipPath>
</defs>
</svg>
