<svg width="262" height="13" viewBox="0 0 262 13" fill="none" xmlns="http://www.w3.org/2000/svg">
<path d="M3.04415 9.98632C9.71922 9.86981 15.7846 8.58794 22.4748 8.47117C26.9304 8.39339 30.9978 9.08861 35.5765 8.94807C38.6657 8.85325 41.1393 8.18239 43.82 7.68046C45.343 7.39529 48.3025 7.54109 49.8884 7.52227C55.0756 7.46069 60.6346 7.71893 65.2306 8.54806C69.8319 9.37814 77.2962 8.72757 81.9013 8.15254C85.5361 7.69866 89.8847 7.62506 93.5644 7.93589C101.338 8.59257 108.954 8.60805 116.981 8.46795C124 8.34542 129 6.61176 135.965 6.4902C138.972 6.4377 142.091 6.69989 145.041 6.85443C148.861 7.05454 152.671 6.93902 156.597 6.78338C163.921 6.49301 170.341 5.18456 177.706 5.05599C182.534 4.97173 186.004 5.60436 190.302 5.89452C203.289 6.77125 216.702 5.07009 229.58 5.74466C233.256 5.93724 237.401 5.8956 241.138 5.83037C245.933 5.74669 250.24 4.45796 254.118 3.48703C257.836 2.55605 257.025 3.19114 258.371 4.11838" stroke="#FE8228" stroke-width="6" stroke-linecap="round"/>
</svg>
