<svg width="95" height="13" viewBox="0 0 95 13" fill="none" xmlns="http://www.w3.org/2000/svg">
<path d="M5 7.58038C7.21819 7.58038 9.24061 6.48688 11.4638 6.48688C12.9445 6.48688 14.2917 7.19935 15.8135 7.14298C16.8404 7.10495 17.666 6.52129 18.5595 6.09808C19.0671 5.85763 20.0494 6.04124 20.5764 6.04947C22.2999 6.07641 24.1452 6.40676 25.6672 7.25233C27.191 8.09887 29.6745 7.61509 31.2077 7.15513C32.4178 6.79208 33.8629 6.79423 35.0835 7.14298C37.6623 7.87978 40.1922 8.01778 42.8596 8.01778C45.1922 8.01778 46.8632 6.48688 49.1776 6.48688C50.177 6.48688 51.2116 6.7813 52.1908 6.97288C53.4587 7.22096 54.7251 7.17538 56.0302 7.09438C58.4651 6.94325 60.6053 5.83077 63.0529 5.83077C64.6572 5.83077 65.8064 6.47536 67.2325 6.81493C71.5418 7.84095 76.0074 6.47679 80.2817 7.31308C81.5019 7.55182 82.8792 7.58038 84.1211 7.58038C85.7143 7.58038 87.1527 6.45196 88.4465 5.61207C89.6872 4.80674 89.4139 5.38411 89.8559 6.26818" stroke="#FE8228" stroke-width="9" stroke-linecap="round"/>
</svg>
