<svg width="53" height="19" viewBox="0 0 53 19" fill="none" xmlns="http://www.w3.org/2000/svg">
<path d="M18.1429 10.8571H11.3571V17.6429C11.3571 18.0028 11.2142 18.348 10.9596 18.6025C10.7051 18.857 10.3599 19 10 19C9.64006 19 9.29487 18.857 9.04036 18.6025C8.78584 18.348 8.64286 18.0028 8.64286 17.6429V10.8571H1.85714C1.49721 10.8571 1.15201 10.7142 0.897498 10.4596C0.642985 10.2051 0.5 9.85994 0.5 9.5C0.5 9.14006 0.642985 8.79487 0.897498 8.54036C1.15201 8.28584 1.49721 8.14286 1.85714 8.14286H8.64286V1.35714C8.64286 0.997206 8.78584 0.652011 9.04036 0.397498C9.29487 0.142984 9.64006 0 10 0C10.3599 0 10.7051 0.142984 10.9596 0.397498C11.2142 0.652011 11.3571 0.997206 11.3571 1.35714V8.14286H18.1429C18.5028 8.14286 18.848 8.28584 19.1025 8.54036C19.357 8.79487 19.5 9.14006 19.5 9.5C19.5 9.85994 19.357 10.2051 19.1025 10.4596C18.848 10.7142 18.5028 10.8571 18.1429 10.8571Z" fill="#8A8A8A"/>
<path d="M50.3133 14.7778C50.8732 14.7778 51.4101 15.0002 51.8061 15.3961C52.202 15.792 52.4244 16.329 52.4244 16.8889C52.4244 17.4488 52.202 17.9858 51.8061 18.3817C51.4101 18.7776 50.8732 19 50.3133 19C49.7534 19 49.2164 18.7776 48.8205 18.3817C48.4246 17.9858 48.2022 17.4488 48.2022 16.8889C48.2022 16.329 48.4246 15.792 48.8205 15.3961C49.2164 15.0002 49.7534 14.7778 50.3133 14.7778ZM50.3133 7.38889C50.8732 7.38889 51.4101 7.61131 51.8061 8.00722C52.202 8.40313 52.4244 8.9401 52.4244 9.5C52.4244 10.0599 52.202 10.5969 51.8061 10.9928C51.4101 11.3887 50.8732 11.6111 50.3133 11.6111C49.7534 11.6111 49.2164 11.3887 48.8205 10.9928C48.4246 10.5969 48.2022 10.0599 48.2022 9.5C48.2022 8.9401 48.4246 8.40313 48.8205 8.00722C49.2164 7.61131 49.7534 7.38889 50.3133 7.38889ZM50.3133 0C50.8732 0 51.4101 0.22242 51.8061 0.61833C52.202 1.01424 52.4244 1.55121 52.4244 2.11111C52.4244 2.67101 52.202 3.20798 51.8061 3.60389C51.4101 3.9998 50.8732 4.22222 50.3133 4.22222C49.7534 4.22222 49.2164 3.9998 48.8205 3.60389C48.4246 3.20798 48.2022 2.67101 48.2022 2.11111C48.2022 1.55121 48.4246 1.01424 48.8205 0.61833C49.2164 0.22242 49.7534 0 50.3133 0Z" fill="#8A8A8A"/>
</svg>
