<svg width="123" height="52" viewBox="0 0 123 52" fill="none" xmlns="http://www.w3.org/2000/svg">
<path d="M70.512 41.7728L69.7131 42.5716M69.6297 39.6423H68.4999M69.7131 36.7135L70.512 37.5123M72.6425 35.5V36.6297M75.5713 36.7135L74.7725 37.5123M77.0109 43.9972L79.8873 42.9931C80.4265 42.8048 80.4474 42.0499 79.9192 41.8403L73.3383 39.5485C72.8436 39.3521 72.3461 39.8374 72.53 40.337L74.6849 47.1012C74.8812 47.6342 75.6358 47.6325 75.8378 47.0986L77.0109 43.9972Z" stroke="#E533CD" stroke-width="1.25" stroke-linecap="round" stroke-linejoin="round"/>
<path d="M108.824 39.9299L107.75 40.2785M109.007 37.6312L108 37.1178M110.412 35.0603L110.761 36.1349M113.573 35.3107L113.06 36.317M115.63 37.7227L114.556 38.0712M113.602 44.865L116.621 45.2779C117.187 45.3552 117.548 44.6922 117.173 44.2655L112.353 39.2331C112.001 38.8334 111.338 39.0396 111.275 39.5681L110.12 46.5728C110.052 47.1368 110.725 47.4782 111.148 47.0944L113.602 44.865Z" stroke="#0066FF" stroke-width="1.25" stroke-linecap="round" stroke-linejoin="round"/>
<path d="M103.355 13.5496L104.44 13.8633M101.916 15.3512L102.461 16.3404M99.3107 16.6927L99.6244 15.6073M96.8333 14.7137L97.8225 14.1681M96.4813 11.5631L97.5666 11.8767M102.164 6.7846L99.8953 4.75089C99.4701 4.36968 98.7989 4.71604 98.8705 5.27976L100.042 12.1491C100.109 12.6771 100.774 12.8783 101.123 12.476L106.005 7.32211C106.377 6.89283 106.011 6.23288 105.446 6.31392L102.164 6.7846Z" stroke="#9272CA" stroke-width="1.25" stroke-linecap="round" stroke-linejoin="round"/>
<path d="M13.1181 9.97455L14.0977 9.41184M13.4139 12.2615L14.5045 12.5563M12.5691 15.067L12.0064 14.0874M9.42462 15.4741L9.71941 14.3835M6.91391 13.5384L7.89353 12.9757M7.42478 6.13141L4.38599 6.35015C3.81639 6.39116 3.59923 7.11453 4.05441 7.4547L9.80932 11.3843C10.2357 11.7029 10.8425 11.3643 10.7953 10.8341L10.4801 3.7419C10.4298 3.17611 9.70089 2.98083 9.36658 3.44357L7.42478 6.13141Z" stroke="#57D76A" stroke-width="1.25" stroke-linecap="round" stroke-linejoin="round"/>
<path d="M32.6952 37.7079L31.7791 37.0468M34.6575 36.4968L34.4772 35.3815M37.5621 36.1116L36.9011 37.0277M39.2277 38.8096L38.1125 38.99M38.4974 41.8946L37.5812 41.2335M31.5369 44.4786L32.9874 47.1578C33.2592 47.66 34.0079 47.5601 34.1305 47.0052L35.3422 40.1428C35.4571 39.6231 34.8986 39.2095 34.4348 39.4708L28.1014 42.678C27.6065 42.9568 27.7286 43.7015 28.288 43.8156L31.5369 44.4786Z" stroke="#F24E06" stroke-width="1.25" stroke-linecap="round" stroke-linejoin="round"/>
</svg>
