<svg width="43" height="29" viewBox="0 0 43 29" fill="none" xmlns="http://www.w3.org/2000/svg">
<path d="M14.1318 21.1867C14.1869 20.7461 14.9467 20.4057 15.1564 20.0095C15.3042 19.7303 15.459 19.3906 15.6469 19.1594C16.3099 18.3434 16.9447 17.4519 17.5434 16.5871C17.7672 16.2638 18.0984 15.4113 18.5462 15.3118C18.8892 15.2356 18.8952 15.1106 19.1457 14.7995C19.9386 13.8147 20.8938 12.9805 21.6962 12.0092C21.9701 11.6777 22.1327 11.2545 22.47 10.9847C24.409 9.43352 25.3969 6.81632 27.3857 5.27328C27.9151 4.86261 27.37 5.09889 26.8844 5.09889" stroke="#F24E06" stroke-width="2.59964" stroke-linecap="round"/>
<path d="M2.00101 2C2.00101 3.2017 1.97084 4.41707 2.2408 5.59687C2.64235 7.35181 3.47536 8.98473 3.86484 10.7524C4.16381 12.1093 6.25845 19.1276 6.31725 19.0688" stroke="#F24E06" stroke-width="2.59964" stroke-linecap="round"/>
<path d="M16.7314 27.501C17.6078 26.7999 20.2304 27.3048 21.2003 27.3048C23.0423 27.3048 24.8843 27.3048 26.7264 27.3048C31.5766 27.3048 36.4095 27.501 41.2555 27.501" stroke="#F24E06" stroke-width="2.59964" stroke-linecap="round"/>
</svg>
