<svg width="25" height="25" viewBox="0 0 25 25" fill="none" xmlns="http://www.w3.org/2000/svg">
<path d="M6.66617 15.6047C5.06849 15.6047 3.77332 14.6049 3.77332 13.1389C3.77332 11.6729 5.06849 10.4845 6.66617 10.4845C6.77482 10.4845 6.88207 10.49 6.9876 10.5007V10.4845H7.02739C7.00113 10.2913 6.9876 10.0944 6.9876 9.89468C6.9876 7.2885 9.29014 5.17578 12.1305 5.17578C14.0538 5.17578 15.7306 6.14459 16.6128 7.5794C16.8284 7.5503 17.0489 7.53523 17.2733 7.53523C19.7586 7.53523 21.7733 9.38386 21.7733 11.6643C21.7733 13.5415 20.4081 14.9725 18.5389 15.4442M12.6313 19.1758V12.4016M12.6313 12.4016L9.67956 15.1953M12.6313 12.4016L15.5858 15.1953" stroke="black" stroke-width="2" stroke-linecap="round" stroke-linejoin="round"/>
</svg>
