<svg width="217" height="26" viewBox="0 0 217 26" fill="none" xmlns="http://www.w3.org/2000/svg">
<path d="M8.92888 7.86298C8.72574 9.42896 9.98177 10.8824 9.98177 10.8824C9.98177 10.8824 11.5678 9.79709 11.7709 8.23111C11.9741 6.66418 10.718 5.21073 10.718 5.21073C10.718 5.21073 9.13298 6.29796 8.92888 7.86298ZM7.43824 13.1265C8.10202 14.5599 9.94076 15.1226 9.94076 15.1226C9.94076 15.1226 10.7037 13.3611 10.0399 11.9277C9.37617 10.4943 7.53743 9.93061 7.53743 9.93061C7.53743 9.93061 6.77447 11.6931 7.43824 13.1265ZM8.22123 18.1668C9.48775 19.1138 11.3742 18.7381 11.3742 18.7381C11.3742 18.7381 11.2063 16.8259 9.93981 15.8789C8.67329 14.9318 6.78687 15.3076 6.78687 15.3076C6.78687 15.3076 6.95472 17.2198 8.22123 18.1668ZM11.6632 22.2658C13.0985 22.9315 14.8666 22.1752 14.8666 22.1752C14.8666 22.1752 14.3068 20.3393 12.8715 19.6727C11.4362 19.007 9.668 19.7643 9.668 19.7643C9.668 19.7643 10.2278 21.6001 11.6632 22.2658ZM13.2539 4.38864C12.0999 5.46919 12.1438 7.38709 12.1438 7.38709C12.1438 7.38709 14.0608 7.55494 15.2147 6.47439C16.3687 5.39385 16.3249 3.47499 16.3249 3.47499C16.3249 3.47499 14.4079 3.3081 13.2539 4.38864Z" stroke="black" stroke-width="1.43056" stroke-linecap="round" stroke-linejoin="round"/>
<path d="M35.2829 7.51741L36.5608 15.7193L37.7625 9.42482C37.8006 9.28494 37.8197 9.16414 37.8197 9.06241C37.8197 8.83352 37.7116 8.71908 37.4955 8.71908C37.4573 8.71908 37.3746 8.73179 37.2475 8.75722C37.2221 8.75722 37.1839 8.75722 37.133 8.75722C37.0822 8.76994 37.044 8.7763 37.0186 8.7763C36.5354 8.7763 36.2938 8.39482 36.2938 7.63185C36.2938 6.67815 36.7198 6.2013 37.5717 6.2013C37.7879 6.2013 38.0931 6.22673 38.4873 6.27759C39.085 6.35389 39.4855 6.39204 39.689 6.39204C39.7144 6.39204 40.223 6.33482 41.2149 6.22037C41.3802 6.20766 41.5201 6.2013 41.6345 6.2013C42.016 6.2013 42.3275 6.33482 42.5692 6.60185C42.8235 6.85617 42.9506 7.18043 42.9506 7.57463C42.9506 7.91796 42.8553 8.21679 42.6645 8.47111C42.4865 8.72543 42.2703 8.85259 42.016 8.85259C41.8761 8.85259 41.7426 8.83352 41.6155 8.79537C41.501 8.74451 41.3993 8.71908 41.3103 8.71908C41.0941 8.71908 40.9351 8.87803 40.8334 9.19593C40.8334 9.20864 40.7762 9.45661 40.6617 9.93982L38.926 17.6457C38.7988 18.1671 38.7035 18.485 38.6399 18.5994C38.5 18.8665 38.2393 19 37.8579 19C37.718 19 37.5145 18.9873 37.2475 18.9619C37.1203 18.9491 36.8978 18.9428 36.5799 18.9428C36.3129 18.9428 36.0776 18.9491 35.8742 18.9619L35.2638 19C35.2638 19 35.232 19 35.1684 19C34.8378 19 34.6089 18.8856 34.4817 18.6567C34.3546 18.4278 34.2274 17.9064 34.1003 17.0926L33.0703 10.4357L32.0212 17.0926C31.894 17.9064 31.7669 18.4278 31.6397 18.6567C31.5126 18.8856 31.2837 19 30.953 19C30.8386 19 30.6034 18.9873 30.2473 18.9619C30.0693 18.9491 29.8404 18.9428 29.5606 18.9428C29.4208 18.9428 29.2046 18.9555 28.9121 18.9809C28.6324 18.9936 28.4226 19 28.2827 19C27.9012 19 27.6405 18.8665 27.5006 18.5994C27.4371 18.4977 27.3417 18.1798 27.2145 17.6457L26.9856 16.673L25.4597 9.93982C25.4088 9.69821 25.358 9.45025 25.3071 9.19593C25.1927 8.87803 25.0337 8.71908 24.8303 8.71908C24.7285 8.71908 24.6205 8.73815 24.506 8.7763C24.3534 8.82716 24.2263 8.85259 24.1245 8.85259C23.8702 8.85259 23.6477 8.72543 23.4569 8.47111C23.2662 8.21679 23.1708 7.91161 23.1708 7.55556C23.1708 7.16136 23.298 6.8371 23.5523 6.58278C23.8066 6.32846 24.1245 6.2013 24.506 6.2013C24.7222 6.2013 25.0401 6.23309 25.4597 6.29667C25.8921 6.36025 26.2227 6.39204 26.4516 6.39204C26.655 6.39204 27.0556 6.35389 27.6532 6.27759C28.0474 6.22673 28.3526 6.2013 28.5688 6.2013C29.4208 6.2013 29.8467 6.65272 29.8467 7.55556C29.8467 8.36938 29.6051 8.7763 29.1219 8.7763C29.0965 8.7763 29.0584 8.76994 29.0075 8.75722C28.9566 8.75722 28.9121 8.75722 28.874 8.75722C28.7468 8.73179 28.6705 8.71908 28.6451 8.71908C28.4289 8.71908 28.3208 8.83988 28.3208 9.08148C28.3208 9.18321 28.3335 9.29766 28.359 9.42482L29.5797 15.7193L30.8386 7.51741C30.9276 6.97062 31.023 6.61457 31.1247 6.44926C31.2264 6.28395 31.4045 6.2013 31.6588 6.2013C31.8114 6.2013 32.0466 6.22037 32.3645 6.25852C32.6824 6.28395 32.9177 6.29667 33.0703 6.29667C33.2229 6.29667 33.4517 6.28395 33.7569 6.25852C34.0748 6.22037 34.3101 6.2013 34.4627 6.2013C34.7806 6.2013 34.9967 6.34753 35.1112 6.64C35.1493 6.74173 35.2066 7.0342 35.2829 7.51741ZM47.4038 6.83074V10.3213C47.9506 9.8508 48.4084 9.53926 48.7771 9.38667C49.1459 9.22136 49.6037 9.13871 50.1505 9.13871C51.3331 9.13871 52.1723 9.50747 52.6683 10.245C52.9989 10.7409 53.1642 11.5293 53.1642 12.6102V15.8909C53.1642 16.5267 53.2913 16.8446 53.5457 16.8446C53.6474 16.8446 53.7364 16.8319 53.8127 16.8065C53.889 16.781 53.9907 16.7683 54.1179 16.7683C54.6774 16.7683 54.9571 17.0926 54.9571 17.7411C54.9571 18.6312 54.582 19.0763 53.8318 19.0763C53.6156 19.0763 53.2977 19.0509 52.8781 19C52.4584 18.9491 52.1405 18.9237 51.9244 18.9237C51.7209 18.9237 51.4157 18.9491 51.0088 19C50.6146 19.0509 50.3158 19.0763 50.1123 19.0763C49.7944 19.0763 49.5338 18.9682 49.3303 18.752C49.1396 18.5359 49.0442 18.2498 49.0442 17.8937C49.0442 17.2452 49.2858 16.9019 49.769 16.8637C49.9852 16.851 50.1187 16.7938 50.1696 16.692C50.2204 16.5903 50.2459 16.4186 50.2459 16.177V13.2587C50.2459 12.2033 49.8453 11.6756 49.0442 11.6756C47.9506 11.6756 47.4038 12.4322 47.4038 13.9454V16.1961C47.4038 16.4631 47.4292 16.6348 47.4801 16.7111C47.5437 16.7747 47.7026 16.8256 47.957 16.8637C48.3512 16.9273 48.5483 17.2452 48.5483 17.8174C48.5483 18.6567 48.1986 19.0763 47.4992 19.0763C47.3466 19.0763 47.0732 19.0509 46.679 19C46.2848 18.9491 45.9224 18.9237 45.5918 18.9237C45.3247 18.9237 45.0386 18.9428 44.7334 18.9809C44.2248 19.0445 43.9005 19.0763 43.7607 19.0763C43.4173 19.0763 43.1376 18.9619 42.9214 18.733C42.7052 18.4914 42.5971 18.1862 42.5971 17.8174C42.5971 17.0926 42.9087 16.7302 43.5318 16.7302C43.6081 16.7302 43.7098 16.7556 43.837 16.8065C43.9768 16.8446 44.0849 16.8637 44.1612 16.8637C44.3774 16.8637 44.4855 16.5077 44.4855 15.7956V9.44389C44.4855 8.73179 44.3774 8.37574 44.1612 8.37574C44.0722 8.37574 43.9578 8.40117 43.8179 8.45204C43.7416 8.47747 43.6399 8.49019 43.5127 8.49019C42.9023 8.49019 42.5971 8.1405 42.5971 7.44111C42.5971 7.05963 42.7052 6.75445 42.9214 6.52556C43.1376 6.28395 43.4173 6.16315 43.7607 6.16315C43.926 6.16315 44.1676 6.18222 44.4855 6.22037C44.8034 6.25852 45.045 6.27759 45.2103 6.27759C45.6045 6.27759 45.9415 6.25852 46.2212 6.22037C46.5137 6.18222 46.7362 6.16315 46.8888 6.16315C47.2321 6.16315 47.4038 6.38568 47.4038 6.83074ZM59.3863 12.2859L60.6834 16.3869L61.9804 12.4576C62.0821 12.1524 62.133 11.9235 62.133 11.7709C62.133 11.6311 62.0313 11.523 61.8278 11.4467L61.4845 11.3131C61.2174 11.2114 61.0839 10.9444 61.0839 10.512C61.0839 10.1941 61.1729 9.93346 61.351 9.73C61.5417 9.51383 61.777 9.40574 62.0567 9.40574C62.2474 9.40574 62.5399 9.43117 62.9341 9.48204C63.3283 9.5329 63.6208 9.55833 63.8115 9.55833C64.015 9.55833 64.3202 9.5329 64.7271 9.48204C65.134 9.43117 65.4392 9.40574 65.6426 9.40574C66.4056 9.40574 66.7871 9.81901 66.7871 10.6456C66.7871 10.938 66.6981 11.1987 66.52 11.4276C66.3547 11.6438 66.1513 11.7519 65.9097 11.7519C65.8588 11.7519 65.7698 11.7391 65.6426 11.7137C65.5282 11.6883 65.4455 11.6756 65.3947 11.6756C65.1658 11.6756 64.9814 11.8663 64.8415 12.2478L64.5936 12.9154L62.9532 17.188C62.4445 18.5104 62.0885 19.3688 61.885 19.763C61.6943 20.1572 61.4145 20.5895 61.0458 21.06C60.0285 22.3443 58.7823 22.9865 57.3073 22.9865C56.4044 22.9865 55.6605 22.7703 55.0756 22.338C54.4907 21.9056 54.1982 21.3525 54.1982 20.6785C54.1982 20.208 54.3444 19.8202 54.6369 19.515C54.9421 19.2225 55.3236 19.0763 55.7813 19.0763C56.1755 19.0763 56.4934 19.1907 56.735 19.4196C56.9766 19.6612 57.0974 19.9664 57.0974 20.3352C57.0974 20.4751 57.0847 20.6149 57.0593 20.7548C57.2246 20.8311 57.3836 20.8693 57.5362 20.8693C57.8795 20.8693 58.2037 20.6658 58.5089 20.2589C58.8268 19.852 58.9858 19.5086 58.9858 19.2289C58.9858 18.9746 58.7696 18.3324 58.3373 17.3024L56.201 12.2478C56.0484 11.8917 55.8958 11.7137 55.7432 11.7137C55.7305 11.7137 55.6351 11.7264 55.4571 11.7519C55.4444 11.7519 55.4189 11.7519 55.3808 11.7519C55.3426 11.7646 55.3108 11.7709 55.2854 11.7709C54.6369 11.7709 54.3126 11.4085 54.3126 10.6837C54.3126 10.3277 54.4207 10.0288 54.6369 9.78722C54.8658 9.5329 55.1455 9.40574 55.4762 9.40574C55.6796 9.40574 55.9784 9.43117 56.3726 9.48204C56.7795 9.5329 57.0847 9.55833 57.2882 9.55833C57.5298 9.55833 57.9367 9.5329 58.5089 9.48204C59.0812 9.43117 59.3863 9.40574 59.4245 9.40574C60.1239 9.40574 60.4736 9.77451 60.4736 10.512C60.4736 11.0334 60.2065 11.3386 59.6724 11.4276C59.4054 11.4657 59.2719 11.5802 59.2719 11.7709C59.2719 11.8727 59.31 12.0443 59.3863 12.2859ZM76.5533 5.93426C77.774 5.93426 78.8358 6.37932 79.7386 7.26945C79.7259 7.2313 79.7196 7.16772 79.7196 7.07871C79.7196 6.36661 80.101 6.01056 80.864 6.01056C81.22 6.01056 81.5062 6.125 81.7223 6.35389C81.9512 6.57006 82.0657 6.85617 82.0657 7.21222C82.0657 7.37753 82.0466 7.61914 82.0084 7.93704C81.9449 8.4584 81.9131 8.83352 81.9131 9.06241C81.9131 9.22772 81.9321 9.47568 81.9703 9.8063C82.0212 10.1242 82.0466 10.3658 82.0466 10.5311C82.0466 10.9253 81.9004 11.2432 81.6079 11.4848C81.3281 11.7264 80.9594 11.8472 80.5016 11.8472C79.5352 11.8472 79.0647 11.4467 79.0901 10.6456L79.1092 10.0543C79.1219 9.63463 78.9502 9.2913 78.5942 9.02426C78.2381 8.74451 77.7867 8.60463 77.2399 8.60463C75.536 8.60463 74.684 9.95253 74.684 12.6483C74.684 14.0471 74.8875 15.0707 75.2944 15.7193C75.714 16.3551 76.3752 16.673 77.2781 16.673C77.8376 16.673 78.2954 16.5458 78.6514 16.2915C79.0075 16.0244 79.1791 15.6811 79.1664 15.2615L79.1473 14.5748C79.1346 14.1806 79.2618 13.8627 79.5288 13.6211C79.7958 13.3795 80.1392 13.2587 80.5588 13.2587C81.0929 13.2587 81.5125 13.4367 81.8177 13.7928C82.1356 14.1488 82.2946 14.632 82.2946 15.2424C82.2946 16.4504 81.8113 17.4423 80.8449 18.218C79.8912 18.9809 78.6578 19.3624 77.1446 19.3624C75.288 19.3624 73.8193 18.7711 72.7384 17.5885C71.6703 16.4059 71.1362 14.791 71.1362 12.7437C71.1362 10.6328 71.6194 8.9734 72.5859 7.76537C73.5523 6.54463 74.8747 5.93426 76.5533 5.93426ZM86.7895 6.16315C87.1455 6.16315 87.3235 6.3984 87.3235 6.86889V15.8909C87.3235 16.5267 87.4507 16.8446 87.705 16.8446C87.8067 16.8446 87.8958 16.8319 87.972 16.8065C88.0483 16.781 88.1501 16.7683 88.2772 16.7683C88.8367 16.7683 89.1165 17.099 89.1165 17.7602C89.1165 18.6376 88.735 19.0763 87.972 19.0763C87.9593 19.0763 87.4761 19.0381 86.5224 18.9619C86.23 18.9364 85.9184 18.9237 85.5878 18.9237C85.308 18.9237 85.0092 18.9428 84.6913 18.9809C84.1572 19.0445 83.8203 19.0763 83.6804 19.0763C83.3371 19.0763 83.0573 18.9619 82.8411 18.733C82.625 18.4914 82.5169 18.1798 82.5169 17.7983C82.5169 17.0862 82.8284 16.7302 83.4515 16.7302C83.5278 16.7302 83.6295 16.7556 83.7567 16.8065C83.8966 16.8446 84.0046 16.8637 84.0809 16.8637C84.2971 16.8637 84.4052 16.5077 84.4052 15.7956V9.44389C84.4052 8.73179 84.2971 8.37574 84.0809 8.37574C83.9919 8.37574 83.8775 8.40117 83.7376 8.45204C83.6613 8.47747 83.5596 8.49019 83.4324 8.49019C82.8221 8.49019 82.5169 8.1405 82.5169 7.44111C82.5169 7.04692 82.625 6.73537 82.8411 6.50648C83.0573 6.27759 83.3498 6.16315 83.7185 6.16315C83.8203 6.16315 84.0364 6.18222 84.367 6.22037C84.7994 6.27124 85.1237 6.29667 85.3398 6.29667C85.6323 6.29667 85.8866 6.27124 86.1028 6.22037C86.3953 6.18222 86.6241 6.16315 86.7895 6.16315ZM98.1041 19.3243C97.0614 19.3243 96.362 18.9046 96.0059 18.0654C95.1158 18.9046 94.0604 19.3243 92.8396 19.3243C91.8351 19.3243 91.034 19.0636 90.4363 18.5422C89.8387 18.0081 89.5398 17.3024 89.5398 16.425C89.5398 15.0898 90.1184 14.2251 91.2756 13.8309C91.7715 13.6656 92.3437 13.5257 92.9922 13.4113C93.8951 13.2587 94.5055 13.087 94.8234 12.8963C95.154 12.6928 95.3193 12.3877 95.3193 11.9807C95.3193 11.6883 95.1921 11.4467 94.9378 11.2559C94.6962 11.0525 94.391 10.9507 94.0222 10.9507C93.6026 10.9507 93.3928 11.0843 93.3928 11.3513C93.3928 11.4403 93.3992 11.5293 93.4119 11.6183V11.6946C93.4119 12.0507 93.2593 12.3495 92.9541 12.5911C92.6616 12.8327 92.2929 12.9535 91.8478 12.9535C91.3392 12.9535 90.9195 12.8009 90.5889 12.4957C90.2583 12.1906 90.093 11.8091 90.093 11.3513C90.093 10.6646 90.4554 10.1242 91.1802 9.73C91.905 9.3358 92.9032 9.13871 94.1748 9.13871C95.5482 9.13871 96.5718 9.34852 97.2458 9.76815C97.9706 10.2259 98.333 11.0779 98.333 12.3241V16.2724C98.333 16.6793 98.4347 16.8828 98.6382 16.8828C98.7399 16.8828 98.8353 16.8764 98.9243 16.8637C98.9624 16.851 99.0069 16.8446 99.0578 16.8446C99.3503 16.8446 99.5982 16.9464 99.8017 17.1498C100.005 17.3533 100.107 17.6012 100.107 17.8937C100.107 18.3133 99.9161 18.6567 99.5346 18.9237C99.1659 19.1907 98.689 19.3243 98.1041 19.3243ZM95.3384 15.2424V14.8228C95.2493 14.8736 94.6898 15.0326 93.6598 15.2996C92.9605 15.4777 92.6108 15.751 92.6108 16.1198C92.6108 16.7048 92.9541 16.9972 93.6408 16.9972C94.7725 16.9972 95.3384 16.4123 95.3384 15.2424ZM104.264 9.99704V11.6183C104.442 10.9698 104.652 10.493 104.893 10.1878C105.453 9.4884 106.235 9.13871 107.24 9.13871C107.939 9.13871 108.524 9.36759 108.994 9.82537C109.478 10.2704 109.719 10.8236 109.719 11.4848C109.719 12.0062 109.567 12.4385 109.261 12.7819C108.956 13.1125 108.568 13.2778 108.098 13.2778C107.742 13.2778 107.437 13.1633 107.182 12.9344C106.941 12.7056 106.82 12.4258 106.82 12.0952C106.82 11.9172 106.903 11.6692 107.068 11.3513H106.953C106.101 11.3513 105.529 11.8027 105.237 12.7056C105.008 13.4304 104.893 14.2633 104.893 15.2043V15.9291C104.893 16.3869 104.932 16.6793 105.008 16.8065C105.059 16.8828 105.148 16.9209 105.275 16.9209C105.389 16.9209 105.548 16.8955 105.752 16.8446C105.955 16.7938 106.108 16.7683 106.21 16.7683C106.489 16.7683 106.725 16.8701 106.915 17.0735C107.119 17.2643 107.22 17.4995 107.22 17.7793C107.22 18.148 107.093 18.4596 106.839 18.7139C106.597 18.9555 106.299 19.0763 105.942 19.0763C105.752 19.0763 105.396 19.0445 104.874 18.9809C104.556 18.9428 104.156 18.9237 103.673 18.9237C103.189 18.9237 102.763 18.9428 102.395 18.9809C101.784 19.0445 101.409 19.0763 101.269 19.0763C100.481 19.0763 100.087 18.6503 100.087 17.7983C100.087 17.0862 100.392 16.7302 101.002 16.7302C101.104 16.7302 101.218 16.7556 101.346 16.8065C101.473 16.8446 101.568 16.8637 101.632 16.8637C101.848 16.8637 101.956 16.5077 101.956 15.7956V12.7056C101.956 11.9807 101.848 11.6183 101.632 11.6183C101.581 11.6183 101.479 11.6438 101.327 11.6946C101.187 11.7328 101.079 11.7519 101.002 11.7519C100.392 11.7519 100.087 11.4022 100.087 10.7028C100.087 10.3213 100.188 10.0098 100.392 9.76815C100.595 9.52654 100.856 9.40574 101.174 9.40574C101.301 9.40574 101.479 9.43117 101.708 9.48204C101.937 9.5329 102.153 9.55833 102.357 9.55833C102.509 9.55833 102.732 9.5329 103.024 9.48204C103.317 9.43117 103.533 9.40574 103.673 9.40574C104.067 9.40574 104.264 9.60284 104.264 9.99704ZM114.139 6.88796V13.3731L115.035 12.5911C115.111 12.5275 115.258 12.4004 115.474 12.2096C115.817 11.9172 115.989 11.6883 115.989 11.523C115.989 11.4212 115.932 11.3195 115.817 11.2178L115.512 10.9317C115.347 10.7791 115.264 10.5629 115.264 10.2831C115.264 9.69821 115.595 9.40574 116.256 9.40574C116.485 9.40574 116.834 9.43117 117.305 9.48204C117.775 9.5329 118.131 9.55833 118.373 9.55833C118.742 9.55833 119.2 9.5329 119.746 9.48204C120.293 9.43117 120.579 9.40574 120.605 9.40574C121.355 9.40574 121.73 9.78722 121.73 10.5502C121.73 11.2877 121.438 11.6565 120.853 11.6565C120.738 11.6565 120.598 11.6374 120.433 11.5993C120.268 11.5611 120.141 11.542 120.052 11.542C119.874 11.542 119.594 11.6819 119.212 11.9617L118.411 12.553C118.081 12.7946 117.915 12.9853 117.915 13.1252C117.915 13.1888 117.941 13.2587 117.992 13.335L118.163 13.583L119.651 15.9291C120.058 16.5776 120.382 16.9019 120.624 16.9019C120.7 16.9019 120.802 16.8828 120.929 16.8446C121.196 16.8065 121.33 16.7874 121.33 16.7874C121.902 16.7874 122.188 17.1498 122.188 17.8746C122.188 18.6757 121.813 19.0763 121.063 19.0763C120.859 19.0763 120.554 19.0509 120.147 19C119.74 18.9491 119.435 18.9237 119.231 18.9237C118.888 18.9237 118.551 18.9491 118.22 19C117.89 19.0509 117.648 19.0763 117.496 19.0763C117.241 19.0763 117.019 18.9746 116.828 18.7711C116.637 18.5677 116.542 18.326 116.542 18.0463C116.542 17.8937 116.618 17.6712 116.771 17.3787C116.86 17.2515 116.904 17.1307 116.904 17.0163C116.904 16.8637 116.765 16.5903 116.485 16.1961L115.855 15.3187C115.614 14.9881 115.467 14.8228 115.417 14.8228C115.289 14.8228 115.092 14.9436 114.825 15.1852L114.139 15.8146V16.1961C114.139 16.6793 114.24 16.9209 114.444 16.9209C114.52 16.9209 114.628 16.9019 114.768 16.8637C114.908 16.8256 115.022 16.8065 115.111 16.8065C115.633 16.8065 115.893 17.1117 115.893 17.722C115.893 18.6249 115.531 19.0763 114.806 19.0763C114.628 19.0763 114.355 19.0509 113.986 19C113.617 18.9491 113.077 18.9237 112.365 18.9237C111.971 18.9237 111.64 18.9428 111.373 18.9809C110.941 19.0445 110.648 19.0763 110.495 19.0763C110.152 19.0763 109.872 18.9619 109.656 18.733C109.44 18.4914 109.332 18.1862 109.332 17.8174C109.332 17.0926 109.644 16.7302 110.267 16.7302C110.254 16.7302 110.413 16.7683 110.743 16.8446C110.794 16.8573 110.839 16.8637 110.877 16.8637C111.106 16.8637 111.22 16.5077 111.22 15.7956V9.44389C111.22 8.73179 111.112 8.37574 110.896 8.37574C110.807 8.37574 110.693 8.40117 110.553 8.45204C110.476 8.47747 110.375 8.49019 110.248 8.49019C109.637 8.49019 109.332 8.1405 109.332 7.44111C109.332 6.58914 109.739 6.16315 110.553 6.16315C110.756 6.16315 110.941 6.17587 111.106 6.2013C111.513 6.26488 111.831 6.29667 112.06 6.29667C112.238 6.29667 112.517 6.27124 112.899 6.22037C113.191 6.18222 113.401 6.16315 113.528 6.16315C113.935 6.16315 114.139 6.40475 114.139 6.88796ZM135.992 13.4113C135.992 13.9454 135.922 14.3014 135.782 14.4794C135.655 14.6575 135.394 14.7465 135 14.7465H130.346C130.117 14.7465 129.971 14.7719 129.907 14.8228C129.856 14.8609 129.831 14.969 129.831 15.147C129.831 15.6811 130.003 16.1262 130.346 16.4822C130.689 16.8383 131.122 17.0163 131.643 17.0163C132.177 17.0163 132.724 16.7238 133.283 16.1389C133.665 15.732 134.084 15.5285 134.542 15.5285C134.924 15.5285 135.229 15.6366 135.458 15.8528C135.699 16.069 135.82 16.3423 135.82 16.673C135.82 17.4105 135.413 18.0399 134.599 18.5613C133.798 19.0699 132.819 19.3243 131.662 19.3243C130.149 19.3243 128.941 18.8665 128.038 17.9509C127.135 17.0354 126.684 15.8146 126.684 14.2887C126.684 12.7501 127.129 11.5102 128.019 10.5693C128.922 9.61556 130.098 9.13871 131.548 9.13871C132.895 9.13871 133.97 9.52654 134.771 10.3022C135.585 11.0779 135.992 12.1143 135.992 13.4113ZM129.926 12.4576C129.926 12.5339 129.945 12.5975 129.983 12.6483C130.022 12.6992 130.155 12.7246 130.384 12.7246H132.52C132.711 12.7246 132.826 12.7056 132.864 12.6674C132.915 12.6165 132.94 12.5339 132.94 12.4194C132.94 12.0888 132.794 11.8027 132.501 11.5611C132.209 11.3068 131.865 11.1796 131.471 11.1796C130.963 11.1796 130.549 11.3767 130.231 11.7709C130.028 12.0252 129.926 12.2541 129.926 12.4576ZM138.926 15.8909L140.185 14.117L138.754 12.2478C138.449 11.8409 138.176 11.6374 137.934 11.6374C137.871 11.6374 137.763 11.6501 137.61 11.6756C137.47 11.701 137.368 11.7137 137.305 11.7137C137.063 11.7137 136.86 11.6183 136.694 11.4276C136.529 11.2241 136.446 10.9762 136.446 10.6837C136.446 10.3149 136.548 10.0098 136.752 9.76815C136.968 9.52654 137.241 9.40574 137.572 9.40574C137.763 9.40574 138.049 9.43117 138.43 9.48204C138.824 9.5329 139.123 9.55833 139.327 9.55833C139.517 9.55833 139.886 9.52654 140.433 9.46297C140.764 9.42482 141.018 9.40574 141.196 9.40574C141.933 9.40574 142.302 9.75543 142.302 10.4548C142.302 10.7091 142.181 10.9444 141.94 11.1606C141.825 11.2623 141.768 11.3577 141.768 11.4467C141.768 11.5865 141.863 11.8091 142.054 12.1143L142.646 13.0489L143.313 12.1143C143.466 11.8981 143.542 11.7201 143.542 11.5802C143.542 11.4785 143.459 11.3831 143.294 11.2941C143.002 11.1415 142.855 10.8935 142.855 10.5502C142.855 9.78722 143.211 9.40574 143.923 9.40574C144.102 9.40574 144.337 9.42482 144.629 9.46297C145.112 9.52654 145.424 9.55833 145.564 9.55833C145.678 9.55833 145.964 9.5329 146.422 9.48204C146.88 9.43117 147.166 9.40574 147.281 9.40574C147.611 9.40574 147.878 9.51383 148.082 9.73C148.298 9.93346 148.406 10.2069 148.406 10.5502C148.406 10.8427 148.317 11.1033 148.139 11.3322C147.974 11.5611 147.789 11.6756 147.586 11.6756C147.522 11.6756 147.42 11.6692 147.281 11.6565C147.141 11.6311 147.039 11.6183 146.975 11.6183C146.797 11.6183 146.632 11.7201 146.479 11.9235L146.231 12.2478L144.953 14.0026L146.537 16.2915C146.778 16.6348 146.988 16.8065 147.166 16.8065C147.23 16.8065 147.319 16.7938 147.433 16.7683C147.548 16.7429 147.637 16.7302 147.7 16.7302C147.98 16.7302 148.202 16.8319 148.368 17.0354C148.546 17.2388 148.635 17.5059 148.635 17.8365C148.635 18.6503 148.222 19.0572 147.395 19.0572C147.242 19.0572 147.02 19.0381 146.727 19C146.244 18.9364 145.882 18.9046 145.64 18.9046C145.437 18.9046 145.138 18.9301 144.744 18.9809C144.362 19.0318 144.07 19.0572 143.866 19.0572C143.548 19.0572 143.281 18.9491 143.065 18.733C142.849 18.5168 142.741 18.2498 142.741 17.9319C142.741 17.6902 142.862 17.4804 143.103 17.3024C143.345 17.1244 143.466 16.9845 143.466 16.8828C143.466 16.7429 143.351 16.5077 143.122 16.177L142.531 15.3378L141.768 16.4059C141.59 16.6602 141.501 16.8383 141.501 16.94C141.501 17.0672 141.622 17.1943 141.863 17.3215C142.105 17.4359 142.226 17.6394 142.226 17.9319C142.226 18.6694 141.832 19.0381 141.043 19.0381C140.865 19.0381 140.592 19.0254 140.223 19C139.867 18.9619 139.6 18.9428 139.422 18.9428C139.295 18.9428 138.837 18.9746 138.049 19.0381C137.807 19.0636 137.597 19.0763 137.419 19.0763C136.644 19.0763 136.256 18.6694 136.256 17.8556C136.256 17.5377 136.338 17.277 136.504 17.0735C136.682 16.8701 136.911 16.7683 137.19 16.7683C137.267 16.7683 137.381 16.781 137.534 16.8065C137.686 16.8319 137.801 16.8446 137.877 16.8446C138.068 16.8446 138.29 16.6857 138.545 16.3678L138.926 15.8909ZM153.026 9.40574C153.382 9.40574 153.56 9.65371 153.56 10.1496V15.8909C153.56 16.5394 153.681 16.8637 153.922 16.8637C153.973 16.8637 154.062 16.851 154.189 16.8256C154.329 16.7874 154.444 16.7683 154.533 16.7683C155.067 16.7683 155.334 17.099 155.334 17.7602C155.334 18.6376 154.959 19.0763 154.208 19.0763C154.081 19.0763 153.725 19.0445 153.14 18.9809C152.784 18.9428 152.377 18.9237 151.92 18.9237C151.691 18.9237 151.354 18.9491 150.909 19C150.464 19.0509 150.133 19.0763 149.917 19.0763C149.573 19.0763 149.294 18.9619 149.077 18.733C148.861 18.4914 148.753 18.1862 148.753 17.8174C148.753 17.0926 149.058 16.7302 149.669 16.7302C149.669 16.7302 149.834 16.7683 150.165 16.8446C150.216 16.8573 150.26 16.8637 150.298 16.8637C150.527 16.8637 150.642 16.5077 150.642 15.7956V12.7056C150.642 11.9807 150.533 11.6183 150.317 11.6183C150.279 11.6183 150.165 11.6501 149.974 11.7137C149.847 11.7391 149.745 11.7519 149.669 11.7519C149.058 11.7519 148.753 11.3958 148.753 10.6837C148.753 10.3022 148.861 9.99704 149.077 9.76815C149.294 9.52654 149.58 9.40574 149.936 9.40574C150.076 9.40574 150.279 9.42482 150.546 9.46297C150.991 9.52654 151.347 9.55833 151.614 9.55833C151.831 9.55833 152.11 9.5329 152.454 9.48204C152.797 9.43117 152.988 9.40574 153.026 9.40574ZM151.939 8.68093C151.468 8.68093 151.061 8.50926 150.718 8.16593C150.375 7.82259 150.203 7.41568 150.203 6.94519C150.203 6.46198 150.368 6.05506 150.699 5.72445C151.042 5.38111 151.455 5.20945 151.939 5.20945C152.422 5.20945 152.829 5.38111 153.159 5.72445C153.503 6.05506 153.674 6.46198 153.674 6.94519C153.674 7.4284 153.503 7.84167 153.159 8.185C152.829 8.51562 152.422 8.68093 151.939 8.68093ZM159.362 9.13871C160.341 9.13871 161.168 9.4121 161.842 9.95889C161.893 9.42482 162.236 9.15778 162.872 9.15778C163.52 9.15778 163.845 9.38667 163.845 9.84445C163.845 9.99704 163.819 10.1687 163.768 10.3594C163.73 10.5883 163.711 10.8045 163.711 11.008C163.711 11.0461 163.717 11.1478 163.73 11.3131C163.73 11.4785 163.73 11.6247 163.73 11.7519V11.8281C163.73 12.5021 163.393 12.8391 162.719 12.8391C162.236 12.8391 161.816 12.5975 161.46 12.1143C161.028 11.5293 160.5 11.2369 159.877 11.2369C159.14 11.2369 158.771 11.4912 158.771 11.9998C158.771 12.2669 158.892 12.4576 159.133 12.572C159.375 12.6738 160.011 12.8136 161.041 12.9917C161.88 13.1443 162.497 13.3159 162.891 13.5067C163.298 13.6974 163.628 13.9708 163.883 14.3269C164.201 14.7846 164.36 15.3187 164.36 15.9291C164.36 16.8955 163.984 17.703 163.234 18.3515C162.497 19 161.568 19.3243 160.449 19.3243C159.33 19.3243 158.313 18.9682 157.398 18.2561C157.398 18.8792 157.08 19.1907 156.444 19.1907C155.757 19.1907 155.414 18.911 155.414 18.3515C155.414 18.2243 155.427 18.0272 155.452 17.7602C155.477 17.4931 155.49 17.296 155.49 17.1689C155.49 17.0544 155.477 16.8828 155.452 16.6539C155.439 16.425 155.433 16.2533 155.433 16.1389C155.433 15.5667 155.789 15.2806 156.501 15.2806C156.844 15.2806 157.105 15.3314 157.283 15.4331C157.461 15.5349 157.652 15.732 157.855 16.0244C158.173 16.4949 158.466 16.8065 158.733 16.9591C159 17.099 159.394 17.1689 159.915 17.1689C160.831 17.1689 161.289 16.8828 161.289 16.3106C161.289 15.9164 160.92 15.643 160.182 15.4904L159.076 15.2615C158.173 15.0707 157.531 14.88 157.15 14.6893C156.781 14.4985 156.488 14.1997 156.272 13.7928C156.056 13.3731 155.948 12.8963 155.948 12.3622C155.948 11.4085 156.259 10.6328 156.883 10.0352C157.518 9.43753 158.345 9.13871 159.362 9.13871ZM169.027 12.0189V12.8009L169.008 13.9835L168.97 15.2615C168.957 15.6811 168.951 15.8528 168.951 15.7765C168.951 16.5267 169.192 16.9019 169.676 16.9019C170.133 16.9019 170.362 16.5649 170.362 15.8909C170.362 15.7892 170.356 15.7129 170.343 15.662C170.343 15.5985 170.343 15.5158 170.343 15.4141C170.33 15.3251 170.324 15.2615 170.324 15.2233C170.324 14.5367 170.667 14.1933 171.354 14.1933C172.155 14.1933 172.556 14.8355 172.556 16.1198C172.556 17.1244 172.257 17.9128 171.659 18.485C171.062 19.0445 170.229 19.3243 169.161 19.3243C167.062 19.3243 166.013 18.218 166.013 16.0054C166.013 15.6493 166.026 15.1152 166.051 14.4031C166.09 13.6911 166.109 13.157 166.109 12.8009V12.1906C166.109 11.8727 166.077 11.6756 166.013 11.5993C165.962 11.5102 165.829 11.4657 165.613 11.4657H165.308C165.066 11.4657 164.869 11.3767 164.716 11.1987C164.564 11.008 164.487 10.7664 164.487 10.4739C164.487 10.1814 164.564 9.93346 164.716 9.73C164.882 9.51383 165.072 9.40574 165.288 9.40574H165.651C165.956 9.40574 166.134 9.31673 166.185 9.13871C166.223 9.03698 166.242 8.86531 166.242 8.62371V7.68908C166.242 7.24401 166.357 6.93883 166.586 6.77352C166.827 6.60821 167.259 6.52556 167.883 6.52556C168.328 6.52556 168.626 6.58914 168.779 6.7163C168.944 6.84346 169.027 7.12321 169.027 7.55556V8.58556C169.027 8.95432 169.059 9.18321 169.122 9.27222C169.199 9.36124 169.383 9.40574 169.676 9.40574H171.049C171.799 9.40574 172.174 9.75543 172.174 10.4548C172.174 11.1288 171.831 11.4657 171.144 11.4657H169.58C169.313 11.4657 169.154 11.5102 169.103 11.5993C169.052 11.6883 169.027 11.8281 169.027 12.0189ZM176.761 9.13871C177.74 9.13871 178.566 9.4121 179.24 9.95889C179.291 9.42482 179.635 9.15778 180.27 9.15778C180.919 9.15778 181.243 9.38667 181.243 9.84445C181.243 9.99704 181.218 10.1687 181.167 10.3594C181.129 10.5883 181.11 10.8045 181.11 11.008C181.11 11.0461 181.116 11.1478 181.129 11.3131C181.129 11.4785 181.129 11.6247 181.129 11.7519V11.8281C181.129 12.5021 180.792 12.8391 180.118 12.8391C179.635 12.8391 179.215 12.5975 178.859 12.1143C178.427 11.5293 177.899 11.2369 177.276 11.2369C176.538 11.2369 176.169 11.4912 176.169 11.9998C176.169 12.2669 176.29 12.4576 176.532 12.572C176.773 12.6738 177.409 12.8136 178.439 12.9917C179.279 13.1443 179.895 13.3159 180.289 13.5067C180.696 13.6974 181.027 13.9708 181.281 14.3269C181.599 14.7846 181.758 15.3187 181.758 15.9291C181.758 16.8955 181.383 17.703 180.633 18.3515C179.895 19 178.967 19.3243 177.848 19.3243C176.729 19.3243 175.712 18.9682 174.796 18.2561C174.796 18.8792 174.478 19.1907 173.842 19.1907C173.156 19.1907 172.812 18.911 172.812 18.3515C172.812 18.2243 172.825 18.0272 172.851 17.7602C172.876 17.4931 172.889 17.296 172.889 17.1689C172.889 17.0544 172.876 16.8828 172.851 16.6539C172.838 16.425 172.831 16.2533 172.831 16.1389C172.831 15.5667 173.188 15.2806 173.9 15.2806C174.243 15.2806 174.504 15.3314 174.682 15.4331C174.86 15.5349 175.05 15.732 175.254 16.0244C175.572 16.4949 175.864 16.8065 176.131 16.9591C176.398 17.099 176.793 17.1689 177.314 17.1689C178.229 17.1689 178.687 16.8828 178.687 16.3106C178.687 15.9164 178.318 15.643 177.581 15.4904L176.475 15.2615C175.572 15.0707 174.93 14.88 174.548 14.6893C174.179 14.4985 173.887 14.1997 173.671 13.7928C173.455 13.3731 173.346 12.8963 173.346 12.3622C173.346 11.4085 173.658 10.6328 174.281 10.0352C174.917 9.43753 175.743 9.13871 176.761 9.13871ZM187.341 19.3243C186.845 19.3243 186.419 19.1462 186.063 18.7902C185.72 18.4341 185.548 18.0081 185.548 17.5122C185.548 17.0163 185.72 16.5903 186.063 16.2343C186.419 15.8782 186.845 15.7002 187.341 15.7002C187.837 15.7002 188.263 15.8782 188.619 16.2343C188.975 16.5903 189.153 17.0163 189.153 17.5122C189.153 18.0081 188.975 18.4341 188.619 18.7902C188.263 19.1462 187.837 19.3243 187.341 19.3243ZM187.818 8.45204C187.119 8.45204 186.578 8.62371 186.197 8.96704C186.591 9.28494 186.788 9.64099 186.788 10.0352C186.788 10.5311 186.597 10.9571 186.216 11.3131C185.834 11.6565 185.377 11.8281 184.842 11.8281C184.258 11.8281 183.781 11.6374 183.412 11.2559C183.043 10.8617 182.859 10.3531 182.859 9.73C182.859 8.63642 183.361 7.73358 184.366 7.02148C185.37 6.29667 186.642 5.93426 188.18 5.93426C189.681 5.93426 190.889 6.30303 191.805 7.04056C192.72 7.77809 193.178 8.75087 193.178 9.95889C193.178 10.493 193.063 11.0143 192.835 11.523C192.618 12.0189 192.326 12.4004 191.957 12.6674C191.474 13.0362 190.717 13.335 189.687 13.5639C189.382 13.6275 189.185 13.7038 189.096 13.7928C189.007 13.8818 188.956 14.0344 188.943 14.2506C188.931 14.6066 188.861 14.8355 188.734 14.9372C188.606 15.039 188.327 15.1025 187.894 15.128L187.36 15.1661C187.36 15.1661 187.297 15.1661 187.17 15.1661C186.674 15.1661 186.33 15.0707 186.14 14.88C185.949 14.6765 185.853 14.3205 185.853 13.8119C185.853 13.1633 186 12.6865 186.292 12.3813C186.597 12.0634 187.15 11.8154 187.952 11.6374C189.198 11.3577 189.821 10.8109 189.821 9.99704C189.821 9.53926 189.636 9.1705 189.268 8.89074C188.899 8.59827 188.416 8.45204 187.818 8.45204Z" fill="black"/>
<path d="M208.071 7.86298C208.274 9.42896 207.018 10.8824 207.018 10.8824C207.018 10.8824 205.432 9.79709 205.229 8.23111C205.026 6.66418 206.282 5.21073 206.282 5.21073C206.282 5.21073 207.867 6.29796 208.071 7.86298ZM209.562 13.1265C208.898 14.5599 207.059 15.1226 207.059 15.1226C207.059 15.1226 206.296 13.3611 206.96 11.9277C207.624 10.4943 209.463 9.93061 209.463 9.93061C209.463 9.93061 210.225 11.6931 209.562 13.1265ZM208.779 18.1668C207.512 19.1138 205.626 18.7381 205.626 18.7381C205.626 18.7381 205.794 16.8259 207.06 15.8789C208.327 14.9318 210.213 15.3076 210.213 15.3076C210.213 15.3076 210.045 17.2198 208.779 18.1668ZM205.337 22.2658C203.901 22.9315 202.133 22.1752 202.133 22.1752C202.133 22.1752 202.693 20.3393 204.128 19.6727C205.564 19.007 207.332 19.7643 207.332 19.7643C207.332 19.7643 206.772 21.6001 205.337 22.2658ZM203.746 4.38864C204.9 5.46919 204.856 7.38709 204.856 7.38709C204.856 7.38709 202.939 7.55494 201.785 6.47439C200.631 5.39385 200.675 3.47499 200.675 3.47499C200.675 3.47499 202.592 3.3081 203.746 4.38864Z" stroke="black" stroke-width="1.43056" stroke-linecap="round" stroke-linejoin="round"/>
</svg>
