<svg width="21" height="30" viewBox="0 0 21 30" fill="none" xmlns="http://www.w3.org/2000/svg">
<path d="M5.68181 18.1299C5.68181 16.3749 6.99806 15.1902 9.36731 15.0147L12.4605 14.7734V14.4882C12.4605 13.0184 11.6708 12.2726 10.1351 12.2726C8.55563 12.2726 7.65619 12.9526 7.65619 14.1372H5.98894C5.98894 12.0971 7.65619 10.7589 10.2009 10.7589C12.8115 10.7589 14.3252 12.1848 14.3252 14.6857V18.5028C14.3252 19.3584 14.742 19.7752 15.5756 19.7752C16.9138 19.7752 17.8352 18.1079 17.8352 15.6509C17.8352 11.3073 14.6543 8.21412 10.179 8.21412C5.7915 8.21412 2.43506 11.6144 2.43506 16.0458C2.43506 20.543 5.76956 23.9433 10.179 23.9433C11.9121 23.9433 13.5793 23.3729 14.9614 22.3199L15.6634 23.5046C14.1058 24.6892 12.2192 25.3034 10.179 25.3034C4.93594 25.3034 0.96525 21.3327 0.96525 16.0458C0.96525 10.8247 4.95788 6.854 10.179 6.854C15.4879 6.854 19.305 10.5395 19.305 15.6509C19.305 18.8757 17.7036 21.0914 15.3563 21.0914C13.8426 21.0914 12.8993 20.4114 12.6799 19.1609C12.1534 20.3456 10.7713 21.0914 9.126 21.0914C6.99806 21.0914 5.68181 19.9507 5.68181 18.1299ZM7.59038 18.0641C7.59038 19.0732 8.29238 19.5997 9.58669 19.5997C11.3856 19.5997 12.4824 18.4809 12.4824 16.6162V16.1116L9.95963 16.331C8.33625 16.4626 7.59038 17.033 7.59038 18.0641Z" fill="#FF3D00"/>
</svg>
