<svg width="58" height="58" viewBox="0 0 58 58" fill="none" xmlns="http://www.w3.org/2000/svg">
<g clip-path="url(#clip0_2367_9117)">
<path d="M17.3488 46.0005C16.8031 45.6419 16.6015 44.9436 16.8172 44.3273C17.5048 42.3632 17.8777 40.0388 17.9355 37.3546C18.024 34.144 17.403 30.704 16.0728 27.0344C14.9289 23.823 13.4259 21.1579 11.5637 19.0395C11.1226 18.5378 11.0436 17.8024 11.4104 17.2441C11.7701 16.6968 12.4578 16.4731 13.0828 16.6687C15.7293 17.4968 18.5548 17.8745 21.5592 17.8019C25.0177 17.7092 28.3029 17.0295 31.4147 15.7628C34.1769 14.6279 36.4827 13.2256 38.332 11.5557C38.8165 11.1182 39.536 11.0359 40.0816 11.3944C40.6332 11.7568 40.8407 12.4607 40.6234 13.084C40.1327 14.4912 39.7939 16.0389 39.607 17.7272C39.3916 19.8221 39.4409 22.0048 39.7551 24.2756C40.1189 26.5361 40.7219 28.7601 41.5637 30.9476C42.675 33.7893 44.1089 36.2149 45.8659 38.2248C46.2969 38.7179 46.3704 39.4384 46.0108 39.9856C45.6458 40.5411 44.9411 40.7558 44.3089 40.5507C42.701 40.0289 40.9027 39.7097 38.9146 39.5931C36.5012 39.4695 34.0799 39.6201 31.6502 40.0449C29.2405 40.4397 27.0518 41.0872 25.0839 41.9873C22.6381 43.1081 20.6425 44.3859 19.0972 45.8214C18.6178 46.2667 17.8953 46.3596 17.3488 46.0005Z" fill="white"/>
</g>
<defs>
<clipPath id="clip0_2367_9117">
<rect width="41.4049" height="41.4049" fill="white" transform="translate(22.7422) rotate(33.3105)"/>
</clipPath>
</defs>
</svg>
