<svg width="64" height="64" viewBox="0 0 64 64" fill="none" xmlns="http://www.w3.org/2000/svg">
<path d="M48 25.5996C48 34.4362 40.8366 41.5996 32 41.5996C23.1634 41.5996 16 34.4362 16 25.5996C16 16.7631 23.1634 9.59961 32 9.59961C40.8366 9.59961 48 16.7631 48 25.5996Z" fill="#FFDB01"/>
<path d="M38.4 39.9996V51.1996C38.4 52.9669 36.9673 54.3996 35.2 54.3996H28.8C27.0327 54.3996 25.6 52.9669 25.6 51.1996V39.9996M48 25.5996C48 34.4362 40.8366 41.5996 32 41.5996C23.1634 41.5996 16 34.4362 16 25.5996C16 16.7631 23.1634 9.59961 32 9.59961C40.8366 9.59961 48 16.7631 48 25.5996Z" stroke="#FFDB01" stroke-width="5.33333"/>
</svg>
