<svg width="107" height="78" viewBox="0 0 107 78" fill="none" xmlns="http://www.w3.org/2000/svg">
<path d="M20.9873 -13.7344L53.0107 43.683" stroke="#FF3D00" stroke-width="5"/>
<path d="M98.7058 35.5852C102.194 35.4635 105.12 38.1929 105.242 41.6812L106.146 67.5648C106.268 71.053 103.539 73.9799 100.051 74.1018L9.47619 77.2647C5.98787 77.3866 3.06096 74.6572 2.93915 71.1688L2.03527 45.2852C1.91346 41.7969 4.64285 38.87 8.13116 38.7482L98.7058 35.5852ZM52.8185 38.1883C51.1627 38.2461 49.8672 39.6353 49.9251 41.2911C49.9829 42.947 51.3721 44.2424 53.0279 44.1846C54.6838 44.1268 55.9792 42.7376 55.9214 41.0817C55.8636 39.4259 54.4744 38.1304 52.8185 38.1883Z" fill="black"/>
<path d="M36.2567 66.7348C34.6814 66.8449 33.2886 66.6021 32.0781 66.0062C30.8814 65.3945 29.9159 64.493 29.1817 63.3017C28.4611 62.0945 28.0417 60.6445 27.9233 58.9514C27.8059 57.2731 28.0274 55.7856 28.5876 54.4889C29.1626 53.1912 30.0222 52.1547 31.1663 51.3793C32.3104 50.604 33.6627 50.1618 35.2233 50.0526C36.5041 49.9631 37.6689 50.1183 38.7177 50.5184C39.7665 50.9185 40.652 51.5223 41.3742 52.3299C42.0953 53.1227 42.5849 54.0945 42.8429 55.2452L39.8617 55.4536C39.5161 54.531 38.9425 53.8388 38.1409 53.377C37.353 52.8995 36.4143 52.6989 35.3249 52.7751C34.3532 52.843 33.5153 53.1309 32.8111 53.6388C32.1216 54.1456 31.6075 54.8325 31.2687 55.6995C30.9298 56.5664 30.8011 57.5814 30.8824 58.7445C30.9607 59.8634 31.2284 60.8359 31.6856 61.6619C32.1418 62.4733 32.747 63.0893 33.5014 63.51C34.2694 63.9149 35.1392 64.0834 36.1109 64.0154C37.2151 63.9382 38.1387 63.6074 38.882 63.0228C39.6399 62.4372 40.12 61.6861 40.3222 60.7695L43.2592 60.5642C43.1314 61.6974 42.7513 62.7152 42.1191 63.6175C41.5016 64.5187 40.6867 65.2415 39.6743 65.7857C38.6767 66.3288 37.5375 66.6452 36.2567 66.7348ZM48.3819 65.6206L45.7098 65.8075L44.5609 49.3775L47.233 49.1907L48.3819 65.6206ZM54.4743 65.4831C53.326 65.5634 52.3916 65.318 51.6711 64.7471C50.9644 64.1603 50.5755 63.359 50.5044 62.3432C50.4344 61.3421 50.7248 60.5229 51.3756 59.8856C52.04 59.2326 53.0164 58.8093 54.3048 58.6156L57.5546 58.1221L57.5376 57.8792C57.5026 57.3786 57.3791 56.9878 57.1671 56.7068C56.9688 56.4099 56.6958 56.2071 56.3479 56.0983C55.999 55.9748 55.5963 55.9289 55.1399 55.9609C54.3449 56.0164 53.7453 56.2211 53.341 56.5749C52.9357 56.9139 52.7531 57.3705 52.7932 57.9446L50.4966 58.1052C50.441 57.3102 50.5919 56.6118 50.9492 56.0098C51.3203 55.3921 51.8625 54.8955 52.576 54.5202C53.3042 54.1438 54.1541 53.9216 55.1257 53.8537C56.1121 53.7847 56.971 53.9022 57.7024 54.2061C58.4327 54.4953 59.0135 54.9725 59.4446 55.6377C59.8748 56.2881 60.1254 57.1213 60.1964 58.1371L60.6597 64.7621L58.2967 64.9273L57.9853 63.3291C57.7888 63.905 57.3644 64.3933 56.7118 64.794C56.074 65.1937 55.3282 65.4234 54.4743 65.4831ZM55.1935 63.3912C56.0327 63.3325 56.6787 63.0506 57.1316 62.5455C57.5992 62.0394 57.8037 61.3668 57.745 60.5276L57.7048 59.9535L55.4426 60.2892C54.6086 60.4215 54.0247 60.6398 53.6909 60.9443C53.3561 61.234 53.2042 61.5997 53.235 62.0413C53.269 62.5272 53.4567 62.8839 53.7981 63.1115C54.1395 63.3391 54.6046 63.4324 55.1935 63.3912ZM69.3863 53.145L69.5607 55.6404L68.567 55.7099C67.5806 55.7789 66.8262 56.0979 66.3038 56.667C65.7804 57.2214 65.5558 58.0286 65.6299 59.0886L66.0005 64.3886L63.3064 64.577L62.5451 53.6899L65.0846 53.5123L65.463 55.7494L65.198 55.7679C65.2948 55.0362 65.5996 54.4232 66.1124 53.9287C66.6252 53.4342 67.3159 53.1566 68.1845 53.0959C68.3759 53.0825 68.5678 53.0765 68.7602 53.0778C68.9526 53.0791 69.1613 53.1015 69.3863 53.145ZM74.692 63.7808L72.0199 63.9677L70.871 47.5377L73.5431 47.3509L74.2488 57.4429L78.1692 52.5752L81.5479 52.3389L77.6989 56.9576L82.2224 63.2542L79.1308 63.4704L75.9608 59.0763L74.4866 60.8437L74.692 63.7808Z" fill="#FF3D00"/>
<path d="M50.495 43.2721L85.8586 15.069C92.4019 9.85058 97.8957 3.43816 102.049 -3.82813V-3.82813" stroke="#FF3D00" stroke-width="5"/>
<circle cx="52.4413" cy="41.7038" r="3.5" transform="rotate(-2 52.4413 41.7038)" fill="white"/>
<circle cx="52.3588" cy="41.9808" r="1.75" transform="rotate(-2 52.3588 41.9808)" fill="black"/>
</svg>
