<svg width="71" height="70" viewBox="0 0 71 70" fill="none" xmlns="http://www.w3.org/2000/svg">
<rect x="0.7" y="0.2" width="69.6" height="69.6" rx="34.8" fill="#191919"/>
<rect x="0.7" y="0.2" width="69.6" height="69.6" rx="34.8" stroke="#FF3D00" stroke-width="0.4"/>
<mask id="mask0_2367_9113" style="mask-type:alpha" maskUnits="userSpaceOnUse" x="10" y="10" width="51" height="50">
<circle cx="35.5" cy="35" r="25" fill="#D9D9D9"/>
</mask>
<g mask="url(#mask0_2367_9113)">
<path fill-rule="evenodd" clip-rule="evenodd" d="M32.9905 -0.324219L30.6486 2.27679L39.5971 10.3341C38.2654 10.1148 36.8982 10.0008 35.5044 10.0008C35.254 10.0008 35.0044 10.0044 34.7557 10.0118L28.6412 4.50622L26.2992 7.10723L30.1509 10.5753C28.9921 10.8281 27.8633 11.1613 26.7707 11.5687L24.2918 9.33666L21.9499 11.9377L23.3162 13.1679C22.4086 13.6757 21.5359 14.2384 20.7026 14.8516L19.9425 14.1671L17.6005 16.7681L18.0126 17.1392C17.298 17.8391 16.6252 18.5815 15.9984 19.3624L15.5931 18.9975L13.2512 21.5986L13.9886 22.2625C13.4622 23.1496 12.9892 24.0721 12.5738 25.0256L11.2438 23.828L8.90182 26.429L11.3278 28.6134C11.0325 29.7343 10.813 30.886 10.6752 32.0627L6.89443 28.6584L4.55247 31.2594L10.5591 36.6679C10.6661 38.2924 10.9282 39.8745 11.3308 41.3996L2.54508 33.4889L0.203125 36.0899L15.208 49.6003C17.2987 52.5018 19.9963 54.9369 23.1149 56.7197L38.2104 70.3118L40.5523 67.7107L31.6639 59.7076C32.9159 59.9006 34.1984 60.0008 35.5044 60.0008C35.8221 60.0008 36.1385 59.9948 36.4533 59.9831L42.5597 65.4813L44.9017 62.8803L41.0245 59.3893C42.1767 59.1296 43.2987 58.7904 44.3845 58.3777L46.9091 60.6509L49.251 58.0499L47.8203 56.7617C48.7234 56.2494 49.5915 55.6826 50.4201 55.0656L51.2584 55.8204L53.6004 53.2194L53.0954 52.7647C53.8061 52.0609 54.4747 51.3148 55.0973 50.5304L55.6078 50.99L57.9497 48.389L57.0923 47.6169C57.6143 46.7255 58.0828 45.7988 58.4932 44.8414L59.9571 46.1595L62.2991 43.5585L59.7204 41.2367C60.0098 40.1097 60.2226 38.9519 60.3529 37.7693L64.3065 41.3291L66.6484 38.7281L60.4358 33.1342C60.3146 31.492 60.0347 29.8939 59.6115 28.3551L68.6558 36.4987L70.9978 33.8977L55.383 19.8381C53.4966 17.3687 51.1604 15.2612 48.4969 13.6378L32.9905 -0.324219ZM46.4084 16.467L52.7893 22.2124C54.3617 24.3341 55.5527 26.7555 56.261 29.3752L38.9325 13.7726C41.624 14.2038 44.1487 15.1347 46.4084 16.467ZM33.5021 13.5928C32.2237 13.7108 30.9777 13.9408 29.774 14.2728L56.7159 38.5314C56.9057 37.3827 57.0044 36.2033 57.0044 35.0008C57.0044 34.9181 57.004 34.8355 57.003 34.7531L33.5021 13.5928ZM55.7182 42.3428L26.0905 15.6659C25.1417 16.1287 24.2321 16.6593 23.3679 17.2513L54.4268 45.217C54.9244 44.2972 55.3569 43.3371 55.7182 42.3428ZM52.4903 48.183L20.6196 19.4865C19.8977 20.1792 19.2241 20.9219 18.6043 21.7088L50.4894 50.4183C51.2067 49.721 51.8755 48.9741 52.4903 48.183ZM47.7585 52.6691L16.6504 24.6592C16.1477 25.5738 15.7096 26.5288 15.3422 27.5183L45.0526 54.2696C45.9959 53.8012 46.9 53.2656 47.7585 52.6691ZM41.3932 55.6843L14.3204 31.3079C14.1127 32.5077 14.0044 33.7416 14.0044 35.0008C14.0044 35.0206 14.0045 35.0405 14.0045 35.0604L37.6941 56.3906C38.963 56.2623 40.1992 56.0236 41.3932 55.6843ZM32.3268 56.2676L14.6832 40.3811C15.3267 42.8789 16.4079 45.2009 17.84 47.2605L25.1651 53.856C27.3491 55.0562 29.7643 55.8879 32.3268 56.2676Z" fill="#FF3D00"/>
</g>
</svg>
