<svg width="45" height="45" viewBox="0 0 45 45" fill="none" xmlns="http://www.w3.org/2000/svg">
<rect x="0.225" y="0.225" width="44.55" height="44.55" rx="22.275" fill="#F5F5F5"/>
<rect x="0.225" y="0.225" width="44.55" height="44.55" rx="22.275" stroke="#D4D4D4" stroke-width="0.45"/>
<path d="M41.0978 11.8823C40.084 11.8549 39.4773 10.7998 38.465 10.7998C37.7717 10.7998 37.2859 10.8654 36.614 11.1139C35.8072 11.4123 34.9302 11.4608 34.195 11.9425C33.5968 12.3344 33.2347 12.9474 32.7984 13.4928C32.0742 14.398 31.5608 15.4259 30.934 16.3929C30.6645 16.8087 30.4544 17.2389 30.2123 17.6692C29.8839 18.253 29.5534 18.8619 29.2501 19.4601C28.3674 21.2009 27.5 22.9308 26.6506 24.6924C25.8896 26.2707 25.231 27.9022 24.1982 29.3366C23.6875 30.0459 23.4025 31.0363 23.0689 31.8358C22.6138 32.9265 22.2752 34.0621 21.9262 35.1903C21.6506 36.0814 21.4254 36.9801 21.131 37.8632C21.0038 38.2448 20.8812 38.6436 20.7101 39.0059C20.6778 39.0742 20.4594 39.4793 20.5898 39.487C20.9515 39.5083 21.106 39.1262 21.4785 39.1262C22.6038 39.1262 23.6457 39.2492 24.7595 39.3935C26.2733 39.5895 27.7776 39.7526 29.3102 39.6674C29.4418 39.6601 29.5008 39.4398 29.6109 39.4269C29.7305 39.4128 29.8712 39.3569 29.9718 39.3066" stroke="black" stroke-width="3.41706" stroke-linecap="round"/>
<path d="M16.1998 17.1147C16.4628 16.3633 16.7946 15.9639 17.2991 15.3873C17.4904 15.1687 17.7683 15.0827 18.0007 14.9229C18.5097 14.573 19.0726 14.4961 19.6245 14.2547C20.21 13.9985 20.8668 14.0065 21.4922 13.9139C22.1191 13.821 22.7849 13.7042 23.4167 13.6867C24.3056 13.662 25.4116 13.5119 26.2133 13.9573C26.5384 14.1379 26.8218 14.3622 27.1455 14.542C27.4169 14.6928 27.5903 14.9916 27.8672 15.13" stroke="black" stroke-width="3.41706" stroke-linecap="round"/>
<path d="M23.7171 20.7832C25.2789 20.7832 26.8598 20.8433 28.4081 20.8433" stroke="black" stroke-width="3.41706" stroke-linecap="round"/>
<path d="M35.4448 20.9636C36.3255 20.9636 37.2116 20.9174 38.0843 21.0538C38.2339 21.0772 38.7374 21.0597 38.8594 21.1574C38.9268 21.2113 39.8981 21.4237 39.6546 21.5048" stroke="black" stroke-width="3.41706" stroke-linecap="round"/>
</svg>
