<svg width="45" height="45" viewBox="0 0 45 45" fill="none" xmlns="http://www.w3.org/2000/svg">
<rect x="0.225" y="0.225" width="44.55" height="44.55" rx="22.275" fill="#191919"/>
<rect x="0.225" y="0.225" width="44.55" height="44.55" rx="22.275" stroke="#D4D4D4" stroke-width="0.45"/>
<path d="M41.0978 11.8823C40.0839 11.8549 39.4773 10.7998 38.4649 10.7998C37.7716 10.7998 37.2858 10.8654 36.6139 11.1139C35.8071 11.4123 34.9302 11.4608 34.1949 11.9425C33.5967 12.3344 33.2346 12.9474 32.7983 13.4928C32.0741 14.398 31.5607 15.4259 30.934 16.3929C30.6644 16.8087 30.4543 17.2389 30.2123 17.6692C29.8839 18.253 29.5533 18.8619 29.25 19.4601C28.3673 21.2009 27.4999 22.9308 26.6506 24.6924C25.8896 26.2707 25.2309 27.9022 24.1982 29.3366C23.6874 30.0459 23.4024 31.0363 23.0689 31.8358C22.6138 32.9265 22.2752 34.0621 21.9262 35.1903C21.6505 36.0814 21.4254 36.9801 21.131 37.8632C21.0038 38.2448 20.8811 38.6436 20.71 39.0059C20.6778 39.0742 20.4593 39.4793 20.5897 39.487C20.9515 39.5083 21.1059 39.1262 21.4785 39.1262C22.6038 39.1262 23.6457 39.2492 24.7595 39.3935C26.2732 39.5895 27.7776 39.7526 29.3101 39.6674C29.4418 39.6601 29.5007 39.4398 29.6109 39.4269C29.7305 39.4128 29.8711 39.3569 29.9717 39.3066" stroke="white" stroke-width="3.41706" stroke-linecap="round"/>
<path d="M16.1997 17.1147C16.4627 16.3633 16.7945 15.9639 17.2989 15.3873C17.4903 15.1687 17.7682 15.0827 18.0006 14.9229C18.5096 14.573 19.0725 14.4961 19.6244 14.2547C20.2098 13.9985 20.8667 14.0065 21.4921 13.9139C22.119 13.821 22.7848 13.7042 23.4166 13.6867C24.3055 13.662 25.4115 13.5119 26.2132 13.9573C26.5383 14.1379 26.8217 14.3622 27.1454 14.542C27.4168 14.6928 27.5902 14.9916 27.867 15.13" stroke="white" stroke-width="3.41706" stroke-linecap="round"/>
<path d="M23.717 20.7832C25.2788 20.7832 26.8598 20.8433 28.408 20.8433" stroke="white" stroke-width="3.41706" stroke-linecap="round"/>
<path d="M35.4448 20.9636C36.3255 20.9636 37.2116 20.9174 38.0843 21.0538C38.234 21.0772 38.7375 21.0597 38.8595 21.1574C38.9269 21.2113 39.8982 21.4237 39.6547 21.5048" stroke="white" stroke-width="3.41706" stroke-linecap="round"/>
</svg>
