<svg width="55" height="55" viewBox="0 0 55 55" fill="none" xmlns="http://www.w3.org/2000/svg">
<path d="M20.6733 10.9895C21.4982 8.90292 23.4735 7.43359 25.7792 7.43359C28.8264 7.43359 31.2967 10.0002 31.2967 13.1662C31.2967 16.3322 28.8264 18.8988 25.7792 18.8988H5.5M32.1385 44.0059C32.9634 46.0925 34.9387 47.5618 37.2444 47.5618C40.2917 47.5618 42.7619 44.9953 42.7619 41.8292C42.7619 38.6632 40.2917 36.0966 37.2444 36.0966H16.9652M38.4625 19.5884C39.3196 17.5018 41.3719 16.0325 43.7674 16.0325C46.9334 16.0325 49.5 18.5991 49.5 21.7651C49.5 24.9311 46.9334 27.4977 43.7674 27.4977H11.2326" stroke="white" stroke-width="4.58333" stroke-linecap="round" stroke-linejoin="round"/>
</svg>
